G04 ================== begin FILE IDENTIFICATION RECORD ==================*
G04 Layout Name:  C:/tmp/20_051837b/worklib/02_051837b_top/physical/08_051837b.brd*
G04 Film Name:    assy1*
G04 File Format:  Gerber RS274X*
G04 File Origin:  Cadence Allegro 17.2-S033*
G04 Origin Date:  Fri Mar 15 19:56:20 2019*
G04 *
G04 Layer:  DRAWING FORMAT/OUTLINE*
G04 Layer:  REF DES/ASSEMBLY_TOP*
G04 Layer:  DRAWING FORMAT/ASSY_D*
G04 Layer:  MANUFACTURING/ASSY_DETAIL_TOP*
G04 Layer:  PACKAGE GEOMETRY/ASSEMBLY_TOP*
G04 Layer:  BOARD GEOMETRY/ASSEMBLY_TOP*
G04 Layer:  BOARD GEOMETRY/OUTLINE*
G04 Layer:  BOARD GEOMETRY/ASSEMBLY_NOTES*
G04 Layer:  BOARD GEOMETRY/ASSEMBLY_DETAIL*
G04 *
G04 Offset:    (0.00 0.00)*
G04 Mirror:    No*
G04 Mode:      Positive*
G04 Rotation:  0*
G04 FullContactRelief:  No*
G04 UndefLineWidth:     8.00*
G04 ================== end FILE IDENTIFICATION RECORD ====================*
%FSLAX25Y25*MOIN*%
%IR0*IPPOS*OFA0.00000B0.00000*MIA0B0*SFA1.00000B1.00000*%
%ADD10C,.008*%
%ADD11C,.006*%
G75*
%LPD*%
G75*
G36*
G01X37777Y18070D02*
G02I-1500J0D01*
G37*
G36*
G01X15579Y56731D02*
G03I-1500J0D01*
G37*
G36*
G01X731500Y-241714D02*
X781528D01*
Y-191686D01*
X731500D01*
Y-241714D01*
G37*
G36*
G01X800099Y-219353D02*
G02Y-241714I-2326J-11180D01*
G01X790245D01*
Y-219353D01*
X800099D01*
G37*
G36*
G01X810711D02*
Y-241714D01*
X827387D01*
Y-238682D01*
X814880D01*
Y-232050D01*
X826250D01*
Y-229018D01*
X814880D01*
Y-222385D01*
X827387D01*
Y-219353D01*
X810711D01*
G37*
G36*
G01X794414Y-214047D02*
X795917Y-209499D01*
X803521D01*
X805026Y-214047D01*
X809195D01*
X801804Y-191686D01*
X797635D01*
X790245Y-214047D01*
X794414D01*
G37*
G36*
G01X811469D02*
X815638D01*
Y-198266D01*
X825636Y-214047D01*
X829805D01*
Y-191686D01*
X825636D01*
Y-207468D01*
X815638Y-191686D01*
X811469D01*
Y-214047D01*
G37*
G36*
G01X828524Y-219353D02*
Y-221248D01*
X835535Y-241714D01*
X839704D01*
X846716Y-221248D01*
Y-219353D01*
X842547D01*
X837620Y-233733D01*
X832693Y-219353D01*
X828524D01*
G37*
G36*
G01X836248Y-214047D02*
X837751Y-209499D01*
X845355D01*
X846860Y-214047D01*
X851029D01*
X843638Y-191686D01*
X839469D01*
X832079Y-214047D01*
X836248D01*
G37*
G36*
G01X870369Y-226039D02*
X874910D01*
G03X856380Y-228828I-9055J-2789D01*
G01Y-232239D01*
G03X874910Y-235029I9475J0D01*
G01X870368D01*
G02X860549Y-232240I-4513J2790D01*
G01Y-228826D01*
G02X870369Y-226039I5306J-2D01*
G37*
G36*
G01X876202Y-219353D02*
Y-241714D01*
X892499D01*
Y-238682D01*
X880371D01*
Y-232050D01*
X891362D01*
Y-229018D01*
X880371D01*
Y-222385D01*
X892499D01*
Y-219353D01*
X876202D01*
G37*
G36*
G01X868732Y-204572D02*
G03X887682I9475J0D01*
G01Y-201161D01*
G03X868732I-9475J0D01*
G01Y-204572D01*
G37*
G36*
G01X853303Y-191686D02*
Y-214047D01*
X868463D01*
Y-209878D01*
X857472D01*
Y-191686D01*
X853303D01*
G37*
G36*
G01X906359Y-225903D02*
X910403D01*
G03X892960Y-227001I-8607J-2361D01*
G03X897437Y-231860I5048J159D01*
G01X904896Y-232691D01*
G02X906248Y-235347I-355J-1853D01*
G02X897233Y-235150I-4454J2566D01*
G01X893189D01*
G03X910631Y-234052I8607J2361D01*
G03X906154Y-229192I-5047J-157D01*
G01X898696Y-228362D01*
G02X897344Y-225706I356J1853D01*
G02X906359Y-225903I4454J-2565D01*
G37*
G36*
G01X904208Y-199906D02*
G03X893746Y-201156I-5156J-1255D01*
G01Y-204572D01*
G03X904358Y-206088I5414J-2D01*
G01Y-205709D01*
X899810D01*
Y-202677D01*
X908527D01*
Y-214047D01*
X904358D01*
Y-212422D01*
G02X889577Y-204572I-5306J7850D01*
G01Y-201161D01*
G02X908444Y-199907I9475J0D01*
G01X904208D01*
Y-199906D01*
G37*
%LPC*%
G75*
G36*
G01X772053Y-216700D02*
X740975Y-198887D01*
Y-234513D01*
X772053Y-216700D01*
G37*
G36*
G01X799196Y-223143D02*
G02Y-237924I-1295J-7390D01*
G01X794414D01*
Y-223143D01*
X799196D01*
G37*
G36*
G01X799720Y-197993D02*
X802183Y-205448D01*
Y-206846D01*
X797256D01*
Y-205448D01*
X799720Y-197993D01*
G37*
G36*
G01X841554D02*
X844017Y-205448D01*
Y-206846D01*
X839090D01*
Y-205448D01*
X841554Y-197993D01*
G37*
G36*
G01X872901Y-204573D02*
G03X883513Y-204572I5306J1D01*
G01Y-201161D01*
G03X872901I-5306J0D01*
G01Y-204573D01*
G37*
%LPD*%
G75*
G36*
G01X848800Y-241714D02*
Y-219353D01*
X852969D01*
Y-241714D01*
X848800D01*
G37*
G54D10*
G01X-959875Y-329000D02*
X-952000Y-304000D01*
X-944125Y-329000D01*
G01X-946960Y-320250D02*
X-957040D01*
G01X-932000Y-104000D02*
X-962000D01*
G01X-949480Y109334D02*
X-948220Y110583D01*
X-947275Y112666D01*
X-946645Y115584D01*
X-947275Y118083D01*
X-948535Y119750D01*
X-950740Y121000D01*
X-959245D01*
Y96000D01*
X-948850D01*
X-946645Y97666D01*
X-945385Y100167D01*
X-944755Y103083D01*
X-945385Y105999D01*
X-947275Y108500D01*
X-949480Y109334D01*
X-959245D01*
G01X-969000Y320500D02*
Y321500D01*
X-949000D01*
Y327500D01*
X-936500Y321000D01*
X-949000Y314500D01*
Y320500D01*
X-969000D01*
G01X-970000Y319500D02*
Y322500D01*
X-950000D01*
Y329000D01*
X-935000Y321000D01*
X-950000Y313000D01*
Y319500D01*
X-970000D01*
G01X-971000Y318500D02*
Y323500D01*
X-951000D01*
Y330500D01*
X-933500Y321000D01*
X-951000Y311500D01*
Y318500D01*
X-971000D01*
G01X-972000Y317500D02*
Y324500D01*
X-952000D01*
Y332000D01*
X-932000Y321000D01*
X-952000Y310000D01*
Y317500D01*
X-972000D01*
G01X-945070Y543916D02*
X-946960Y545167D01*
X-949165Y546000D01*
X-951685D01*
X-954520Y544750D01*
X-956725Y542667D01*
X-958300Y540166D01*
X-959560Y536000D01*
X-959875Y532250D01*
X-959245Y528500D01*
X-958300Y526000D01*
X-956410Y523499D01*
X-954205Y521833D01*
X-952000Y521000D01*
X-949795D01*
X-947590Y521833D01*
X-945700Y523083D01*
X-944125Y524749D01*
G01X-962000Y746000D02*
X-932000D01*
G01X-958930Y946000D02*
Y971000D01*
X-952630D01*
X-950110Y969750D01*
X-948220Y968083D01*
X-946645Y965584D01*
X-945385Y962666D01*
X-945070Y958500D01*
X-945385Y954333D01*
X-946645Y951416D01*
X-948220Y948916D01*
X-950110Y947250D01*
X-952630Y946000D01*
X-958930D01*
G01X-932000Y1121000D02*
Y-479000D01*
X323000D01*
G01X-944500Y321000D02*
X-943500D01*
G01X-945000Y320000D02*
Y322000D01*
X-942500Y321000D01*
X-945000Y320000D01*
G01X-946000Y319000D02*
Y323000D01*
X-941000Y321000D01*
X-946000Y319000D01*
G01X-947000Y317500D02*
Y324500D01*
X-939500Y321000D01*
X-947000Y317500D01*
G01X-948000Y316000D02*
Y326000D01*
X-938000Y321000D01*
X-948000Y316000D01*
G01X323000Y1121000D02*
X-932000D01*
G01X-703220Y-514000D02*
Y-489000D01*
X-714875Y-506917D01*
X-699125D01*
G01X-703220Y1131000D02*
Y1156000D01*
X-714875Y1138083D01*
X-699125D01*
G01X-486500Y-446917D02*
X-488000Y-445917D01*
X-489750Y-445250D01*
X-491750D01*
X-494000Y-446250D01*
X-495750Y-447917D01*
X-497000Y-449917D01*
X-498000Y-453250D01*
X-498250Y-456250D01*
X-497750Y-459250D01*
X-497000Y-461250D01*
X-495500Y-463250D01*
X-493750Y-464583D01*
X-492000Y-465250D01*
X-490250D01*
X-488500Y-464583D01*
X-487000Y-463584D01*
X-485750Y-462251D01*
G01X-477500Y-445250D02*
Y-459583D01*
X-476500Y-462584D01*
X-474500Y-464583D01*
X-472000Y-465250D01*
X-469500Y-464583D01*
X-467500Y-462584D01*
X-466500Y-459583D01*
Y-445250D01*
G01X-457250Y-462584D02*
X-455250Y-464250D01*
X-453000Y-465250D01*
X-451000D01*
X-449000Y-464250D01*
X-447500Y-462584D01*
X-446750Y-460250D01*
X-447250Y-457917D01*
X-448500Y-455917D01*
X-450750Y-454583D01*
X-453750Y-453917D01*
X-455500Y-452584D01*
X-456250Y-450250D01*
X-455750Y-447917D01*
X-454500Y-446250D01*
X-452750Y-445250D01*
X-451000D01*
X-449250Y-445917D01*
X-447750Y-447583D01*
G01X-432000Y-445250D02*
Y-465250D01*
G01X-437750Y-445250D02*
X-426250D01*
G01X-412000Y-465250D02*
X-414000Y-464917D01*
X-415750Y-463584D01*
X-417250Y-461584D01*
X-418250Y-459250D01*
X-418750Y-456583D01*
Y-453917D01*
X-418250Y-451250D01*
X-417250Y-448916D01*
X-415750Y-446917D01*
X-414000Y-445583D01*
X-412000Y-445250D01*
X-410000Y-445583D01*
X-408250Y-446917D01*
X-406750Y-448916D01*
X-405750Y-451250D01*
X-405250Y-453917D01*
Y-456583D01*
X-405750Y-459250D01*
X-406750Y-461584D01*
X-408250Y-463584D01*
X-410000Y-464917D01*
X-412000Y-465250D01*
G01X-398500D02*
Y-445250D01*
X-392000Y-461917D01*
X-385500Y-445250D01*
Y-465250D01*
G01X-367000D02*
X-377000D01*
Y-445250D01*
X-367000D01*
G01X-371000Y-454916D02*
X-377000D01*
G01X-357000Y-465250D02*
Y-445250D01*
X-350750D01*
X-348750Y-446250D01*
X-347500Y-447583D01*
X-347000Y-450250D01*
X-347500Y-452917D01*
X-349000Y-454583D01*
X-350750Y-455584D01*
X-357000D01*
G01X-350750D02*
X-347000Y-465250D01*
G01X-307000D02*
X-317000D01*
Y-445250D01*
X-307000D01*
G01X-311000Y-454916D02*
X-317000D01*
G01X-298250Y-445250D02*
X-292000Y-465250D01*
X-285750Y-445250D01*
G01X-278250Y-465250D02*
X-272000Y-445250D01*
X-265750Y-465250D01*
G01X-268000Y-458250D02*
X-276000D01*
G01X-257000Y-445250D02*
Y-465250D01*
X-247000D01*
G01X-237500Y-445250D02*
Y-459583D01*
X-236500Y-462584D01*
X-234500Y-464583D01*
X-232000Y-465250D01*
X-229500Y-464583D01*
X-227500Y-462584D01*
X-226500Y-459583D01*
Y-445250D01*
G01X-218250Y-465250D02*
X-212000Y-445250D01*
X-205750Y-465250D01*
G01X-208000Y-458250D02*
X-216000D01*
G01X-192000Y-445250D02*
Y-465250D01*
G01X-197750Y-445250D02*
X-186250D01*
G01X-175000D02*
X-169000D01*
G01X-172000D02*
Y-465250D01*
G01X-175000D02*
X-169000D01*
G01X-152000D02*
X-154000Y-464917D01*
X-155750Y-463584D01*
X-157250Y-461584D01*
X-158250Y-459250D01*
X-158750Y-456583D01*
Y-453917D01*
X-158250Y-451250D01*
X-157250Y-448916D01*
X-155750Y-446917D01*
X-154000Y-445583D01*
X-152000Y-445250D01*
X-150000Y-445583D01*
X-148250Y-446917D01*
X-146750Y-448916D01*
X-145750Y-451250D01*
X-145250Y-453917D01*
Y-456583D01*
X-145750Y-459250D01*
X-146750Y-461584D01*
X-148250Y-463584D01*
X-150000Y-464917D01*
X-152000Y-465250D01*
G01X-137750D02*
Y-445250D01*
X-126250Y-465250D01*
Y-445250D01*
G01X-96750D02*
X-87250D01*
X-96750Y-465250D01*
X-87250D01*
G01X-432000Y-479000D02*
Y-509000D01*
G01Y1121000D02*
Y1151000D01*
G01X-163930Y-509000D02*
X-162040Y-511917D01*
X-159520Y-513583D01*
X-156685Y-514000D01*
X-154165Y-513583D01*
X-151645Y-511501D01*
X-150070Y-509000D01*
X-149755Y-506500D01*
X-150385Y-503584D01*
X-152590Y-501500D01*
X-154795Y-500666D01*
X-157630D01*
G01X-154795D02*
X-152905Y-499417D01*
X-151330Y-497334D01*
X-150700Y-494834D01*
X-151330Y-492333D01*
X-152905Y-490250D01*
X-155740Y-489000D01*
X-158575Y-489417D01*
X-161410Y-491084D01*
G01X-158350Y270810D02*
Y283310D01*
X-164085Y274352D01*
X-156335D01*
G01X-147810Y270393D02*
X-148120Y270602D01*
Y271018D01*
X-147810Y271227D01*
X-147500Y271018D01*
Y270602D01*
X-147810Y270393D01*
G01X-88910Y270810D02*
Y283310D01*
X-85035D01*
X-83795Y282685D01*
X-83020Y281852D01*
X-82710Y280185D01*
X-83020Y278518D01*
X-83950Y277477D01*
X-85035Y276852D01*
X-88910D01*
G01X-85035D02*
X-82710Y270810D01*
G01X-73410D02*
X-74340Y271018D01*
X-75270Y271851D01*
X-75890Y273310D01*
X-76200Y274977D01*
X-75890Y276643D01*
X-75270Y278102D01*
X-74340Y278935D01*
X-73410Y279143D01*
X-72480Y278935D01*
X-71550Y278102D01*
X-70930Y276643D01*
X-70775Y274977D01*
X-70930Y273310D01*
X-71550Y271851D01*
X-72480Y271018D01*
X-73410Y270810D01*
G01X-64265D02*
Y283310D01*
G01X-57755D02*
Y270810D01*
G01Y277060D02*
X-64265D01*
G01X-51865Y272476D02*
X-50625Y271435D01*
X-49230Y270810D01*
X-47990D01*
X-46750Y271435D01*
X-45820Y272476D01*
X-45355Y273935D01*
X-45665Y275393D01*
X-46440Y276643D01*
X-47835Y277477D01*
X-49695Y277893D01*
X-50780Y278727D01*
X-51245Y280185D01*
X-50935Y281643D01*
X-50160Y282685D01*
X-49075Y283310D01*
X-47990D01*
X-46905Y282893D01*
X-45975Y281852D01*
G01X-20400Y282268D02*
X-21330Y282893D01*
X-22415Y283310D01*
X-23655D01*
X-25050Y282685D01*
X-26135Y281643D01*
X-26910Y280393D01*
X-27530Y278310D01*
X-27685Y276435D01*
X-27375Y274560D01*
X-26910Y273310D01*
X-25980Y272060D01*
X-24895Y271227D01*
X-23810Y270810D01*
X-22725D01*
X-21640Y271227D01*
X-20710Y271851D01*
X-19935Y272685D01*
G01X-11410Y270810D02*
X-12650Y271018D01*
X-13735Y271851D01*
X-14665Y273102D01*
X-15285Y274560D01*
X-15595Y276227D01*
Y277893D01*
X-15285Y279560D01*
X-14665Y281018D01*
X-13735Y282268D01*
X-12650Y283102D01*
X-11410Y283310D01*
X-10170Y283102D01*
X-9085Y282268D01*
X-8155Y281018D01*
X-7535Y279560D01*
X-7225Y277893D01*
Y276227D01*
X-7535Y274560D01*
X-8155Y273102D01*
X-9085Y271851D01*
X-10170Y271018D01*
X-11410Y270810D01*
G01X-3040D02*
Y283310D01*
X990Y272893D01*
X5020Y283310D01*
Y270810D01*
G01X10290D02*
Y283310D01*
X14010D01*
X15250Y282685D01*
X16180Y281227D01*
X16490Y279560D01*
X16180Y277893D01*
X15405Y276643D01*
X14010Y276018D01*
X10290D01*
G01X22690Y283310D02*
Y270810D01*
X28890D01*
G01X36330Y283310D02*
X40050D01*
G01X38190D02*
Y270810D01*
G01X36330D02*
X40050D01*
G01X46715D02*
X50590Y283310D01*
X54465Y270810D01*
G01X53070Y275185D02*
X48110D01*
G01X59425Y270810D02*
Y283310D01*
X66555Y270810D01*
Y283310D01*
G01X78800Y282268D02*
X77870Y282893D01*
X76785Y283310D01*
X75545D01*
X74150Y282685D01*
X73065Y281643D01*
X72290Y280393D01*
X71670Y278310D01*
X71515Y276435D01*
X71825Y274560D01*
X72290Y273310D01*
X73220Y272060D01*
X74305Y271227D01*
X75390Y270810D01*
X76475D01*
X77560Y271227D01*
X78490Y271851D01*
X79265Y272685D01*
G01X90890Y270810D02*
X84690D01*
Y283310D01*
X90890D01*
G01X88410Y277268D02*
X84690D01*
G01X100190Y270393D02*
X99880Y270602D01*
Y271018D01*
X100190Y271227D01*
X100500Y271018D01*
Y270602D01*
X100190Y270393D01*
G01Y276018D02*
X99880Y276227D01*
Y276643D01*
X100190Y276852D01*
X100500Y276643D01*
Y276227D01*
X100190Y276018D01*
G01X121115Y270810D02*
X124990Y283310D01*
X128865Y270810D01*
G01X127470Y275185D02*
X122510D01*
G01X134135Y272476D02*
X135375Y271435D01*
X136770Y270810D01*
X138010D01*
X139250Y271435D01*
X140180Y272476D01*
X140645Y273935D01*
X140335Y275393D01*
X139560Y276643D01*
X138165Y277477D01*
X136305Y277893D01*
X135220Y278727D01*
X134755Y280185D01*
X135065Y281643D01*
X135840Y282685D01*
X136925Y283310D01*
X138010D01*
X139095Y282893D01*
X140025Y281852D01*
G01X146535Y272476D02*
X147775Y271435D01*
X149170Y270810D01*
X150410D01*
X151650Y271435D01*
X152580Y272476D01*
X153045Y273935D01*
X152735Y275393D01*
X151960Y276643D01*
X150565Y277477D01*
X148705Y277893D01*
X147620Y278727D01*
X147155Y280185D01*
X147465Y281643D01*
X148240Y282685D01*
X149325Y283310D01*
X150410D01*
X151495Y282893D01*
X152425Y281852D01*
G01X165290Y270810D02*
X159090D01*
Y283310D01*
X165290D01*
G01X162810Y277268D02*
X159090D01*
G01X170560Y270810D02*
Y283310D01*
X174590Y272893D01*
X178620Y283310D01*
Y270810D01*
G01X188230Y277477D02*
X188850Y278102D01*
X189315Y279143D01*
X189625Y280602D01*
X189315Y281852D01*
X188695Y282685D01*
X187610Y283310D01*
X183425D01*
Y270810D01*
X188540D01*
X189625Y271643D01*
X190245Y272893D01*
X190555Y274352D01*
X190245Y275810D01*
X189315Y277060D01*
X188230Y277477D01*
X183425D01*
G01X196290Y283310D02*
Y270810D01*
X202490D01*
G01X211790D02*
Y276435D01*
X208690Y283310D01*
G01X214890D02*
X211790Y276435D01*
G01X232715Y283310D02*
X236590Y270810D01*
X240465Y283310D01*
G01X252090Y270810D02*
X245890D01*
Y283310D01*
X252090D01*
G01X249610Y277268D02*
X245890D01*
G01X257825Y270810D02*
Y283310D01*
X264955Y270810D01*
Y283310D01*
G01X270380Y270810D02*
Y283310D01*
X273480D01*
X274720Y282685D01*
X275650Y281852D01*
X276425Y280602D01*
X277045Y279143D01*
X277200Y277060D01*
X277045Y274977D01*
X276425Y273518D01*
X275650Y272268D01*
X274720Y271435D01*
X273480Y270810D01*
X270380D01*
G01X286190D02*
X284950Y271018D01*
X283865Y271851D01*
X282935Y273102D01*
X282315Y274560D01*
X282005Y276227D01*
Y277893D01*
X282315Y279560D01*
X282935Y281018D01*
X283865Y282268D01*
X284950Y283102D01*
X286190Y283310D01*
X287430Y283102D01*
X288515Y282268D01*
X289445Y281018D01*
X290065Y279560D01*
X290375Y277893D01*
Y276227D01*
X290065Y274560D01*
X289445Y273102D01*
X288515Y271851D01*
X287430Y271018D01*
X286190Y270810D01*
G01X295490D02*
Y283310D01*
X299365D01*
X300605Y282685D01*
X301380Y281852D01*
X301690Y280185D01*
X301380Y278518D01*
X300450Y277477D01*
X299365Y276852D01*
X295490D01*
G01X299365D02*
X301690Y270810D01*
G01X320135Y272476D02*
X321375Y271435D01*
X322770Y270810D01*
X324010D01*
X325250Y271435D01*
X326180Y272476D01*
X326645Y273935D01*
X326335Y275393D01*
X325560Y276643D01*
X324165Y277477D01*
X322305Y277893D01*
X321220Y278727D01*
X320755Y280185D01*
X321065Y281643D01*
X321840Y282685D01*
X322925Y283310D01*
X324010D01*
X325095Y282893D01*
X326025Y281852D01*
G01X332535Y270810D02*
Y283310D01*
G01X339045D02*
Y270810D01*
G01Y277060D02*
X332535D01*
G01X348190Y270810D02*
X346950Y271018D01*
X345865Y271851D01*
X344935Y273102D01*
X344315Y274560D01*
X344005Y276227D01*
Y277893D01*
X344315Y279560D01*
X344935Y281018D01*
X345865Y282268D01*
X346950Y283102D01*
X348190Y283310D01*
X349430Y283102D01*
X350515Y282268D01*
X351445Y281018D01*
X352065Y279560D01*
X352375Y277893D01*
Y276227D01*
X352065Y274560D01*
X351445Y273102D01*
X350515Y271851D01*
X349430Y271018D01*
X348190Y270810D01*
G01X357180Y283310D02*
Y274352D01*
X357800Y272476D01*
X359040Y271227D01*
X360590Y270810D01*
X362140Y271227D01*
X363380Y272476D01*
X364000Y274352D01*
Y283310D01*
G01X369890D02*
Y270810D01*
X376090D01*
G01X381980D02*
Y283310D01*
X385080D01*
X386320Y282685D01*
X387250Y281852D01*
X388025Y280602D01*
X388645Y279143D01*
X388800Y277060D01*
X388645Y274977D01*
X388025Y273518D01*
X387250Y272268D01*
X386320Y271435D01*
X385080Y270810D01*
X381980D01*
G01X406315D02*
X410190Y283310D01*
X414065Y270810D01*
G01X412670Y275185D02*
X407710D01*
G01X419335Y272476D02*
X420575Y271435D01*
X421970Y270810D01*
X423210D01*
X424450Y271435D01*
X425380Y272476D01*
X425845Y273935D01*
X425535Y275393D01*
X424760Y276643D01*
X423365Y277477D01*
X421505Y277893D01*
X420420Y278727D01*
X419955Y280185D01*
X420265Y281643D01*
X421040Y282685D01*
X422125Y283310D01*
X423210D01*
X424295Y282893D01*
X425225Y281852D01*
G01X431735Y272476D02*
X432975Y271435D01*
X434370Y270810D01*
X435610D01*
X436850Y271435D01*
X437780Y272476D01*
X438245Y273935D01*
X437935Y275393D01*
X437160Y276643D01*
X435765Y277477D01*
X433905Y277893D01*
X432820Y278727D01*
X432355Y280185D01*
X432665Y281643D01*
X433440Y282685D01*
X434525Y283310D01*
X435610D01*
X436695Y282893D01*
X437625Y281852D01*
G01X443980Y283310D02*
Y274352D01*
X444600Y272476D01*
X445840Y271227D01*
X447390Y270810D01*
X448940Y271227D01*
X450180Y272476D01*
X450800Y274352D01*
Y283310D01*
G01X456690Y270810D02*
Y283310D01*
X460565D01*
X461805Y282685D01*
X462580Y281852D01*
X462890Y280185D01*
X462580Y278518D01*
X461650Y277477D01*
X460565Y276852D01*
X456690D01*
G01X460565D02*
X462890Y270810D01*
G01X475290D02*
X469090D01*
Y283310D01*
X475290D01*
G01X472810Y277268D02*
X469090D01*
G01X500400Y282268D02*
X499470Y282893D01*
X498385Y283310D01*
X497145D01*
X495750Y282685D01*
X494665Y281643D01*
X493890Y280393D01*
X493270Y278310D01*
X493115Y276435D01*
X493425Y274560D01*
X493890Y273310D01*
X494820Y272060D01*
X495905Y271227D01*
X496990Y270810D01*
X498075D01*
X499160Y271227D01*
X500090Y271851D01*
X500865Y272685D01*
G01X509390Y270810D02*
X508150Y271018D01*
X507065Y271851D01*
X506135Y273102D01*
X505515Y274560D01*
X505205Y276227D01*
Y277893D01*
X505515Y279560D01*
X506135Y281018D01*
X507065Y282268D01*
X508150Y283102D01*
X509390Y283310D01*
X510630Y283102D01*
X511715Y282268D01*
X512645Y281018D01*
X513265Y279560D01*
X513575Y277893D01*
Y276227D01*
X513265Y274560D01*
X512645Y273102D01*
X511715Y271851D01*
X510630Y271018D01*
X509390Y270810D01*
G01X517760D02*
Y283310D01*
X521790Y272893D01*
X525820Y283310D01*
Y270810D01*
G01X531090D02*
Y283310D01*
X534810D01*
X536050Y282685D01*
X536980Y281227D01*
X537290Y279560D01*
X536980Y277893D01*
X536205Y276643D01*
X534810Y276018D01*
X531090D01*
G01X543490Y283310D02*
Y270810D01*
X549690D01*
G01X557130Y283310D02*
X560850D01*
G01X558990D02*
Y270810D01*
G01X557130D02*
X560850D01*
G01X567515D02*
X571390Y283310D01*
X575265Y270810D01*
G01X573870Y275185D02*
X568910D01*
G01X580225Y270810D02*
Y283310D01*
X587355Y270810D01*
Y283310D01*
G01X599600Y282268D02*
X598670Y282893D01*
X597585Y283310D01*
X596345D01*
X594950Y282685D01*
X593865Y281643D01*
X593090Y280393D01*
X592470Y278310D01*
X592315Y276435D01*
X592625Y274560D01*
X593090Y273310D01*
X594020Y272060D01*
X595105Y271227D01*
X596190Y270810D01*
X597275D01*
X598360Y271227D01*
X599290Y271851D01*
X600065Y272685D01*
G01X611690Y270810D02*
X605490D01*
Y283310D01*
X611690D01*
G01X609210Y277268D02*
X605490D01*
G01X-87845Y324516D02*
X-86605Y323475D01*
X-85210Y322850D01*
X-83970D01*
X-82730Y323475D01*
X-81800Y324516D01*
X-81335Y325975D01*
X-81645Y327433D01*
X-82420Y328683D01*
X-83815Y329517D01*
X-85675Y329933D01*
X-86760Y330767D01*
X-87225Y332225D01*
X-86915Y333683D01*
X-86140Y334725D01*
X-85055Y335350D01*
X-83970D01*
X-82885Y334933D01*
X-81955Y333892D01*
G01X-74050Y335350D02*
X-70330D01*
G01X-72190D02*
Y322850D01*
G01X-74050D02*
X-70330D01*
G01X-63200D02*
Y335350D01*
X-60100D01*
X-58860Y334725D01*
X-57930Y333892D01*
X-57155Y332642D01*
X-56535Y331183D01*
X-56380Y329100D01*
X-56535Y327017D01*
X-57155Y325558D01*
X-57930Y324308D01*
X-58860Y323475D01*
X-60100Y322850D01*
X-63200D01*
G01X-44290D02*
X-50490D01*
Y335350D01*
X-44290D01*
G01X-46770Y329308D02*
X-50490D01*
G01X-22590Y322850D02*
X-23830Y323058D01*
X-24915Y323891D01*
X-25845Y325142D01*
X-26465Y326600D01*
X-26775Y328267D01*
Y329933D01*
X-26465Y331600D01*
X-25845Y333058D01*
X-24915Y334308D01*
X-23830Y335142D01*
X-22590Y335350D01*
X-21350Y335142D01*
X-20265Y334308D01*
X-19335Y333058D01*
X-18715Y331600D01*
X-18405Y329933D01*
Y328267D01*
X-18715Y326600D01*
X-19335Y325142D01*
X-20265Y323891D01*
X-21350Y323058D01*
X-22590Y322850D01*
G01X-13135D02*
Y335350D01*
X-7245D01*
G01X-9415Y329308D02*
X-13135D01*
G01X14610Y335350D02*
Y322850D01*
G01X11045Y335350D02*
X18175D01*
G01X23755Y322850D02*
Y335350D01*
G01X30265D02*
Y322850D01*
G01Y329100D02*
X23755D01*
G01X42510Y322850D02*
X36310D01*
Y335350D01*
X42510D01*
G01X40030Y329308D02*
X36310D01*
G01X65450Y329517D02*
X66070Y330142D01*
X66535Y331183D01*
X66845Y332642D01*
X66535Y333892D01*
X65915Y334725D01*
X64830Y335350D01*
X60645D01*
Y322850D01*
X65760D01*
X66845Y323683D01*
X67465Y324933D01*
X67775Y326392D01*
X67465Y327850D01*
X66535Y329100D01*
X65450Y329517D01*
X60645D01*
G01X76610Y322850D02*
X75370Y323058D01*
X74285Y323891D01*
X73355Y325142D01*
X72735Y326600D01*
X72425Y328267D01*
Y329933D01*
X72735Y331600D01*
X73355Y333058D01*
X74285Y334308D01*
X75370Y335142D01*
X76610Y335350D01*
X77850Y335142D01*
X78935Y334308D01*
X79865Y333058D01*
X80485Y331600D01*
X80795Y329933D01*
Y328267D01*
X80485Y326600D01*
X79865Y325142D01*
X78935Y323891D01*
X77850Y323058D01*
X76610Y322850D01*
G01X85135D02*
X89010Y335350D01*
X92885Y322850D01*
G01X91490Y327225D02*
X86530D01*
G01X98310Y322850D02*
Y335350D01*
X102185D01*
X103425Y334725D01*
X104200Y333892D01*
X104510Y332225D01*
X104200Y330558D01*
X103270Y329517D01*
X102185Y328892D01*
X98310D01*
G01X102185D02*
X104510Y322850D01*
G01X110400D02*
Y335350D01*
X113500D01*
X114740Y334725D01*
X115670Y333892D01*
X116445Y332642D01*
X117065Y331183D01*
X117220Y329100D01*
X117065Y327017D01*
X116445Y325558D01*
X115670Y324308D01*
X114740Y323475D01*
X113500Y322850D01*
X110400D01*
G01X126210Y322433D02*
X125900Y322642D01*
Y323058D01*
X126210Y323267D01*
X126520Y323058D01*
Y322642D01*
X126210Y322433D01*
G01X-160610Y353100D02*
X-159680Y351641D01*
X-158440Y350808D01*
X-157045Y350600D01*
X-155805Y350808D01*
X-154565Y351850D01*
X-153790Y353100D01*
X-153635Y354350D01*
X-153945Y355808D01*
X-155030Y356850D01*
X-156115Y357267D01*
X-157510D01*
G01X-156115D02*
X-155185Y357892D01*
X-154410Y358933D01*
X-154100Y360183D01*
X-154410Y361433D01*
X-155185Y362475D01*
X-156580Y363100D01*
X-157975Y362892D01*
X-159370Y362058D01*
G01X-144800Y350183D02*
X-145110Y350392D01*
Y350808D01*
X-144800Y351017D01*
X-144490Y350808D01*
Y350392D01*
X-144800Y350183D01*
G01X-85900Y350600D02*
Y363100D01*
X-82025D01*
X-80785Y362475D01*
X-80010Y361642D01*
X-79700Y359975D01*
X-80010Y358308D01*
X-80940Y357267D01*
X-82025Y356642D01*
X-85900D01*
G01X-82025D02*
X-79700Y350600D01*
G01X-67300D02*
X-73500D01*
Y363100D01*
X-67300D01*
G01X-69780Y357058D02*
X-73500D01*
G01X-61100Y350600D02*
Y363100D01*
X-57380D01*
X-56140Y362475D01*
X-55210Y361017D01*
X-54900Y359350D01*
X-55210Y357683D01*
X-55985Y356433D01*
X-57380Y355808D01*
X-61100D01*
G01X-49475Y350600D02*
X-45600Y363100D01*
X-41725Y350600D01*
G01X-43120Y354975D02*
X-48080D01*
G01X-35060Y363100D02*
X-31340D01*
G01X-33200D02*
Y350600D01*
G01X-35060D02*
X-31340D01*
G01X-23900D02*
Y363100D01*
X-20025D01*
X-18785Y362475D01*
X-18010Y361642D01*
X-17700Y359975D01*
X-18010Y358308D01*
X-18940Y357267D01*
X-20025Y356642D01*
X-23900D01*
G01X-20025D02*
X-17700Y350600D01*
G01X-11655Y352266D02*
X-10415Y351225D01*
X-9020Y350600D01*
X-7780D01*
X-6540Y351225D01*
X-5610Y352266D01*
X-5145Y353725D01*
X-5455Y355183D01*
X-6230Y356433D01*
X-7625Y357267D01*
X-9485Y357683D01*
X-10570Y358517D01*
X-11035Y359975D01*
X-10725Y361433D01*
X-9950Y362475D01*
X-8865Y363100D01*
X-7780D01*
X-6695Y362683D01*
X-5765Y361642D01*
G01X12525Y350600D02*
X16400Y363100D01*
X20275Y350600D01*
G01X18880Y354975D02*
X13920D01*
G01X25700Y350600D02*
Y363100D01*
X29575D01*
X30815Y362475D01*
X31590Y361642D01*
X31900Y359975D01*
X31590Y358308D01*
X30660Y357267D01*
X29575Y356642D01*
X25700D01*
G01X29575D02*
X31900Y350600D01*
G01X44300D02*
X38100D01*
Y363100D01*
X44300D01*
G01X41820Y357058D02*
X38100D01*
G01X62435Y350600D02*
Y363100D01*
X69565Y350600D01*
Y363100D01*
G01X78400Y350600D02*
X77160Y350808D01*
X76075Y351641D01*
X75145Y352892D01*
X74525Y354350D01*
X74215Y356017D01*
Y357683D01*
X74525Y359350D01*
X75145Y360808D01*
X76075Y362058D01*
X77160Y362892D01*
X78400Y363100D01*
X79640Y362892D01*
X80725Y362058D01*
X81655Y360808D01*
X82275Y359350D01*
X82585Y357683D01*
Y356017D01*
X82275Y354350D01*
X81655Y352892D01*
X80725Y351641D01*
X79640Y350808D01*
X78400Y350600D01*
G01X90800Y363100D02*
Y350600D01*
G01X87235Y363100D02*
X94365D01*
G01X111725Y350600D02*
X115600Y363100D01*
X119475Y350600D01*
G01X118080Y354975D02*
X113120D01*
G01X124900Y363100D02*
Y350600D01*
X131100D01*
G01X137300Y363100D02*
Y350600D01*
X143500D01*
G01X152800D02*
X151560Y350808D01*
X150475Y351641D01*
X149545Y352892D01*
X148925Y354350D01*
X148615Y356017D01*
Y357683D01*
X148925Y359350D01*
X149545Y360808D01*
X150475Y362058D01*
X151560Y362892D01*
X152800Y363100D01*
X154040Y362892D01*
X155125Y362058D01*
X156055Y360808D01*
X156675Y359350D01*
X156985Y357683D01*
Y356017D01*
X156675Y354350D01*
X156055Y352892D01*
X155125Y351641D01*
X154040Y350808D01*
X152800Y350600D01*
G01X160550Y363100D02*
X162720Y350600D01*
X165200Y363100D01*
X167680Y350600D01*
X169850Y363100D01*
G01X180700Y350600D02*
X174500D01*
Y363100D01*
X180700D01*
G01X178220Y357058D02*
X174500D01*
G01X186590Y350600D02*
Y363100D01*
X189690D01*
X190930Y362475D01*
X191860Y361642D01*
X192635Y360392D01*
X193255Y358933D01*
X193410Y356850D01*
X193255Y354767D01*
X192635Y353308D01*
X191860Y352058D01*
X190930Y351225D01*
X189690Y350600D01*
X186590D01*
G01X212940Y363100D02*
X216660D01*
G01X214800D02*
Y350600D01*
G01X212940D02*
X216660D01*
G01X223635D02*
Y363100D01*
X230765Y350600D01*
Y363100D01*
G01X248745Y352266D02*
X249985Y351225D01*
X251380Y350600D01*
X252620D01*
X253860Y351225D01*
X254790Y352266D01*
X255255Y353725D01*
X254945Y355183D01*
X254170Y356433D01*
X252775Y357267D01*
X250915Y357683D01*
X249830Y358517D01*
X249365Y359975D01*
X249675Y361433D01*
X250450Y362475D01*
X251535Y363100D01*
X252620D01*
X253705Y362683D01*
X254635Y361642D01*
G01X264400Y350600D02*
X263160Y350808D01*
X262075Y351641D01*
X261145Y352892D01*
X260525Y354350D01*
X260215Y356017D01*
Y357683D01*
X260525Y359350D01*
X261145Y360808D01*
X262075Y362058D01*
X263160Y362892D01*
X264400Y363100D01*
X265640Y362892D01*
X266725Y362058D01*
X267655Y360808D01*
X268275Y359350D01*
X268585Y357683D01*
Y356017D01*
X268275Y354350D01*
X267655Y352892D01*
X266725Y351641D01*
X265640Y350808D01*
X264400Y350600D01*
G01X273700Y363100D02*
Y350600D01*
X279900D01*
G01X285790D02*
Y363100D01*
X288890D01*
X290130Y362475D01*
X291060Y361642D01*
X291835Y360392D01*
X292455Y358933D01*
X292610Y356850D01*
X292455Y354767D01*
X291835Y353308D01*
X291060Y352058D01*
X290130Y351225D01*
X288890Y350600D01*
X285790D01*
G01X304700D02*
X298500D01*
Y363100D01*
X304700D01*
G01X302220Y357058D02*
X298500D01*
G01X310900Y350600D02*
Y363100D01*
X314775D01*
X316015Y362475D01*
X316790Y361642D01*
X317100Y359975D01*
X316790Y358308D01*
X315860Y357267D01*
X314775Y356642D01*
X310900D01*
G01X314775D02*
X317100Y350600D01*
G01X322370D02*
Y363100D01*
X326400Y352683D01*
X330430Y363100D01*
Y350600D01*
G01X334925D02*
X338800Y363100D01*
X342675Y350600D01*
G01X341280Y354975D02*
X336320D01*
G01X347945Y352266D02*
X349185Y351225D01*
X350580Y350600D01*
X351820D01*
X353060Y351225D01*
X353990Y352266D01*
X354455Y353725D01*
X354145Y355183D01*
X353370Y356433D01*
X351975Y357267D01*
X350115Y357683D01*
X349030Y358517D01*
X348565Y359975D01*
X348875Y361433D01*
X349650Y362475D01*
X350735Y363100D01*
X351820D01*
X352905Y362683D01*
X353835Y361642D01*
G01X360190Y350600D02*
Y363100D01*
G01X366080D02*
X360190Y355391D01*
G01X367010Y350600D02*
X362825Y358933D01*
G01X385455Y350600D02*
Y363100D01*
X391345D01*
G01X389175Y357058D02*
X385455D01*
G01X397700Y350600D02*
Y363100D01*
X401575D01*
X402815Y362475D01*
X403590Y361642D01*
X403900Y359975D01*
X403590Y358308D01*
X402660Y357267D01*
X401575Y356642D01*
X397700D01*
G01X401575D02*
X403900Y350600D01*
G01X416300D02*
X410100D01*
Y363100D01*
X416300D01*
G01X413820Y357058D02*
X410100D01*
G01X428700Y350600D02*
X422500D01*
Y363100D01*
X428700D01*
G01X426220Y357058D02*
X422500D01*
G01X446525Y350600D02*
X450400Y363100D01*
X454275Y350600D01*
G01X452880Y354975D02*
X447920D01*
G01X459700Y350600D02*
Y363100D01*
X463575D01*
X464815Y362475D01*
X465590Y361642D01*
X465900Y359975D01*
X465590Y358308D01*
X464660Y357267D01*
X463575Y356642D01*
X459700D01*
G01X463575D02*
X465900Y350600D01*
G01X478300D02*
X472100D01*
Y363100D01*
X478300D01*
G01X475820Y357058D02*
X472100D01*
G01X483725Y350600D02*
X487600Y363100D01*
X491475Y350600D01*
G01X490080Y354975D02*
X485120D01*
G01X496745Y352266D02*
X497985Y351225D01*
X499380Y350600D01*
X500620D01*
X501860Y351225D01*
X502790Y352266D01*
X503255Y353725D01*
X502945Y355183D01*
X502170Y356433D01*
X500775Y357267D01*
X498915Y357683D01*
X497830Y358517D01*
X497365Y359975D01*
X497675Y361433D01*
X498450Y362475D01*
X499535Y363100D01*
X500620D01*
X501705Y362683D01*
X502635Y361642D01*
G01X524800Y350600D02*
X523560Y350808D01*
X522475Y351641D01*
X521545Y352892D01*
X520925Y354350D01*
X520615Y356017D01*
Y357683D01*
X520925Y359350D01*
X521545Y360808D01*
X522475Y362058D01*
X523560Y362892D01*
X524800Y363100D01*
X526040Y362892D01*
X527125Y362058D01*
X528055Y360808D01*
X528675Y359350D01*
X528985Y357683D01*
Y356017D01*
X528675Y354350D01*
X528055Y352892D01*
X527125Y351641D01*
X526040Y350808D01*
X524800Y350600D01*
G01X533635D02*
Y363100D01*
X540765Y350600D01*
Y363100D01*
G01X565100Y350600D02*
X558900D01*
Y363100D01*
X565100D01*
G01X562620Y357058D02*
X558900D01*
G01X572540Y363100D02*
X576260D01*
G01X574400D02*
Y350600D01*
G01X572540D02*
X576260D01*
G01X586800Y363100D02*
Y350600D01*
G01X583235Y363100D02*
X590365D01*
G01X595945Y350600D02*
Y363100D01*
G01X602455D02*
Y350600D01*
G01Y356850D02*
X595945D01*
G01X614700Y350600D02*
X608500D01*
Y363100D01*
X614700D01*
G01X612220Y357058D02*
X608500D01*
G01X620900Y350600D02*
Y363100D01*
X624775D01*
X626015Y362475D01*
X626790Y361642D01*
X627100Y359975D01*
X626790Y358308D01*
X625860Y357267D01*
X624775Y356642D01*
X620900D01*
G01X624775D02*
X627100Y350600D01*
G01X-161645Y417517D02*
X-160715Y418766D01*
X-159630Y419392D01*
X-158390Y419600D01*
X-156840Y419183D01*
X-155755Y418142D01*
X-155445Y416892D01*
X-155600Y415641D01*
X-156220Y414600D01*
X-159320Y412517D01*
X-160715Y411058D01*
X-161645Y408975D01*
X-161955Y407100D01*
X-155445D01*
G01X-146300Y406683D02*
X-146610Y406892D01*
Y407308D01*
X-146300Y407517D01*
X-145990Y407308D01*
Y406892D01*
X-146300Y406683D01*
G01X-87400Y407100D02*
Y419600D01*
X-83525D01*
X-82285Y418975D01*
X-81510Y418142D01*
X-81200Y416475D01*
X-81510Y414808D01*
X-82440Y413767D01*
X-83525Y413142D01*
X-87400D01*
G01X-83525D02*
X-81200Y407100D01*
G01X-68800D02*
X-75000D01*
Y419600D01*
X-68800D01*
G01X-71280Y413558D02*
X-75000D01*
G01X-62600Y407100D02*
Y419600D01*
X-58880D01*
X-57640Y418975D01*
X-56710Y417517D01*
X-56400Y415850D01*
X-56710Y414183D01*
X-57485Y412933D01*
X-58880Y412308D01*
X-62600D01*
G01X-50975Y407100D02*
X-47100Y419600D01*
X-43225Y407100D01*
G01X-44620Y411475D02*
X-49580D01*
G01X-36560Y419600D02*
X-32840D01*
G01X-34700D02*
Y407100D01*
G01X-36560D02*
X-32840D01*
G01X-25400D02*
Y419600D01*
X-21525D01*
X-20285Y418975D01*
X-19510Y418142D01*
X-19200Y416475D01*
X-19510Y414808D01*
X-20440Y413767D01*
X-21525Y413142D01*
X-25400D01*
G01X-21525D02*
X-19200Y407100D01*
G01X-13155Y408766D02*
X-11915Y407725D01*
X-10520Y407100D01*
X-9280D01*
X-8040Y407725D01*
X-7110Y408766D01*
X-6645Y410225D01*
X-6955Y411683D01*
X-7730Y412933D01*
X-9125Y413767D01*
X-10985Y414183D01*
X-12070Y415017D01*
X-12535Y416475D01*
X-12225Y417933D01*
X-11450Y418975D01*
X-10365Y419600D01*
X-9280D01*
X-8195Y419183D01*
X-7265Y418142D01*
G01X11800Y407100D02*
Y419600D01*
X15520D01*
X16760Y418975D01*
X17690Y417517D01*
X18000Y415850D01*
X17690Y414183D01*
X16915Y412933D01*
X15520Y412308D01*
X11800D01*
G01X30400Y407100D02*
X24200D01*
Y419600D01*
X30400D01*
G01X27920Y413558D02*
X24200D01*
G01X36600Y407100D02*
Y419600D01*
X40475D01*
X41715Y418975D01*
X42490Y418142D01*
X42800Y416475D01*
X42490Y414808D01*
X41560Y413767D01*
X40475Y413142D01*
X36600D01*
G01X40475D02*
X42800Y407100D01*
G01X62640Y419600D02*
X66360D01*
G01X64500D02*
Y407100D01*
G01X62640D02*
X66360D01*
G01X73800D02*
Y419600D01*
X77520D01*
X78760Y418975D01*
X79690Y417517D01*
X80000Y415850D01*
X79690Y414183D01*
X78915Y412933D01*
X77520Y412308D01*
X73800D01*
G01X92710Y418558D02*
X91780Y419183D01*
X90695Y419600D01*
X89455D01*
X88060Y418975D01*
X86975Y417933D01*
X86200Y416683D01*
X85580Y414600D01*
X85425Y412725D01*
X85735Y410850D01*
X86200Y409600D01*
X87130Y408350D01*
X88215Y407517D01*
X89300Y407100D01*
X90385D01*
X91470Y407517D01*
X92400Y408141D01*
X93175Y408975D01*
G01X99685Y411267D02*
X103715D01*
G01X113790Y407100D02*
X114100Y409808D01*
X114565Y412100D01*
X115185Y414183D01*
X115960Y416475D01*
X117200Y419600D01*
X111000D01*
G01X126190Y407100D02*
X126500Y409808D01*
X126965Y412100D01*
X127585Y414183D01*
X128360Y416475D01*
X129600Y419600D01*
X123400D01*
G01X138900Y407100D02*
Y419600D01*
X137040Y417100D01*
G01Y407100D02*
X140760D01*
G01X151300D02*
Y419600D01*
X149440Y417100D01*
G01Y407100D02*
X153160D01*
G01X160910Y406683D02*
X166490Y419600D01*
G01X173155Y417517D02*
X174085Y418766D01*
X175170Y419392D01*
X176410Y419600D01*
X177960Y419183D01*
X179045Y418142D01*
X179355Y416892D01*
X179200Y415641D01*
X178580Y414600D01*
X175480Y412517D01*
X174085Y411058D01*
X173155Y408975D01*
X172845Y407100D01*
X179355D01*
G01X188500D02*
Y419600D01*
X186640Y417100D01*
G01Y407100D02*
X190360D01*
G01X200125Y402933D02*
X198575Y405017D01*
X197800Y407100D01*
Y415433D01*
X198575Y417517D01*
X200125Y419600D01*
G01X210200D02*
Y407100D01*
X216400D01*
G01X221825D02*
X225700Y419600D01*
X229575Y407100D01*
G01X228180Y411475D02*
X223220D01*
G01X238100Y419600D02*
Y407100D01*
G01X234535Y419600D02*
X241665D01*
G01X253600Y407100D02*
X247400D01*
Y419600D01*
X253600D01*
G01X251120Y413558D02*
X247400D01*
G01X259645Y408766D02*
X260885Y407725D01*
X262280Y407100D01*
X263520D01*
X264760Y407725D01*
X265690Y408766D01*
X266155Y410225D01*
X265845Y411683D01*
X265070Y412933D01*
X263675Y413767D01*
X261815Y414183D01*
X260730Y415017D01*
X260265Y416475D01*
X260575Y417933D01*
X261350Y418975D01*
X262435Y419600D01*
X263520D01*
X264605Y419183D01*
X265535Y418142D01*
G01X275300Y419600D02*
Y407100D01*
G01X271735Y419600D02*
X278865D01*
G01X297000Y407100D02*
Y419600D01*
X300875D01*
X302115Y418975D01*
X302890Y418142D01*
X303200Y416475D01*
X302890Y414808D01*
X301960Y413767D01*
X300875Y413142D01*
X297000D01*
G01X300875D02*
X303200Y407100D01*
G01X315600D02*
X309400D01*
Y419600D01*
X315600D01*
G01X313120Y413558D02*
X309400D01*
G01X321025Y419600D02*
X324900Y407100D01*
X328775Y419600D01*
G01X335440D02*
X339160D01*
G01X337300D02*
Y407100D01*
G01X335440D02*
X339160D01*
G01X346445Y408766D02*
X347685Y407725D01*
X349080Y407100D01*
X350320D01*
X351560Y407725D01*
X352490Y408766D01*
X352955Y410225D01*
X352645Y411683D01*
X351870Y412933D01*
X350475Y413767D01*
X348615Y414183D01*
X347530Y415017D01*
X347065Y416475D01*
X347375Y417933D01*
X348150Y418975D01*
X349235Y419600D01*
X350320D01*
X351405Y419183D01*
X352335Y418142D01*
G01X360240Y419600D02*
X363960D01*
G01X362100D02*
Y407100D01*
G01X360240D02*
X363960D01*
G01X374500D02*
X373260Y407308D01*
X372175Y408141D01*
X371245Y409392D01*
X370625Y410850D01*
X370315Y412517D01*
Y414183D01*
X370625Y415850D01*
X371245Y417308D01*
X372175Y418558D01*
X373260Y419392D01*
X374500Y419600D01*
X375740Y419392D01*
X376825Y418558D01*
X377755Y417308D01*
X378375Y415850D01*
X378685Y414183D01*
Y412517D01*
X378375Y410850D01*
X377755Y409392D01*
X376825Y408141D01*
X375740Y407308D01*
X374500Y407100D01*
G01X383335D02*
Y419600D01*
X390465Y407100D01*
Y419600D01*
G01X400075Y402933D02*
X401625Y405017D01*
X402400Y407100D01*
Y415433D01*
X401625Y417517D01*
X400075Y419600D01*
G01X420225Y407100D02*
X424100Y419600D01*
X427975Y407100D01*
G01X426580Y411475D02*
X421620D01*
G01X433400Y407100D02*
Y419600D01*
X437275D01*
X438515Y418975D01*
X439290Y418142D01*
X439600Y416475D01*
X439290Y414808D01*
X438360Y413767D01*
X437275Y413142D01*
X433400D01*
G01X437275D02*
X439600Y407100D01*
G01X452000D02*
X445800D01*
Y419600D01*
X452000D01*
G01X449520Y413558D02*
X445800D01*
G01X469825Y407100D02*
X473700Y419600D01*
X477575Y407100D01*
G01X476180Y411475D02*
X471220D01*
G01X483000Y419600D02*
Y407100D01*
X489200D01*
G01X495400Y419600D02*
Y407100D01*
X501600D01*
G01X510900D02*
X509660Y407308D01*
X508575Y408141D01*
X507645Y409392D01*
X507025Y410850D01*
X506715Y412517D01*
Y414183D01*
X507025Y415850D01*
X507645Y417308D01*
X508575Y418558D01*
X509660Y419392D01*
X510900Y419600D01*
X512140Y419392D01*
X513225Y418558D01*
X514155Y417308D01*
X514775Y415850D01*
X515085Y414183D01*
Y412517D01*
X514775Y410850D01*
X514155Y409392D01*
X513225Y408141D01*
X512140Y407308D01*
X510900Y407100D01*
G01X518650Y419600D02*
X520820Y407100D01*
X523300Y419600D01*
X525780Y407100D01*
X527950Y419600D01*
G01X538800Y407100D02*
X532600D01*
Y419600D01*
X538800D01*
G01X536320Y413558D02*
X532600D01*
G01X544690Y407100D02*
Y419600D01*
X547790D01*
X549030Y418975D01*
X549960Y418142D01*
X550735Y416892D01*
X551355Y415433D01*
X551510Y413350D01*
X551355Y411267D01*
X550735Y409808D01*
X549960Y408558D01*
X549030Y407725D01*
X547790Y407100D01*
X544690D01*
G01X560500Y406683D02*
X560190Y406892D01*
Y407308D01*
X560500Y407517D01*
X560810Y407308D01*
Y406892D01*
X560500Y406683D01*
G01X-83300Y472600D02*
Y460100D01*
G01X-86865Y472600D02*
X-79735D01*
G01X-74155Y461766D02*
X-72915Y460725D01*
X-71520Y460100D01*
X-70280D01*
X-69040Y460725D01*
X-68110Y461766D01*
X-67645Y463225D01*
X-67955Y464683D01*
X-68730Y465933D01*
X-70125Y466767D01*
X-71985Y467183D01*
X-73070Y468017D01*
X-73535Y469475D01*
X-73225Y470933D01*
X-72450Y471975D01*
X-71365Y472600D01*
X-70280D01*
X-69195Y472183D01*
X-68265Y471142D01*
G01X-58500Y472600D02*
Y460100D01*
G01X-62065Y472600D02*
X-54935D01*
G01X-46100D02*
X-47340Y472183D01*
X-48270Y471142D01*
X-48890Y469892D01*
X-49355Y468225D01*
X-49510Y466350D01*
X-49355Y464475D01*
X-48890Y462808D01*
X-48270Y461558D01*
X-47340Y460517D01*
X-46100Y460100D01*
X-44860Y460517D01*
X-43930Y461558D01*
X-43310Y462808D01*
X-42845Y464475D01*
X-42690Y466350D01*
X-42845Y468225D01*
X-43310Y469892D01*
X-43930Y471142D01*
X-44860Y472183D01*
X-46100Y472600D01*
G01X-33700D02*
X-34940Y472183D01*
X-35870Y471142D01*
X-36490Y469892D01*
X-36955Y468225D01*
X-37110Y466350D01*
X-36955Y464475D01*
X-36490Y462808D01*
X-35870Y461558D01*
X-34940Y460517D01*
X-33700Y460100D01*
X-32460Y460517D01*
X-31530Y461558D01*
X-30910Y462808D01*
X-30445Y464475D01*
X-30290Y466350D01*
X-30445Y468225D01*
X-30910Y469892D01*
X-31530Y471142D01*
X-32460Y472183D01*
X-33700Y472600D01*
G01X-21300Y460100D02*
Y472600D01*
X-23160Y470100D01*
G01Y460100D02*
X-19440D01*
G01X-8900D02*
Y472600D01*
X-10760Y470100D01*
G01Y460100D02*
X-7040D01*
G01X865Y461558D02*
X1950Y460517D01*
X3190Y460100D01*
X4430Y460517D01*
X5515Y461766D01*
X6290Y463642D01*
X6600Y465517D01*
Y467808D01*
X6290Y469683D01*
X5515Y471350D01*
X4585Y472183D01*
X3500Y472600D01*
X2260Y472183D01*
X1330Y471350D01*
X710Y470100D01*
X400Y468433D01*
X710Y466975D01*
X1485Y465517D01*
X2415Y464683D01*
X3500Y464475D01*
X4740Y464891D01*
X5670Y465933D01*
X6600Y467808D01*
G01X27525Y455933D02*
X25975Y458017D01*
X25200Y460100D01*
Y468433D01*
X25975Y470517D01*
X27525Y472600D01*
G01X37600D02*
Y460100D01*
X43800D01*
G01X49225D02*
X53100Y472600D01*
X56975Y460100D01*
G01X55580Y464475D02*
X50620D01*
G01X65500Y472600D02*
Y460100D01*
G01X61935Y472600D02*
X69065D01*
G01X81000Y460100D02*
X74800D01*
Y472600D01*
X81000D01*
G01X78520Y466558D02*
X74800D01*
G01X87045Y461766D02*
X88285Y460725D01*
X89680Y460100D01*
X90920D01*
X92160Y460725D01*
X93090Y461766D01*
X93555Y463225D01*
X93245Y464683D01*
X92470Y465933D01*
X91075Y466767D01*
X89215Y467183D01*
X88130Y468017D01*
X87665Y469475D01*
X87975Y470933D01*
X88750Y471975D01*
X89835Y472600D01*
X90920D01*
X92005Y472183D01*
X92935Y471142D01*
G01X102700Y472600D02*
Y460100D01*
G01X99135Y472600D02*
X106265D01*
G01X124400Y460100D02*
Y472600D01*
X128275D01*
X129515Y471975D01*
X130290Y471142D01*
X130600Y469475D01*
X130290Y467808D01*
X129360Y466767D01*
X128275Y466142D01*
X124400D01*
G01X128275D02*
X130600Y460100D01*
G01X143000D02*
X136800D01*
Y472600D01*
X143000D01*
G01X140520Y466558D02*
X136800D01*
G01X148425Y472600D02*
X152300Y460100D01*
X156175Y472600D01*
G01X162840D02*
X166560D01*
G01X164700D02*
Y460100D01*
G01X162840D02*
X166560D01*
G01X173845Y461766D02*
X175085Y460725D01*
X176480Y460100D01*
X177720D01*
X178960Y460725D01*
X179890Y461766D01*
X180355Y463225D01*
X180045Y464683D01*
X179270Y465933D01*
X177875Y466767D01*
X176015Y467183D01*
X174930Y468017D01*
X174465Y469475D01*
X174775Y470933D01*
X175550Y471975D01*
X176635Y472600D01*
X177720D01*
X178805Y472183D01*
X179735Y471142D01*
G01X187640Y472600D02*
X191360D01*
G01X189500D02*
Y460100D01*
G01X187640D02*
X191360D01*
G01X201900D02*
X200660Y460308D01*
X199575Y461141D01*
X198645Y462392D01*
X198025Y463850D01*
X197715Y465517D01*
Y467183D01*
X198025Y468850D01*
X198645Y470308D01*
X199575Y471558D01*
X200660Y472392D01*
X201900Y472600D01*
X203140Y472392D01*
X204225Y471558D01*
X205155Y470308D01*
X205775Y468850D01*
X206085Y467183D01*
Y465517D01*
X205775Y463850D01*
X205155Y462392D01*
X204225Y461141D01*
X203140Y460308D01*
X201900Y460100D01*
G01X210735D02*
Y472600D01*
X217865Y460100D01*
Y472600D01*
G01X227475Y455933D02*
X229025Y458017D01*
X229800Y460100D01*
Y468433D01*
X229025Y470517D01*
X227475Y472600D01*
G01X239100Y459683D02*
X238790Y459892D01*
Y460308D01*
X239100Y460517D01*
X239410Y460308D01*
Y459892D01*
X239100Y459683D01*
G01X-157700Y487600D02*
Y500100D01*
X-159560Y497600D01*
G01Y487600D02*
X-155840D01*
G01X-145300Y487183D02*
X-145610Y487392D01*
Y487808D01*
X-145300Y488017D01*
X-144990Y487808D01*
Y487392D01*
X-145300Y487183D01*
G01X-82060Y494267D02*
X-81440Y494892D01*
X-80975Y495933D01*
X-80665Y497392D01*
X-80975Y498642D01*
X-81595Y499475D01*
X-82680Y500100D01*
X-86865D01*
Y487600D01*
X-81750D01*
X-80665Y488433D01*
X-80045Y489683D01*
X-79735Y491142D01*
X-80045Y492600D01*
X-80975Y493850D01*
X-82060Y494267D01*
X-86865D01*
G01X-70900Y487600D02*
X-72140Y487808D01*
X-73225Y488641D01*
X-74155Y489892D01*
X-74775Y491350D01*
X-75085Y493017D01*
Y494683D01*
X-74775Y496350D01*
X-74155Y497808D01*
X-73225Y499058D01*
X-72140Y499892D01*
X-70900Y500100D01*
X-69660Y499892D01*
X-68575Y499058D01*
X-67645Y497808D01*
X-67025Y496350D01*
X-66715Y494683D01*
Y493017D01*
X-67025Y491350D01*
X-67645Y489892D01*
X-68575Y488641D01*
X-69660Y487808D01*
X-70900Y487600D01*
G01X-62375D02*
X-58500Y500100D01*
X-54625Y487600D01*
G01X-56020Y491975D02*
X-60980D01*
G01X-49200Y487600D02*
Y500100D01*
X-45325D01*
X-44085Y499475D01*
X-43310Y498642D01*
X-43000Y496975D01*
X-43310Y495308D01*
X-44240Y494267D01*
X-45325Y493642D01*
X-49200D01*
G01X-45325D02*
X-43000Y487600D01*
G01X-37110D02*
Y500100D01*
X-34010D01*
X-32770Y499475D01*
X-31840Y498642D01*
X-31065Y497392D01*
X-30445Y495933D01*
X-30290Y493850D01*
X-30445Y491767D01*
X-31065Y490308D01*
X-31840Y489058D01*
X-32770Y488225D01*
X-34010Y487600D01*
X-37110D01*
G01X-12775D02*
X-8900Y500100D01*
X-5025Y487600D01*
G01X-6420Y491975D02*
X-11380D01*
G01X6910Y499058D02*
X5980Y499683D01*
X4895Y500100D01*
X3655D01*
X2260Y499475D01*
X1175Y498433D01*
X400Y497183D01*
X-220Y495100D01*
X-375Y493225D01*
X-65Y491350D01*
X400Y490100D01*
X1330Y488850D01*
X2415Y488017D01*
X3500Y487600D01*
X4585D01*
X5670Y488017D01*
X6600Y488641D01*
X7375Y489475D01*
G01X19310Y499058D02*
X18380Y499683D01*
X17295Y500100D01*
X16055D01*
X14660Y499475D01*
X13575Y498433D01*
X12800Y497183D01*
X12180Y495100D01*
X12025Y493225D01*
X12335Y491350D01*
X12800Y490100D01*
X13730Y488850D01*
X14815Y488017D01*
X15900Y487600D01*
X16985D01*
X18070Y488017D01*
X19000Y488641D01*
X19775Y489475D01*
G01X31400Y487600D02*
X25200D01*
Y500100D01*
X31400D01*
G01X28920Y494058D02*
X25200D01*
G01X37600Y487600D02*
Y500100D01*
X41320D01*
X42560Y499475D01*
X43490Y498017D01*
X43800Y496350D01*
X43490Y494683D01*
X42715Y493433D01*
X41320Y492808D01*
X37600D01*
G01X53100Y500100D02*
Y487600D01*
G01X49535Y500100D02*
X56665D01*
G01X61625Y487600D02*
X65500Y500100D01*
X69375Y487600D01*
G01X67980Y491975D02*
X63020D01*
G01X79140Y494267D02*
X79760Y494892D01*
X80225Y495933D01*
X80535Y497392D01*
X80225Y498642D01*
X79605Y499475D01*
X78520Y500100D01*
X74335D01*
Y487600D01*
X79450D01*
X80535Y488433D01*
X81155Y489683D01*
X81465Y491142D01*
X81155Y492600D01*
X80225Y493850D01*
X79140Y494267D01*
X74335D01*
G01X88440Y500100D02*
X92160D01*
G01X90300D02*
Y487600D01*
G01X88440D02*
X92160D01*
G01X99600Y500100D02*
Y487600D01*
X105800D01*
G01X113240Y500100D02*
X116960D01*
G01X115100D02*
Y487600D01*
G01X113240D02*
X116960D01*
G01X127500Y500100D02*
Y487600D01*
G01X123935Y500100D02*
X131065D01*
G01X139900Y487600D02*
Y493225D01*
X136800Y500100D01*
G01X143000D02*
X139900Y493225D01*
G01X161600Y487600D02*
Y500100D01*
X165320D01*
X166560Y499475D01*
X167490Y498017D01*
X167800Y496350D01*
X167490Y494683D01*
X166715Y493433D01*
X165320Y492808D01*
X161600D01*
G01X180200Y487600D02*
X174000D01*
Y500100D01*
X180200D01*
G01X177720Y494058D02*
X174000D01*
G01X186400Y487600D02*
Y500100D01*
X190275D01*
X191515Y499475D01*
X192290Y498642D01*
X192600Y496975D01*
X192290Y495308D01*
X191360Y494267D01*
X190275Y493642D01*
X186400D01*
G01X190275D02*
X192600Y487600D01*
G01X210425D02*
X214300Y500100D01*
X218175Y487600D01*
G01X216780Y491975D02*
X211820D01*
G01X223135Y487600D02*
Y500100D01*
X230265Y487600D01*
Y500100D01*
G01X235225Y487600D02*
X239100Y500100D01*
X242975Y487600D01*
G01X241580Y491975D02*
X236620D01*
G01X248400Y500100D02*
Y487600D01*
X254600D01*
G01X263900D02*
X262660Y487808D01*
X261575Y488641D01*
X260645Y489892D01*
X260025Y491350D01*
X259715Y493017D01*
Y494683D01*
X260025Y496350D01*
X260645Y497808D01*
X261575Y499058D01*
X262660Y499892D01*
X263900Y500100D01*
X265140Y499892D01*
X266225Y499058D01*
X267155Y497808D01*
X267775Y496350D01*
X268085Y494683D01*
Y493017D01*
X267775Y491350D01*
X267155Y489892D01*
X266225Y488641D01*
X265140Y487808D01*
X263900Y487600D01*
G01X277230Y493850D02*
X280330D01*
Y490100D01*
X279400Y488850D01*
X278315Y488017D01*
X276765Y487600D01*
X275215Y488017D01*
X274130Y488850D01*
X273200Y490100D01*
X272580Y491558D01*
X272270Y493225D01*
Y494683D01*
X272580Y495933D01*
X273200Y497392D01*
X274130Y498642D01*
X275060Y499475D01*
X276300Y500100D01*
X277385D01*
X278625Y499683D01*
X279555Y498850D01*
G01X297690Y487600D02*
Y500100D01*
X300790D01*
X302030Y499475D01*
X302960Y498642D01*
X303735Y497392D01*
X304355Y495933D01*
X304510Y493850D01*
X304355Y491767D01*
X303735Y490308D01*
X302960Y489058D01*
X302030Y488225D01*
X300790Y487600D01*
X297690D01*
G01X316600D02*
X310400D01*
Y500100D01*
X316600D01*
G01X314120Y494058D02*
X310400D01*
G01X322025Y500100D02*
X325900Y487600D01*
X329775Y500100D01*
G01X336440D02*
X340160D01*
G01X338300D02*
Y487600D01*
G01X336440D02*
X340160D01*
G01X354110Y499058D02*
X353180Y499683D01*
X352095Y500100D01*
X350855D01*
X349460Y499475D01*
X348375Y498433D01*
X347600Y497183D01*
X346980Y495100D01*
X346825Y493225D01*
X347135Y491350D01*
X347600Y490100D01*
X348530Y488850D01*
X349615Y488017D01*
X350700Y487600D01*
X351785D01*
X352870Y488017D01*
X353800Y488641D01*
X354575Y489475D01*
G01X366200Y487600D02*
X360000D01*
Y500100D01*
X366200D01*
G01X363720Y494058D02*
X360000D01*
G01X372245Y489266D02*
X373485Y488225D01*
X374880Y487600D01*
X376120D01*
X377360Y488225D01*
X378290Y489266D01*
X378755Y490725D01*
X378445Y492183D01*
X377670Y493433D01*
X376275Y494267D01*
X374415Y494683D01*
X373330Y495517D01*
X372865Y496975D01*
X373175Y498433D01*
X373950Y499475D01*
X375035Y500100D01*
X376120D01*
X377205Y499683D01*
X378135Y498642D01*
G01X387590Y485308D02*
X388210Y488017D01*
G01X410840Y500100D02*
X414560D01*
G01X412700D02*
Y487600D01*
G01X410840D02*
X414560D01*
G01X421535D02*
Y500100D01*
X428665Y487600D01*
Y500100D01*
G01X440910Y499058D02*
X439980Y499683D01*
X438895Y500100D01*
X437655D01*
X436260Y499475D01*
X435175Y498433D01*
X434400Y497183D01*
X433780Y495100D01*
X433625Y493225D01*
X433935Y491350D01*
X434400Y490100D01*
X435330Y488850D01*
X436415Y488017D01*
X437500Y487600D01*
X438585D01*
X439670Y488017D01*
X440600Y488641D01*
X441375Y489475D01*
G01X449900Y487183D02*
X449590Y487392D01*
Y487808D01*
X449900Y488017D01*
X450210Y487808D01*
Y487392D01*
X449900Y487183D01*
G01X471445Y489266D02*
X472685Y488225D01*
X474080Y487600D01*
X475320D01*
X476560Y488225D01*
X477490Y489266D01*
X477955Y490725D01*
X477645Y492183D01*
X476870Y493433D01*
X475475Y494267D01*
X473615Y494683D01*
X472530Y495517D01*
X472065Y496975D01*
X472375Y498433D01*
X473150Y499475D01*
X474235Y500100D01*
X475320D01*
X476405Y499683D01*
X477335Y498642D01*
G01X484000Y487600D02*
Y500100D01*
X487720D01*
X488960Y499475D01*
X489890Y498017D01*
X490200Y496350D01*
X489890Y494683D01*
X489115Y493433D01*
X487720Y492808D01*
X484000D01*
G01X502600Y487600D02*
X496400D01*
Y500100D01*
X502600D01*
G01X500120Y494058D02*
X496400D01*
G01X515310Y499058D02*
X514380Y499683D01*
X513295Y500100D01*
X512055D01*
X510660Y499475D01*
X509575Y498433D01*
X508800Y497183D01*
X508180Y495100D01*
X508025Y493225D01*
X508335Y491350D01*
X508800Y490100D01*
X509730Y488850D01*
X510815Y488017D01*
X511900Y487600D01*
X512985D01*
X514070Y488017D01*
X515000Y488641D01*
X515775Y489475D01*
G01X522440Y500100D02*
X526160D01*
G01X524300D02*
Y487600D01*
G01X522440D02*
X526160D01*
G01X533755D02*
Y500100D01*
X539645D01*
G01X537475Y494058D02*
X533755D01*
G01X547240Y500100D02*
X550960D01*
G01X549100D02*
Y487600D01*
G01X547240D02*
X550960D01*
G01X564910Y499058D02*
X563980Y499683D01*
X562895Y500100D01*
X561655D01*
X560260Y499475D01*
X559175Y498433D01*
X558400Y497183D01*
X557780Y495100D01*
X557625Y493225D01*
X557935Y491350D01*
X558400Y490100D01*
X559330Y488850D01*
X560415Y488017D01*
X561500Y487600D01*
X562585D01*
X563670Y488017D01*
X564600Y488641D01*
X565375Y489475D01*
G01X570025Y487600D02*
X573900Y500100D01*
X577775Y487600D01*
G01X576380Y491975D02*
X571420D01*
G01X586300Y500100D02*
Y487600D01*
G01X582735Y500100D02*
X589865D01*
G01X596840D02*
X600560D01*
G01X598700D02*
Y487600D01*
G01X596840D02*
X600560D01*
G01X611100D02*
X609860Y487808D01*
X608775Y488641D01*
X607845Y489892D01*
X607225Y491350D01*
X606915Y493017D01*
Y494683D01*
X607225Y496350D01*
X607845Y497808D01*
X608775Y499058D01*
X609860Y499892D01*
X611100Y500100D01*
X612340Y499892D01*
X613425Y499058D01*
X614355Y497808D01*
X614975Y496350D01*
X615285Y494683D01*
Y493017D01*
X614975Y491350D01*
X614355Y489892D01*
X613425Y488641D01*
X612340Y487808D01*
X611100Y487600D01*
G01X619935D02*
Y500100D01*
X627065Y487600D01*
Y500100D01*
G01X-158255Y551350D02*
X-154380Y563850D01*
X-150505Y551350D01*
G01X-151900Y555725D02*
X-156860D01*
G01X-145235Y553016D02*
X-143995Y551975D01*
X-142600Y551350D01*
X-141360D01*
X-140120Y551975D01*
X-139190Y553016D01*
X-138725Y554475D01*
X-139035Y555933D01*
X-139810Y557183D01*
X-141205Y558017D01*
X-143065Y558433D01*
X-144150Y559267D01*
X-144615Y560725D01*
X-144305Y562183D01*
X-143530Y563225D01*
X-142445Y563850D01*
X-141360D01*
X-140275Y563433D01*
X-139345Y562392D01*
G01X-132835Y553016D02*
X-131595Y551975D01*
X-130200Y551350D01*
X-128960D01*
X-127720Y551975D01*
X-126790Y553016D01*
X-126325Y554475D01*
X-126635Y555933D01*
X-127410Y557183D01*
X-128805Y558017D01*
X-130665Y558433D01*
X-131750Y559267D01*
X-132215Y560725D01*
X-131905Y562183D01*
X-131130Y563225D01*
X-130045Y563850D01*
X-128960D01*
X-127875Y563433D01*
X-126945Y562392D01*
G01X-114080Y551350D02*
X-120280D01*
Y563850D01*
X-114080D01*
G01X-116560Y557808D02*
X-120280D01*
G01X-108810Y551350D02*
Y563850D01*
X-104780Y553433D01*
X-100750Y563850D01*
Y551350D01*
G01X-91140Y558017D02*
X-90520Y558642D01*
X-90055Y559683D01*
X-89745Y561142D01*
X-90055Y562392D01*
X-90675Y563225D01*
X-91760Y563850D01*
X-95945D01*
Y551350D01*
X-90830D01*
X-89745Y552183D01*
X-89125Y553433D01*
X-88815Y554892D01*
X-89125Y556350D01*
X-90055Y557600D01*
X-91140Y558017D01*
X-95945D01*
G01X-83080Y563850D02*
Y551350D01*
X-76880D01*
G01X-67580D02*
Y556975D01*
X-70680Y563850D01*
G01X-64480D02*
X-67580Y556975D01*
G01X-46345Y551350D02*
Y563850D01*
X-39215Y551350D01*
Y563850D01*
G01X-30380Y551350D02*
X-31620Y551558D01*
X-32705Y552391D01*
X-33635Y553642D01*
X-34255Y555100D01*
X-34565Y556767D01*
Y558433D01*
X-34255Y560100D01*
X-33635Y561558D01*
X-32705Y562808D01*
X-31620Y563642D01*
X-30380Y563850D01*
X-29140Y563642D01*
X-28055Y562808D01*
X-27125Y561558D01*
X-26505Y560100D01*
X-26195Y558433D01*
Y556767D01*
X-26505Y555100D01*
X-27125Y553642D01*
X-28055Y552391D01*
X-29140Y551558D01*
X-30380Y551350D01*
G01X-17980Y563850D02*
Y551350D01*
G01X-21545Y563850D02*
X-14415D01*
G01X-2480Y551350D02*
X-8680D01*
Y563850D01*
X-2480D01*
G01X-4960Y557808D02*
X-8680D01*
G01X3565Y553016D02*
X4805Y551975D01*
X6200Y551350D01*
X7440D01*
X8680Y551975D01*
X9610Y553016D01*
X10075Y554475D01*
X9765Y555933D01*
X8990Y557183D01*
X7595Y558017D01*
X5735Y558433D01*
X4650Y559267D01*
X4185Y560725D01*
X4495Y562183D01*
X5270Y563225D01*
X6355Y563850D01*
X7440D01*
X8525Y563433D01*
X9455Y562392D01*
G01X19220Y550933D02*
X18910Y551142D01*
Y551558D01*
X19220Y551767D01*
X19530Y551558D01*
Y551142D01*
X19220Y550933D01*
G01Y556558D02*
X18910Y556767D01*
Y557183D01*
X19220Y557392D01*
X19530Y557183D01*
Y556767D01*
X19220Y556558D01*
G01X-163930Y1136000D02*
X-162040Y1133083D01*
X-159520Y1131417D01*
X-156685Y1131000D01*
X-154165Y1131417D01*
X-151645Y1133499D01*
X-150070Y1136000D01*
X-149755Y1138500D01*
X-150385Y1141416D01*
X-152590Y1143500D01*
X-154795Y1144334D01*
X-157630D01*
G01X-154795D02*
X-152905Y1145583D01*
X-151330Y1147666D01*
X-150700Y1150166D01*
X-151330Y1152667D01*
X-152905Y1154750D01*
X-155740Y1156000D01*
X-158575Y1155583D01*
X-161410Y1153916D01*
G01X-89770Y222970D02*
Y235470D01*
X-86670D01*
X-85430Y234845D01*
X-84500Y234012D01*
X-83725Y232762D01*
X-83105Y231303D01*
X-82950Y229220D01*
X-83105Y227137D01*
X-83725Y225678D01*
X-84500Y224428D01*
X-85430Y223595D01*
X-86670Y222970D01*
X-89770D01*
G01X-75820Y235470D02*
X-72100D01*
G01X-73960D02*
Y222970D01*
G01X-75820D02*
X-72100D01*
G01X-64660D02*
Y235470D01*
X-60785D01*
X-59545Y234845D01*
X-58770Y234012D01*
X-58460Y232345D01*
X-58770Y230678D01*
X-59700Y229637D01*
X-60785Y229012D01*
X-64660D01*
G01X-60785D02*
X-58460Y222970D01*
G01X-46060D02*
X-52260D01*
Y235470D01*
X-46060D01*
G01X-48540Y229428D02*
X-52260D01*
G01X-33350Y234428D02*
X-34280Y235053D01*
X-35365Y235470D01*
X-36605D01*
X-38000Y234845D01*
X-39085Y233803D01*
X-39860Y232553D01*
X-40480Y230470D01*
X-40635Y228595D01*
X-40325Y226720D01*
X-39860Y225470D01*
X-38930Y224220D01*
X-37845Y223387D01*
X-36760Y222970D01*
X-35675D01*
X-34590Y223387D01*
X-33660Y224011D01*
X-32885Y224845D01*
G01X-24360Y235470D02*
Y222970D01*
G01X-27925Y235470D02*
X-20795D01*
G01X-13820D02*
X-10100D01*
G01X-11960D02*
Y222970D01*
G01X-13820D02*
X-10100D01*
G01X-3435Y235470D02*
X440Y222970D01*
X4315Y235470D01*
G01X15940Y222970D02*
X9740D01*
Y235470D01*
X15940D01*
G01X13460Y229428D02*
X9740D01*
G01X34695Y233387D02*
X35625Y234636D01*
X36710Y235262D01*
X37950Y235470D01*
X39500Y235053D01*
X40585Y234012D01*
X40895Y232762D01*
X40740Y231511D01*
X40120Y230470D01*
X37020Y228387D01*
X35625Y226928D01*
X34695Y224845D01*
X34385Y222970D01*
X40895D01*
G01X50040Y235470D02*
X48800Y235053D01*
X47870Y234012D01*
X47250Y232762D01*
X46785Y231095D01*
X46630Y229220D01*
X46785Y227345D01*
X47250Y225678D01*
X47870Y224428D01*
X48800Y223387D01*
X50040Y222970D01*
X51280Y223387D01*
X52210Y224428D01*
X52830Y225678D01*
X53295Y227345D01*
X53450Y229220D01*
X53295Y231095D01*
X52830Y232762D01*
X52210Y234012D01*
X51280Y235053D01*
X50040Y235470D01*
G01X62440D02*
X61200Y235053D01*
X60270Y234012D01*
X59650Y232762D01*
X59185Y231095D01*
X59030Y229220D01*
X59185Y227345D01*
X59650Y225678D01*
X60270Y224428D01*
X61200Y223387D01*
X62440Y222970D01*
X63680Y223387D01*
X64610Y224428D01*
X65230Y225678D01*
X65695Y227345D01*
X65850Y229220D01*
X65695Y231095D01*
X65230Y232762D01*
X64610Y234012D01*
X63680Y235053D01*
X62440Y235470D01*
G01X71895Y233387D02*
X72825Y234636D01*
X73910Y235262D01*
X75150Y235470D01*
X76700Y235053D01*
X77785Y234012D01*
X78095Y232762D01*
X77940Y231511D01*
X77320Y230470D01*
X74220Y228387D01*
X72825Y226928D01*
X71895Y224845D01*
X71585Y222970D01*
X78095D01*
G01X84450Y222553D02*
X90030Y235470D01*
G01X97005Y224428D02*
X98090Y223387D01*
X99330Y222970D01*
X100570Y223387D01*
X101655Y224636D01*
X102430Y226512D01*
X102740Y228387D01*
Y230678D01*
X102430Y232553D01*
X101655Y234220D01*
X100725Y235053D01*
X99640Y235470D01*
X98400Y235053D01*
X97470Y234220D01*
X96850Y232970D01*
X96540Y231303D01*
X96850Y229845D01*
X97625Y228387D01*
X98555Y227553D01*
X99640Y227345D01*
X100880Y227761D01*
X101810Y228803D01*
X102740Y230678D01*
G01X108630Y224845D02*
X109560Y223803D01*
X110645Y223178D01*
X112040Y222970D01*
X113435Y223387D01*
X114520Y224220D01*
X115295Y225678D01*
X115450Y227345D01*
X115140Y229012D01*
X114365Y230053D01*
X113280Y230887D01*
X112195Y231095D01*
X111110Y230887D01*
X109715Y230053D01*
X110180Y235470D01*
X114365D01*
G01X121650Y222553D02*
X127230Y235470D01*
G01X139940Y222970D02*
X133740D01*
Y235470D01*
X139940D01*
G01X137460Y229428D02*
X133740D01*
G01X152650Y234428D02*
X151720Y235053D01*
X150635Y235470D01*
X149395D01*
X148000Y234845D01*
X146915Y233803D01*
X146140Y232553D01*
X145520Y230470D01*
X145365Y228595D01*
X145675Y226720D01*
X146140Y225470D01*
X147070Y224220D01*
X148155Y223387D01*
X149240Y222970D01*
X150325D01*
X151410Y223387D01*
X152340Y224011D01*
X153115Y224845D01*
G01X162415Y218803D02*
X163965Y220887D01*
X164740Y222970D01*
Y231303D01*
X163965Y233387D01*
X162415Y235470D01*
G01X174040Y222553D02*
X173730Y222762D01*
Y223178D01*
X174040Y223387D01*
X174350Y223178D01*
Y222762D01*
X174040Y222553D01*
G01X-91360Y259310D02*
X-89190Y246810D01*
X-86710Y259310D01*
X-84230Y246810D01*
X-82060Y259310D01*
G01X-76170D02*
X-72450D01*
G01X-74310D02*
Y246810D01*
G01X-76170D02*
X-72450D01*
G01X-61910Y259310D02*
Y246810D01*
G01X-65475Y259310D02*
X-58345D01*
G01X-52765Y246810D02*
Y259310D01*
G01X-46255D02*
Y246810D01*
G01Y253060D02*
X-52765D01*
G01X-27810Y259310D02*
Y246810D01*
X-21610D01*
G01X-9210D02*
X-15410D01*
Y259310D01*
X-9210D01*
G01X-11690Y253268D02*
X-15410D01*
G01X-3785Y246810D02*
X90Y259310D01*
X3965Y246810D01*
G01X2570Y251185D02*
X-2390D01*
G01X9080Y246810D02*
Y259310D01*
X12180D01*
X13420Y258685D01*
X14350Y257852D01*
X15125Y256602D01*
X15745Y255143D01*
X15900Y253060D01*
X15745Y250977D01*
X15125Y249518D01*
X14350Y248268D01*
X13420Y247435D01*
X12180Y246810D01*
X9080D01*
G01X22875Y250977D02*
X26905D01*
G01X34345Y246810D02*
Y259310D01*
X40235D01*
G01X38065Y253268D02*
X34345D01*
G01X46590Y246810D02*
Y259310D01*
X50465D01*
X51705Y258685D01*
X52480Y257852D01*
X52790Y256185D01*
X52480Y254518D01*
X51550Y253477D01*
X50465Y252852D01*
X46590D01*
G01X50465D02*
X52790Y246810D01*
G01X65190D02*
X58990D01*
Y259310D01*
X65190D01*
G01X62710Y253268D02*
X58990D01*
G01X77590Y246810D02*
X71390D01*
Y259310D01*
X77590D01*
G01X75110Y253268D02*
X71390D01*
G01X95415Y246810D02*
X99290Y259310D01*
X103165Y246810D01*
G01X101770Y251185D02*
X96810D01*
G01X108125Y246810D02*
Y259310D01*
X115255Y246810D01*
Y259310D01*
G01X120680Y246810D02*
Y259310D01*
X123780D01*
X125020Y258685D01*
X125950Y257852D01*
X126725Y256602D01*
X127345Y255143D01*
X127500Y253060D01*
X127345Y250977D01*
X126725Y249518D01*
X125950Y248268D01*
X125020Y247435D01*
X123780Y246810D01*
X120680D01*
G01X145790D02*
Y259310D01*
X149665D01*
X150905Y258685D01*
X151680Y257852D01*
X151990Y256185D01*
X151680Y254518D01*
X150750Y253477D01*
X149665Y252852D01*
X145790D01*
G01X149665D02*
X151990Y246810D01*
G01X161290D02*
X160360Y247018D01*
X159430Y247851D01*
X158810Y249310D01*
X158500Y250977D01*
X158810Y252643D01*
X159430Y254102D01*
X160360Y254935D01*
X161290Y255143D01*
X162220Y254935D01*
X163150Y254102D01*
X163770Y252643D01*
X163925Y250977D01*
X163770Y249310D01*
X163150Y247851D01*
X162220Y247018D01*
X161290Y246810D01*
G01X170435D02*
Y259310D01*
G01X176945D02*
Y246810D01*
G01Y253060D02*
X170435D01*
G01X182835Y248476D02*
X184075Y247435D01*
X185470Y246810D01*
X186710D01*
X187950Y247435D01*
X188880Y248476D01*
X189345Y249935D01*
X189035Y251393D01*
X188260Y252643D01*
X186865Y253477D01*
X185005Y253893D01*
X183920Y254727D01*
X183455Y256185D01*
X183765Y257643D01*
X184540Y258685D01*
X185625Y259310D01*
X186710D01*
X187795Y258893D01*
X188725Y257852D01*
G01X207790Y246810D02*
Y259310D01*
X211510D01*
X212750Y258685D01*
X213680Y257227D01*
X213990Y255560D01*
X213680Y253893D01*
X212905Y252643D01*
X211510Y252018D01*
X207790D01*
G01X226700Y258268D02*
X225770Y258893D01*
X224685Y259310D01*
X223445D01*
X222050Y258685D01*
X220965Y257643D01*
X220190Y256393D01*
X219570Y254310D01*
X219415Y252435D01*
X219725Y250560D01*
X220190Y249310D01*
X221120Y248060D01*
X222205Y247227D01*
X223290Y246810D01*
X224375D01*
X225460Y247227D01*
X226390Y247851D01*
X227165Y248685D01*
G01X236930Y253477D02*
X237550Y254102D01*
X238015Y255143D01*
X238325Y256602D01*
X238015Y257852D01*
X237395Y258685D01*
X236310Y259310D01*
X232125D01*
Y246810D01*
X237240D01*
X238325Y247643D01*
X238945Y248893D01*
X239255Y250352D01*
X238945Y251810D01*
X238015Y253060D01*
X236930Y253477D01*
X232125D01*
G01X256615Y246810D02*
X260490Y259310D01*
X264365Y246810D01*
G01X262970Y251185D02*
X258010D01*
G01X269635Y248476D02*
X270875Y247435D01*
X272270Y246810D01*
X273510D01*
X274750Y247435D01*
X275680Y248476D01*
X276145Y249935D01*
X275835Y251393D01*
X275060Y252643D01*
X273665Y253477D01*
X271805Y253893D01*
X270720Y254727D01*
X270255Y256185D01*
X270565Y257643D01*
X271340Y258685D01*
X272425Y259310D01*
X273510D01*
X274595Y258893D01*
X275525Y257852D01*
G01X282035Y248476D02*
X283275Y247435D01*
X284670Y246810D01*
X285910D01*
X287150Y247435D01*
X288080Y248476D01*
X288545Y249935D01*
X288235Y251393D01*
X287460Y252643D01*
X286065Y253477D01*
X284205Y253893D01*
X283120Y254727D01*
X282655Y256185D01*
X282965Y257643D01*
X283740Y258685D01*
X284825Y259310D01*
X285910D01*
X286995Y258893D01*
X287925Y257852D01*
G01X300790Y246810D02*
X294590D01*
Y259310D01*
X300790D01*
G01X298310Y253268D02*
X294590D01*
G01X306060Y246810D02*
Y259310D01*
X310090Y248893D01*
X314120Y259310D01*
Y246810D01*
G01X323730Y253477D02*
X324350Y254102D01*
X324815Y255143D01*
X325125Y256602D01*
X324815Y257852D01*
X324195Y258685D01*
X323110Y259310D01*
X318925D01*
Y246810D01*
X324040D01*
X325125Y247643D01*
X325745Y248893D01*
X326055Y250352D01*
X325745Y251810D01*
X324815Y253060D01*
X323730Y253477D01*
X318925D01*
G01X331790Y259310D02*
Y246810D01*
X337990D01*
G01X347290D02*
Y252435D01*
X344190Y259310D01*
G01X350390D02*
X347290Y252435D01*
G01X368835Y248476D02*
X370075Y247435D01*
X371470Y246810D01*
X372710D01*
X373950Y247435D01*
X374880Y248476D01*
X375345Y249935D01*
X375035Y251393D01*
X374260Y252643D01*
X372865Y253477D01*
X371005Y253893D01*
X369920Y254727D01*
X369455Y256185D01*
X369765Y257643D01*
X370540Y258685D01*
X371625Y259310D01*
X372710D01*
X373795Y258893D01*
X374725Y257852D01*
G01X384490Y259310D02*
Y246810D01*
G01X380925Y259310D02*
X388055D01*
G01X393015Y246810D02*
X396890Y259310D01*
X400765Y246810D01*
G01X399370Y251185D02*
X394410D01*
G01X405725Y246810D02*
Y259310D01*
X412855Y246810D01*
Y259310D01*
G01X418280Y246810D02*
Y259310D01*
X421380D01*
X422620Y258685D01*
X423550Y257852D01*
X424325Y256602D01*
X424945Y255143D01*
X425100Y253060D01*
X424945Y250977D01*
X424325Y249518D01*
X423550Y248268D01*
X422620Y247435D01*
X421380Y246810D01*
X418280D01*
G01X430215D02*
X434090Y259310D01*
X437965Y246810D01*
G01X436570Y251185D02*
X431610D01*
G01X443390Y246810D02*
Y259310D01*
X447265D01*
X448505Y258685D01*
X449280Y257852D01*
X449590Y256185D01*
X449280Y254518D01*
X448350Y253477D01*
X447265Y252852D01*
X443390D01*
G01X447265D02*
X449590Y246810D01*
G01X455480D02*
Y259310D01*
X458580D01*
X459820Y258685D01*
X460750Y257852D01*
X461525Y256602D01*
X462145Y255143D01*
X462300Y253060D01*
X462145Y250977D01*
X461525Y249518D01*
X460750Y248268D01*
X459820Y247435D01*
X458580Y246810D01*
X455480D01*
G01X468035Y248476D02*
X469275Y247435D01*
X470670Y246810D01*
X471910D01*
X473150Y247435D01*
X474080Y248476D01*
X474545Y249935D01*
X474235Y251393D01*
X473460Y252643D01*
X472065Y253477D01*
X470205Y253893D01*
X469120Y254727D01*
X468655Y256185D01*
X468965Y257643D01*
X469740Y258685D01*
X470825Y259310D01*
X471910D01*
X472995Y258893D01*
X473925Y257852D01*
G01X495315Y242643D02*
X493765Y244727D01*
X492990Y246810D01*
Y255143D01*
X493765Y257227D01*
X495315Y259310D01*
G01X511590Y246810D02*
X505390D01*
Y259310D01*
X511590D01*
G01X509110Y253268D02*
X505390D01*
G01X517480Y259310D02*
Y250352D01*
X518100Y248476D01*
X519340Y247227D01*
X520890Y246810D01*
X522440Y247227D01*
X523680Y248476D01*
X524300Y250352D01*
Y259310D01*
G01X542590Y246810D02*
Y259310D01*
X546465D01*
X547705Y258685D01*
X548480Y257852D01*
X548790Y256185D01*
X548480Y254518D01*
X547550Y253477D01*
X546465Y252852D01*
X542590D01*
G01X546465D02*
X548790Y246810D01*
G01X558090D02*
X557160Y247018D01*
X556230Y247851D01*
X555610Y249310D01*
X555300Y250977D01*
X555610Y252643D01*
X556230Y254102D01*
X557160Y254935D01*
X558090Y255143D01*
X559020Y254935D01*
X559950Y254102D01*
X560570Y252643D01*
X560725Y250977D01*
X560570Y249310D01*
X559950Y247851D01*
X559020Y247018D01*
X558090Y246810D01*
G01X567235D02*
Y259310D01*
G01X573745D02*
Y246810D01*
G01Y253060D02*
X567235D01*
G01X579635Y248476D02*
X580875Y247435D01*
X582270Y246810D01*
X583510D01*
X584750Y247435D01*
X585680Y248476D01*
X586145Y249935D01*
X585835Y251393D01*
X585060Y252643D01*
X583665Y253477D01*
X581805Y253893D01*
X580720Y254727D01*
X580255Y256185D01*
X580565Y257643D01*
X581340Y258685D01*
X582425Y259310D01*
X583510D01*
X584595Y258893D01*
X585525Y257852D01*
G01X-8500Y69000D02*
X66500D01*
X69000Y66500D01*
Y-8500D01*
X66500Y-11000D01*
X-8500D01*
X-11000Y-8500D01*
Y66500D01*
X-8500Y69000D01*
G01X1898Y14694D02*
Y18906D01*
X4102D01*
Y14694D01*
X1898D01*
G01X1998Y21394D02*
Y25606D01*
X4202D01*
Y21394D01*
X1998D01*
G01X-4661Y17763D02*
Y25637D01*
X261D01*
Y17763D01*
X-4661D01*
G01X29342Y16670D02*
Y24544D01*
X34264D01*
Y16670D01*
X29342D01*
G01X15562Y27216D02*
Y15798D01*
X10444D01*
Y27216D01*
X15562D01*
G01X37802Y13006D02*
Y8794D01*
X35598D01*
Y13006D01*
X37802D01*
G01X28233Y13418D02*
Y9382D01*
X26167D01*
Y13418D01*
X28233D01*
G01X33275Y13050D02*
Y6750D01*
X30125D01*
Y13050D01*
X33275D01*
G01X31796Y58700D02*
Y39014D01*
X12110D01*
Y58700D01*
X31796D01*
G01X36809Y43198D02*
Y49616D01*
X39997D01*
Y43198D01*
X36809D01*
G01X26494Y29002D02*
X30706D01*
Y26798D01*
X26494D01*
Y29002D01*
G01X37906Y26898D02*
X33694D01*
Y29102D01*
X37906D01*
Y26898D01*
G01X20067Y30382D02*
Y34418D01*
X22133D01*
Y30382D01*
X20067D01*
G01X11250Y34775D02*
X17550D01*
Y31625D01*
X11250D01*
Y34775D01*
G01X37094Y62502D02*
X41306D01*
Y60298D01*
X37094D01*
Y62502D01*
G01X60359Y26609D02*
Y15191D01*
X55241D01*
Y26609D01*
X60359D01*
G01X48194Y24409D02*
Y17991D01*
X45006D01*
Y24409D01*
X48194D01*
G01X51950Y10225D02*
X45650D01*
Y13375D01*
X51950D01*
Y10225D01*
G01X41809Y43198D02*
Y49616D01*
X44997D01*
Y43198D01*
X41809D01*
G01X54194Y31702D02*
X58406D01*
Y29498D01*
X54194D01*
Y31702D01*
G01X60897Y31709D02*
X65109D01*
Y29505D01*
X60897D01*
Y31709D01*
G01X48733Y48118D02*
Y44082D01*
X46667D01*
Y48118D01*
X48733D01*
G01X45433Y64818D02*
Y60782D01*
X43367D01*
Y64818D01*
X45433D01*
G01X121500Y-519000D02*
X114500D01*
Y-499000D01*
X107000D01*
X118000Y-479000D01*
X129000Y-499000D01*
X121500D01*
Y-519000D01*
G01X120500Y-518000D02*
X115500D01*
Y-498000D01*
X108500D01*
X118000Y-480500D01*
X127500Y-498000D01*
X120500D01*
Y-518000D01*
G01X119500Y-517000D02*
X116500D01*
Y-497000D01*
X110000D01*
X118000Y-482000D01*
X126000Y-497000D01*
X119500D01*
Y-517000D01*
G01X118000Y-491500D02*
Y-490500D01*
G01X118500Y-516000D02*
X117500D01*
Y-496000D01*
X111500D01*
X118000Y-483500D01*
X124500Y-496000D01*
X118500D01*
Y-516000D01*
G01X123000Y-495000D02*
X113000D01*
X118000Y-485000D01*
X123000Y-495000D01*
G01X121500Y-494000D02*
X114500D01*
X118000Y-486500D01*
X121500Y-494000D01*
G01X120000Y-493000D02*
X116000D01*
X118000Y-488000D01*
X120000Y-493000D01*
G01X119000Y-492000D02*
X117000D01*
X118000Y-489500D01*
X119000Y-492000D01*
G01X118000Y1133500D02*
Y1132500D01*
G01X117000Y1134000D02*
X119000D01*
X118000Y1131500D01*
X117000Y1134000D01*
G01X116000Y1135000D02*
X120000D01*
X118000Y1130000D01*
X116000Y1135000D01*
G01X114500Y1136000D02*
X121500D01*
X118000Y1128500D01*
X114500Y1136000D01*
G01X113000Y1137000D02*
X123000D01*
X118000Y1127000D01*
X113000Y1137000D01*
G01X117500Y1158000D02*
X118500D01*
Y1138000D01*
X124500D01*
X118000Y1125500D01*
X111500Y1138000D01*
X117500D01*
Y1158000D01*
G01X116500Y1159000D02*
X119500D01*
Y1139000D01*
X126000D01*
X118000Y1124000D01*
X110000Y1139000D01*
X116500D01*
Y1159000D01*
G01X115500Y1160000D02*
X120500D01*
Y1140000D01*
X127500D01*
X118000Y1122500D01*
X108500Y1140000D01*
X115500D01*
Y1160000D01*
G01X114500Y1161000D02*
X121500D01*
Y1141000D01*
X129000D01*
X118000Y1121000D01*
X107000Y1141000D01*
X114500D01*
Y1161000D01*
G01X323000Y-479000D02*
X1168000D01*
Y-154000D01*
G01Y1046000D02*
Y1121000D01*
X323000D01*
G01X366300Y-471500D02*
Y-463500D01*
X368300D01*
X369100Y-463900D01*
X369700Y-464433D01*
X370200Y-465233D01*
X370600Y-466167D01*
X370700Y-467500D01*
X370600Y-468833D01*
X370200Y-469767D01*
X369700Y-470567D01*
X369100Y-471100D01*
X368300Y-471500D01*
X366300D01*
G01X376500D02*
X375700Y-471367D01*
X375000Y-470833D01*
X374400Y-470033D01*
X374000Y-469100D01*
X373800Y-468033D01*
Y-466967D01*
X374000Y-465900D01*
X374400Y-464967D01*
X375000Y-464167D01*
X375700Y-463633D01*
X376500Y-463500D01*
X377300Y-463633D01*
X378000Y-464167D01*
X378600Y-464967D01*
X379000Y-465900D01*
X379200Y-466967D01*
Y-468033D01*
X379000Y-469100D01*
X378600Y-470033D01*
X378000Y-470833D01*
X377300Y-471367D01*
X376500Y-471500D01*
G01X390200D02*
Y-463500D01*
X394800Y-471500D01*
Y-463500D01*
G01X400500Y-471500D02*
X399700Y-471367D01*
X399000Y-470833D01*
X398400Y-470033D01*
X398000Y-469100D01*
X397800Y-468033D01*
Y-466967D01*
X398000Y-465900D01*
X398400Y-464967D01*
X399000Y-464167D01*
X399700Y-463633D01*
X400500Y-463500D01*
X401300Y-463633D01*
X402000Y-464167D01*
X402600Y-464967D01*
X403000Y-465900D01*
X403200Y-466967D01*
Y-468033D01*
X403000Y-469100D01*
X402600Y-470033D01*
X402000Y-470833D01*
X401300Y-471367D01*
X400500Y-471500D01*
G01X408500Y-463500D02*
Y-471500D01*
G01X406200Y-463500D02*
X410800D01*
G01X422400Y-470434D02*
X423200Y-471100D01*
X424100Y-471500D01*
X424900D01*
X425700Y-471100D01*
X426300Y-470434D01*
X426600Y-469500D01*
X426400Y-468567D01*
X425900Y-467767D01*
X425000Y-467233D01*
X423800Y-466967D01*
X423100Y-466433D01*
X422800Y-465500D01*
X423000Y-464567D01*
X423500Y-463900D01*
X424200Y-463500D01*
X424900D01*
X425600Y-463767D01*
X426200Y-464433D01*
G01X434700Y-464167D02*
X434100Y-463767D01*
X433400Y-463500D01*
X432600D01*
X431700Y-463900D01*
X431000Y-464567D01*
X430500Y-465367D01*
X430100Y-466700D01*
X430000Y-467900D01*
X430200Y-469100D01*
X430500Y-469900D01*
X431100Y-470700D01*
X431800Y-471233D01*
X432500Y-471500D01*
X433200D01*
X433900Y-471233D01*
X434500Y-470833D01*
X435000Y-470300D01*
G01X438000Y-471500D02*
X440500Y-463500D01*
X443000Y-471500D01*
G01X442100Y-468700D02*
X438900D01*
G01X446500Y-463500D02*
Y-471500D01*
X450500D01*
G01X458500D02*
X454500D01*
Y-463500D01*
X458500D01*
G01X456900Y-467367D02*
X454500D01*
G01X470300Y-471500D02*
Y-463500D01*
X472300D01*
X473100Y-463900D01*
X473700Y-464433D01*
X474200Y-465233D01*
X474600Y-466167D01*
X474700Y-467500D01*
X474600Y-468833D01*
X474200Y-469767D01*
X473700Y-470567D01*
X473100Y-471100D01*
X472300Y-471500D01*
X470300D01*
G01X477500Y-463500D02*
X478900Y-471500D01*
X480500Y-463500D01*
X482100Y-471500D01*
X483500Y-463500D01*
G01X489100Y-467500D02*
X491100D01*
Y-469900D01*
X490500Y-470700D01*
X489800Y-471233D01*
X488800Y-471500D01*
X487800Y-471233D01*
X487100Y-470700D01*
X486500Y-469900D01*
X486100Y-468967D01*
X485900Y-467900D01*
Y-466967D01*
X486100Y-466167D01*
X486500Y-465233D01*
X487100Y-464433D01*
X487700Y-463900D01*
X488500Y-463500D01*
X489200D01*
X490000Y-463767D01*
X490600Y-464300D01*
G01X348000Y-479000D02*
Y-179000D01*
X1168000D01*
G01X348000Y-454000D02*
X1168000D01*
G01X356600Y-394000D02*
Y-386000D01*
X360400D01*
G01X359000Y-389867D02*
X356600D01*
G01X365300Y-386000D02*
X367700D01*
G01X366500D02*
Y-394000D01*
G01X365300D02*
X367700D01*
G01X372200D02*
Y-386000D01*
X376800Y-394000D01*
Y-386000D01*
G01X381300D02*
X383700D01*
G01X382500D02*
Y-394000D01*
G01X381300D02*
X383700D01*
G01X388400Y-392934D02*
X389200Y-393600D01*
X390100Y-394000D01*
X390900D01*
X391700Y-393600D01*
X392300Y-392934D01*
X392600Y-392000D01*
X392400Y-391067D01*
X391900Y-390267D01*
X391000Y-389733D01*
X389800Y-389467D01*
X389100Y-388933D01*
X388800Y-388000D01*
X389000Y-387067D01*
X389500Y-386400D01*
X390200Y-386000D01*
X390900D01*
X391600Y-386267D01*
X392200Y-386933D01*
G01X396400Y-394000D02*
Y-386000D01*
G01X400600D02*
Y-394000D01*
G01Y-390000D02*
X396400D01*
G01X348000Y-379000D02*
X1168000D01*
G01X355900Y-294000D02*
Y-286000D01*
X358500Y-292667D01*
X361100Y-286000D01*
Y-294000D01*
G01X364000D02*
X366500Y-286000D01*
X369000Y-294000D01*
G01X368100Y-291200D02*
X364900D01*
G01X374500Y-286000D02*
Y-294000D01*
G01X372200Y-286000D02*
X376800D01*
G01X384500Y-294000D02*
X380500D01*
Y-286000D01*
X384500D01*
G01X382900Y-289867D02*
X380500D01*
G01X388500Y-294000D02*
Y-286000D01*
X391000D01*
X391800Y-286400D01*
X392300Y-286933D01*
X392500Y-288000D01*
X392300Y-289067D01*
X391700Y-289733D01*
X391000Y-290133D01*
X388500D01*
G01X391000D02*
X392500Y-294000D01*
G01X397300Y-286000D02*
X399700D01*
G01X398500D02*
Y-294000D01*
G01X397300D02*
X399700D01*
G01X404000D02*
X406500Y-286000D01*
X409000Y-294000D01*
G01X408100Y-291200D02*
X404900D01*
G01X412500Y-286000D02*
Y-294000D01*
X416500D01*
G01X718000Y-279000D02*
X348000D01*
G01X359900Y-251667D02*
X359773Y-251583D01*
Y-251417D01*
X359900Y-251333D01*
X360027Y-251417D01*
Y-251583D01*
X359900Y-251667D01*
G01X363670Y-251500D02*
X366330Y-246500D01*
G01X363670D02*
X366330Y-251500D01*
G01X368770D02*
X371430Y-246500D01*
G01X368770D02*
X371430Y-251500D01*
G01X379603Y-249833D02*
X381123D01*
G01X380300Y-248750D02*
Y-250917D01*
G01X384577Y-249833D02*
X386223D01*
G01X390500Y-251667D02*
X390373Y-251583D01*
Y-251417D01*
X390500Y-251333D01*
X390627Y-251417D01*
Y-251583D01*
X390500Y-251667D01*
G01X395600Y-246500D02*
X395093Y-246667D01*
X394713Y-247083D01*
X394460Y-247583D01*
X394270Y-248250D01*
X394207Y-249000D01*
X394270Y-249750D01*
X394460Y-250417D01*
X394713Y-250917D01*
X395093Y-251333D01*
X395600Y-251500D01*
X396107Y-251333D01*
X396487Y-250917D01*
X396740Y-250417D01*
X396930Y-249750D01*
X396993Y-249000D01*
X396930Y-248250D01*
X396740Y-247583D01*
X396487Y-247083D01*
X396107Y-246667D01*
X395600Y-246500D01*
G01X400700Y-251500D02*
Y-246500D01*
X399940Y-247500D01*
G01Y-251500D02*
X401460D01*
G01X405800Y-246500D02*
X405293Y-246667D01*
X404913Y-247083D01*
X404660Y-247583D01*
X404470Y-248250D01*
X404407Y-249000D01*
X404470Y-249750D01*
X404660Y-250417D01*
X404913Y-250917D01*
X405293Y-251333D01*
X405800Y-251500D01*
X406307Y-251333D01*
X406687Y-250917D01*
X406940Y-250417D01*
X407130Y-249750D01*
X407193Y-249000D01*
X407130Y-248250D01*
X406940Y-247583D01*
X406687Y-247083D01*
X406307Y-246667D01*
X405800Y-246500D01*
G01X359900Y-261667D02*
X359773Y-261583D01*
Y-261417D01*
X359900Y-261333D01*
X360027Y-261417D01*
Y-261583D01*
X359900Y-261667D01*
G01X363670Y-261500D02*
X366330Y-256500D01*
G01X363670D02*
X366330Y-261500D01*
G01X368770D02*
X371430Y-256500D01*
G01X368770D02*
X371430Y-261500D01*
G01X373870D02*
X376530Y-256500D01*
G01X373870D02*
X376530Y-261500D01*
G01X384703Y-259833D02*
X386223D01*
G01X385400Y-258750D02*
Y-260917D01*
G01X389677Y-259833D02*
X391323D01*
G01X395600Y-261667D02*
X395473Y-261583D01*
Y-261417D01*
X395600Y-261333D01*
X395727Y-261417D01*
Y-261583D01*
X395600Y-261667D01*
G01X400700Y-256500D02*
X400193Y-256667D01*
X399813Y-257083D01*
X399560Y-257583D01*
X399370Y-258250D01*
X399307Y-259000D01*
X399370Y-259750D01*
X399560Y-260417D01*
X399813Y-260917D01*
X400193Y-261333D01*
X400700Y-261500D01*
X401207Y-261333D01*
X401587Y-260917D01*
X401840Y-260417D01*
X402030Y-259750D01*
X402093Y-259000D01*
X402030Y-258250D01*
X401840Y-257583D01*
X401587Y-257083D01*
X401207Y-256667D01*
X400700Y-256500D01*
G01X405800D02*
X405293Y-256667D01*
X404913Y-257083D01*
X404660Y-257583D01*
X404470Y-258250D01*
X404407Y-259000D01*
X404470Y-259750D01*
X404660Y-260417D01*
X404913Y-260917D01*
X405293Y-261333D01*
X405800Y-261500D01*
X406307Y-261333D01*
X406687Y-260917D01*
X406940Y-260417D01*
X407130Y-259750D01*
X407193Y-259000D01*
X407130Y-258250D01*
X406940Y-257583D01*
X406687Y-257083D01*
X406307Y-256667D01*
X405800Y-256500D01*
G01X409507Y-260750D02*
X409887Y-261167D01*
X410330Y-261417D01*
X410900Y-261500D01*
X411470Y-261333D01*
X411913Y-261000D01*
X412230Y-260417D01*
X412293Y-259750D01*
X412167Y-259083D01*
X411850Y-258667D01*
X411407Y-258333D01*
X410963Y-258250D01*
X410520Y-258333D01*
X409950Y-258667D01*
X410140Y-256500D01*
X411850D01*
G01X359900Y-271667D02*
X359773Y-271583D01*
Y-271417D01*
X359900Y-271333D01*
X360027Y-271417D01*
Y-271583D01*
X359900Y-271667D01*
G01X363670Y-271500D02*
X366330Y-266500D01*
G01X363670D02*
X366330Y-271500D01*
G01X368770D02*
X371430Y-266500D01*
G01X368770D02*
X371430Y-271500D01*
G01X373870D02*
X376530Y-266500D01*
G01X373870D02*
X376530Y-271500D01*
G01X378970D02*
X381630Y-266500D01*
G01X378970D02*
X381630Y-271500D01*
G01X389803Y-269833D02*
X391323D01*
G01X390500Y-268750D02*
Y-270917D01*
G01X394777Y-269833D02*
X396423D01*
G01X400700Y-271667D02*
X400573Y-271583D01*
Y-271417D01*
X400700Y-271333D01*
X400827Y-271417D01*
Y-271583D01*
X400700Y-271667D01*
G01X405800Y-266500D02*
X405293Y-266667D01*
X404913Y-267083D01*
X404660Y-267583D01*
X404470Y-268250D01*
X404407Y-269000D01*
X404470Y-269750D01*
X404660Y-270417D01*
X404913Y-270917D01*
X405293Y-271333D01*
X405800Y-271500D01*
X406307Y-271333D01*
X406687Y-270917D01*
X406940Y-270417D01*
X407130Y-269750D01*
X407193Y-269000D01*
X407130Y-268250D01*
X406940Y-267583D01*
X406687Y-267083D01*
X406307Y-266667D01*
X405800Y-266500D01*
G01X410900D02*
X410393Y-266667D01*
X410013Y-267083D01*
X409760Y-267583D01*
X409570Y-268250D01*
X409507Y-269000D01*
X409570Y-269750D01*
X409760Y-270417D01*
X410013Y-270917D01*
X410393Y-271333D01*
X410900Y-271500D01*
X411407Y-271333D01*
X411787Y-270917D01*
X412040Y-270417D01*
X412230Y-269750D01*
X412293Y-269000D01*
X412230Y-268250D01*
X412040Y-267583D01*
X411787Y-267083D01*
X411407Y-266667D01*
X410900Y-266500D01*
G01X414607Y-270750D02*
X414987Y-271167D01*
X415430Y-271417D01*
X416000Y-271500D01*
X416570Y-271333D01*
X417013Y-271000D01*
X417330Y-270417D01*
X417393Y-269750D01*
X417267Y-269083D01*
X416950Y-268667D01*
X416507Y-268333D01*
X416063Y-268250D01*
X415620Y-268333D01*
X415050Y-268667D01*
X415240Y-266500D01*
X416950D01*
G01X421100D02*
X420593Y-266667D01*
X420213Y-267083D01*
X419960Y-267583D01*
X419770Y-268250D01*
X419707Y-269000D01*
X419770Y-269750D01*
X419960Y-270417D01*
X420213Y-270917D01*
X420593Y-271333D01*
X421100Y-271500D01*
X421607Y-271333D01*
X421987Y-270917D01*
X422240Y-270417D01*
X422430Y-269750D01*
X422493Y-269000D01*
X422430Y-268250D01*
X422240Y-267583D01*
X421987Y-267083D01*
X421607Y-266667D01*
X421100Y-266500D01*
G01X358507Y-239000D02*
Y-234000D01*
X359773D01*
X360280Y-234250D01*
X360660Y-234583D01*
X360977Y-235083D01*
X361230Y-235667D01*
X361293Y-236500D01*
X361230Y-237333D01*
X360977Y-237917D01*
X360660Y-238417D01*
X360280Y-238750D01*
X359773Y-239000D01*
X358507D01*
G01X366267D02*
X363733D01*
Y-234000D01*
X366267D01*
G01X365253Y-236417D02*
X363733D01*
G01X371493Y-234417D02*
X371113Y-234167D01*
X370670Y-234000D01*
X370163D01*
X369593Y-234250D01*
X369150Y-234667D01*
X368833Y-235167D01*
X368580Y-236000D01*
X368517Y-236750D01*
X368643Y-237500D01*
X368833Y-238000D01*
X369213Y-238500D01*
X369657Y-238833D01*
X370100Y-239000D01*
X370543D01*
X370987Y-238833D01*
X371367Y-238583D01*
X371683Y-238250D01*
G01X374440Y-234000D02*
X375960D01*
G01X375200D02*
Y-239000D01*
G01X374440D02*
X375960D01*
G01X378653D02*
Y-234000D01*
X380300Y-238167D01*
X381947Y-234000D01*
Y-239000D01*
G01X383817D02*
X385400Y-234000D01*
X386983Y-239000D01*
G01X386413Y-237250D02*
X384387D01*
G01X389233Y-234000D02*
Y-239000D01*
X391767D01*
G01X394270Y-238333D02*
X394777Y-238750D01*
X395347Y-239000D01*
X395853D01*
X396360Y-238750D01*
X396740Y-238333D01*
X396930Y-237750D01*
X396803Y-237167D01*
X396487Y-236667D01*
X395917Y-236333D01*
X395157Y-236167D01*
X394713Y-235833D01*
X394523Y-235250D01*
X394650Y-234667D01*
X394967Y-234250D01*
X395410Y-234000D01*
X395853D01*
X396297Y-234167D01*
X396677Y-234583D01*
G01X361127Y-209000D02*
Y-202700D01*
X362693D01*
X363320Y-203015D01*
X363790Y-203435D01*
X364182Y-204065D01*
X364495Y-204800D01*
X364573Y-205850D01*
X364495Y-206900D01*
X364182Y-207635D01*
X363790Y-208265D01*
X363320Y-208685D01*
X362693Y-209000D01*
X361127D01*
G01X368210Y-202700D02*
X370090D01*
G01X369150D02*
Y-209000D01*
G01X368210D02*
X370090D01*
G01X373413D02*
Y-202700D01*
X375450Y-207950D01*
X377487Y-202700D01*
Y-209000D01*
G01X383317D02*
X380183D01*
Y-202700D01*
X383317D01*
G01X382063Y-205745D02*
X380183D01*
G01X386248Y-209000D02*
Y-202700D01*
X389852Y-209000D01*
Y-202700D01*
G01X392705Y-208160D02*
X393332Y-208685D01*
X394037Y-209000D01*
X394663D01*
X395290Y-208685D01*
X395760Y-208160D01*
X395995Y-207425D01*
X395838Y-206690D01*
X395447Y-206060D01*
X394742Y-205640D01*
X393802Y-205430D01*
X393253Y-205010D01*
X393018Y-204275D01*
X393175Y-203540D01*
X393567Y-203015D01*
X394115Y-202700D01*
X394663D01*
X395212Y-202910D01*
X395682Y-203435D01*
G01X399710Y-202700D02*
X401590D01*
G01X400650D02*
Y-209000D01*
G01X399710D02*
X401590D01*
G01X406950D02*
X406323Y-208895D01*
X405775Y-208475D01*
X405305Y-207845D01*
X404992Y-207110D01*
X404835Y-206270D01*
Y-205430D01*
X404992Y-204590D01*
X405305Y-203855D01*
X405775Y-203225D01*
X406323Y-202805D01*
X406950Y-202700D01*
X407577Y-202805D01*
X408125Y-203225D01*
X408595Y-203855D01*
X408908Y-204590D01*
X409065Y-205430D01*
Y-206270D01*
X408908Y-207110D01*
X408595Y-207845D01*
X408125Y-208475D01*
X407577Y-208895D01*
X406950Y-209000D01*
G01X411448D02*
Y-202700D01*
X415052Y-209000D01*
Y-202700D01*
G01X417905Y-208160D02*
X418532Y-208685D01*
X419237Y-209000D01*
X419863D01*
X420490Y-208685D01*
X420960Y-208160D01*
X421195Y-207425D01*
X421038Y-206690D01*
X420647Y-206060D01*
X419942Y-205640D01*
X419002Y-205430D01*
X418453Y-205010D01*
X418218Y-204275D01*
X418375Y-203540D01*
X418767Y-203015D01*
X419315Y-202700D01*
X419863D01*
X420412Y-202910D01*
X420882Y-203435D01*
G01X430192Y-209000D02*
X432150Y-202700D01*
X434108Y-209000D01*
G01X433403Y-206795D02*
X430897D01*
G01X436883Y-209000D02*
Y-202700D01*
X438842D01*
X439468Y-203015D01*
X439860Y-203435D01*
X440017Y-204275D01*
X439860Y-205115D01*
X439390Y-205640D01*
X438842Y-205955D01*
X436883D01*
G01X438842D02*
X440017Y-209000D01*
G01X446317D02*
X443183D01*
Y-202700D01*
X446317D01*
G01X445063Y-205745D02*
X443183D01*
G01X456410Y-202700D02*
X458290D01*
G01X457350D02*
Y-209000D01*
G01X456410D02*
X458290D01*
G01X461848D02*
Y-202700D01*
X465452Y-209000D01*
Y-202700D01*
G01X475310D02*
X477190D01*
G01X476250D02*
Y-209000D01*
G01X475310D02*
X477190D01*
G01X480748D02*
Y-202700D01*
X484352Y-209000D01*
Y-202700D01*
G01X490573Y-203225D02*
X490103Y-202910D01*
X489555Y-202700D01*
X488928D01*
X488223Y-203015D01*
X487675Y-203540D01*
X487283Y-204170D01*
X486970Y-205220D01*
X486892Y-206165D01*
X487048Y-207110D01*
X487283Y-207740D01*
X487753Y-208370D01*
X488302Y-208790D01*
X488850Y-209000D01*
X489398D01*
X489947Y-208790D01*
X490417Y-208475D01*
X490808Y-208055D01*
G01X493505Y-209000D02*
Y-202700D01*
G01X496795D02*
Y-209000D01*
G01Y-205850D02*
X493505D01*
G01X503017Y-209000D02*
X499883D01*
Y-202700D01*
X503017D01*
G01X501763Y-205745D02*
X499883D01*
G01X506105Y-208160D02*
X506732Y-208685D01*
X507437Y-209000D01*
X508063D01*
X508690Y-208685D01*
X509160Y-208160D01*
X509395Y-207425D01*
X509238Y-206690D01*
X508847Y-206060D01*
X508142Y-205640D01*
X507202Y-205430D01*
X506653Y-205010D01*
X506418Y-204275D01*
X506575Y-203540D01*
X506967Y-203015D01*
X507515Y-202700D01*
X508063D01*
X508612Y-202910D01*
X509082Y-203435D01*
G01X353627Y-190200D02*
Y-194715D01*
X353940Y-195660D01*
X354567Y-196290D01*
X355350Y-196500D01*
X356133Y-196290D01*
X356760Y-195660D01*
X357073Y-194715D01*
Y-190200D01*
G01X359848Y-196500D02*
Y-190200D01*
X363452Y-196500D01*
Y-190200D01*
G01X366383D02*
Y-196500D01*
X369517D01*
G01X375817D02*
X372683D01*
Y-190200D01*
X375817D01*
G01X374563Y-193245D02*
X372683D01*
G01X378905Y-195660D02*
X379532Y-196185D01*
X380237Y-196500D01*
X380863D01*
X381490Y-196185D01*
X381960Y-195660D01*
X382195Y-194925D01*
X382038Y-194190D01*
X381647Y-193560D01*
X380942Y-193140D01*
X380002Y-192930D01*
X379453Y-192510D01*
X379218Y-191775D01*
X379375Y-191040D01*
X379767Y-190515D01*
X380315Y-190200D01*
X380863D01*
X381412Y-190410D01*
X381882Y-190935D01*
G01X385205Y-195660D02*
X385832Y-196185D01*
X386537Y-196500D01*
X387163D01*
X387790Y-196185D01*
X388260Y-195660D01*
X388495Y-194925D01*
X388338Y-194190D01*
X387947Y-193560D01*
X387242Y-193140D01*
X386302Y-192930D01*
X385753Y-192510D01*
X385518Y-191775D01*
X385675Y-191040D01*
X386067Y-190515D01*
X386615Y-190200D01*
X387163D01*
X387712Y-190410D01*
X388182Y-190935D01*
G01X399450Y-196500D02*
X398823Y-196395D01*
X398275Y-195975D01*
X397805Y-195345D01*
X397492Y-194610D01*
X397335Y-193770D01*
Y-192930D01*
X397492Y-192090D01*
X397805Y-191355D01*
X398275Y-190725D01*
X398823Y-190305D01*
X399450Y-190200D01*
X400077Y-190305D01*
X400625Y-190725D01*
X401095Y-191355D01*
X401408Y-192090D01*
X401565Y-192930D01*
Y-193770D01*
X401408Y-194610D01*
X401095Y-195345D01*
X400625Y-195975D01*
X400077Y-196395D01*
X399450Y-196500D01*
G01X405750Y-190200D02*
Y-196500D01*
G01X403948Y-190200D02*
X407552D01*
G01X410405Y-196500D02*
Y-190200D01*
G01X413695D02*
Y-196500D01*
G01Y-193350D02*
X410405D01*
G01X419917Y-196500D02*
X416783D01*
Y-190200D01*
X419917D01*
G01X418663Y-193245D02*
X416783D01*
G01X423083Y-196500D02*
Y-190200D01*
X425042D01*
X425668Y-190515D01*
X426060Y-190935D01*
X426217Y-191775D01*
X426060Y-192615D01*
X425590Y-193140D01*
X425042Y-193455D01*
X423083D01*
G01X425042D02*
X426217Y-196500D01*
G01X428600Y-190200D02*
X429697Y-196500D01*
X430950Y-190200D01*
X432203Y-196500D01*
X433300Y-190200D01*
G01X436310D02*
X438190D01*
G01X437250D02*
Y-196500D01*
G01X436310D02*
X438190D01*
G01X441905Y-195660D02*
X442532Y-196185D01*
X443237Y-196500D01*
X443863D01*
X444490Y-196185D01*
X444960Y-195660D01*
X445195Y-194925D01*
X445038Y-194190D01*
X444647Y-193560D01*
X443942Y-193140D01*
X443002Y-192930D01*
X442453Y-192510D01*
X442218Y-191775D01*
X442375Y-191040D01*
X442767Y-190515D01*
X443315Y-190200D01*
X443863D01*
X444412Y-190410D01*
X444882Y-190935D01*
G01X451417Y-196500D02*
X448283D01*
Y-190200D01*
X451417D01*
G01X450163Y-193245D02*
X448283D01*
G01X460805Y-195660D02*
X461432Y-196185D01*
X462137Y-196500D01*
X462763D01*
X463390Y-196185D01*
X463860Y-195660D01*
X464095Y-194925D01*
X463938Y-194190D01*
X463547Y-193560D01*
X462842Y-193140D01*
X461902Y-192930D01*
X461353Y-192510D01*
X461118Y-191775D01*
X461275Y-191040D01*
X461667Y-190515D01*
X462215Y-190200D01*
X462763D01*
X463312Y-190410D01*
X463782Y-190935D01*
G01X467183Y-196500D02*
Y-190200D01*
X469063D01*
X469690Y-190515D01*
X470160Y-191250D01*
X470317Y-192090D01*
X470160Y-192930D01*
X469768Y-193560D01*
X469063Y-193875D01*
X467183D01*
G01X476617Y-196500D02*
X473483D01*
Y-190200D01*
X476617D01*
G01X475363Y-193245D02*
X473483D01*
G01X483073Y-190725D02*
X482603Y-190410D01*
X482055Y-190200D01*
X481428D01*
X480723Y-190515D01*
X480175Y-191040D01*
X479783Y-191670D01*
X479470Y-192720D01*
X479392Y-193665D01*
X479548Y-194610D01*
X479783Y-195240D01*
X480253Y-195870D01*
X480802Y-196290D01*
X481350Y-196500D01*
X481898D01*
X482447Y-196290D01*
X482917Y-195975D01*
X483308Y-195555D01*
G01X486710Y-190200D02*
X488590D01*
G01X487650D02*
Y-196500D01*
G01X486710D02*
X488590D01*
G01X492462D02*
Y-190200D01*
X495438D01*
G01X494342Y-193245D02*
X492462D01*
G01X499310Y-190200D02*
X501190D01*
G01X500250D02*
Y-196500D01*
G01X499310D02*
X501190D01*
G01X508117D02*
X504983D01*
Y-190200D01*
X508117D01*
G01X506863Y-193245D02*
X504983D01*
G01X511127Y-196500D02*
Y-190200D01*
X512693D01*
X513320Y-190515D01*
X513790Y-190935D01*
X514182Y-191565D01*
X514495Y-192300D01*
X514573Y-193350D01*
X514495Y-194400D01*
X514182Y-195135D01*
X513790Y-195765D01*
X513320Y-196185D01*
X512693Y-196500D01*
X511127D01*
G01X348000Y-171500D02*
Y-151500D01*
X354000D01*
X356000Y-152500D01*
X357500Y-154833D01*
X358000Y-157500D01*
X357500Y-160167D01*
X356250Y-162167D01*
X354000Y-163167D01*
X348000D01*
G01X368000Y-171500D02*
Y-151500D01*
X374250D01*
X376250Y-152500D01*
X377500Y-153833D01*
X378000Y-156500D01*
X377500Y-159167D01*
X376000Y-160833D01*
X374250Y-161834D01*
X368000D01*
G01X374250D02*
X378000Y-171500D01*
G01X390000Y-151500D02*
X396000D01*
G01X393000D02*
Y-171500D01*
G01X390000D02*
X396000D01*
G01X406500D02*
Y-151500D01*
X413000Y-168167D01*
X419500Y-151500D01*
Y-171500D01*
G01X426750D02*
X433000Y-151500D01*
X439250Y-171500D01*
G01X437000Y-164500D02*
X429000D01*
G01X448000Y-171500D02*
Y-151500D01*
X454250D01*
X456250Y-152500D01*
X457500Y-153833D01*
X458000Y-156500D01*
X457500Y-159167D01*
X456000Y-160833D01*
X454250Y-161834D01*
X448000D01*
G01X454250D02*
X458000Y-171500D01*
G01X473000D02*
Y-162500D01*
X468000Y-151500D01*
G01X478000D02*
X473000Y-162500D01*
G01X507750Y-168834D02*
X509750Y-170500D01*
X512000Y-171500D01*
X514000D01*
X516000Y-170500D01*
X517500Y-168834D01*
X518250Y-166500D01*
X517750Y-164167D01*
X516500Y-162167D01*
X514250Y-160833D01*
X511250Y-160167D01*
X509500Y-158834D01*
X508750Y-156500D01*
X509250Y-154167D01*
X510500Y-152500D01*
X512250Y-151500D01*
X514000D01*
X515750Y-152167D01*
X517250Y-153833D01*
G01X530000Y-151500D02*
X536000D01*
G01X533000D02*
Y-171500D01*
G01X530000D02*
X536000D01*
G01X547500D02*
Y-151500D01*
X552500D01*
X554500Y-152500D01*
X556000Y-153833D01*
X557250Y-155833D01*
X558250Y-158167D01*
X558500Y-161500D01*
X558250Y-164834D01*
X557250Y-167167D01*
X556000Y-169167D01*
X554500Y-170500D01*
X552500Y-171500D01*
X547500D01*
G01X578000D02*
X568000D01*
Y-151500D01*
X578000D01*
G01X574000Y-161166D02*
X568000D01*
G01X1168000Y1021000D02*
X348000D01*
G01Y1096000D02*
Y1021000D01*
G01X1168000Y1046000D02*
X348000D01*
G01X1168000D02*
X348000D01*
G01X1168000Y1071000D02*
X348000D01*
G01Y1121000D02*
Y1046000D01*
G01X360500Y1078500D02*
Y1088500D01*
X363625D01*
X364625Y1088000D01*
X365250Y1087333D01*
X365500Y1086000D01*
X365250Y1084667D01*
X364500Y1083833D01*
X363625Y1083333D01*
X360500D01*
G01X363625D02*
X365500Y1078500D01*
G01X375500D02*
X370500D01*
Y1088500D01*
X375500D01*
G01X373500Y1083667D02*
X370500D01*
G01X379875Y1088500D02*
X383000Y1078500D01*
X386125Y1088500D01*
G01X1168000Y1096000D02*
X348000D01*
G01X387015Y-493167D02*
X388905Y-490667D01*
X391110Y-489417D01*
X393630Y-489000D01*
X396780Y-489833D01*
X398985Y-491917D01*
X399615Y-494416D01*
X399300Y-496917D01*
X398040Y-499000D01*
X391740Y-503167D01*
X388905Y-506083D01*
X387015Y-510251D01*
X386385Y-514000D01*
X399615D01*
G01X374000Y1033833D02*
X374500Y1034333D01*
X374875Y1035166D01*
X375125Y1036333D01*
X374875Y1037333D01*
X374375Y1038000D01*
X373500Y1038500D01*
X370125D01*
Y1028500D01*
X374250D01*
X375125Y1029167D01*
X375625Y1030167D01*
X375875Y1031333D01*
X375625Y1032500D01*
X374875Y1033500D01*
X374000Y1033833D01*
X370125D01*
G01X398000Y1071000D02*
Y1021000D01*
G01X369875Y1053500D02*
X373000Y1063500D01*
X376125Y1053500D01*
G01X375000Y1057000D02*
X371000D01*
G01X398000Y1096000D02*
Y1046000D01*
G01X387015Y1151833D02*
X388905Y1154333D01*
X391110Y1155583D01*
X393630Y1156000D01*
X396780Y1155167D01*
X398985Y1153083D01*
X399615Y1150584D01*
X399300Y1148083D01*
X398040Y1146000D01*
X391740Y1141833D01*
X388905Y1138917D01*
X387015Y1134749D01*
X386385Y1131000D01*
X399615D01*
G01X429203Y-249833D02*
X430723D01*
G01X429900Y-248750D02*
Y-250917D01*
G01X434177Y-249833D02*
X435823D01*
G01X440100Y-251500D02*
Y-246500D01*
X439340Y-247500D01*
G01Y-251500D02*
X440860D01*
G01X444060Y-251667D02*
X446340Y-246500D01*
G01X448907Y-250500D02*
X449287Y-251083D01*
X449793Y-251417D01*
X450363Y-251500D01*
X450870Y-251417D01*
X451377Y-251000D01*
X451693Y-250500D01*
X451757Y-250000D01*
X451630Y-249417D01*
X451187Y-249000D01*
X450743Y-248833D01*
X450173D01*
G01X450743D02*
X451123Y-248583D01*
X451440Y-248167D01*
X451567Y-247667D01*
X451440Y-247167D01*
X451123Y-246750D01*
X450553Y-246500D01*
X449983Y-246583D01*
X449413Y-246917D01*
G01X454197Y-247333D02*
X454577Y-246833D01*
X455020Y-246583D01*
X455527Y-246500D01*
X456160Y-246667D01*
X456603Y-247083D01*
X456730Y-247583D01*
X456667Y-248083D01*
X456413Y-248500D01*
X455147Y-249333D01*
X454577Y-249917D01*
X454197Y-250750D01*
X454070Y-251500D01*
X456730D01*
G01X418697Y-239000D02*
Y-234000D01*
X421103D01*
G01X420217Y-236417D02*
X418697D01*
G01X423733Y-239000D02*
Y-234000D01*
X425317D01*
X425823Y-234250D01*
X426140Y-234583D01*
X426267Y-235250D01*
X426140Y-235917D01*
X425760Y-236333D01*
X425317Y-236583D01*
X423733D01*
G01X425317D02*
X426267Y-239000D01*
G01X428517D02*
X430100Y-234000D01*
X431683Y-239000D01*
G01X431113Y-237250D02*
X429087D01*
G01X436593Y-234417D02*
X436213Y-234167D01*
X435770Y-234000D01*
X435263D01*
X434693Y-234250D01*
X434250Y-234667D01*
X433933Y-235167D01*
X433680Y-236000D01*
X433617Y-236750D01*
X433743Y-237500D01*
X433933Y-238000D01*
X434313Y-238500D01*
X434757Y-238833D01*
X435200Y-239000D01*
X435643D01*
X436087Y-238833D01*
X436467Y-238583D01*
X436783Y-238250D01*
G01X440300Y-234000D02*
Y-239000D01*
G01X438843Y-234000D02*
X441757D01*
G01X444640D02*
X446160D01*
G01X445400D02*
Y-239000D01*
G01X444640D02*
X446160D01*
G01X450500D02*
X449993Y-238917D01*
X449550Y-238583D01*
X449170Y-238083D01*
X448917Y-237500D01*
X448790Y-236833D01*
Y-236167D01*
X448917Y-235500D01*
X449170Y-234917D01*
X449550Y-234417D01*
X449993Y-234083D01*
X450500Y-234000D01*
X451007Y-234083D01*
X451450Y-234417D01*
X451830Y-234917D01*
X452083Y-235500D01*
X452210Y-236167D01*
Y-236833D01*
X452083Y-237500D01*
X451830Y-238083D01*
X451450Y-238583D01*
X451007Y-238917D01*
X450500Y-239000D01*
G01X454143D02*
Y-234000D01*
X457057Y-239000D01*
Y-234000D01*
G01X459370Y-238333D02*
X459877Y-238750D01*
X460447Y-239000D01*
X460953D01*
X461460Y-238750D01*
X461840Y-238333D01*
X462030Y-237750D01*
X461903Y-237167D01*
X461587Y-236667D01*
X461017Y-236333D01*
X460257Y-236167D01*
X459813Y-235833D01*
X459623Y-235250D01*
X459750Y-234667D01*
X460067Y-234250D01*
X460510Y-234000D01*
X460953D01*
X461397Y-234167D01*
X461777Y-234583D01*
G01X409900Y-219000D02*
Y-224000D01*
G01X408443Y-219000D02*
X411357D01*
G01X415000Y-224000D02*
X414493Y-223917D01*
X414050Y-223583D01*
X413670Y-223083D01*
X413417Y-222500D01*
X413290Y-221833D01*
Y-221167D01*
X413417Y-220500D01*
X413670Y-219917D01*
X414050Y-219417D01*
X414493Y-219083D01*
X415000Y-219000D01*
X415507Y-219083D01*
X415950Y-219417D01*
X416330Y-219917D01*
X416583Y-220500D01*
X416710Y-221167D01*
Y-221833D01*
X416583Y-222500D01*
X416330Y-223083D01*
X415950Y-223583D01*
X415507Y-223917D01*
X415000Y-224000D01*
G01X418833Y-219000D02*
Y-224000D01*
X421367D01*
G01X426467D02*
X423933D01*
Y-219000D01*
X426467D01*
G01X425453Y-221417D02*
X423933D01*
G01X429033Y-224000D02*
Y-219000D01*
X430617D01*
X431123Y-219250D01*
X431440Y-219583D01*
X431567Y-220250D01*
X431440Y-220917D01*
X431060Y-221333D01*
X430617Y-221583D01*
X429033D01*
G01X430617D02*
X431567Y-224000D01*
G01X433817D02*
X435400Y-219000D01*
X436983Y-224000D01*
G01X436413Y-222250D02*
X434387D01*
G01X439043Y-224000D02*
Y-219000D01*
X441957Y-224000D01*
Y-219000D01*
G01X446993Y-219417D02*
X446613Y-219167D01*
X446170Y-219000D01*
X445663D01*
X445093Y-219250D01*
X444650Y-219667D01*
X444333Y-220167D01*
X444080Y-221000D01*
X444017Y-221750D01*
X444143Y-222500D01*
X444333Y-223000D01*
X444713Y-223500D01*
X445157Y-223833D01*
X445600Y-224000D01*
X446043D01*
X446487Y-223833D01*
X446867Y-223583D01*
X447183Y-223250D01*
G01X451967Y-224000D02*
X449433D01*
Y-219000D01*
X451967D01*
G01X450953Y-221417D02*
X449433D01*
G01X454470Y-223333D02*
X454977Y-223750D01*
X455547Y-224000D01*
X456053D01*
X456560Y-223750D01*
X456940Y-223333D01*
X457130Y-222750D01*
X457003Y-222167D01*
X456687Y-221667D01*
X456117Y-221333D01*
X455357Y-221167D01*
X454913Y-220833D01*
X454723Y-220250D01*
X454850Y-219667D01*
X455167Y-219250D01*
X455610Y-219000D01*
X456053D01*
X456497Y-219167D01*
X456877Y-219583D01*
G01X481703Y-249833D02*
X483223D01*
G01X482400Y-248750D02*
Y-250917D01*
G01X486677Y-249833D02*
X488323D01*
G01X480817Y-239000D02*
X482400Y-234000D01*
X483983Y-239000D01*
G01X483413Y-237250D02*
X481387D01*
G01X486043Y-239000D02*
Y-234000D01*
X488957Y-239000D01*
Y-234000D01*
G01X492980Y-236500D02*
X494247D01*
Y-238000D01*
X493867Y-238500D01*
X493423Y-238833D01*
X492790Y-239000D01*
X492157Y-238833D01*
X491713Y-238500D01*
X491333Y-238000D01*
X491080Y-237417D01*
X490953Y-236750D01*
Y-236167D01*
X491080Y-235667D01*
X491333Y-235083D01*
X491713Y-234583D01*
X492093Y-234250D01*
X492600Y-234000D01*
X493043D01*
X493550Y-234167D01*
X493930Y-234500D01*
G01X496433Y-234000D02*
Y-239000D01*
X498967D01*
G01X504067D02*
X501533D01*
Y-234000D01*
X504067D01*
G01X503053Y-236417D02*
X501533D01*
G01X506570Y-238333D02*
X507077Y-238750D01*
X507647Y-239000D01*
X508153D01*
X508660Y-238750D01*
X509040Y-238333D01*
X509230Y-237750D01*
X509103Y-237167D01*
X508787Y-236667D01*
X508217Y-236333D01*
X507457Y-236167D01*
X507013Y-235833D01*
X506823Y-235250D01*
X506950Y-234667D01*
X507267Y-234250D01*
X507710Y-234000D01*
X508153D01*
X508597Y-234167D01*
X508977Y-234583D01*
G01X496197Y-247333D02*
X496577Y-246833D01*
X497020Y-246583D01*
X497527Y-246500D01*
X498160Y-246667D01*
X498603Y-247083D01*
X498730Y-247583D01*
X498667Y-248083D01*
X498413Y-248500D01*
X497147Y-249333D01*
X496577Y-249917D01*
X496197Y-250750D01*
X496070Y-251500D01*
X498730D01*
G01X523000Y-479000D02*
Y-179000D01*
G01X528400Y-425000D02*
Y-417000D01*
X531000Y-423667D01*
X533600Y-417000D01*
Y-425000D01*
G01X539000Y-425267D02*
X538800Y-425133D01*
Y-424867D01*
X539000Y-424733D01*
X539200Y-424867D01*
Y-425133D01*
X539000Y-425267D01*
G01X549000Y-425000D02*
X545000D01*
Y-417000D01*
X549000D01*
G01X547400Y-420867D02*
X545000D01*
G01X552700Y-425000D02*
Y-417000D01*
X557300Y-425000D01*
Y-417000D01*
G01X560800Y-425000D02*
Y-417000D01*
X562800D01*
X563600Y-417400D01*
X564200Y-417933D01*
X564700Y-418733D01*
X565100Y-419667D01*
X565200Y-421000D01*
X565100Y-422333D01*
X564700Y-423267D01*
X564200Y-424067D01*
X563600Y-424600D01*
X562800Y-425000D01*
X560800D01*
G01X571000D02*
X570200Y-424867D01*
X569500Y-424333D01*
X568900Y-423533D01*
X568500Y-422600D01*
X568300Y-421533D01*
Y-420467D01*
X568500Y-419400D01*
X568900Y-418467D01*
X569500Y-417667D01*
X570200Y-417133D01*
X571000Y-417000D01*
X571800Y-417133D01*
X572500Y-417667D01*
X573100Y-418467D01*
X573500Y-419400D01*
X573700Y-420467D01*
Y-421533D01*
X573500Y-422600D01*
X573100Y-423533D01*
X572500Y-424333D01*
X571800Y-424867D01*
X571000Y-425000D01*
G01X531293Y-433417D02*
X530913Y-433167D01*
X530470Y-433000D01*
X529963D01*
X529393Y-433250D01*
X528950Y-433667D01*
X528633Y-434167D01*
X528380Y-435000D01*
X528317Y-435750D01*
X528443Y-436500D01*
X528633Y-437000D01*
X529013Y-437500D01*
X529457Y-437833D01*
X529900Y-438000D01*
X530343D01*
X530787Y-437833D01*
X531167Y-437583D01*
X531483Y-437250D01*
G01X533670Y-438000D02*
Y-433000D01*
G01X536330D02*
Y-438000D01*
G01Y-435500D02*
X533670D01*
G01X541367Y-438000D02*
X538833D01*
Y-433000D01*
X541367D01*
G01X540353Y-435417D02*
X538833D01*
G01X546593Y-433417D02*
X546213Y-433167D01*
X545770Y-433000D01*
X545263D01*
X544693Y-433250D01*
X544250Y-433667D01*
X543933Y-434167D01*
X543680Y-435000D01*
X543617Y-435750D01*
X543743Y-436500D01*
X543933Y-437000D01*
X544313Y-437500D01*
X544757Y-437833D01*
X545200Y-438000D01*
X545643D01*
X546087Y-437833D01*
X546467Y-437583D01*
X546783Y-437250D01*
G01X548907Y-438000D02*
Y-433000D01*
G01X551313D02*
X548907Y-436083D01*
G01X551693Y-438000D02*
X549983Y-434667D01*
G01X556667Y-438000D02*
X554133D01*
Y-433000D01*
X556667D01*
G01X555653Y-435417D02*
X554133D01*
G01X559233Y-438000D02*
Y-433000D01*
X560817D01*
X561323Y-433250D01*
X561640Y-433583D01*
X561767Y-434250D01*
X561640Y-434917D01*
X561260Y-435333D01*
X560817Y-435583D01*
X559233D01*
G01X560817D02*
X561767Y-438000D01*
G01X528700Y-450000D02*
Y-442000D01*
X533300Y-450000D01*
Y-442000D01*
G01X537200Y-450267D02*
X540800Y-442000D01*
G01X544500Y-450000D02*
X547000Y-442000D01*
X549500Y-450000D01*
G01X548600Y-447200D02*
X545400D01*
G01X523000Y-429000D02*
X718000D01*
G01X528700Y-400000D02*
Y-392000D01*
X533300Y-400000D01*
Y-392000D01*
G01X539000Y-400267D02*
X538800Y-400133D01*
Y-399867D01*
X539000Y-399733D01*
X539200Y-399867D01*
Y-400133D01*
X539000Y-400267D01*
G01X547000Y-400000D02*
X546200Y-399867D01*
X545500Y-399333D01*
X544900Y-398533D01*
X544500Y-397600D01*
X544300Y-396533D01*
Y-395467D01*
X544500Y-394400D01*
X544900Y-393467D01*
X545500Y-392667D01*
X546200Y-392133D01*
X547000Y-392000D01*
X547800Y-392133D01*
X548500Y-392667D01*
X549100Y-393467D01*
X549500Y-394400D01*
X549700Y-395467D01*
Y-396533D01*
X549500Y-397600D01*
X549100Y-398533D01*
X548500Y-399333D01*
X547800Y-399867D01*
X547000Y-400000D01*
G01X553000Y-398400D02*
X553500Y-399200D01*
X554100Y-399733D01*
X554800Y-400000D01*
X555600Y-399733D01*
X556200Y-399200D01*
X556800Y-398400D01*
X557000Y-397333D01*
Y-392000D01*
G01X560500Y-400000D02*
X563000Y-392000D01*
X565500Y-400000D01*
G01X564600Y-397200D02*
X561400D01*
G01X569000Y-392000D02*
Y-400000D01*
X573000D01*
G01X581000D02*
X577000D01*
Y-392000D01*
X581000D01*
G01X579400Y-395867D02*
X577000D01*
G01X584900Y-398934D02*
X585700Y-399600D01*
X586600Y-400000D01*
X587400D01*
X588200Y-399600D01*
X588800Y-398934D01*
X589100Y-398000D01*
X588900Y-397067D01*
X588400Y-396267D01*
X587500Y-395733D01*
X586300Y-395467D01*
X585600Y-394933D01*
X585300Y-394000D01*
X585500Y-393067D01*
X586000Y-392400D01*
X586700Y-392000D01*
X587400D01*
X588100Y-392267D01*
X588700Y-392933D01*
G01X528633Y-413000D02*
Y-408000D01*
X530153D01*
X530660Y-408250D01*
X531040Y-408833D01*
X531167Y-409500D01*
X531040Y-410167D01*
X530723Y-410667D01*
X530153Y-410917D01*
X528633D01*
G01X535000Y-408000D02*
Y-413000D01*
G01X533543Y-408000D02*
X536457D01*
G01X538707Y-413000D02*
Y-408000D01*
X539973D01*
X540480Y-408250D01*
X540860Y-408583D01*
X541177Y-409083D01*
X541430Y-409667D01*
X541493Y-410500D01*
X541430Y-411333D01*
X541177Y-411917D01*
X540860Y-412417D01*
X540480Y-412750D01*
X539973Y-413000D01*
X538707D01*
G01X551567D02*
X549033D01*
Y-408000D01*
X551567D01*
G01X550553Y-410417D02*
X549033D01*
G01X553943Y-413000D02*
Y-408000D01*
X556857Y-413000D01*
Y-408000D01*
G01X560880Y-410500D02*
X562147D01*
Y-412000D01*
X561767Y-412500D01*
X561323Y-412833D01*
X560690Y-413000D01*
X560057Y-412833D01*
X559613Y-412500D01*
X559233Y-412000D01*
X558980Y-411417D01*
X558853Y-410750D01*
Y-410167D01*
X558980Y-409667D01*
X559233Y-409083D01*
X559613Y-408583D01*
X559993Y-408250D01*
X560500Y-408000D01*
X560943D01*
X561450Y-408167D01*
X561830Y-408500D01*
G01X564840Y-408000D02*
X566360D01*
G01X565600D02*
Y-413000D01*
G01X564840D02*
X566360D01*
G01X569243D02*
Y-408000D01*
X572157Y-413000D01*
Y-408000D01*
G01X577067Y-413000D02*
X574533D01*
Y-408000D01*
X577067D01*
G01X576053Y-410417D02*
X574533D01*
G01X582167Y-413000D02*
X579633D01*
Y-408000D01*
X582167D01*
G01X581153Y-410417D02*
X579633D01*
G01X584733Y-413000D02*
Y-408000D01*
X586317D01*
X586823Y-408250D01*
X587140Y-408583D01*
X587267Y-409250D01*
X587140Y-409917D01*
X586760Y-410333D01*
X586317Y-410583D01*
X584733D01*
G01X586317D02*
X587267Y-413000D01*
G01X718000Y-404000D02*
X523000D01*
G01X528800Y-375000D02*
Y-367000D01*
G01X532600D02*
X528800Y-371934D01*
G01X533200Y-375000D02*
X530500Y-369667D01*
G01X539000Y-375267D02*
X538800Y-375133D01*
Y-374867D01*
X539000Y-374733D01*
X539200Y-374867D01*
Y-375133D01*
X539000Y-375267D01*
G01X545000Y-373400D02*
X545500Y-374200D01*
X546100Y-374733D01*
X546800Y-375000D01*
X547600Y-374733D01*
X548200Y-374200D01*
X548800Y-373400D01*
X549000Y-372333D01*
Y-367000D01*
G01X552500Y-375000D02*
X555000Y-367000D01*
X557500Y-375000D01*
G01X556600Y-372200D02*
X553400D01*
G01X563800Y-370733D02*
X564200Y-370333D01*
X564500Y-369667D01*
X564700Y-368733D01*
X564500Y-367933D01*
X564100Y-367400D01*
X563400Y-367000D01*
X560700D01*
Y-375000D01*
X564000D01*
X564700Y-374467D01*
X565100Y-373667D01*
X565300Y-372733D01*
X565100Y-371800D01*
X564500Y-371000D01*
X563800Y-370733D01*
X560700D01*
G01X568500Y-375000D02*
X571000Y-367000D01*
X573500Y-375000D01*
G01X572600Y-372200D02*
X569400D01*
G01X579000Y-367000D02*
Y-375000D01*
G01X576700Y-367000D02*
X581300D01*
G01X584500Y-375000D02*
X587000Y-367000D01*
X589500Y-375000D01*
G01X588600Y-372200D02*
X585400D01*
G01X592700Y-375000D02*
Y-367000D01*
X597300Y-375000D01*
Y-367000D01*
G01X528507Y-388000D02*
Y-383000D01*
X529773D01*
X530280Y-383250D01*
X530660Y-383583D01*
X530977Y-384083D01*
X531230Y-384667D01*
X531293Y-385500D01*
X531230Y-386333D01*
X530977Y-386917D01*
X530660Y-387417D01*
X530280Y-387750D01*
X529773Y-388000D01*
X528507D01*
G01X536267D02*
X533733D01*
Y-383000D01*
X536267D01*
G01X535253Y-385417D02*
X533733D01*
G01X538770Y-387333D02*
X539277Y-387750D01*
X539847Y-388000D01*
X540353D01*
X540860Y-387750D01*
X541240Y-387333D01*
X541430Y-386750D01*
X541303Y-386167D01*
X540987Y-385667D01*
X540417Y-385333D01*
X539657Y-385167D01*
X539213Y-384833D01*
X539023Y-384250D01*
X539150Y-383667D01*
X539467Y-383250D01*
X539910Y-383000D01*
X540353D01*
X540797Y-383167D01*
X541177Y-383583D01*
G01X544440Y-383000D02*
X545960D01*
G01X545200D02*
Y-388000D01*
G01X544440D02*
X545960D01*
G01X550680Y-385500D02*
X551947D01*
Y-387000D01*
X551567Y-387500D01*
X551123Y-387833D01*
X550490Y-388000D01*
X549857Y-387833D01*
X549413Y-387500D01*
X549033Y-387000D01*
X548780Y-386417D01*
X548653Y-385750D01*
Y-385167D01*
X548780Y-384667D01*
X549033Y-384083D01*
X549413Y-383583D01*
X549793Y-383250D01*
X550300Y-383000D01*
X550743D01*
X551250Y-383167D01*
X551630Y-383500D01*
G01X553943Y-388000D02*
Y-383000D01*
X556857Y-388000D01*
Y-383000D01*
G01X561767Y-388000D02*
X559233D01*
Y-383000D01*
X561767D01*
G01X560753Y-385417D02*
X559233D01*
G01X564333Y-388000D02*
Y-383000D01*
X565917D01*
X566423Y-383250D01*
X566740Y-383583D01*
X566867Y-384250D01*
X566740Y-384917D01*
X566360Y-385333D01*
X565917Y-385583D01*
X564333D01*
G01X565917D02*
X566867Y-388000D01*
G01X528700Y-350000D02*
Y-342000D01*
X533300Y-350000D01*
Y-342000D01*
G01X537200Y-350267D02*
X540800Y-342000D01*
G01X544500Y-350000D02*
X547000Y-342000D01*
X549500Y-350000D01*
G01X548600Y-347200D02*
X545400D01*
G01X529900Y-333000D02*
Y-338000D01*
G01X528443Y-333000D02*
X531357D01*
G01X536267Y-338000D02*
X533733D01*
Y-333000D01*
X536267D01*
G01X535253Y-335417D02*
X533733D01*
G01X538770Y-337333D02*
X539277Y-337750D01*
X539847Y-338000D01*
X540353D01*
X540860Y-337750D01*
X541240Y-337333D01*
X541430Y-336750D01*
X541303Y-336167D01*
X540987Y-335667D01*
X540417Y-335333D01*
X539657Y-335167D01*
X539213Y-334833D01*
X539023Y-334250D01*
X539150Y-333667D01*
X539467Y-333250D01*
X539910Y-333000D01*
X540353D01*
X540797Y-333167D01*
X541177Y-333583D01*
G01X545200Y-333000D02*
Y-338000D01*
G01X543743Y-333000D02*
X546657D01*
G01X554133Y-338000D02*
Y-333000D01*
X555653D01*
X556160Y-333250D01*
X556540Y-333833D01*
X556667Y-334500D01*
X556540Y-335167D01*
X556223Y-335667D01*
X555653Y-335917D01*
X554133D01*
G01X559233Y-338000D02*
Y-333000D01*
X560817D01*
X561323Y-333250D01*
X561640Y-333583D01*
X561767Y-334250D01*
X561640Y-334917D01*
X561260Y-335333D01*
X560817Y-335583D01*
X559233D01*
G01X560817D02*
X561767Y-338000D01*
G01X565600D02*
X565093Y-337917D01*
X564650Y-337583D01*
X564270Y-337083D01*
X564017Y-336500D01*
X563890Y-335833D01*
Y-335167D01*
X564017Y-334500D01*
X564270Y-333917D01*
X564650Y-333417D01*
X565093Y-333083D01*
X565600Y-333000D01*
X566107Y-333083D01*
X566550Y-333417D01*
X566930Y-333917D01*
X567183Y-334500D01*
X567310Y-335167D01*
Y-335833D01*
X567183Y-336500D01*
X566930Y-337083D01*
X566550Y-337583D01*
X566107Y-337917D01*
X565600Y-338000D01*
G01X572093Y-333417D02*
X571713Y-333167D01*
X571270Y-333000D01*
X570763D01*
X570193Y-333250D01*
X569750Y-333667D01*
X569433Y-334167D01*
X569180Y-335000D01*
X569117Y-335750D01*
X569243Y-336500D01*
X569433Y-337000D01*
X569813Y-337500D01*
X570257Y-337833D01*
X570700Y-338000D01*
X571143D01*
X571587Y-337833D01*
X571967Y-337583D01*
X572283Y-337250D01*
G01X577067Y-338000D02*
X574533D01*
Y-333000D01*
X577067D01*
G01X576053Y-335417D02*
X574533D01*
G01X579570Y-337333D02*
X580077Y-337750D01*
X580647Y-338000D01*
X581153D01*
X581660Y-337750D01*
X582040Y-337333D01*
X582230Y-336750D01*
X582103Y-336167D01*
X581787Y-335667D01*
X581217Y-335333D01*
X580457Y-335167D01*
X580013Y-334833D01*
X579823Y-334250D01*
X579950Y-333667D01*
X580267Y-333250D01*
X580710Y-333000D01*
X581153D01*
X581597Y-333167D01*
X581977Y-333583D01*
G01X584670Y-337333D02*
X585177Y-337750D01*
X585747Y-338000D01*
X586253D01*
X586760Y-337750D01*
X587140Y-337333D01*
X587330Y-336750D01*
X587203Y-336167D01*
X586887Y-335667D01*
X586317Y-335333D01*
X585557Y-335167D01*
X585113Y-334833D01*
X584923Y-334250D01*
X585050Y-333667D01*
X585367Y-333250D01*
X585810Y-333000D01*
X586253D01*
X586697Y-333167D01*
X587077Y-333583D01*
G01X528570Y-363000D02*
Y-358000D01*
G01X531230D02*
Y-363000D01*
G01Y-360500D02*
X528570D01*
G01X533417Y-363000D02*
X535000Y-358000D01*
X536583Y-363000D01*
G01X536013Y-361250D02*
X533987D01*
G01X538833Y-363000D02*
Y-358000D01*
X540417D01*
X540923Y-358250D01*
X541240Y-358583D01*
X541367Y-359250D01*
X541240Y-359917D01*
X540860Y-360333D01*
X540417Y-360583D01*
X538833D01*
G01X540417D02*
X541367Y-363000D01*
G01X543807D02*
Y-358000D01*
X545073D01*
X545580Y-358250D01*
X545960Y-358583D01*
X546277Y-359083D01*
X546530Y-359667D01*
X546593Y-360500D01*
X546530Y-361333D01*
X546277Y-361917D01*
X545960Y-362417D01*
X545580Y-362750D01*
X545073Y-363000D01*
X543807D01*
G01X548400Y-358000D02*
X549287Y-363000D01*
X550300Y-358000D01*
X551313Y-363000D01*
X552200Y-358000D01*
G01X553817Y-363000D02*
X555400Y-358000D01*
X556983Y-363000D01*
G01X556413Y-361250D02*
X554387D01*
G01X559233Y-363000D02*
Y-358000D01*
X560817D01*
X561323Y-358250D01*
X561640Y-358583D01*
X561767Y-359250D01*
X561640Y-359917D01*
X561260Y-360333D01*
X560817Y-360583D01*
X559233D01*
G01X560817D02*
X561767Y-363000D01*
G01X566867D02*
X564333D01*
Y-358000D01*
X566867D01*
G01X565853Y-360417D02*
X564333D01*
G01X574533Y-363000D02*
Y-358000D01*
X576117D01*
X576623Y-358250D01*
X576940Y-358583D01*
X577067Y-359250D01*
X576940Y-359917D01*
X576560Y-360333D01*
X576117Y-360583D01*
X574533D01*
G01X576117D02*
X577067Y-363000D01*
G01X582167D02*
X579633D01*
Y-358000D01*
X582167D01*
G01X581153Y-360417D02*
X579633D01*
G01X584733Y-358000D02*
Y-363000D01*
X587267D01*
G01X592367D02*
X589833D01*
Y-358000D01*
X592367D01*
G01X591353Y-360417D02*
X589833D01*
G01X594617Y-363000D02*
X596200Y-358000D01*
X597783Y-363000D01*
G01X597213Y-361250D02*
X595187D01*
G01X599970Y-362333D02*
X600477Y-362750D01*
X601047Y-363000D01*
X601553D01*
X602060Y-362750D01*
X602440Y-362333D01*
X602630Y-361750D01*
X602503Y-361167D01*
X602187Y-360667D01*
X601617Y-360333D01*
X600857Y-360167D01*
X600413Y-359833D01*
X600223Y-359250D01*
X600350Y-358667D01*
X600667Y-358250D01*
X601110Y-358000D01*
X601553D01*
X601997Y-358167D01*
X602377Y-358583D01*
G01X607667Y-363000D02*
X605133D01*
Y-358000D01*
X607667D01*
G01X606653Y-360417D02*
X605133D01*
G01X523000Y-354000D02*
X718000D01*
G01X528500Y-325000D02*
X531000Y-317000D01*
X533500Y-325000D01*
G01X532600Y-322200D02*
X529400D01*
G01X539000Y-325267D02*
X538800Y-325133D01*
Y-324867D01*
X539000Y-324733D01*
X539200Y-324867D01*
Y-325133D01*
X539000Y-325267D01*
G01X549200Y-317667D02*
X548600Y-317267D01*
X547900Y-317000D01*
X547100D01*
X546200Y-317400D01*
X545500Y-318067D01*
X545000Y-318867D01*
X544600Y-320200D01*
X544500Y-321400D01*
X544700Y-322600D01*
X545000Y-323400D01*
X545600Y-324200D01*
X546300Y-324733D01*
X547000Y-325000D01*
X547700D01*
X548400Y-324733D01*
X549000Y-324333D01*
X549500Y-323800D01*
G01X552500Y-325000D02*
X555000Y-317000D01*
X557500Y-325000D01*
G01X556600Y-322200D02*
X553400D01*
G01X560800Y-317000D02*
Y-322733D01*
X561200Y-323934D01*
X562000Y-324733D01*
X563000Y-325000D01*
X564000Y-324733D01*
X564800Y-323934D01*
X565200Y-322733D01*
Y-317000D01*
G01X569800D02*
X572200D01*
G01X571000D02*
Y-325000D01*
G01X569800D02*
X572200D01*
G01X577000Y-317000D02*
Y-325000D01*
X581000D01*
G01X584500D02*
X587000Y-317000D01*
X589500Y-325000D01*
G01X588600Y-322200D02*
X585400D01*
G01X592700Y-325000D02*
Y-317000D01*
X597300Y-325000D01*
Y-317000D01*
G01X531293Y-308417D02*
X530913Y-308167D01*
X530470Y-308000D01*
X529963D01*
X529393Y-308250D01*
X528950Y-308667D01*
X528633Y-309167D01*
X528380Y-310000D01*
X528317Y-310750D01*
X528443Y-311500D01*
X528633Y-312000D01*
X529013Y-312500D01*
X529457Y-312833D01*
X529900Y-313000D01*
X530343D01*
X530787Y-312833D01*
X531167Y-312583D01*
X531483Y-312250D01*
G01X535000Y-313000D02*
X534493Y-312917D01*
X534050Y-312583D01*
X533670Y-312083D01*
X533417Y-311500D01*
X533290Y-310833D01*
Y-310167D01*
X533417Y-309500D01*
X533670Y-308917D01*
X534050Y-308417D01*
X534493Y-308083D01*
X535000Y-308000D01*
X535507Y-308083D01*
X535950Y-308417D01*
X536330Y-308917D01*
X536583Y-309500D01*
X536710Y-310167D01*
Y-310833D01*
X536583Y-311500D01*
X536330Y-312083D01*
X535950Y-312583D01*
X535507Y-312917D01*
X535000Y-313000D01*
G01X538453D02*
Y-308000D01*
X540100Y-312167D01*
X541747Y-308000D01*
Y-313000D01*
G01X543933D02*
Y-308000D01*
X545453D01*
X545960Y-308250D01*
X546340Y-308833D01*
X546467Y-309500D01*
X546340Y-310167D01*
X546023Y-310667D01*
X545453Y-310917D01*
X543933D01*
G01X550300Y-313000D02*
X549793Y-312917D01*
X549350Y-312583D01*
X548970Y-312083D01*
X548717Y-311500D01*
X548590Y-310833D01*
Y-310167D01*
X548717Y-309500D01*
X548970Y-308917D01*
X549350Y-308417D01*
X549793Y-308083D01*
X550300Y-308000D01*
X550807Y-308083D01*
X551250Y-308417D01*
X551630Y-308917D01*
X551883Y-309500D01*
X552010Y-310167D01*
Y-310833D01*
X551883Y-311500D01*
X551630Y-312083D01*
X551250Y-312583D01*
X550807Y-312917D01*
X550300Y-313000D01*
G01X553943D02*
Y-308000D01*
X556857Y-313000D01*
Y-308000D01*
G01X561767Y-313000D02*
X559233D01*
Y-308000D01*
X561767D01*
G01X560753Y-310417D02*
X559233D01*
G01X564143Y-313000D02*
Y-308000D01*
X567057Y-313000D01*
Y-308000D01*
G01X570700D02*
Y-313000D01*
G01X569243Y-308000D02*
X572157D01*
G01X582167Y-313000D02*
X579633D01*
Y-308000D01*
X582167D01*
G01X581153Y-310417D02*
X579633D01*
G01X584543Y-313000D02*
Y-308000D01*
X587457Y-313000D01*
Y-308000D01*
G01X591480Y-310500D02*
X592747D01*
Y-312000D01*
X592367Y-312500D01*
X591923Y-312833D01*
X591290Y-313000D01*
X590657Y-312833D01*
X590213Y-312500D01*
X589833Y-312000D01*
X589580Y-311417D01*
X589453Y-310750D01*
Y-310167D01*
X589580Y-309667D01*
X589833Y-309083D01*
X590213Y-308583D01*
X590593Y-308250D01*
X591100Y-308000D01*
X591543D01*
X592050Y-308167D01*
X592430Y-308500D01*
G01X595440Y-308000D02*
X596960D01*
G01X596200D02*
Y-313000D01*
G01X595440D02*
X596960D01*
G01X599843D02*
Y-308000D01*
X602757Y-313000D01*
Y-308000D01*
G01X607667Y-313000D02*
X605133D01*
Y-308000D01*
X607667D01*
G01X606653Y-310417D02*
X605133D01*
G01X612767Y-313000D02*
X610233D01*
Y-308000D01*
X612767D01*
G01X611753Y-310417D02*
X610233D01*
G01X615333Y-313000D02*
Y-308000D01*
X616917D01*
X617423Y-308250D01*
X617740Y-308583D01*
X617867Y-309250D01*
X617740Y-309917D01*
X617360Y-310333D01*
X616917Y-310583D01*
X615333D01*
G01X616917D02*
X617867Y-313000D01*
G01X523000Y-329000D02*
X718000D01*
G01X528700Y-275000D02*
Y-267000D01*
X533300Y-275000D01*
Y-267000D01*
G01X537200Y-275267D02*
X540800Y-267000D01*
G01X544500Y-275000D02*
X547000Y-267000D01*
X549500Y-275000D01*
G01X548600Y-272200D02*
X545400D01*
G01X529900Y-283000D02*
Y-288000D01*
G01X528443Y-283000D02*
X531357D01*
G01X536267Y-288000D02*
X533733D01*
Y-283000D01*
X536267D01*
G01X535253Y-285417D02*
X533733D01*
G01X538770Y-287333D02*
X539277Y-287750D01*
X539847Y-288000D01*
X540353D01*
X540860Y-287750D01*
X541240Y-287333D01*
X541430Y-286750D01*
X541303Y-286167D01*
X540987Y-285667D01*
X540417Y-285333D01*
X539657Y-285167D01*
X539213Y-284833D01*
X539023Y-284250D01*
X539150Y-283667D01*
X539467Y-283250D01*
X539910Y-283000D01*
X540353D01*
X540797Y-283167D01*
X541177Y-283583D01*
G01X545200Y-283000D02*
Y-288000D01*
G01X543743Y-283000D02*
X546657D01*
G01X556667Y-288000D02*
X554133D01*
Y-283000D01*
X556667D01*
G01X555653Y-285417D02*
X554133D01*
G01X559043Y-288000D02*
Y-283000D01*
X561957Y-288000D01*
Y-283000D01*
G01X565980Y-285500D02*
X567247D01*
Y-287000D01*
X566867Y-287500D01*
X566423Y-287833D01*
X565790Y-288000D01*
X565157Y-287833D01*
X564713Y-287500D01*
X564333Y-287000D01*
X564080Y-286417D01*
X563953Y-285750D01*
Y-285167D01*
X564080Y-284667D01*
X564333Y-284083D01*
X564713Y-283583D01*
X565093Y-283250D01*
X565600Y-283000D01*
X566043D01*
X566550Y-283167D01*
X566930Y-283500D01*
G01X569940Y-283000D02*
X571460D01*
G01X570700D02*
Y-288000D01*
G01X569940D02*
X571460D01*
G01X574343D02*
Y-283000D01*
X577257Y-288000D01*
Y-283000D01*
G01X582167Y-288000D02*
X579633D01*
Y-283000D01*
X582167D01*
G01X581153Y-285417D02*
X579633D01*
G01X587267Y-288000D02*
X584733D01*
Y-283000D01*
X587267D01*
G01X586253Y-285417D02*
X584733D01*
G01X589833Y-288000D02*
Y-283000D01*
X591417D01*
X591923Y-283250D01*
X592240Y-283583D01*
X592367Y-284250D01*
X592240Y-284917D01*
X591860Y-285333D01*
X591417Y-285583D01*
X589833D01*
G01X591417D02*
X592367Y-288000D01*
G01X528700Y-300000D02*
Y-292000D01*
X533300Y-300000D01*
Y-292000D01*
G01X537200Y-300267D02*
X540800Y-292000D01*
G01X544500Y-300000D02*
X547000Y-292000D01*
X549500Y-300000D01*
G01X548600Y-297200D02*
X545400D01*
G01X523000Y-304000D02*
X718000D01*
G01X528400Y-250000D02*
Y-242000D01*
X531000Y-248667D01*
X533600Y-242000D01*
Y-250000D01*
G01X539000Y-250267D02*
X538800Y-250133D01*
Y-249867D01*
X539000Y-249733D01*
X539200Y-249867D01*
Y-250133D01*
X539000Y-250267D01*
G01X545000Y-248400D02*
X545500Y-249200D01*
X546100Y-249733D01*
X546800Y-250000D01*
X547600Y-249733D01*
X548200Y-249200D01*
X548800Y-248400D01*
X549000Y-247333D01*
Y-242000D01*
G01X555000Y-250000D02*
X554200Y-249867D01*
X553500Y-249333D01*
X552900Y-248533D01*
X552500Y-247600D01*
X552300Y-246533D01*
Y-245467D01*
X552500Y-244400D01*
X552900Y-243467D01*
X553500Y-242667D01*
X554200Y-242133D01*
X555000Y-242000D01*
X555800Y-242133D01*
X556500Y-242667D01*
X557100Y-243467D01*
X557500Y-244400D01*
X557700Y-245467D01*
Y-246533D01*
X557500Y-247600D01*
X557100Y-248533D01*
X556500Y-249333D01*
X555800Y-249867D01*
X555000Y-250000D01*
G01X560900Y-248934D02*
X561700Y-249600D01*
X562600Y-250000D01*
X563400D01*
X564200Y-249600D01*
X564800Y-248934D01*
X565100Y-248000D01*
X564900Y-247067D01*
X564400Y-246267D01*
X563500Y-245733D01*
X562300Y-245467D01*
X561600Y-244933D01*
X561300Y-244000D01*
X561500Y-243067D01*
X562000Y-242400D01*
X562700Y-242000D01*
X563400D01*
X564100Y-242267D01*
X564700Y-242933D01*
G01X573000Y-250000D02*
X569000D01*
Y-242000D01*
X573000D01*
G01X571400Y-245867D02*
X569000D01*
G01X528570Y-263000D02*
Y-258000D01*
G01X531230D02*
Y-263000D01*
G01Y-260500D02*
X528570D01*
G01X533417Y-263000D02*
X535000Y-258000D01*
X536583Y-263000D01*
G01X536013Y-261250D02*
X533987D01*
G01X538833Y-263000D02*
Y-258000D01*
X540417D01*
X540923Y-258250D01*
X541240Y-258583D01*
X541367Y-259250D01*
X541240Y-259917D01*
X540860Y-260333D01*
X540417Y-260583D01*
X538833D01*
G01X540417D02*
X541367Y-263000D01*
G01X543807D02*
Y-258000D01*
X545073D01*
X545580Y-258250D01*
X545960Y-258583D01*
X546277Y-259083D01*
X546530Y-259667D01*
X546593Y-260500D01*
X546530Y-261333D01*
X546277Y-261917D01*
X545960Y-262417D01*
X545580Y-262750D01*
X545073Y-263000D01*
X543807D01*
G01X548400Y-258000D02*
X549287Y-263000D01*
X550300Y-258000D01*
X551313Y-263000D01*
X552200Y-258000D01*
G01X553817Y-263000D02*
X555400Y-258000D01*
X556983Y-263000D01*
G01X556413Y-261250D02*
X554387D01*
G01X559233Y-263000D02*
Y-258000D01*
X560817D01*
X561323Y-258250D01*
X561640Y-258583D01*
X561767Y-259250D01*
X561640Y-259917D01*
X561260Y-260333D01*
X560817Y-260583D01*
X559233D01*
G01X560817D02*
X561767Y-263000D01*
G01X566867D02*
X564333D01*
Y-258000D01*
X566867D01*
G01X565853Y-260417D02*
X564333D01*
G01X574470Y-262333D02*
X574977Y-262750D01*
X575547Y-263000D01*
X576053D01*
X576560Y-262750D01*
X576940Y-262333D01*
X577130Y-261750D01*
X577003Y-261167D01*
X576687Y-260667D01*
X576117Y-260333D01*
X575357Y-260167D01*
X574913Y-259833D01*
X574723Y-259250D01*
X574850Y-258667D01*
X575167Y-258250D01*
X575610Y-258000D01*
X576053D01*
X576497Y-258167D01*
X576877Y-258583D01*
G01X580900Y-263000D02*
Y-260750D01*
X579633Y-258000D01*
G01X582167D02*
X580900Y-260750D01*
G01X584670Y-262333D02*
X585177Y-262750D01*
X585747Y-263000D01*
X586253D01*
X586760Y-262750D01*
X587140Y-262333D01*
X587330Y-261750D01*
X587203Y-261167D01*
X586887Y-260667D01*
X586317Y-260333D01*
X585557Y-260167D01*
X585113Y-259833D01*
X584923Y-259250D01*
X585050Y-258667D01*
X585367Y-258250D01*
X585810Y-258000D01*
X586253D01*
X586697Y-258167D01*
X587077Y-258583D01*
G01X591100Y-258000D02*
Y-263000D01*
G01X589643Y-258000D02*
X592557D01*
G01X597467Y-263000D02*
X594933D01*
Y-258000D01*
X597467D01*
G01X596453Y-260417D02*
X594933D01*
G01X599653Y-263000D02*
Y-258000D01*
X601300Y-262167D01*
X602947Y-258000D01*
Y-263000D01*
G01X605070Y-262333D02*
X605577Y-262750D01*
X606147Y-263000D01*
X606653D01*
X607160Y-262750D01*
X607540Y-262333D01*
X607730Y-261750D01*
X607603Y-261167D01*
X607287Y-260667D01*
X606717Y-260333D01*
X605957Y-260167D01*
X605513Y-259833D01*
X605323Y-259250D01*
X605450Y-258667D01*
X605767Y-258250D01*
X606210Y-258000D01*
X606653D01*
X607097Y-258167D01*
X607477Y-258583D01*
G01X523000Y-254000D02*
X1168000D01*
G01X528700Y-225000D02*
Y-217000D01*
X533300Y-225000D01*
Y-217000D01*
G01X537200Y-225267D02*
X540800Y-217000D01*
G01X544500Y-225000D02*
X547000Y-217000D01*
X549500Y-225000D01*
G01X548600Y-222200D02*
X545400D01*
G01X528570Y-238000D02*
Y-233000D01*
G01X531230D02*
Y-238000D01*
G01Y-235500D02*
X528570D01*
G01X533417Y-238000D02*
X535000Y-233000D01*
X536583Y-238000D01*
G01X536013Y-236250D02*
X533987D01*
G01X538833Y-238000D02*
Y-233000D01*
X540417D01*
X540923Y-233250D01*
X541240Y-233583D01*
X541367Y-234250D01*
X541240Y-234917D01*
X540860Y-235333D01*
X540417Y-235583D01*
X538833D01*
G01X540417D02*
X541367Y-238000D01*
G01X543807D02*
Y-233000D01*
X545073D01*
X545580Y-233250D01*
X545960Y-233583D01*
X546277Y-234083D01*
X546530Y-234667D01*
X546593Y-235500D01*
X546530Y-236333D01*
X546277Y-236917D01*
X545960Y-237417D01*
X545580Y-237750D01*
X545073Y-238000D01*
X543807D01*
G01X548400Y-233000D02*
X549287Y-238000D01*
X550300Y-233000D01*
X551313Y-238000D01*
X552200Y-233000D01*
G01X553817Y-238000D02*
X555400Y-233000D01*
X556983Y-238000D01*
G01X556413Y-236250D02*
X554387D01*
G01X559233Y-238000D02*
Y-233000D01*
X560817D01*
X561323Y-233250D01*
X561640Y-233583D01*
X561767Y-234250D01*
X561640Y-234917D01*
X561260Y-235333D01*
X560817Y-235583D01*
X559233D01*
G01X560817D02*
X561767Y-238000D01*
G01X566867D02*
X564333D01*
Y-233000D01*
X566867D01*
G01X565853Y-235417D02*
X564333D01*
G01X574470Y-237333D02*
X574977Y-237750D01*
X575547Y-238000D01*
X576053D01*
X576560Y-237750D01*
X576940Y-237333D01*
X577130Y-236750D01*
X577003Y-236167D01*
X576687Y-235667D01*
X576117Y-235333D01*
X575357Y-235167D01*
X574913Y-234833D01*
X574723Y-234250D01*
X574850Y-233667D01*
X575167Y-233250D01*
X575610Y-233000D01*
X576053D01*
X576497Y-233167D01*
X576877Y-233583D01*
G01X582167Y-238000D02*
X579633D01*
Y-233000D01*
X582167D01*
G01X581153Y-235417D02*
X579633D01*
G01X584733Y-238000D02*
Y-233000D01*
X586317D01*
X586823Y-233250D01*
X587140Y-233583D01*
X587267Y-234250D01*
X587140Y-234917D01*
X586760Y-235333D01*
X586317Y-235583D01*
X584733D01*
G01X586317D02*
X587267Y-238000D01*
G01X589517Y-233000D02*
X591100Y-238000D01*
X592683Y-233000D01*
G01X595440D02*
X596960D01*
G01X596200D02*
Y-238000D01*
G01X595440D02*
X596960D01*
G01X602693Y-233417D02*
X602313Y-233167D01*
X601870Y-233000D01*
X601363D01*
X600793Y-233250D01*
X600350Y-233667D01*
X600033Y-234167D01*
X599780Y-235000D01*
X599717Y-235750D01*
X599843Y-236500D01*
X600033Y-237000D01*
X600413Y-237500D01*
X600857Y-237833D01*
X601300Y-238000D01*
X601743D01*
X602187Y-237833D01*
X602567Y-237583D01*
X602883Y-237250D01*
G01X607667Y-238000D02*
X605133D01*
Y-233000D01*
X607667D01*
G01X606653Y-235417D02*
X605133D01*
G01X610170Y-237333D02*
X610677Y-237750D01*
X611247Y-238000D01*
X611753D01*
X612260Y-237750D01*
X612640Y-237333D01*
X612830Y-236750D01*
X612703Y-236167D01*
X612387Y-235667D01*
X611817Y-235333D01*
X611057Y-235167D01*
X610613Y-234833D01*
X610423Y-234250D01*
X610550Y-233667D01*
X610867Y-233250D01*
X611310Y-233000D01*
X611753D01*
X612197Y-233167D01*
X612577Y-233583D01*
G01X523000Y-229000D02*
X718000D01*
G01X529900Y-208000D02*
Y-213000D01*
G01X528443Y-208000D02*
X531357D01*
G01X536267Y-213000D02*
X533733D01*
Y-208000D01*
X536267D01*
G01X535253Y-210417D02*
X533733D01*
G01X538453Y-213000D02*
Y-208000D01*
X540100Y-212167D01*
X541747Y-208000D01*
Y-213000D01*
G01X543933D02*
Y-208000D01*
X545453D01*
X545960Y-208250D01*
X546340Y-208833D01*
X546467Y-209500D01*
X546340Y-210167D01*
X546023Y-210667D01*
X545453Y-210917D01*
X543933D01*
G01X549033Y-208000D02*
Y-213000D01*
X551567D01*
G01X553817D02*
X555400Y-208000D01*
X556983Y-213000D01*
G01X556413Y-211250D02*
X554387D01*
G01X560500Y-208000D02*
Y-213000D01*
G01X559043Y-208000D02*
X561957D01*
G01X566867Y-213000D02*
X564333D01*
Y-208000D01*
X566867D01*
G01X565853Y-210417D02*
X564333D01*
G01X577067Y-213000D02*
X574533D01*
Y-208000D01*
X577067D01*
G01X576053Y-210417D02*
X574533D01*
G01X579443Y-213000D02*
Y-208000D01*
X582357Y-213000D01*
Y-208000D01*
G01X586380Y-210500D02*
X587647D01*
Y-212000D01*
X587267Y-212500D01*
X586823Y-212833D01*
X586190Y-213000D01*
X585557Y-212833D01*
X585113Y-212500D01*
X584733Y-212000D01*
X584480Y-211417D01*
X584353Y-210750D01*
Y-210167D01*
X584480Y-209667D01*
X584733Y-209083D01*
X585113Y-208583D01*
X585493Y-208250D01*
X586000Y-208000D01*
X586443D01*
X586950Y-208167D01*
X587330Y-208500D01*
G01X590340Y-208000D02*
X591860D01*
G01X591100D02*
Y-213000D01*
G01X590340D02*
X591860D01*
G01X594743D02*
Y-208000D01*
X597657Y-213000D01*
Y-208000D01*
G01X602567Y-213000D02*
X600033D01*
Y-208000D01*
X602567D01*
G01X601553Y-210417D02*
X600033D01*
G01X607667Y-213000D02*
X605133D01*
Y-208000D01*
X607667D01*
G01X606653Y-210417D02*
X605133D01*
G01X610233Y-213000D02*
Y-208000D01*
X611817D01*
X612323Y-208250D01*
X612640Y-208583D01*
X612767Y-209250D01*
X612640Y-209917D01*
X612260Y-210333D01*
X611817Y-210583D01*
X610233D01*
G01X611817D02*
X612767Y-213000D01*
G01X523000Y-204000D02*
X718000D01*
G01X561000Y-196500D02*
X563500Y-188500D01*
X566000Y-196500D01*
G01X565100Y-193700D02*
X561900D01*
G01X569500Y-196500D02*
Y-188500D01*
X571900D01*
X572700Y-188900D01*
X573300Y-189833D01*
X573500Y-190900D01*
X573300Y-191967D01*
X572800Y-192767D01*
X571900Y-193167D01*
X569500D01*
G01X577500Y-196500D02*
Y-188500D01*
X579900D01*
X580700Y-188900D01*
X581300Y-189833D01*
X581500Y-190900D01*
X581300Y-191967D01*
X580800Y-192767D01*
X579900Y-193167D01*
X577500D01*
G01X585500Y-196500D02*
Y-188500D01*
X588000D01*
X588800Y-188900D01*
X589300Y-189433D01*
X589500Y-190500D01*
X589300Y-191567D01*
X588700Y-192233D01*
X588000Y-192633D01*
X585500D01*
G01X588000D02*
X589500Y-196500D01*
G01X595500D02*
X594700Y-196367D01*
X594000Y-195833D01*
X593400Y-195033D01*
X593000Y-194100D01*
X592800Y-193033D01*
Y-191967D01*
X593000Y-190900D01*
X593400Y-189967D01*
X594000Y-189167D01*
X594700Y-188633D01*
X595500Y-188500D01*
X596300Y-188633D01*
X597000Y-189167D01*
X597600Y-189967D01*
X598000Y-190900D01*
X598200Y-191967D01*
Y-193033D01*
X598000Y-194100D01*
X597600Y-195033D01*
X597000Y-195833D01*
X596300Y-196367D01*
X595500Y-196500D01*
G01X601000Y-188500D02*
X603500Y-196500D01*
X606000Y-188500D01*
G01X609000Y-196500D02*
X611500Y-188500D01*
X614000Y-196500D01*
G01X613100Y-193700D02*
X609900D01*
G01X617500Y-188500D02*
Y-196500D01*
X621500D01*
G01X574875Y1028500D02*
X578000Y1038500D01*
X581125Y1028500D01*
G01X580000Y1032000D02*
X576000D01*
G01X585375Y1029833D02*
X586375Y1029000D01*
X587500Y1028500D01*
X588500D01*
X589500Y1029000D01*
X590250Y1029833D01*
X590625Y1031000D01*
X590375Y1032166D01*
X589750Y1033167D01*
X588625Y1033833D01*
X587125Y1034167D01*
X586250Y1034833D01*
X585875Y1036000D01*
X586125Y1037167D01*
X586750Y1038000D01*
X587625Y1038500D01*
X588500D01*
X589375Y1038167D01*
X590125Y1037333D01*
G01X605500Y1028500D02*
Y1038500D01*
X608500D01*
X609500Y1038000D01*
X610250Y1036833D01*
X610500Y1035500D01*
X610250Y1034167D01*
X609625Y1033167D01*
X608500Y1032666D01*
X605500D01*
G01X620500Y1028500D02*
X615500D01*
Y1038500D01*
X620500D01*
G01X618500Y1033667D02*
X615500D01*
G01X625500Y1028500D02*
Y1038500D01*
X628625D01*
X629625Y1038000D01*
X630250Y1037333D01*
X630500Y1036000D01*
X630250Y1034667D01*
X629500Y1033833D01*
X628625Y1033333D01*
X625500D01*
G01X628625D02*
X630500Y1028500D01*
G01X650500D02*
X645500D01*
Y1038500D01*
X650500D01*
G01X648500Y1033667D02*
X645500D01*
G01X660750Y1037667D02*
X660000Y1038167D01*
X659125Y1038500D01*
X658125D01*
X657000Y1038000D01*
X656125Y1037167D01*
X655500Y1036167D01*
X655000Y1034500D01*
X654875Y1033000D01*
X655125Y1031500D01*
X655500Y1030500D01*
X656250Y1029500D01*
X657125Y1028833D01*
X658000Y1028500D01*
X658875D01*
X659750Y1028833D01*
X660500Y1029333D01*
X661125Y1030000D01*
G01X665500Y1028500D02*
Y1038500D01*
X668625D01*
X669625Y1038000D01*
X670250Y1037333D01*
X670500Y1036000D01*
X670250Y1034667D01*
X669500Y1033833D01*
X668625Y1033333D01*
X665500D01*
G01X668625D02*
X670500Y1028500D01*
G01X676375Y1031833D02*
X679625D01*
G01X688000Y1038500D02*
X687000Y1038167D01*
X686250Y1037333D01*
X685750Y1036333D01*
X685375Y1035000D01*
X685250Y1033500D01*
X685375Y1032000D01*
X685750Y1030667D01*
X686250Y1029666D01*
X687000Y1028833D01*
X688000Y1028500D01*
X689000Y1028833D01*
X689750Y1029666D01*
X690250Y1030667D01*
X690625Y1032000D01*
X690750Y1033500D01*
X690625Y1035000D01*
X690250Y1036333D01*
X689750Y1037333D01*
X689000Y1038167D01*
X688000Y1038500D01*
G01X698000Y1028500D02*
X698875Y1028667D01*
X699875Y1029167D01*
X700500Y1030000D01*
X700750Y1031167D01*
X700500Y1032333D01*
X699750Y1033333D01*
X698625Y1033833D01*
X697375D01*
X696625Y1034167D01*
X696000Y1035000D01*
X695750Y1036167D01*
X696125Y1037333D01*
X697000Y1038167D01*
X698000Y1038500D01*
X699000Y1038167D01*
X699875Y1037333D01*
X700250Y1036167D01*
X700000Y1035000D01*
X699375Y1034167D01*
X698625Y1033833D01*
X697375D01*
X696250Y1033333D01*
X695500Y1032333D01*
X695250Y1031167D01*
X695500Y1030000D01*
X696125Y1029167D01*
X697125Y1028667D01*
X698000Y1028500D01*
G01X705250Y1030000D02*
X706000Y1029167D01*
X706875Y1028667D01*
X708000Y1028500D01*
X709125Y1028833D01*
X710000Y1029500D01*
X710625Y1030667D01*
X710750Y1032000D01*
X710500Y1033333D01*
X709875Y1034167D01*
X709000Y1034833D01*
X708125Y1035000D01*
X707250Y1034833D01*
X706125Y1034167D01*
X706500Y1038500D01*
X709875D01*
G01X715625Y1032666D02*
X716500Y1033833D01*
X717250Y1034500D01*
X718250Y1034833D01*
X719125Y1034500D01*
X719750Y1033833D01*
X720250Y1032833D01*
X720375Y1031667D01*
X720250Y1030667D01*
X719750Y1029666D01*
X719000Y1028833D01*
X718125Y1028500D01*
X717125Y1028833D01*
X716250Y1029833D01*
X715750Y1031333D01*
X715625Y1033000D01*
X715875Y1035166D01*
X716250Y1036333D01*
X716875Y1037500D01*
X717750Y1038333D01*
X718625Y1038500D01*
X719500Y1038167D01*
X720125Y1037333D01*
G01X725250Y1030500D02*
X726000Y1029333D01*
X727000Y1028667D01*
X728125Y1028500D01*
X729125Y1028667D01*
X730125Y1029500D01*
X730750Y1030500D01*
X730875Y1031500D01*
X730625Y1032666D01*
X729750Y1033500D01*
X728875Y1033833D01*
X727750D01*
G01X728875D02*
X729625Y1034333D01*
X730250Y1035166D01*
X730500Y1036167D01*
X730250Y1037167D01*
X729625Y1038000D01*
X728500Y1038500D01*
X727375Y1038333D01*
X726250Y1037667D01*
G01X738000Y1028500D02*
X738875Y1028667D01*
X739875Y1029167D01*
X740500Y1030000D01*
X740750Y1031167D01*
X740500Y1032333D01*
X739750Y1033333D01*
X738625Y1033833D01*
X737375D01*
X736625Y1034167D01*
X736000Y1035000D01*
X735750Y1036167D01*
X736125Y1037333D01*
X737000Y1038167D01*
X738000Y1038500D01*
X739000Y1038167D01*
X739875Y1037333D01*
X740250Y1036167D01*
X740000Y1035000D01*
X739375Y1034167D01*
X738625Y1033833D01*
X737375D01*
X736250Y1033333D01*
X735500Y1032333D01*
X735250Y1031167D01*
X735500Y1030000D01*
X736125Y1029167D01*
X737125Y1028667D01*
X738000Y1028500D01*
G01X586500Y1063500D02*
X589500D01*
G01X588000D02*
Y1053500D01*
G01X586500D02*
X589500D01*
G01X595125D02*
Y1063500D01*
X600875Y1053500D01*
Y1063500D01*
G01X606500D02*
X609500D01*
G01X608000D02*
Y1053500D01*
G01X606500D02*
X609500D01*
G01X618000Y1063500D02*
Y1053500D01*
G01X615125Y1063500D02*
X620875D01*
G01X626500D02*
X629500D01*
G01X628000D02*
Y1053500D01*
G01X626500D02*
X629500D01*
G01X634875D02*
X638000Y1063500D01*
X641125Y1053500D01*
G01X640000Y1057000D02*
X636000D01*
G01X645500Y1063500D02*
Y1053500D01*
X650500D01*
G01X665500D02*
Y1063500D01*
X668625D01*
X669625Y1063000D01*
X670250Y1062333D01*
X670500Y1061000D01*
X670250Y1059667D01*
X669500Y1058833D01*
X668625Y1058333D01*
X665500D01*
G01X668625D02*
X670500Y1053500D01*
G01X680500D02*
X675500D01*
Y1063500D01*
X680500D01*
G01X678500Y1058667D02*
X675500D01*
G01X685500Y1063500D02*
Y1053500D01*
X690500D01*
G01X700500D02*
X695500D01*
Y1063500D01*
X700500D01*
G01X698500Y1058667D02*
X695500D01*
G01X704875Y1053500D02*
X708000Y1063500D01*
X711125Y1053500D01*
G01X710000Y1057000D02*
X706000D01*
G01X715375Y1054833D02*
X716375Y1054000D01*
X717500Y1053500D01*
X718500D01*
X719500Y1054000D01*
X720250Y1054833D01*
X720625Y1056000D01*
X720375Y1057166D01*
X719750Y1058167D01*
X718625Y1058833D01*
X717125Y1059167D01*
X716250Y1059833D01*
X715875Y1061000D01*
X716125Y1062167D01*
X716750Y1063000D01*
X717625Y1063500D01*
X718500D01*
X719375Y1063167D01*
X720125Y1062333D01*
G01X730500Y1053500D02*
X725500D01*
Y1063500D01*
X730500D01*
G01X728500Y1058667D02*
X725500D01*
G01X605250Y1078500D02*
Y1088500D01*
X607750D01*
X608750Y1088000D01*
X609500Y1087333D01*
X610125Y1086333D01*
X610625Y1085166D01*
X610750Y1083500D01*
X610625Y1081833D01*
X610125Y1080667D01*
X609500Y1079666D01*
X608750Y1079000D01*
X607750Y1078500D01*
X605250D01*
G01X620500D02*
X615500D01*
Y1088500D01*
X620500D01*
G01X618500Y1083667D02*
X615500D01*
G01X625375Y1079833D02*
X626375Y1079000D01*
X627500Y1078500D01*
X628500D01*
X629500Y1079000D01*
X630250Y1079833D01*
X630625Y1081000D01*
X630375Y1082166D01*
X629750Y1083167D01*
X628625Y1083833D01*
X627125Y1084167D01*
X626250Y1084833D01*
X625875Y1086000D01*
X626125Y1087167D01*
X626750Y1088000D01*
X627625Y1088500D01*
X628500D01*
X629375Y1088167D01*
X630125Y1087333D01*
G01X640750Y1087667D02*
X640000Y1088167D01*
X639125Y1088500D01*
X638125D01*
X637000Y1088000D01*
X636125Y1087167D01*
X635500Y1086167D01*
X635000Y1084500D01*
X634875Y1083000D01*
X635125Y1081500D01*
X635500Y1080500D01*
X636250Y1079500D01*
X637125Y1078833D01*
X638000Y1078500D01*
X638875D01*
X639750Y1078833D01*
X640500Y1079333D01*
X641125Y1080000D01*
G01X645500Y1078500D02*
Y1088500D01*
X648625D01*
X649625Y1088000D01*
X650250Y1087333D01*
X650500Y1086000D01*
X650250Y1084667D01*
X649500Y1083833D01*
X648625Y1083333D01*
X645500D01*
G01X648625D02*
X650500Y1078500D01*
G01X656500Y1088500D02*
X659500D01*
G01X658000D02*
Y1078500D01*
G01X656500D02*
X659500D01*
G01X665500D02*
Y1088500D01*
X668500D01*
X669500Y1088000D01*
X670250Y1086833D01*
X670500Y1085500D01*
X670250Y1084167D01*
X669625Y1083167D01*
X668500Y1082666D01*
X665500D01*
G01X678000Y1088500D02*
Y1078500D01*
G01X675125Y1088500D02*
X680875D01*
G01X686500D02*
X689500D01*
G01X688000D02*
Y1078500D01*
G01X686500D02*
X689500D01*
G01X698000D02*
X697000Y1078667D01*
X696125Y1079333D01*
X695375Y1080333D01*
X694875Y1081500D01*
X694625Y1082833D01*
Y1084167D01*
X694875Y1085500D01*
X695375Y1086667D01*
X696125Y1087667D01*
X697000Y1088333D01*
X698000Y1088500D01*
X699000Y1088333D01*
X699875Y1087667D01*
X700625Y1086667D01*
X701125Y1085500D01*
X701375Y1084167D01*
Y1082833D01*
X701125Y1081500D01*
X700625Y1080333D01*
X699875Y1079333D01*
X699000Y1078667D01*
X698000Y1078500D01*
G01X705125D02*
Y1088500D01*
X710875Y1078500D01*
Y1088500D01*
G01X615500Y1103500D02*
Y1113500D01*
X618625D01*
X619625Y1113000D01*
X620250Y1112333D01*
X620500Y1111000D01*
X620250Y1109667D01*
X619500Y1108833D01*
X618625Y1108333D01*
X615500D01*
G01X618625D02*
X620500Y1103500D01*
G01X630500D02*
X625500D01*
Y1113500D01*
X630500D01*
G01X628500Y1108667D02*
X625500D01*
G01X634875Y1113500D02*
X638000Y1103500D01*
X641125Y1113500D01*
G01X646500D02*
X649500D01*
G01X648000D02*
Y1103500D01*
G01X646500D02*
X649500D01*
G01X655375Y1104833D02*
X656375Y1104000D01*
X657500Y1103500D01*
X658500D01*
X659500Y1104000D01*
X660250Y1104833D01*
X660625Y1106000D01*
X660375Y1107166D01*
X659750Y1108167D01*
X658625Y1108833D01*
X657125Y1109167D01*
X656250Y1109833D01*
X655875Y1111000D01*
X656125Y1112167D01*
X656750Y1113000D01*
X657625Y1113500D01*
X658500D01*
X659375Y1113167D01*
X660125Y1112333D01*
G01X666500Y1113500D02*
X669500D01*
G01X668000D02*
Y1103500D01*
G01X666500D02*
X669500D01*
G01X678000D02*
X677000Y1103667D01*
X676125Y1104333D01*
X675375Y1105333D01*
X674875Y1106500D01*
X674625Y1107833D01*
Y1109167D01*
X674875Y1110500D01*
X675375Y1111667D01*
X676125Y1112667D01*
X677000Y1113333D01*
X678000Y1113500D01*
X679000Y1113333D01*
X679875Y1112667D01*
X680625Y1111667D01*
X681125Y1110500D01*
X681375Y1109167D01*
Y1107833D01*
X681125Y1106500D01*
X680625Y1105333D01*
X679875Y1104333D01*
X679000Y1103667D01*
X678000Y1103500D01*
G01X685125D02*
Y1113500D01*
X690875Y1103500D01*
Y1113500D01*
G01X695375Y1104833D02*
X696375Y1104000D01*
X697500Y1103500D01*
X698500D01*
X699500Y1104000D01*
X700250Y1104833D01*
X700625Y1106000D01*
X700375Y1107166D01*
X699750Y1108167D01*
X698625Y1108833D01*
X697125Y1109167D01*
X696250Y1109833D01*
X695875Y1111000D01*
X696125Y1112167D01*
X696750Y1113000D01*
X697625Y1113500D01*
X698500D01*
X699375Y1113167D01*
X700125Y1112333D01*
G01X668000Y-479000D02*
Y-509000D01*
G01X653000Y-179000D02*
Y-479000D01*
G01X659400Y-391433D02*
X660000Y-390633D01*
X660700Y-390233D01*
X661500Y-390100D01*
X662500Y-390367D01*
X663200Y-391033D01*
X663400Y-391833D01*
X663300Y-392634D01*
X662900Y-393300D01*
X660900Y-394633D01*
X660000Y-395567D01*
X659400Y-396900D01*
X659200Y-398100D01*
X663400D01*
G01X667600Y-397167D02*
X668300Y-397833D01*
X669100Y-398100D01*
X669900Y-397833D01*
X670600Y-397034D01*
X671100Y-395833D01*
X671300Y-394633D01*
Y-393167D01*
X671100Y-391967D01*
X670600Y-390900D01*
X670000Y-390367D01*
X669300Y-390100D01*
X668500Y-390367D01*
X667900Y-390900D01*
X667500Y-391700D01*
X667300Y-392767D01*
X667500Y-393700D01*
X668000Y-394633D01*
X668600Y-395167D01*
X669300Y-395300D01*
X670100Y-395034D01*
X670700Y-394367D01*
X671300Y-393167D01*
G01X675000Y-398100D02*
Y-390100D01*
X679600Y-398100D01*
Y-390100D01*
G01X685300Y-398100D02*
X684500Y-397967D01*
X683800Y-397433D01*
X683200Y-396633D01*
X682800Y-395700D01*
X682600Y-394633D01*
Y-393567D01*
X682800Y-392500D01*
X683200Y-391567D01*
X683800Y-390767D01*
X684500Y-390233D01*
X685300Y-390100D01*
X686100Y-390233D01*
X686800Y-390767D01*
X687400Y-391567D01*
X687800Y-392500D01*
X688000Y-393567D01*
Y-394633D01*
X687800Y-395700D01*
X687400Y-396633D01*
X686800Y-397433D01*
X686100Y-397967D01*
X685300Y-398100D01*
G01X690800Y-390100D02*
X693300Y-398100D01*
X695800Y-390100D01*
G01X701300Y-398100D02*
Y-390100D01*
X700100Y-391700D01*
G01Y-398100D02*
X702500D01*
G01X709300D02*
X710000Y-397967D01*
X710800Y-397567D01*
X711300Y-396900D01*
X711500Y-395967D01*
X711300Y-395034D01*
X710700Y-394233D01*
X709800Y-393833D01*
X708800D01*
X708200Y-393567D01*
X707700Y-392900D01*
X707500Y-391967D01*
X707800Y-391033D01*
X708500Y-390367D01*
X709300Y-390100D01*
X710100Y-390367D01*
X710800Y-391033D01*
X711100Y-391967D01*
X710900Y-392900D01*
X710400Y-393567D01*
X709800Y-393833D01*
X708800D01*
X707900Y-394233D01*
X707300Y-395034D01*
X707100Y-395967D01*
X707300Y-396900D01*
X707800Y-397567D01*
X708600Y-397967D01*
X709300Y-398100D01*
G01X661400Y-416333D02*
X662000Y-415533D01*
X662700Y-415133D01*
X663500Y-415000D01*
X664500Y-415267D01*
X665200Y-415933D01*
X665400Y-416733D01*
X665300Y-417534D01*
X664900Y-418200D01*
X662900Y-419533D01*
X662000Y-420467D01*
X661400Y-421800D01*
X661200Y-423000D01*
X665400D01*
G01X669600Y-422067D02*
X670300Y-422733D01*
X671100Y-423000D01*
X671900Y-422733D01*
X672600Y-421934D01*
X673100Y-420733D01*
X673300Y-419533D01*
Y-418067D01*
X673100Y-416867D01*
X672600Y-415800D01*
X672000Y-415267D01*
X671300Y-415000D01*
X670500Y-415267D01*
X669900Y-415800D01*
X669500Y-416600D01*
X669300Y-417667D01*
X669500Y-418600D01*
X670000Y-419533D01*
X670600Y-420067D01*
X671300Y-420200D01*
X672100Y-419934D01*
X672700Y-419267D01*
X673300Y-418067D01*
G01X677000Y-423000D02*
Y-415000D01*
X681600Y-423000D01*
Y-415000D01*
G01X687300Y-423000D02*
X686500Y-422867D01*
X685800Y-422333D01*
X685200Y-421533D01*
X684800Y-420600D01*
X684600Y-419533D01*
Y-418467D01*
X684800Y-417400D01*
X685200Y-416467D01*
X685800Y-415667D01*
X686500Y-415133D01*
X687300Y-415000D01*
X688100Y-415133D01*
X688800Y-415667D01*
X689400Y-416467D01*
X689800Y-417400D01*
X690000Y-418467D01*
Y-419533D01*
X689800Y-420600D01*
X689400Y-421533D01*
X688800Y-422333D01*
X688100Y-422867D01*
X687300Y-423000D01*
G01X692800Y-415000D02*
X695300Y-423000D01*
X697800Y-415000D01*
G01X703300Y-423000D02*
Y-415000D01*
X702100Y-416600D01*
G01Y-423000D02*
X704500D01*
G01X711300D02*
X712000Y-422867D01*
X712800Y-422467D01*
X713300Y-421800D01*
X713500Y-420867D01*
X713300Y-419934D01*
X712700Y-419133D01*
X711800Y-418733D01*
X710800D01*
X710200Y-418467D01*
X709700Y-417800D01*
X709500Y-416867D01*
X709800Y-415933D01*
X710500Y-415267D01*
X711300Y-415000D01*
X712100Y-415267D01*
X712800Y-415933D01*
X713100Y-416867D01*
X712900Y-417800D01*
X712400Y-418467D01*
X711800Y-418733D01*
X710800D01*
X709900Y-419133D01*
X709300Y-419934D01*
X709100Y-420867D01*
X709300Y-421800D01*
X709800Y-422467D01*
X710600Y-422867D01*
X711300Y-423000D01*
G01X660200Y-366233D02*
X660800Y-365433D01*
X661500Y-365033D01*
X662300Y-364900D01*
X663300Y-365167D01*
X664000Y-365833D01*
X664200Y-366633D01*
X664100Y-367434D01*
X663700Y-368100D01*
X661700Y-369433D01*
X660800Y-370367D01*
X660200Y-371700D01*
X660000Y-372900D01*
X664200D01*
G01X668400Y-371967D02*
X669100Y-372633D01*
X669900Y-372900D01*
X670700Y-372633D01*
X671400Y-371834D01*
X671900Y-370633D01*
X672100Y-369433D01*
Y-367967D01*
X671900Y-366767D01*
X671400Y-365700D01*
X670800Y-365167D01*
X670100Y-364900D01*
X669300Y-365167D01*
X668700Y-365700D01*
X668300Y-366500D01*
X668100Y-367567D01*
X668300Y-368500D01*
X668800Y-369433D01*
X669400Y-369967D01*
X670100Y-370100D01*
X670900Y-369834D01*
X671500Y-369167D01*
X672100Y-367967D01*
G01X675800Y-372900D02*
Y-364900D01*
X680400Y-372900D01*
Y-364900D01*
G01X686100Y-372900D02*
X685300Y-372767D01*
X684600Y-372233D01*
X684000Y-371433D01*
X683600Y-370500D01*
X683400Y-369433D01*
Y-368367D01*
X683600Y-367300D01*
X684000Y-366367D01*
X684600Y-365567D01*
X685300Y-365033D01*
X686100Y-364900D01*
X686900Y-365033D01*
X687600Y-365567D01*
X688200Y-366367D01*
X688600Y-367300D01*
X688800Y-368367D01*
Y-369433D01*
X688600Y-370500D01*
X688200Y-371433D01*
X687600Y-372233D01*
X686900Y-372767D01*
X686100Y-372900D01*
G01X691600Y-364900D02*
X694100Y-372900D01*
X696600Y-364900D01*
G01X702100Y-372900D02*
Y-364900D01*
X700900Y-366500D01*
G01Y-372900D02*
X703300D01*
G01X710100D02*
X710800Y-372767D01*
X711600Y-372367D01*
X712100Y-371700D01*
X712300Y-370767D01*
X712100Y-369834D01*
X711500Y-369033D01*
X710600Y-368633D01*
X709600D01*
X709000Y-368367D01*
X708500Y-367700D01*
X708300Y-366767D01*
X708600Y-365833D01*
X709300Y-365167D01*
X710100Y-364900D01*
X710900Y-365167D01*
X711600Y-365833D01*
X711900Y-366767D01*
X711700Y-367700D01*
X711200Y-368367D01*
X710600Y-368633D01*
X709600D01*
X708700Y-369033D01*
X708100Y-369834D01*
X707900Y-370767D01*
X708100Y-371700D01*
X708600Y-372367D01*
X709400Y-372767D01*
X710100Y-372900D01*
G01X661400Y-315033D02*
X662000Y-314233D01*
X662700Y-313833D01*
X663500Y-313700D01*
X664500Y-313967D01*
X665200Y-314633D01*
X665400Y-315433D01*
X665300Y-316234D01*
X664900Y-316900D01*
X662900Y-318233D01*
X662000Y-319167D01*
X661400Y-320500D01*
X661200Y-321700D01*
X665400D01*
G01X669600Y-320767D02*
X670300Y-321433D01*
X671100Y-321700D01*
X671900Y-321433D01*
X672600Y-320634D01*
X673100Y-319433D01*
X673300Y-318233D01*
Y-316767D01*
X673100Y-315567D01*
X672600Y-314500D01*
X672000Y-313967D01*
X671300Y-313700D01*
X670500Y-313967D01*
X669900Y-314500D01*
X669500Y-315300D01*
X669300Y-316367D01*
X669500Y-317300D01*
X670000Y-318233D01*
X670600Y-318767D01*
X671300Y-318900D01*
X672100Y-318634D01*
X672700Y-317967D01*
X673300Y-316767D01*
G01X677000Y-321700D02*
Y-313700D01*
X681600Y-321700D01*
Y-313700D01*
G01X687300Y-321700D02*
X686500Y-321567D01*
X685800Y-321033D01*
X685200Y-320233D01*
X684800Y-319300D01*
X684600Y-318233D01*
Y-317167D01*
X684800Y-316100D01*
X685200Y-315167D01*
X685800Y-314367D01*
X686500Y-313833D01*
X687300Y-313700D01*
X688100Y-313833D01*
X688800Y-314367D01*
X689400Y-315167D01*
X689800Y-316100D01*
X690000Y-317167D01*
Y-318233D01*
X689800Y-319300D01*
X689400Y-320233D01*
X688800Y-321033D01*
X688100Y-321567D01*
X687300Y-321700D01*
G01X692800Y-313700D02*
X695300Y-321700D01*
X697800Y-313700D01*
G01X703300Y-321700D02*
Y-313700D01*
X702100Y-315300D01*
G01Y-321700D02*
X704500D01*
G01X711300D02*
X712000Y-321567D01*
X712800Y-321167D01*
X713300Y-320500D01*
X713500Y-319567D01*
X713300Y-318634D01*
X712700Y-317833D01*
X711800Y-317433D01*
X710800D01*
X710200Y-317167D01*
X709700Y-316500D01*
X709500Y-315567D01*
X709800Y-314633D01*
X710500Y-313967D01*
X711300Y-313700D01*
X712100Y-313967D01*
X712800Y-314633D01*
X713100Y-315567D01*
X712900Y-316500D01*
X712400Y-317167D01*
X711800Y-317433D01*
X710800D01*
X709900Y-317833D01*
X709300Y-318634D01*
X709100Y-319567D01*
X709300Y-320500D01*
X709800Y-321167D01*
X710600Y-321567D01*
X711300Y-321700D01*
G01X658100Y-243333D02*
X658700Y-242533D01*
X659400Y-242133D01*
X660200Y-242000D01*
X661200Y-242267D01*
X661900Y-242933D01*
X662100Y-243733D01*
X662000Y-244534D01*
X661600Y-245200D01*
X659600Y-246533D01*
X658700Y-247467D01*
X658100Y-248800D01*
X657900Y-250000D01*
X662100D01*
G01X666300Y-249067D02*
X667000Y-249733D01*
X667800Y-250000D01*
X668600Y-249733D01*
X669300Y-248934D01*
X669800Y-247733D01*
X670000Y-246533D01*
Y-245067D01*
X669800Y-243867D01*
X669300Y-242800D01*
X668700Y-242267D01*
X668000Y-242000D01*
X667200Y-242267D01*
X666600Y-242800D01*
X666200Y-243600D01*
X666000Y-244667D01*
X666200Y-245600D01*
X666700Y-246533D01*
X667300Y-247067D01*
X668000Y-247200D01*
X668800Y-246934D01*
X669400Y-246267D01*
X670000Y-245067D01*
G01X673700Y-250000D02*
Y-242000D01*
X678300Y-250000D01*
Y-242000D01*
G01X684000Y-250000D02*
X683200Y-249867D01*
X682500Y-249333D01*
X681900Y-248533D01*
X681500Y-247600D01*
X681300Y-246533D01*
Y-245467D01*
X681500Y-244400D01*
X681900Y-243467D01*
X682500Y-242667D01*
X683200Y-242133D01*
X684000Y-242000D01*
X684800Y-242133D01*
X685500Y-242667D01*
X686100Y-243467D01*
X686500Y-244400D01*
X686700Y-245467D01*
Y-246533D01*
X686500Y-247600D01*
X686100Y-248533D01*
X685500Y-249333D01*
X684800Y-249867D01*
X684000Y-250000D01*
G01X689500Y-242000D02*
X692000Y-250000D01*
X694500Y-242000D01*
G01X700000Y-250000D02*
Y-242000D01*
X698800Y-243600D01*
G01Y-250000D02*
X701200D01*
G01X708000D02*
X708700Y-249867D01*
X709500Y-249467D01*
X710000Y-248800D01*
X710200Y-247867D01*
X710000Y-246934D01*
X709400Y-246133D01*
X708500Y-245733D01*
X707500D01*
X706900Y-245467D01*
X706400Y-244800D01*
X706200Y-243867D01*
X706500Y-242933D01*
X707200Y-242267D01*
X708000Y-242000D01*
X708800Y-242267D01*
X709500Y-242933D01*
X709800Y-243867D01*
X709600Y-244800D01*
X709100Y-245467D01*
X708500Y-245733D01*
X707500D01*
X706600Y-246133D01*
X706000Y-246934D01*
X705800Y-247867D01*
X706000Y-248800D01*
X706500Y-249467D01*
X707300Y-249867D01*
X708000Y-250000D01*
G01X668000Y1121000D02*
Y1151000D01*
G01X673800Y-196500D02*
Y-188500D01*
X675800D01*
X676600Y-188900D01*
X677200Y-189433D01*
X677700Y-190233D01*
X678100Y-191167D01*
X678200Y-192500D01*
X678100Y-193833D01*
X677700Y-194767D01*
X677200Y-195567D01*
X676600Y-196100D01*
X675800Y-196500D01*
X673800D01*
G01X681500D02*
X684000Y-188500D01*
X686500Y-196500D01*
G01X685600Y-193700D02*
X682400D01*
G01X692000Y-188500D02*
Y-196500D01*
G01X689700Y-188500D02*
X694300D01*
G01X702000Y-196500D02*
X698000D01*
Y-188500D01*
X702000D01*
G01X700400Y-192367D02*
X698000D01*
G01X728900Y-470434D02*
X729700Y-471100D01*
X730600Y-471500D01*
X731400D01*
X732200Y-471100D01*
X732800Y-470434D01*
X733100Y-469500D01*
X732900Y-468567D01*
X732400Y-467767D01*
X731500Y-467233D01*
X730300Y-466967D01*
X729600Y-466433D01*
X729300Y-465500D01*
X729500Y-464567D01*
X730000Y-463900D01*
X730700Y-463500D01*
X731400D01*
X732100Y-463767D01*
X732700Y-464433D01*
G01X741200Y-464167D02*
X740600Y-463767D01*
X739900Y-463500D01*
X739100D01*
X738200Y-463900D01*
X737500Y-464567D01*
X737000Y-465367D01*
X736600Y-466700D01*
X736500Y-467900D01*
X736700Y-469100D01*
X737000Y-469900D01*
X737600Y-470700D01*
X738300Y-471233D01*
X739000Y-471500D01*
X739700D01*
X740400Y-471233D01*
X741000Y-470833D01*
X741500Y-470300D01*
G01X744500Y-471500D02*
X747000Y-463500D01*
X749500Y-471500D01*
G01X748600Y-468700D02*
X745400D01*
G01X753000Y-463500D02*
Y-471500D01*
X757000D01*
G01X765000D02*
X761000D01*
Y-463500D01*
X765000D01*
G01X763400Y-467367D02*
X761000D01*
G01X718000Y-479000D02*
Y-179000D01*
G01X728900Y-397934D02*
X729700Y-398600D01*
X730600Y-399000D01*
X731400D01*
X732200Y-398600D01*
X732800Y-397934D01*
X733100Y-397000D01*
X732900Y-396067D01*
X732400Y-395267D01*
X731500Y-394733D01*
X730300Y-394467D01*
X729600Y-393933D01*
X729300Y-393000D01*
X729500Y-392067D01*
X730000Y-391400D01*
X730700Y-391000D01*
X731400D01*
X732100Y-391267D01*
X732700Y-391933D01*
G01X737800Y-391000D02*
X740200D01*
G01X739000D02*
Y-399000D01*
G01X737800D02*
X740200D01*
G01X745100Y-391000D02*
X748900D01*
X745100Y-399000D01*
X748900D01*
G01X757000D02*
X753000D01*
Y-391000D01*
X757000D01*
G01X755400Y-394867D02*
X753000D01*
G01X731000Y-267000D02*
Y-275000D01*
G01X728700Y-267000D02*
X733300D01*
G01X737800D02*
X740200D01*
G01X739000D02*
Y-275000D01*
G01X737800D02*
X740200D01*
G01X747000Y-267000D02*
Y-275000D01*
G01X744700Y-267000D02*
X749300D01*
G01X753000D02*
Y-275000D01*
X757000D01*
G01X765000D02*
X761000D01*
Y-267000D01*
X765000D01*
G01X763400Y-270867D02*
X761000D01*
G01X748500Y-420667D02*
X747000Y-419667D01*
X745250Y-419000D01*
X743250D01*
X741000Y-420000D01*
X739250Y-421667D01*
X738000Y-423667D01*
X737000Y-427000D01*
X736750Y-430000D01*
X737250Y-433000D01*
X738000Y-435000D01*
X739500Y-437000D01*
X741250Y-438333D01*
X743000Y-439000D01*
X744750D01*
X746500Y-438333D01*
X748000Y-437334D01*
X749250Y-436001D01*
G01X773250Y-422333D02*
X774750Y-420334D01*
X776500Y-419333D01*
X778500Y-419000D01*
X781000Y-419667D01*
X782750Y-421333D01*
X783250Y-423333D01*
X783000Y-425334D01*
X782000Y-427000D01*
X777000Y-430333D01*
X774750Y-432667D01*
X773250Y-436001D01*
X772750Y-439000D01*
X783250D01*
G01X801000D02*
Y-419000D01*
X791750Y-433333D01*
X804250D01*
G01X812500Y-435000D02*
X814000Y-437334D01*
X816000Y-438667D01*
X818250Y-439000D01*
X820250Y-438667D01*
X822250Y-437000D01*
X823500Y-435000D01*
X823750Y-433000D01*
X823250Y-430667D01*
X821500Y-429000D01*
X819750Y-428333D01*
X817500D01*
G01X819750D02*
X821250Y-427333D01*
X822500Y-425667D01*
X823000Y-423667D01*
X822500Y-421667D01*
X821250Y-420000D01*
X819000Y-419000D01*
X816750Y-419333D01*
X814500Y-420667D01*
G01X832500Y-436001D02*
X834000Y-437667D01*
X835750Y-438667D01*
X838000Y-439000D01*
X840250Y-438333D01*
X842000Y-437000D01*
X843250Y-434667D01*
X843500Y-432000D01*
X843000Y-429334D01*
X841750Y-427667D01*
X840000Y-426334D01*
X838250Y-426000D01*
X836500Y-426334D01*
X834250Y-427667D01*
X835000Y-419000D01*
X841750D01*
G01X852500Y-436001D02*
X854000Y-437667D01*
X855750Y-438667D01*
X858000Y-439000D01*
X860250Y-438333D01*
X862000Y-437000D01*
X863250Y-434667D01*
X863500Y-432000D01*
X863000Y-429334D01*
X861750Y-427667D01*
X860000Y-426334D01*
X858250Y-426000D01*
X856500Y-426334D01*
X854250Y-427667D01*
X855000Y-419000D01*
X861750D01*
G01X768000Y-454000D02*
Y-379000D01*
G01X784100Y-399000D02*
Y-391000D01*
X787900D01*
G01X786500Y-394867D02*
X784100D01*
G01X791900Y-397934D02*
X792700Y-398600D01*
X793600Y-399000D01*
X794400D01*
X795200Y-398600D01*
X795800Y-397934D01*
X796100Y-397000D01*
X795900Y-396067D01*
X795400Y-395267D01*
X794500Y-394733D01*
X793300Y-394467D01*
X792600Y-393933D01*
X792300Y-393000D01*
X792500Y-392067D01*
X793000Y-391400D01*
X793700Y-391000D01*
X794400D01*
X795100Y-391267D01*
X795700Y-391933D01*
G01X804200Y-391667D02*
X803600Y-391267D01*
X802900Y-391000D01*
X802100D01*
X801200Y-391400D01*
X800500Y-392067D01*
X800000Y-392867D01*
X799600Y-394200D01*
X799500Y-395400D01*
X799700Y-396600D01*
X800000Y-397400D01*
X800600Y-398200D01*
X801300Y-398733D01*
X802000Y-399000D01*
X802700D01*
X803400Y-398733D01*
X804000Y-398333D01*
X804500Y-397800D01*
G01X807400Y-399000D02*
Y-391000D01*
X810000Y-397667D01*
X812600Y-391000D01*
Y-399000D01*
G01X823700D02*
Y-391000D01*
X828300Y-399000D01*
Y-391000D01*
G01X834000Y-399000D02*
X833200Y-398867D01*
X832500Y-398333D01*
X831900Y-397533D01*
X831500Y-396600D01*
X831300Y-395533D01*
Y-394467D01*
X831500Y-393400D01*
X831900Y-392467D01*
X832500Y-391667D01*
X833200Y-391133D01*
X834000Y-391000D01*
X834800Y-391133D01*
X835500Y-391667D01*
X836100Y-392467D01*
X836500Y-393400D01*
X836700Y-394467D01*
Y-395533D01*
X836500Y-396600D01*
X836100Y-397533D01*
X835500Y-398333D01*
X834800Y-398867D01*
X834000Y-399000D01*
G01X806750Y-471500D02*
Y-461500D01*
X805250Y-463500D01*
G01Y-471500D02*
X808250D01*
G01X814500Y-471833D02*
X819000Y-461500D01*
G01X826750Y-471500D02*
Y-461500D01*
X825250Y-463500D01*
G01Y-471500D02*
X828250D01*
G01X812570Y-343467D02*
X811160Y-342527D01*
X809515Y-341900D01*
X807635D01*
X805520Y-342840D01*
X803875Y-344407D01*
X802700Y-346287D01*
X801760Y-349420D01*
X801525Y-352240D01*
X801995Y-355060D01*
X802700Y-356940D01*
X804110Y-358820D01*
X805755Y-360073D01*
X807400Y-360700D01*
X809045D01*
X810690Y-360073D01*
X812100Y-359134D01*
X813275Y-357881D01*
G01X821030Y-341900D02*
Y-355373D01*
X821970Y-358194D01*
X823850Y-360073D01*
X826200Y-360700D01*
X828550Y-360073D01*
X830430Y-358194D01*
X831370Y-355373D01*
Y-341900D01*
G01X840065Y-358194D02*
X841945Y-359760D01*
X844060Y-360700D01*
X845940D01*
X847820Y-359760D01*
X849230Y-358194D01*
X849935Y-356000D01*
X849465Y-353807D01*
X848290Y-351927D01*
X846175Y-350673D01*
X843355Y-350047D01*
X841710Y-348794D01*
X841005Y-346600D01*
X841475Y-344407D01*
X842650Y-342840D01*
X844295Y-341900D01*
X845940D01*
X847585Y-342527D01*
X848995Y-344093D01*
G01X863800Y-341900D02*
Y-360700D01*
G01X858395Y-341900D02*
X869205D01*
G01X882600Y-360700D02*
X880720Y-360387D01*
X879075Y-359134D01*
X877665Y-357253D01*
X876725Y-355060D01*
X876255Y-352553D01*
Y-350047D01*
X876725Y-347540D01*
X877665Y-345347D01*
X879075Y-343467D01*
X880720Y-342213D01*
X882600Y-341900D01*
X884480Y-342213D01*
X886125Y-343467D01*
X887535Y-345347D01*
X888475Y-347540D01*
X888945Y-350047D01*
Y-352553D01*
X888475Y-355060D01*
X887535Y-357253D01*
X886125Y-359134D01*
X884480Y-360387D01*
X882600Y-360700D01*
G01X895290D02*
Y-341900D01*
X901400Y-357567D01*
X907510Y-341900D01*
Y-360700D01*
G01X924900D02*
X915500D01*
Y-341900D01*
X924900D01*
G01X921140Y-350986D02*
X915500D01*
G01X934300Y-360700D02*
Y-341900D01*
X940175D01*
X942055Y-342840D01*
X943230Y-344093D01*
X943700Y-346600D01*
X943230Y-349107D01*
X941820Y-350673D01*
X940175Y-351614D01*
X934300D01*
G01X940175D02*
X943700Y-360700D01*
G01X981300D02*
X971900D01*
Y-341900D01*
X981300D01*
G01X977540Y-350986D02*
X971900D01*
G01X989525Y-341900D02*
X995400Y-360700D01*
X1001275Y-341900D01*
G01X1008325Y-360700D02*
X1014200Y-341900D01*
X1020075Y-360700D01*
G01X1017960Y-354120D02*
X1010440D01*
G01X1028300Y-341900D02*
Y-360700D01*
X1037700D01*
G01X1066135Y-341900D02*
X1075065D01*
X1066135Y-360700D01*
X1075065D01*
G01X825825Y-327600D02*
X831700Y-308800D01*
X837575Y-327600D01*
G01X835460Y-321020D02*
X827940D01*
G01X845330Y-327600D02*
Y-308800D01*
X850030D01*
X851910Y-309740D01*
X853320Y-310993D01*
X854495Y-312873D01*
X855435Y-315067D01*
X855670Y-318200D01*
X855435Y-321334D01*
X854495Y-323527D01*
X853320Y-325407D01*
X851910Y-326660D01*
X850030Y-327600D01*
X845330D01*
G01X864365D02*
X874235Y-308800D01*
G01X864365D02*
X874235Y-327600D01*
G01X883400Y-308800D02*
Y-327600D01*
X892800D01*
G01X906900D02*
Y-308800D01*
X904080Y-312560D01*
G01Y-327600D02*
X909720D01*
G01X925700Y-308800D02*
X923820Y-309427D01*
X922410Y-310993D01*
X921470Y-312873D01*
X920765Y-315380D01*
X920530Y-318200D01*
X920765Y-321020D01*
X921470Y-323527D01*
X922410Y-325407D01*
X923820Y-326973D01*
X925700Y-327600D01*
X927580Y-326973D01*
X928990Y-325407D01*
X929930Y-323527D01*
X930635Y-321020D01*
X930870Y-318200D01*
X930635Y-315380D01*
X929930Y-312873D01*
X928990Y-310993D01*
X927580Y-309427D01*
X925700Y-308800D01*
G01X944500D02*
X942620Y-309427D01*
X941210Y-310993D01*
X940270Y-312873D01*
X939565Y-315380D01*
X939330Y-318200D01*
X939565Y-321020D01*
X940270Y-323527D01*
X941210Y-325407D01*
X942620Y-326973D01*
X944500Y-327600D01*
X946380Y-326973D01*
X947790Y-325407D01*
X948730Y-323527D01*
X949435Y-321020D01*
X949670Y-318200D01*
X949435Y-315380D01*
X948730Y-312873D01*
X947790Y-310993D01*
X946380Y-309427D01*
X944500Y-308800D01*
G01X958835Y-311933D02*
X960245Y-310054D01*
X961890Y-309113D01*
X963770Y-308800D01*
X966120Y-309427D01*
X967765Y-310993D01*
X968235Y-312873D01*
X968000Y-314754D01*
X967060Y-316320D01*
X962360Y-319453D01*
X960245Y-321647D01*
X958835Y-324781D01*
X958365Y-327600D01*
X968235D01*
G01X998080Y-308800D02*
X1003720D01*
G01X1000900D02*
Y-327600D01*
G01X998080D02*
X1003720D01*
G01X1024400D02*
X1015000D01*
Y-308800D01*
X1024400D01*
G01X1020640Y-317886D02*
X1015000D01*
G01X1033800Y-327600D02*
Y-308800D01*
X1039440D01*
X1041320Y-309740D01*
X1042730Y-311933D01*
X1043200Y-314440D01*
X1042730Y-316947D01*
X1041555Y-318827D01*
X1039440Y-319767D01*
X1033800D01*
G01X1062000Y-327600D02*
X1052600D01*
Y-308800D01*
X1062000D01*
G01X1058240Y-317886D02*
X1052600D01*
G01X868000Y-479000D02*
Y-379000D01*
G01X885500Y-419000D02*
X883500Y-419667D01*
X882000Y-421333D01*
X881000Y-423333D01*
X880250Y-426000D01*
X880000Y-429000D01*
X880250Y-432000D01*
X881000Y-434667D01*
X882000Y-436667D01*
X883500Y-438333D01*
X885500Y-439000D01*
X887500Y-438333D01*
X889000Y-436667D01*
X890000Y-434667D01*
X890750Y-432000D01*
X891000Y-429000D01*
X890750Y-426000D01*
X890000Y-423333D01*
X889000Y-421333D01*
X887500Y-419667D01*
X885500Y-419000D01*
G01X905500Y-439000D02*
Y-419000D01*
X902500Y-423000D01*
G01Y-439000D02*
X908500D01*
G01X873800Y-399000D02*
Y-391000D01*
X875800D01*
X876600Y-391400D01*
X877200Y-391933D01*
X877700Y-392733D01*
X878100Y-393667D01*
X878200Y-395000D01*
X878100Y-396333D01*
X877700Y-397267D01*
X877200Y-398067D01*
X876600Y-398600D01*
X875800Y-399000D01*
X873800D01*
G01X882000D02*
Y-391000D01*
X884500D01*
X885300Y-391400D01*
X885800Y-391933D01*
X886000Y-393000D01*
X885800Y-394067D01*
X885200Y-394733D01*
X884500Y-395133D01*
X882000D01*
G01X884500D02*
X886000Y-399000D01*
G01X889500D02*
X892000Y-391000D01*
X894500Y-399000D01*
G01X893600Y-396200D02*
X890400D01*
G01X897000Y-391000D02*
X898400Y-399000D01*
X900000Y-391000D01*
X901600Y-399000D01*
X903000Y-391000D01*
G01X906800D02*
X909200D01*
G01X908000D02*
Y-399000D01*
G01X906800D02*
X909200D01*
G01X913700D02*
Y-391000D01*
X918300Y-399000D01*
Y-391000D01*
G01X924600Y-395000D02*
X926600D01*
Y-397400D01*
X926000Y-398200D01*
X925300Y-398733D01*
X924300Y-399000D01*
X923300Y-398733D01*
X922600Y-398200D01*
X922000Y-397400D01*
X921600Y-396467D01*
X921400Y-395400D01*
Y-394467D01*
X921600Y-393667D01*
X922000Y-392733D01*
X922600Y-391933D01*
X923200Y-391400D01*
X924000Y-391000D01*
X924700D01*
X925500Y-391267D01*
X926100Y-391800D01*
G01X937700Y-399000D02*
Y-391000D01*
X942300Y-399000D01*
Y-391000D01*
G01X945800D02*
Y-396733D01*
X946200Y-397934D01*
X947000Y-398733D01*
X948000Y-399000D01*
X949000Y-398733D01*
X949800Y-397934D01*
X950200Y-396733D01*
Y-391000D01*
G01X953400Y-399000D02*
Y-391000D01*
X956000Y-397667D01*
X958600Y-391000D01*
Y-399000D01*
G01X964800Y-394733D02*
X965200Y-394333D01*
X965500Y-393667D01*
X965700Y-392733D01*
X965500Y-391933D01*
X965100Y-391400D01*
X964400Y-391000D01*
X961700D01*
Y-399000D01*
X965000D01*
X965700Y-398467D01*
X966100Y-397667D01*
X966300Y-396733D01*
X966100Y-395800D01*
X965500Y-395000D01*
X964800Y-394733D01*
X961700D01*
G01X974000Y-399000D02*
X970000D01*
Y-391000D01*
X974000D01*
G01X972400Y-394867D02*
X970000D01*
G01X978000Y-399000D02*
Y-391000D01*
X980500D01*
X981300Y-391400D01*
X981800Y-391933D01*
X982000Y-393000D01*
X981800Y-394067D01*
X981200Y-394733D01*
X980500Y-395133D01*
X978000D01*
G01X980500D02*
X982000Y-399000D01*
G01X871325Y-296500D02*
X877200Y-277700D01*
X883075Y-296500D01*
G01X880960Y-289920D02*
X873440D01*
G01X891065Y-293994D02*
X892945Y-295560D01*
X895060Y-296500D01*
X896940D01*
X898820Y-295560D01*
X900230Y-293994D01*
X900935Y-291800D01*
X900465Y-289607D01*
X899290Y-287727D01*
X897175Y-286473D01*
X894355Y-285847D01*
X892710Y-284594D01*
X892005Y-282400D01*
X892475Y-280207D01*
X893650Y-278640D01*
X895295Y-277700D01*
X896940D01*
X898585Y-278327D01*
X899995Y-279893D01*
G01X909865Y-293994D02*
X911745Y-295560D01*
X913860Y-296500D01*
X915740D01*
X917620Y-295560D01*
X919030Y-293994D01*
X919735Y-291800D01*
X919265Y-289607D01*
X918090Y-287727D01*
X915975Y-286473D01*
X913155Y-285847D01*
X911510Y-284594D01*
X910805Y-282400D01*
X911275Y-280207D01*
X912450Y-278640D01*
X914095Y-277700D01*
X915740D01*
X917385Y-278327D01*
X918795Y-279893D01*
G01X938300Y-296500D02*
X928900D01*
Y-277700D01*
X938300D01*
G01X934540Y-286786D02*
X928900D01*
G01X946290Y-296500D02*
Y-277700D01*
X952400Y-293367D01*
X958510Y-277700D01*
Y-296500D01*
G01X973080Y-286473D02*
X974020Y-285533D01*
X974725Y-283967D01*
X975195Y-281773D01*
X974725Y-279893D01*
X973785Y-278640D01*
X972140Y-277700D01*
X965795D01*
Y-296500D01*
X973550D01*
X975195Y-295247D01*
X976135Y-293367D01*
X976605Y-291173D01*
X976135Y-288980D01*
X974725Y-287100D01*
X973080Y-286473D01*
X965795D01*
G01X985300Y-277700D02*
Y-296500D01*
X994700D01*
G01X1008800D02*
Y-288040D01*
X1004100Y-277700D01*
G01X1013500D02*
X1008800Y-288040D01*
G01X943000Y-514000D02*
Y-489000D01*
X939220Y-494000D01*
G01Y-514000D02*
X946779D01*
G01X922250Y-432334D02*
X928750D01*
G01X945500Y-419000D02*
X943500Y-419667D01*
X942000Y-421333D01*
X941000Y-423333D01*
X940250Y-426000D01*
X940000Y-429000D01*
X940250Y-432000D01*
X941000Y-434667D01*
X942000Y-436667D01*
X943500Y-438333D01*
X945500Y-439000D01*
X947500Y-438333D01*
X949000Y-436667D01*
X950000Y-434667D01*
X950750Y-432000D01*
X951000Y-429000D01*
X950750Y-426000D01*
X950000Y-423333D01*
X949000Y-421333D01*
X947500Y-419667D01*
X945500Y-419000D01*
G01X960000Y-436001D02*
X961500Y-437667D01*
X963250Y-438667D01*
X965500Y-439000D01*
X967750Y-438333D01*
X969500Y-437000D01*
X970750Y-434667D01*
X971000Y-432000D01*
X970500Y-429334D01*
X969250Y-427667D01*
X967500Y-426334D01*
X965750Y-426000D01*
X964000Y-426334D01*
X961750Y-427667D01*
X962500Y-419000D01*
X969250D01*
G01X985500Y-439000D02*
Y-419000D01*
X982500Y-423000D01*
G01Y-439000D02*
X988500D01*
G01X1005500D02*
X1007250Y-438667D01*
X1009250Y-437667D01*
X1010500Y-436001D01*
X1011000Y-433667D01*
X1010500Y-431334D01*
X1009000Y-429334D01*
X1006750Y-428333D01*
X1004250D01*
X1002750Y-427667D01*
X1001500Y-426000D01*
X1001000Y-423667D01*
X1001750Y-421333D01*
X1003500Y-419667D01*
X1005500Y-419000D01*
X1007500Y-419667D01*
X1009250Y-421333D01*
X1010000Y-423667D01*
X1009500Y-426000D01*
X1008250Y-427667D01*
X1006750Y-428333D01*
X1004250D01*
X1002000Y-429334D01*
X1000500Y-431334D01*
X1000000Y-433667D01*
X1000500Y-436001D01*
X1001750Y-437667D01*
X1003750Y-438667D01*
X1005500Y-439000D01*
G01X1020000Y-435000D02*
X1021500Y-437334D01*
X1023500Y-438667D01*
X1025750Y-439000D01*
X1027750Y-438667D01*
X1029750Y-437000D01*
X1031000Y-435000D01*
X1031250Y-433000D01*
X1030750Y-430667D01*
X1029000Y-429000D01*
X1027250Y-428333D01*
X1025000D01*
G01X1027250D02*
X1028750Y-427333D01*
X1030000Y-425667D01*
X1030500Y-423667D01*
X1030000Y-421667D01*
X1028750Y-420000D01*
X1026500Y-419000D01*
X1024250Y-419333D01*
X1022000Y-420667D01*
G01X1045000Y-439000D02*
X1045500Y-434667D01*
X1046250Y-431000D01*
X1047250Y-427667D01*
X1048500Y-424000D01*
X1050500Y-419000D01*
X1040500D01*
G01X935625Y1036833D02*
X936375Y1037833D01*
X937250Y1038333D01*
X938250Y1038500D01*
X939500Y1038167D01*
X940375Y1037333D01*
X940625Y1036333D01*
X940500Y1035333D01*
X940000Y1034500D01*
X937500Y1032833D01*
X936375Y1031667D01*
X935625Y1030000D01*
X935375Y1028500D01*
X940625D01*
G01X945625Y1032666D02*
X946500Y1033833D01*
X947250Y1034500D01*
X948250Y1034833D01*
X949125Y1034500D01*
X949750Y1033833D01*
X950250Y1032833D01*
X950375Y1031667D01*
X950250Y1030667D01*
X949750Y1029666D01*
X949000Y1028833D01*
X948125Y1028500D01*
X947125Y1028833D01*
X946250Y1029833D01*
X945750Y1031333D01*
X945625Y1033000D01*
X945875Y1035166D01*
X946250Y1036333D01*
X946875Y1037500D01*
X947750Y1038333D01*
X948625Y1038500D01*
X949500Y1038167D01*
X950125Y1037333D01*
G01X955625Y1028500D02*
Y1038500D01*
X960375D01*
G01X958625Y1033667D02*
X955625D01*
G01X970500Y1028500D02*
X965500D01*
Y1038500D01*
X970500D01*
G01X968500Y1033667D02*
X965500D01*
G01X979000Y1033833D02*
X979500Y1034333D01*
X979875Y1035166D01*
X980125Y1036333D01*
X979875Y1037333D01*
X979375Y1038000D01*
X978500Y1038500D01*
X975125D01*
Y1028500D01*
X979250D01*
X980125Y1029167D01*
X980625Y1030167D01*
X980875Y1031333D01*
X980625Y1032500D01*
X979875Y1033500D01*
X979000Y1033833D01*
X975125D01*
G01X988000Y1028500D02*
Y1038500D01*
X986500Y1036500D01*
G01Y1028500D02*
X989500D01*
G01X995875Y1029666D02*
X996750Y1028833D01*
X997750Y1028500D01*
X998750Y1028833D01*
X999625Y1029833D01*
X1000250Y1031333D01*
X1000500Y1032833D01*
Y1034667D01*
X1000250Y1036167D01*
X999625Y1037500D01*
X998875Y1038167D01*
X998000Y1038500D01*
X997000Y1038167D01*
X996250Y1037500D01*
X995750Y1036500D01*
X995500Y1035166D01*
X995750Y1034000D01*
X996375Y1032833D01*
X997125Y1032166D01*
X998000Y1032000D01*
X999000Y1032333D01*
X999750Y1033167D01*
X1000500Y1034667D01*
G01X918000Y1071000D02*
Y1021000D01*
G01X935625Y1061833D02*
X936375Y1062833D01*
X937250Y1063333D01*
X938250Y1063500D01*
X939500Y1063167D01*
X940375Y1062333D01*
X940625Y1061333D01*
X940500Y1060333D01*
X940000Y1059500D01*
X937500Y1057833D01*
X936375Y1056667D01*
X935625Y1055000D01*
X935375Y1053500D01*
X940625D01*
G01X945875Y1054666D02*
X946750Y1053833D01*
X947750Y1053500D01*
X948750Y1053833D01*
X949625Y1054833D01*
X950250Y1056333D01*
X950500Y1057833D01*
Y1059667D01*
X950250Y1061167D01*
X949625Y1062500D01*
X948875Y1063167D01*
X948000Y1063500D01*
X947000Y1063167D01*
X946250Y1062500D01*
X945750Y1061500D01*
X945500Y1060166D01*
X945750Y1059000D01*
X946375Y1057833D01*
X947125Y1057166D01*
X948000Y1057000D01*
X949000Y1057333D01*
X949750Y1058167D01*
X950500Y1059667D01*
G01X955125Y1053500D02*
Y1063500D01*
X960875Y1053500D01*
Y1063500D01*
G01X968000Y1053500D02*
X967000Y1053667D01*
X966125Y1054333D01*
X965375Y1055333D01*
X964875Y1056500D01*
X964625Y1057833D01*
Y1059167D01*
X964875Y1060500D01*
X965375Y1061667D01*
X966125Y1062667D01*
X967000Y1063333D01*
X968000Y1063500D01*
X969000Y1063333D01*
X969875Y1062667D01*
X970625Y1061667D01*
X971125Y1060500D01*
X971375Y1059167D01*
Y1057833D01*
X971125Y1056500D01*
X970625Y1055333D01*
X969875Y1054333D01*
X969000Y1053667D01*
X968000Y1053500D01*
G01X974875Y1063500D02*
X978000Y1053500D01*
X981125Y1063500D01*
G01X988000Y1053500D02*
Y1063500D01*
X986500Y1061500D01*
G01Y1053500D02*
X989500D01*
G01X998000D02*
X998875Y1053667D01*
X999875Y1054167D01*
X1000500Y1055000D01*
X1000750Y1056167D01*
X1000500Y1057333D01*
X999750Y1058333D01*
X998625Y1058833D01*
X997375D01*
X996625Y1059167D01*
X996000Y1060000D01*
X995750Y1061167D01*
X996125Y1062333D01*
X997000Y1063167D01*
X998000Y1063500D01*
X999000Y1063167D01*
X999875Y1062333D01*
X1000250Y1061167D01*
X1000000Y1060000D01*
X999375Y1059167D01*
X998625Y1058833D01*
X997375D01*
X996250Y1058333D01*
X995500Y1057333D01*
X995250Y1056167D01*
X995500Y1055000D01*
X996125Y1054167D01*
X997125Y1053667D01*
X998000Y1053500D01*
G01X918000Y1096000D02*
Y1046000D01*
G01X943000Y1131000D02*
Y1156000D01*
X939220Y1151000D01*
G01Y1131000D02*
X946779D01*
G01X954000Y-236000D02*
X955400Y-244000D01*
X957000Y-236000D01*
X958600Y-244000D01*
X960000Y-236000D01*
G01X963800D02*
X966200D01*
G01X965000D02*
Y-244000D01*
G01X963800D02*
X966200D01*
G01X971000Y-236000D02*
Y-244000D01*
X975000D01*
G01X978400D02*
Y-236000D01*
X981000Y-242667D01*
X983600Y-236000D01*
Y-244000D01*
G01X987800Y-236000D02*
X990200D01*
G01X989000D02*
Y-244000D01*
G01X987800D02*
X990200D01*
G01X994700D02*
Y-236000D01*
X999300Y-244000D01*
Y-236000D01*
G01X1005600Y-240000D02*
X1007600D01*
Y-242400D01*
X1007000Y-243200D01*
X1006300Y-243733D01*
X1005300Y-244000D01*
X1004300Y-243733D01*
X1003600Y-243200D01*
X1003000Y-242400D01*
X1002600Y-241467D01*
X1002400Y-240400D01*
Y-239467D01*
X1002600Y-238667D01*
X1003000Y-237733D01*
X1003600Y-236933D01*
X1004200Y-236400D01*
X1005000Y-236000D01*
X1005700D01*
X1006500Y-236267D01*
X1007100Y-236800D01*
G01X1013000Y-236000D02*
Y-244000D01*
G01X1010700Y-236000D02*
X1015300D01*
G01X1021000Y-244000D02*
X1020200Y-243867D01*
X1019500Y-243333D01*
X1018900Y-242533D01*
X1018500Y-241600D01*
X1018300Y-240533D01*
Y-239467D01*
X1018500Y-238400D01*
X1018900Y-237467D01*
X1019500Y-236667D01*
X1020200Y-236133D01*
X1021000Y-236000D01*
X1021800Y-236133D01*
X1022500Y-236667D01*
X1023100Y-237467D01*
X1023500Y-238400D01*
X1023700Y-239467D01*
Y-240533D01*
X1023500Y-241600D01*
X1023100Y-242533D01*
X1022500Y-243333D01*
X1021800Y-243867D01*
X1021000Y-244000D01*
G01X1026700D02*
Y-236000D01*
X1031300Y-244000D01*
Y-236000D01*
G01X1036800Y-245467D02*
X1037200Y-243733D01*
G01X1050400Y-244000D02*
Y-236000D01*
X1053000Y-242667D01*
X1055600Y-236000D01*
Y-244000D01*
G01X1058500D02*
X1061000Y-236000D01*
X1063500Y-244000D01*
G01X1062600Y-241200D02*
X1059400D01*
G01X1077000Y-236000D02*
X1076200Y-236267D01*
X1075600Y-236933D01*
X1075200Y-237733D01*
X1074900Y-238800D01*
X1074800Y-240000D01*
X1074900Y-241200D01*
X1075200Y-242267D01*
X1075600Y-243067D01*
X1076200Y-243733D01*
X1077000Y-244000D01*
X1077800Y-243733D01*
X1078400Y-243067D01*
X1078800Y-242267D01*
X1079100Y-241200D01*
X1079200Y-240000D01*
X1079100Y-238800D01*
X1078800Y-237733D01*
X1078400Y-236933D01*
X1077800Y-236267D01*
X1077000Y-236000D01*
G01X1085000Y-244000D02*
Y-236000D01*
X1083800Y-237600D01*
G01Y-244000D02*
X1086200D01*
G01X1093000D02*
X1093700Y-243867D01*
X1094500Y-243467D01*
X1095000Y-242800D01*
X1095200Y-241867D01*
X1095000Y-240934D01*
X1094400Y-240133D01*
X1093500Y-239733D01*
X1092500D01*
X1091900Y-239467D01*
X1091400Y-238800D01*
X1091200Y-237867D01*
X1091500Y-236933D01*
X1092200Y-236267D01*
X1093000Y-236000D01*
X1093800Y-236267D01*
X1094500Y-236933D01*
X1094800Y-237867D01*
X1094600Y-238800D01*
X1094100Y-239467D01*
X1093500Y-239733D01*
X1092500D01*
X1091600Y-240133D01*
X1091000Y-240934D01*
X1090800Y-241867D01*
X1091000Y-242800D01*
X1091500Y-243467D01*
X1092300Y-243867D01*
X1093000Y-244000D01*
G01X1101000D02*
X1101700Y-243867D01*
X1102500Y-243467D01*
X1103000Y-242800D01*
X1103200Y-241867D01*
X1103000Y-240934D01*
X1102400Y-240133D01*
X1101500Y-239733D01*
X1100500D01*
X1099900Y-239467D01*
X1099400Y-238800D01*
X1099200Y-237867D01*
X1099500Y-236933D01*
X1100200Y-236267D01*
X1101000Y-236000D01*
X1101800Y-236267D01*
X1102500Y-236933D01*
X1102800Y-237867D01*
X1102600Y-238800D01*
X1102100Y-239467D01*
X1101500Y-239733D01*
X1100500D01*
X1099600Y-240133D01*
X1099000Y-240934D01*
X1098800Y-241867D01*
X1099000Y-242800D01*
X1099500Y-243467D01*
X1100300Y-243867D01*
X1101000Y-244000D01*
G01X1108800D02*
X1109000Y-242267D01*
X1109300Y-240800D01*
X1109700Y-239467D01*
X1110200Y-238000D01*
X1111000Y-236000D01*
X1107000D01*
G01X969000Y-229000D02*
X969700Y-228867D01*
X970500Y-228467D01*
X971000Y-227800D01*
X971200Y-226867D01*
X971000Y-225934D01*
X970400Y-225133D01*
X969500Y-224733D01*
X968500D01*
X967900Y-224467D01*
X967400Y-223800D01*
X967200Y-222867D01*
X967500Y-221933D01*
X968200Y-221267D01*
X969000Y-221000D01*
X969800Y-221267D01*
X970500Y-221933D01*
X970800Y-222867D01*
X970600Y-223800D01*
X970100Y-224467D01*
X969500Y-224733D01*
X968500D01*
X967600Y-225133D01*
X967000Y-225934D01*
X966800Y-226867D01*
X967000Y-227800D01*
X967500Y-228467D01*
X968300Y-228867D01*
X969000Y-229000D01*
G01X977000Y-221000D02*
X976200Y-221267D01*
X975600Y-221933D01*
X975200Y-222733D01*
X974900Y-223800D01*
X974800Y-225000D01*
X974900Y-226200D01*
X975200Y-227267D01*
X975600Y-228067D01*
X976200Y-228733D01*
X977000Y-229000D01*
X977800Y-228733D01*
X978400Y-228067D01*
X978800Y-227267D01*
X979100Y-226200D01*
X979200Y-225000D01*
X979100Y-223800D01*
X978800Y-222733D01*
X978400Y-221933D01*
X977800Y-221267D01*
X977000Y-221000D01*
G01X986200Y-229000D02*
Y-221000D01*
X982500Y-226733D01*
X987500D01*
G01X998000Y-221000D02*
X999400Y-229000D01*
X1001000Y-221000D01*
X1002600Y-229000D01*
X1004000Y-221000D01*
G01X1009000Y-229000D02*
X1008200Y-228867D01*
X1007500Y-228333D01*
X1006900Y-227533D01*
X1006500Y-226600D01*
X1006300Y-225533D01*
Y-224467D01*
X1006500Y-223400D01*
X1006900Y-222467D01*
X1007500Y-221667D01*
X1008200Y-221133D01*
X1009000Y-221000D01*
X1009800Y-221133D01*
X1010500Y-221667D01*
X1011100Y-222467D01*
X1011500Y-223400D01*
X1011700Y-224467D01*
Y-225533D01*
X1011500Y-226600D01*
X1011100Y-227533D01*
X1010500Y-228333D01*
X1009800Y-228867D01*
X1009000Y-229000D01*
G01X1017800Y-224733D02*
X1018200Y-224333D01*
X1018500Y-223667D01*
X1018700Y-222733D01*
X1018500Y-221933D01*
X1018100Y-221400D01*
X1017400Y-221000D01*
X1014700D01*
Y-229000D01*
X1018000D01*
X1018700Y-228467D01*
X1019100Y-227667D01*
X1019300Y-226733D01*
X1019100Y-225800D01*
X1018500Y-225000D01*
X1017800Y-224733D01*
X1014700D01*
G01X1022800Y-221000D02*
Y-226733D01*
X1023200Y-227934D01*
X1024000Y-228733D01*
X1025000Y-229000D01*
X1026000Y-228733D01*
X1026800Y-227934D01*
X1027200Y-226733D01*
Y-221000D01*
G01X1031000Y-229000D02*
Y-221000D01*
X1033500D01*
X1034300Y-221400D01*
X1034800Y-221933D01*
X1035000Y-223000D01*
X1034800Y-224067D01*
X1034200Y-224733D01*
X1033500Y-225133D01*
X1031000D01*
G01X1033500D02*
X1035000Y-229000D01*
G01X1038700D02*
Y-221000D01*
X1043300Y-229000D01*
Y-221000D01*
G01X1054900Y-227934D02*
X1055700Y-228600D01*
X1056600Y-229000D01*
X1057400D01*
X1058200Y-228600D01*
X1058800Y-227934D01*
X1059100Y-227000D01*
X1058900Y-226067D01*
X1058400Y-225267D01*
X1057500Y-224733D01*
X1056300Y-224467D01*
X1055600Y-223933D01*
X1055300Y-223000D01*
X1055500Y-222067D01*
X1056000Y-221400D01*
X1056700Y-221000D01*
X1057400D01*
X1058100Y-221267D01*
X1058700Y-221933D01*
G01X1065000Y-221000D02*
Y-229000D01*
G01X1062700Y-221000D02*
X1067300D01*
G01X1071000Y-229000D02*
Y-221000D01*
X1073500D01*
X1074300Y-221400D01*
X1074800Y-221933D01*
X1075000Y-223000D01*
X1074800Y-224067D01*
X1074200Y-224733D01*
X1073500Y-225133D01*
X1071000D01*
G01X1073500D02*
X1075000Y-229000D01*
G01X1083000D02*
X1079000D01*
Y-221000D01*
X1083000D01*
G01X1081400Y-224867D02*
X1079000D01*
G01X1091000Y-229000D02*
X1087000D01*
Y-221000D01*
X1091000D01*
G01X1089400Y-224867D02*
X1087000D01*
G01X1097000Y-221000D02*
Y-229000D01*
G01X1094700Y-221000D02*
X1099300D01*
G01X950250Y1078500D02*
Y1088500D01*
X952750D01*
X953750Y1088000D01*
X954500Y1087333D01*
X955125Y1086333D01*
X955625Y1085166D01*
X955750Y1083500D01*
X955625Y1081833D01*
X955125Y1080667D01*
X954500Y1079666D01*
X953750Y1079000D01*
X952750Y1078500D01*
X950250D01*
G01X959875D02*
X963000Y1088500D01*
X966125Y1078500D01*
G01X965000Y1082000D02*
X961000D01*
G01X973000Y1088500D02*
Y1078500D01*
G01X970125Y1088500D02*
X975875D01*
G01X985500Y1078500D02*
X980500D01*
Y1088500D01*
X985500D01*
G01X983500Y1083667D02*
X980500D01*
G01X995250Y-214000D02*
Y-204000D01*
X997750D01*
X998750Y-204500D01*
X999500Y-205167D01*
X1000125Y-206167D01*
X1000625Y-207334D01*
X1000750Y-209000D01*
X1000625Y-210667D01*
X1000125Y-211833D01*
X999500Y-212834D01*
X998750Y-213500D01*
X997750Y-214000D01*
X995250D01*
G01X1006500Y-204000D02*
X1009500D01*
G01X1008000D02*
Y-214000D01*
G01X1006500D02*
X1009500D01*
G01X1014875Y-204000D02*
X1018000Y-214000D01*
X1021125Y-204000D01*
G01X1026500D02*
X1029500D01*
G01X1028000D02*
Y-214000D01*
G01X1026500D02*
X1029500D01*
G01X1035375Y-212667D02*
X1036375Y-213500D01*
X1037500Y-214000D01*
X1038500D01*
X1039500Y-213500D01*
X1040250Y-212667D01*
X1040625Y-211500D01*
X1040375Y-210334D01*
X1039750Y-209333D01*
X1038625Y-208667D01*
X1037125Y-208333D01*
X1036250Y-207667D01*
X1035875Y-206500D01*
X1036125Y-205333D01*
X1036750Y-204500D01*
X1037625Y-204000D01*
X1038500D01*
X1039375Y-204333D01*
X1040125Y-205167D01*
G01X1046500Y-204000D02*
X1049500D01*
G01X1048000D02*
Y-214000D01*
G01X1046500D02*
X1049500D01*
G01X1058000D02*
X1057000Y-213833D01*
X1056125Y-213167D01*
X1055375Y-212167D01*
X1054875Y-211000D01*
X1054625Y-209667D01*
Y-208333D01*
X1054875Y-207000D01*
X1055375Y-205833D01*
X1056125Y-204833D01*
X1057000Y-204167D01*
X1058000Y-204000D01*
X1059000Y-204167D01*
X1059875Y-204833D01*
X1060625Y-205833D01*
X1061125Y-207000D01*
X1061375Y-208333D01*
Y-209667D01*
X1061125Y-211000D01*
X1060625Y-212167D01*
X1059875Y-213167D01*
X1059000Y-213833D01*
X1058000Y-214000D01*
G01X1065125D02*
Y-204000D01*
X1070875Y-214000D01*
Y-204000D01*
G01X1023900Y-470434D02*
X1024700Y-471100D01*
X1025600Y-471500D01*
X1026400D01*
X1027200Y-471100D01*
X1027800Y-470434D01*
X1028100Y-469500D01*
X1027900Y-468567D01*
X1027400Y-467767D01*
X1026500Y-467233D01*
X1025300Y-466967D01*
X1024600Y-466433D01*
X1024300Y-465500D01*
X1024500Y-464567D01*
X1025000Y-463900D01*
X1025700Y-463500D01*
X1026400D01*
X1027100Y-463767D01*
X1027700Y-464433D01*
G01X1031900Y-471500D02*
Y-463500D01*
G01X1036100D02*
Y-471500D01*
G01Y-467500D02*
X1031900D01*
G01X1044000Y-471500D02*
X1040000D01*
Y-463500D01*
X1044000D01*
G01X1042400Y-467367D02*
X1040000D01*
G01X1052000Y-471500D02*
X1048000D01*
Y-463500D01*
X1052000D01*
G01X1050400Y-467367D02*
X1048000D01*
G01X1058000Y-463500D02*
Y-471500D01*
G01X1055700Y-463500D02*
X1060300D01*
G01X1018000Y-454000D02*
Y-479000D01*
G01X1019250Y-189000D02*
X1021000Y-199000D01*
X1023000Y-189000D01*
X1025000Y-199000D01*
X1026750Y-189000D01*
G01X1029250D02*
X1031000Y-199000D01*
X1033000Y-189000D01*
X1035000Y-199000D01*
X1036750Y-189000D01*
G01X1039750Y-199000D02*
Y-189000D01*
X1043000Y-197333D01*
X1046250Y-189000D01*
Y-199000D01*
G01X1018000Y1071000D02*
Y1021000D01*
G01Y1096000D02*
Y1046000D01*
G01X1054875Y1078500D02*
X1058000Y1088500D01*
X1061125Y1078500D01*
G01X1060000Y1082000D02*
X1056000D01*
G01X1065500Y1078500D02*
Y1088500D01*
X1068500D01*
X1069500Y1088000D01*
X1070250Y1086833D01*
X1070500Y1085500D01*
X1070250Y1084167D01*
X1069625Y1083167D01*
X1068500Y1082666D01*
X1065500D01*
G01X1075500Y1078500D02*
Y1088500D01*
X1078500D01*
X1079500Y1088000D01*
X1080250Y1086833D01*
X1080500Y1085500D01*
X1080250Y1084167D01*
X1079625Y1083167D01*
X1078500Y1082666D01*
X1075500D01*
G01X1085500Y1078500D02*
Y1088500D01*
X1088625D01*
X1089625Y1088000D01*
X1090250Y1087333D01*
X1090500Y1086000D01*
X1090250Y1084667D01*
X1089500Y1083833D01*
X1088625Y1083333D01*
X1085500D01*
G01X1088625D02*
X1090500Y1078500D01*
G01X1098000D02*
X1097000Y1078667D01*
X1096125Y1079333D01*
X1095375Y1080333D01*
X1094875Y1081500D01*
X1094625Y1082833D01*
Y1084167D01*
X1094875Y1085500D01*
X1095375Y1086667D01*
X1096125Y1087667D01*
X1097000Y1088333D01*
X1098000Y1088500D01*
X1099000Y1088333D01*
X1099875Y1087667D01*
X1100625Y1086667D01*
X1101125Y1085500D01*
X1101375Y1084167D01*
Y1082833D01*
X1101125Y1081500D01*
X1100625Y1080333D01*
X1099875Y1079333D01*
X1099000Y1078667D01*
X1098000Y1078500D01*
G01X1104875Y1088500D02*
X1108000Y1078500D01*
X1111125Y1088500D01*
G01X1120500Y1078500D02*
X1115500D01*
Y1088500D01*
X1120500D01*
G01X1118500Y1083667D02*
X1115500D01*
G01X1125250Y1078500D02*
Y1088500D01*
X1127750D01*
X1128750Y1088000D01*
X1129500Y1087333D01*
X1130125Y1086333D01*
X1130625Y1085166D01*
X1130750Y1083500D01*
X1130625Y1081833D01*
X1130125Y1080667D01*
X1129500Y1079666D01*
X1128750Y1079000D01*
X1127750Y1078500D01*
X1125250D01*
G01X1084250Y-471500D02*
Y-461500D01*
X1082750Y-463500D01*
G01Y-471500D02*
X1085750D01*
G01X1064850Y1028967D02*
Y1038967D01*
X1068100Y1030634D01*
X1071350Y1038967D01*
Y1028967D01*
G01X1078100Y1028634D02*
X1077850Y1028800D01*
Y1029134D01*
X1078100Y1029300D01*
X1078350Y1029134D01*
Y1028800D01*
X1078100Y1028634D01*
G01X1090600Y1028967D02*
X1085600D01*
Y1038967D01*
X1090600D01*
G01X1088600Y1034134D02*
X1085600D01*
G01X1095225Y1028967D02*
Y1038967D01*
X1100975Y1028967D01*
Y1038967D01*
G01X1105350Y1028967D02*
Y1038967D01*
X1107850D01*
X1108850Y1038467D01*
X1109600Y1037800D01*
X1110225Y1036800D01*
X1110725Y1035633D01*
X1110850Y1033967D01*
X1110725Y1032300D01*
X1110225Y1031134D01*
X1109600Y1030133D01*
X1108850Y1029467D01*
X1107850Y1028967D01*
X1105350D01*
G01X1118100D02*
X1117100Y1029134D01*
X1116225Y1029800D01*
X1115475Y1030800D01*
X1114975Y1031967D01*
X1114725Y1033300D01*
Y1034634D01*
X1114975Y1035967D01*
X1115475Y1037134D01*
X1116225Y1038134D01*
X1117100Y1038800D01*
X1118100Y1038967D01*
X1119100Y1038800D01*
X1119975Y1038134D01*
X1120725Y1037134D01*
X1121225Y1035967D01*
X1121475Y1034634D01*
Y1033300D01*
X1121225Y1031967D01*
X1120725Y1030800D01*
X1119975Y1029800D01*
X1119100Y1029134D01*
X1118100Y1028967D01*
G01X1064750Y1053500D02*
Y1063500D01*
X1068000Y1055167D01*
X1071250Y1063500D01*
Y1053500D01*
G01X1078000Y1053167D02*
X1077750Y1053333D01*
Y1053667D01*
X1078000Y1053833D01*
X1078250Y1053667D01*
Y1053333D01*
X1078000Y1053167D01*
G01X1090500Y1053500D02*
X1085500D01*
Y1063500D01*
X1090500D01*
G01X1088500Y1058667D02*
X1085500D01*
G01X1095125Y1053500D02*
Y1063500D01*
X1100875Y1053500D01*
Y1063500D01*
G01X1105250Y1053500D02*
Y1063500D01*
X1107750D01*
X1108750Y1063000D01*
X1109500Y1062333D01*
X1110125Y1061333D01*
X1110625Y1060166D01*
X1110750Y1058500D01*
X1110625Y1056833D01*
X1110125Y1055667D01*
X1109500Y1054666D01*
X1108750Y1054000D01*
X1107750Y1053500D01*
X1105250D01*
G01X1118000D02*
X1117000Y1053667D01*
X1116125Y1054333D01*
X1115375Y1055333D01*
X1114875Y1056500D01*
X1114625Y1057833D01*
Y1059167D01*
X1114875Y1060500D01*
X1115375Y1061667D01*
X1116125Y1062667D01*
X1117000Y1063333D01*
X1118000Y1063500D01*
X1119000Y1063333D01*
X1119875Y1062667D01*
X1120625Y1061667D01*
X1121125Y1060500D01*
X1121375Y1059167D01*
Y1057833D01*
X1121125Y1056500D01*
X1120625Y1055333D01*
X1119875Y1054333D01*
X1119000Y1053667D01*
X1118000Y1053500D01*
G01X1101000Y-471500D02*
X1100200Y-471367D01*
X1099500Y-470833D01*
X1098900Y-470033D01*
X1098500Y-469100D01*
X1098300Y-468033D01*
Y-466967D01*
X1098500Y-465900D01*
X1098900Y-464967D01*
X1099500Y-464167D01*
X1100200Y-463633D01*
X1101000Y-463500D01*
X1101800Y-463633D01*
X1102500Y-464167D01*
X1103100Y-464967D01*
X1103500Y-465900D01*
X1103700Y-466967D01*
Y-468033D01*
X1103500Y-469100D01*
X1103100Y-470033D01*
X1102500Y-470833D01*
X1101800Y-471367D01*
X1101000Y-471500D01*
G01X1107100D02*
Y-463500D01*
X1110900D01*
G01X1109500Y-467367D02*
X1107100D01*
G01X1118000Y-454000D02*
Y-379000D01*
G01X1124250Y-471500D02*
Y-461500D01*
X1122750Y-463500D01*
G01Y-471500D02*
X1125750D01*
G01X1145000Y-428333D02*
X1146000Y-427333D01*
X1146750Y-425667D01*
X1147250Y-423333D01*
X1146750Y-421333D01*
X1145750Y-420000D01*
X1144000Y-419000D01*
X1137250D01*
Y-439000D01*
X1145500D01*
X1147250Y-437667D01*
X1148250Y-435667D01*
X1148750Y-433333D01*
X1148250Y-431000D01*
X1146750Y-429000D01*
X1145000Y-428333D01*
X1137250D01*
G01X1131500Y-399000D02*
Y-391000D01*
X1134000D01*
X1134800Y-391400D01*
X1135300Y-391933D01*
X1135500Y-393000D01*
X1135300Y-394067D01*
X1134700Y-394733D01*
X1134000Y-395133D01*
X1131500D01*
G01X1134000D02*
X1135500Y-399000D01*
G01X1143500D02*
X1139500D01*
Y-391000D01*
X1143500D01*
G01X1141900Y-394867D02*
X1139500D01*
G01X1147000Y-391000D02*
X1149500Y-399000D01*
X1152000Y-391000D01*
G01X1168000Y-154000D02*
Y1046000D01*
G01X1198000Y-104000D02*
X1168000D01*
G01X1182000Y323000D02*
Y319000D01*
X1177000Y321000D01*
X1182000Y323000D01*
G01X1183000Y324500D02*
Y317500D01*
X1175500Y321000D01*
X1183000Y324500D01*
G01X1184000Y326000D02*
Y316000D01*
X1174000Y321000D01*
X1184000Y326000D01*
G01X1205000Y321500D02*
Y320500D01*
X1185000D01*
Y314500D01*
X1172500Y321000D01*
X1185000Y327500D01*
Y321500D01*
X1205000D01*
G01X1206000Y322500D02*
Y319500D01*
X1186000D01*
Y313000D01*
X1171000Y321000D01*
X1186000Y329000D01*
Y322500D01*
X1206000D01*
G01X1207000Y323500D02*
Y318500D01*
X1187000D01*
Y311500D01*
X1169500Y321000D01*
X1187000Y330500D01*
Y323500D01*
X1207000D01*
G01X1208000Y324500D02*
Y317500D01*
X1188000D01*
Y310000D01*
X1168000Y321000D01*
X1188000Y332000D01*
Y324500D01*
X1208000D01*
G01X1198000Y746000D02*
X1168000D01*
G01X1180125Y-329000D02*
X1188000Y-304000D01*
X1195875Y-329000D01*
G01X1193040Y-320250D02*
X1182960D01*
G01X1190520Y109334D02*
X1191780Y110583D01*
X1192725Y112666D01*
X1193355Y115584D01*
X1192725Y118083D01*
X1191465Y119750D01*
X1189260Y121000D01*
X1180755D01*
Y96000D01*
X1191150D01*
X1193355Y97666D01*
X1194615Y100167D01*
X1195245Y103083D01*
X1194615Y105999D01*
X1192725Y108500D01*
X1190520Y109334D01*
X1180755D01*
G01X1180500Y321000D02*
X1179500D01*
G01X1181000Y322000D02*
Y320000D01*
X1178500Y321000D01*
X1181000Y322000D01*
G01X1194930Y543916D02*
X1193040Y545167D01*
X1190835Y546000D01*
X1188315D01*
X1185480Y544750D01*
X1183275Y542667D01*
X1181700Y540166D01*
X1180440Y536000D01*
X1180125Y532250D01*
X1180755Y528500D01*
X1181700Y526000D01*
X1183590Y523499D01*
X1185795Y521833D01*
X1188000Y521000D01*
X1190205D01*
X1192410Y521833D01*
X1194300Y523083D01*
X1195875Y524749D01*
G01X1181070Y946000D02*
Y971000D01*
X1187370D01*
X1189890Y969750D01*
X1191780Y968083D01*
X1193355Y965584D01*
X1194615Y962666D01*
X1194930Y958500D01*
X1194615Y954333D01*
X1193355Y951416D01*
X1191780Y948916D01*
X1189890Y947250D01*
X1187370Y946000D01*
X1181070D01*
G54D11*
G01X6600Y17340D02*
Y18260D01*
G01Y17800D02*
X9700D01*
G01Y17340D02*
Y18260D01*
G01X6858Y21743D02*
X6703Y21513D01*
X6600Y21245D01*
Y20938D01*
X6755Y20593D01*
X7013Y20325D01*
X7323Y20133D01*
X7840Y19980D01*
X8305Y19942D01*
X8770Y20018D01*
X9080Y20133D01*
X9390Y20363D01*
X9597Y20632D01*
X9700Y20900D01*
Y21168D01*
X9597Y21437D01*
X9442Y21667D01*
X9235Y21858D01*
G01X9700Y24000D02*
X6600D01*
X7220Y23540D01*
G01X9700D02*
Y24460D01*
G01X4200Y6383D02*
X1100D01*
Y7342D01*
X1255Y7648D01*
X1462Y7840D01*
X1875Y7917D01*
X2288Y7840D01*
X2547Y7610D01*
X2702Y7342D01*
Y6383D01*
G01Y7342D02*
X4200Y7917D01*
G01Y10250D02*
X1100D01*
X1720Y9790D01*
G01X4200D02*
Y10710D01*
G01X4700Y30483D02*
X1600D01*
Y31442D01*
X1755Y31748D01*
X1962Y31940D01*
X2375Y32017D01*
X2788Y31940D01*
X3047Y31710D01*
X3202Y31442D01*
Y30483D01*
G01Y31442D02*
X4700Y32017D01*
G01X2117Y33622D02*
X1807Y33852D01*
X1652Y34120D01*
X1600Y34427D01*
X1703Y34810D01*
X1962Y35078D01*
X2272Y35155D01*
X2582Y35117D01*
X2840Y34963D01*
X3357Y34197D01*
X3718Y33852D01*
X4235Y33622D01*
X4700Y33545D01*
Y35155D01*
G01X-3842Y31493D02*
X-3997Y31263D01*
X-4100Y30995D01*
Y30688D01*
X-3945Y30343D01*
X-3687Y30075D01*
X-3377Y29883D01*
X-2860Y29730D01*
X-2395Y29692D01*
X-1930Y29768D01*
X-1620Y29883D01*
X-1310Y30113D01*
X-1103Y30382D01*
X-1000Y30650D01*
Y30918D01*
X-1103Y31187D01*
X-1258Y31417D01*
X-1465Y31608D01*
G01X-1000Y33750D02*
X-4100D01*
X-3480Y33290D01*
G01X-1000D02*
Y34210D01*
G01X22400Y16440D02*
Y17360D01*
G01Y16900D02*
X25500D01*
G01Y16440D02*
Y17360D01*
G01X22658Y20843D02*
X22503Y20613D01*
X22400Y20345D01*
Y20038D01*
X22555Y19693D01*
X22813Y19425D01*
X23123Y19233D01*
X23640Y19080D01*
X24105Y19042D01*
X24570Y19118D01*
X24880Y19233D01*
X25190Y19463D01*
X25397Y19732D01*
X25500Y20000D01*
Y20268D01*
X25397Y20537D01*
X25242Y20767D01*
X25035Y20958D01*
G01X24880Y22257D02*
X25242Y22487D01*
X25448Y22793D01*
X25500Y23138D01*
X25448Y23445D01*
X25190Y23752D01*
X24880Y23943D01*
X24570Y23982D01*
X24208Y23905D01*
X23950Y23637D01*
X23847Y23368D01*
Y23023D01*
G01Y23368D02*
X23692Y23598D01*
X23433Y23790D01*
X23123Y23867D01*
X22813Y23790D01*
X22555Y23598D01*
X22400Y23253D01*
X22452Y22908D01*
X22658Y22563D01*
G01X38700Y-417D02*
X35600D01*
Y542D01*
X35755Y848D01*
X35962Y1040D01*
X36375Y1117D01*
X36788Y1040D01*
X37047Y810D01*
X37202Y542D01*
Y-417D01*
G01Y542D02*
X38700Y1117D01*
G01X38080Y2607D02*
X38442Y2837D01*
X38648Y3143D01*
X38700Y3488D01*
X38648Y3795D01*
X38390Y4102D01*
X38080Y4293D01*
X37770Y4332D01*
X37408Y4255D01*
X37150Y3987D01*
X37047Y3718D01*
Y3373D01*
G01Y3718D02*
X36892Y3948D01*
X36633Y4140D01*
X36323Y4217D01*
X36013Y4140D01*
X35755Y3948D01*
X35600Y3603D01*
X35652Y3258D01*
X35858Y2913D01*
G01X18358Y23693D02*
X18203Y23463D01*
X18100Y23195D01*
Y22888D01*
X18255Y22543D01*
X18513Y22275D01*
X18823Y22083D01*
X19340Y21930D01*
X19805Y21892D01*
X20270Y21968D01*
X20580Y22083D01*
X20890Y22313D01*
X21097Y22582D01*
X21200Y22850D01*
Y23118D01*
X21097Y23387D01*
X20942Y23617D01*
X20735Y23808D01*
G01X18617Y25222D02*
X18307Y25452D01*
X18152Y25720D01*
X18100Y26027D01*
X18203Y26410D01*
X18462Y26678D01*
X18772Y26755D01*
X19082Y26717D01*
X19340Y26563D01*
X19857Y25797D01*
X20218Y25452D01*
X20735Y25222D01*
X21200Y25145D01*
Y26755D01*
G01X25358Y1693D02*
X25203Y1463D01*
X25100Y1195D01*
Y888D01*
X25255Y543D01*
X25513Y275D01*
X25823Y83D01*
X26340Y-70D01*
X26805Y-108D01*
X27270Y-32D01*
X27580Y83D01*
X27890Y313D01*
X28097Y582D01*
X28200Y850D01*
Y1118D01*
X28097Y1387D01*
X27942Y1617D01*
X27735Y1808D01*
G01X26908Y3222D02*
X26547Y3490D01*
X26340Y3720D01*
X26237Y4027D01*
X26340Y4295D01*
X26547Y4487D01*
X26857Y4640D01*
X27218Y4678D01*
X27528Y4640D01*
X27838Y4487D01*
X28097Y4257D01*
X28200Y3988D01*
X28097Y3682D01*
X27787Y3413D01*
X27322Y3260D01*
X26805Y3222D01*
X26133Y3298D01*
X25772Y3413D01*
X25410Y3605D01*
X25152Y3873D01*
X25100Y4142D01*
X25203Y4410D01*
X25462Y4602D01*
G01X30358Y193D02*
X30203Y-37D01*
X30100Y-305D01*
Y-612D01*
X30255Y-957D01*
X30513Y-1225D01*
X30823Y-1417D01*
X31340Y-1570D01*
X31805Y-1608D01*
X32270Y-1532D01*
X32580Y-1417D01*
X32890Y-1187D01*
X33097Y-918D01*
X33200Y-650D01*
Y-382D01*
X33097Y-113D01*
X32942Y117D01*
X32735Y308D01*
G01X33200Y2373D02*
X32528Y2450D01*
X31960Y2565D01*
X31443Y2718D01*
X30875Y2910D01*
X30100Y3217D01*
Y1683D01*
G01X17640Y51000D02*
X18560D01*
G01X18100D02*
Y47900D01*
G01X17640D02*
X18560D01*
G01X22043Y50742D02*
X21813Y50897D01*
X21545Y51000D01*
X21238D01*
X20893Y50845D01*
X20625Y50587D01*
X20433Y50277D01*
X20280Y49760D01*
X20242Y49295D01*
X20318Y48830D01*
X20433Y48520D01*
X20663Y48210D01*
X20932Y48003D01*
X21200Y47900D01*
X21468D01*
X21737Y48003D01*
X21967Y48158D01*
X22158Y48365D01*
G01X23572Y50483D02*
X23802Y50793D01*
X24070Y50948D01*
X24377Y51000D01*
X24760Y50897D01*
X25028Y50638D01*
X25105Y50328D01*
X25067Y50018D01*
X24913Y49760D01*
X24147Y49243D01*
X23802Y48882D01*
X23572Y48365D01*
X23495Y47900D01*
X25105D01*
G01X36200Y45083D02*
X33100D01*
Y46042D01*
X33255Y46348D01*
X33462Y46540D01*
X33875Y46617D01*
X34288Y46540D01*
X34547Y46310D01*
X34702Y46042D01*
Y45083D01*
G01Y46042D02*
X36200Y46617D01*
G01Y49410D02*
X33100D01*
X35322Y47992D01*
Y49908D01*
G01X28383Y29900D02*
Y33000D01*
X29342D01*
X29648Y32845D01*
X29840Y32638D01*
X29917Y32225D01*
X29840Y31812D01*
X29610Y31553D01*
X29342Y31398D01*
X28383D01*
G01X29342D02*
X29917Y29900D01*
G01X32173D02*
X32250Y30572D01*
X32365Y31140D01*
X32518Y31657D01*
X32710Y32225D01*
X33017Y33000D01*
X31483D01*
G01X12993Y38142D02*
X12763Y38297D01*
X12495Y38400D01*
X12188D01*
X11843Y38245D01*
X11575Y37987D01*
X11383Y37677D01*
X11230Y37160D01*
X11192Y36695D01*
X11268Y36230D01*
X11383Y35920D01*
X11613Y35610D01*
X11882Y35403D01*
X12150Y35300D01*
X12418D01*
X12687Y35403D01*
X12917Y35558D01*
X13108Y35765D01*
G01X14407Y35920D02*
X14637Y35558D01*
X14943Y35352D01*
X15288Y35300D01*
X15595Y35352D01*
X15902Y35610D01*
X16093Y35920D01*
X16132Y36230D01*
X16055Y36592D01*
X15787Y36850D01*
X15518Y36953D01*
X15173D01*
G01X15518D02*
X15748Y37108D01*
X15940Y37367D01*
X16017Y37677D01*
X15940Y37987D01*
X15748Y38245D01*
X15403Y38400D01*
X15058Y38348D01*
X14713Y38142D01*
G01X34445Y36413D02*
X34752Y36155D01*
X35097Y36000D01*
X35403D01*
X35710Y36155D01*
X35940Y36413D01*
X36055Y36775D01*
X35978Y37137D01*
X35787Y37447D01*
X35442Y37653D01*
X34982Y37757D01*
X34713Y37963D01*
X34598Y38325D01*
X34675Y38687D01*
X34867Y38945D01*
X35135Y39100D01*
X35403D01*
X35672Y38997D01*
X35902Y38738D01*
G01X38350Y39100D02*
Y36000D01*
G01X37468Y39100D02*
X39232D01*
G01X35750Y54200D02*
X35443Y54252D01*
X35175Y54458D01*
X34945Y54768D01*
X34792Y55130D01*
X34715Y55543D01*
Y55957D01*
X34792Y56370D01*
X34945Y56732D01*
X35175Y57042D01*
X35443Y57248D01*
X35750Y57300D01*
X36057Y57248D01*
X36325Y57042D01*
X36555Y56732D01*
X36708Y56370D01*
X36785Y55957D01*
Y55543D01*
X36708Y55130D01*
X36555Y54768D01*
X36325Y54458D01*
X36057Y54252D01*
X35750Y54200D01*
G01X38083D02*
Y57300D01*
X39042D01*
X39348Y57145D01*
X39540Y56938D01*
X39617Y56525D01*
X39540Y56112D01*
X39310Y55853D01*
X39042Y55698D01*
X38083D01*
G01X39042D02*
X39617Y54200D01*
G01X34383Y63900D02*
Y67000D01*
X35342D01*
X35648Y66845D01*
X35840Y66638D01*
X35917Y66225D01*
X35840Y65812D01*
X35610Y65553D01*
X35342Y65398D01*
X34383D01*
G01X35342D02*
X35917Y63900D01*
G01X37522Y65192D02*
X37790Y65553D01*
X38020Y65760D01*
X38327Y65863D01*
X38595Y65760D01*
X38787Y65553D01*
X38940Y65243D01*
X38978Y64882D01*
X38940Y64572D01*
X38787Y64262D01*
X38557Y64003D01*
X38288Y63900D01*
X37982Y64003D01*
X37713Y64313D01*
X37560Y64778D01*
X37522Y65295D01*
X37598Y65967D01*
X37713Y66328D01*
X37905Y66690D01*
X38173Y66948D01*
X38442Y67000D01*
X38710Y66897D01*
X38902Y66638D01*
G01X61100Y15840D02*
Y16760D01*
G01Y16300D02*
X64200D01*
G01Y15840D02*
Y16760D01*
G01X61358Y20243D02*
X61203Y20013D01*
X61100Y19745D01*
Y19438D01*
X61255Y19093D01*
X61513Y18825D01*
X61823Y18633D01*
X62340Y18480D01*
X62805Y18442D01*
X63270Y18518D01*
X63580Y18633D01*
X63890Y18863D01*
X64097Y19132D01*
X64200Y19400D01*
Y19668D01*
X64097Y19937D01*
X63942Y20167D01*
X63735Y20358D01*
G01X64200Y22960D02*
X61100D01*
X63322Y21542D01*
Y23458D01*
G01X52700Y17033D02*
X49600D01*
Y17992D01*
X49755Y18298D01*
X49962Y18490D01*
X50375Y18567D01*
X50788Y18490D01*
X51047Y18260D01*
X51202Y17992D01*
Y17033D01*
G01Y17992D02*
X52700Y18567D01*
G01Y20900D02*
X49600D01*
X50220Y20440D01*
G01X52700D02*
Y21360D01*
G01Y24000D02*
X49600D01*
X50220Y23540D01*
G01X52700D02*
Y24460D01*
G01X48493Y8742D02*
X48263Y8897D01*
X47995Y9000D01*
X47688D01*
X47343Y8845D01*
X47075Y8587D01*
X46883Y8277D01*
X46730Y7760D01*
X46692Y7295D01*
X46768Y6830D01*
X46883Y6520D01*
X47113Y6210D01*
X47382Y6003D01*
X47650Y5900D01*
X47918D01*
X48187Y6003D01*
X48417Y6158D01*
X48608Y6365D01*
G01X50750Y5900D02*
X51018Y5952D01*
X51325Y6107D01*
X51517Y6365D01*
X51593Y6727D01*
X51517Y7088D01*
X51287Y7398D01*
X50942Y7553D01*
X50558D01*
X50328Y7657D01*
X50137Y7915D01*
X50060Y8277D01*
X50175Y8638D01*
X50443Y8897D01*
X50750Y9000D01*
X51057Y8897D01*
X51325Y8638D01*
X51440Y8277D01*
X51363Y7915D01*
X51172Y7657D01*
X50942Y7553D01*
X50558D01*
X50213Y7398D01*
X49983Y7088D01*
X49907Y6727D01*
X49983Y6365D01*
X50175Y6107D01*
X50482Y5952D01*
X50750Y5900D01*
G01X41983Y51100D02*
Y54200D01*
X42942D01*
X43248Y54045D01*
X43440Y53838D01*
X43517Y53425D01*
X43440Y53012D01*
X43210Y52753D01*
X42942Y52598D01*
X41983D01*
G01X42942D02*
X43517Y51100D01*
G01X45007Y51565D02*
X45237Y51307D01*
X45505Y51152D01*
X45850Y51100D01*
X46195Y51203D01*
X46463Y51410D01*
X46655Y51772D01*
X46693Y52185D01*
X46617Y52598D01*
X46425Y52857D01*
X46157Y53063D01*
X45888Y53115D01*
X45620Y53063D01*
X45275Y52857D01*
X45390Y54200D01*
X46425D01*
G01X41883Y26900D02*
Y30000D01*
X42842D01*
X43148Y29845D01*
X43340Y29638D01*
X43417Y29225D01*
X43340Y28812D01*
X43110Y28553D01*
X42842Y28398D01*
X41883D01*
G01X42842D02*
X43417Y26900D01*
G01X45750D02*
X46018Y26952D01*
X46325Y27107D01*
X46517Y27365D01*
X46593Y27727D01*
X46517Y28088D01*
X46287Y28398D01*
X45942Y28553D01*
X45558D01*
X45328Y28657D01*
X45137Y28915D01*
X45060Y29277D01*
X45175Y29638D01*
X45443Y29897D01*
X45750Y30000D01*
X46057Y29897D01*
X46325Y29638D01*
X46440Y29277D01*
X46363Y28915D01*
X46172Y28657D01*
X45942Y28553D01*
X45558D01*
X45213Y28398D01*
X44983Y28088D01*
X44907Y27727D01*
X44983Y27365D01*
X45175Y27107D01*
X45482Y26952D01*
X45750Y26900D01*
G01X57700Y36083D02*
X54600D01*
Y37042D01*
X54755Y37348D01*
X54962Y37540D01*
X55375Y37617D01*
X55788Y37540D01*
X56047Y37310D01*
X56202Y37042D01*
Y36083D01*
G01Y37042D02*
X57700Y37617D01*
G01X57338Y39298D02*
X57597Y39567D01*
X57700Y39873D01*
X57597Y40180D01*
X57287Y40448D01*
X56822Y40640D01*
X56357Y40717D01*
X55788D01*
X55323Y40640D01*
X54910Y40448D01*
X54703Y40218D01*
X54600Y39950D01*
X54703Y39643D01*
X54910Y39413D01*
X55220Y39260D01*
X55633Y39183D01*
X55995Y39260D01*
X56357Y39452D01*
X56563Y39682D01*
X56615Y39950D01*
X56512Y40257D01*
X56253Y40487D01*
X55788Y40717D01*
G01X65200Y34533D02*
X62100D01*
Y35492D01*
X62255Y35798D01*
X62462Y35990D01*
X62875Y36067D01*
X63288Y35990D01*
X63547Y35760D01*
X63702Y35492D01*
Y34533D01*
G01Y35492D02*
X65200Y36067D01*
G01Y38400D02*
X62100D01*
X62720Y37940D01*
G01X65200D02*
Y38860D01*
G01X62100Y41500D02*
X62203Y41193D01*
X62462Y40963D01*
X62772Y40810D01*
X63185Y40695D01*
X63650Y40657D01*
X64115Y40695D01*
X64528Y40810D01*
X64838Y40963D01*
X65097Y41193D01*
X65200Y41500D01*
X65097Y41807D01*
X64838Y42037D01*
X64528Y42190D01*
X64115Y42305D01*
X63650Y42343D01*
X63185Y42305D01*
X62772Y42190D01*
X62462Y42037D01*
X62203Y41807D01*
X62100Y41500D01*
G01X49858Y45693D02*
X49703Y45463D01*
X49600Y45195D01*
Y44888D01*
X49755Y44543D01*
X50013Y44275D01*
X50323Y44083D01*
X50840Y43930D01*
X51305Y43892D01*
X51770Y43968D01*
X52080Y44083D01*
X52390Y44313D01*
X52597Y44582D01*
X52700Y44850D01*
Y45118D01*
X52597Y45387D01*
X52442Y45617D01*
X52235Y45808D01*
G01Y47107D02*
X52493Y47337D01*
X52648Y47605D01*
X52700Y47950D01*
X52597Y48295D01*
X52390Y48563D01*
X52028Y48755D01*
X51615Y48793D01*
X51202Y48717D01*
X50943Y48525D01*
X50737Y48257D01*
X50685Y47988D01*
X50737Y47720D01*
X50943Y47375D01*
X49600Y47490D01*
Y48525D01*
G01X44895Y36413D02*
X45202Y36155D01*
X45547Y36000D01*
X45853D01*
X46160Y36155D01*
X46390Y36413D01*
X46505Y36775D01*
X46428Y37137D01*
X46237Y37447D01*
X45892Y37653D01*
X45432Y37757D01*
X45163Y37963D01*
X45048Y38325D01*
X45125Y38687D01*
X45317Y38945D01*
X45585Y39100D01*
X45853D01*
X46122Y38997D01*
X46352Y38738D01*
G01X48800Y39100D02*
Y36000D01*
G01X47918Y39100D02*
X49682D01*
G01X52207Y37653D02*
X52360Y37808D01*
X52475Y38067D01*
X52552Y38428D01*
X52475Y38738D01*
X52322Y38945D01*
X52053Y39100D01*
X51018D01*
Y36000D01*
X52283D01*
X52552Y36207D01*
X52705Y36517D01*
X52782Y36878D01*
X52705Y37240D01*
X52475Y37550D01*
X52207Y37653D01*
X51018D01*
G01X46858Y61193D02*
X46703Y60963D01*
X46600Y60695D01*
Y60388D01*
X46755Y60043D01*
X47013Y59775D01*
X47323Y59583D01*
X47840Y59430D01*
X48305Y59392D01*
X48770Y59468D01*
X49080Y59583D01*
X49390Y59813D01*
X49597Y60082D01*
X49700Y60350D01*
Y60618D01*
X49597Y60887D01*
X49442Y61117D01*
X49235Y61308D01*
G01X49700Y63910D02*
X46600D01*
X48822Y62492D01*
Y64408D01*
M02*
