G04 ================== begin FILE IDENTIFICATION RECORD ==================*
G04 Layout Name:  C:/tmp/20_051837b/worklib/02_051837b_top/physical/08_051837b.brd*
G04 Film Name:    silk_sec*
G04 File Format:  Gerber RS274X*
G04 File Origin:  Cadence Allegro 17.2-S033*
G04 Origin Date:  Fri Mar 15 19:56:20 2019*
G04 *
G04 Layer:  PACKAGE GEOMETRY/SILKSCREEN_BOTTOM*
G04 Layer:  BOARD GEOMETRY/TOOLING_CORNERS*
G04 Layer:  BOARD GEOMETRY/SILKSCREEN_BOTTOM*
G04 Layer:  BOARD GEOMETRY/ROOT_NUMBER*
G04 Layer:  REF DES/SILKSCREEN_BOTTOM*
G04 Layer:  MANUFACTURING/SILK_DETAIL_BOTTOM*
G04 *
G04 Offset:    (0.00 0.00)*
G04 Mirror:    No*
G04 Mode:      Positive*
G04 Rotation:  0*
G04 FullContactRelief:  No*
G04 UndefLineWidth:     8.00*
G04 ================== end FILE IDENTIFICATION RECORD ====================*
%FSLAX25Y25*MOIN*%
%IR0*IPPOS*OFA0.00000B0.00000*MIA0B0*SFA1.00000B1.00000*%
%ADD10C,.03*%
%ADD11C,.05*%
%ADD12C,.008*%
%ADD13C,.006*%
G75*
%LPD*%
G75*
G36*
G01X1510Y11050D02*
X1580Y11270D01*
X1650Y11510D01*
X1690Y11760D01*
X1710Y12020D01*
Y12290D01*
X0D01*
X10Y12100D01*
X0Y11920D01*
X-30Y11760D01*
X-80Y11600D01*
X-160Y11460D01*
X-240Y11330D01*
X-350Y11220D01*
X-490Y11120D01*
X-650Y11020D01*
X-820Y10950D01*
X-1030Y10870D01*
X-1260Y10820D01*
X-1500Y10790D01*
X-1760Y10760D01*
X-1990D01*
X-2130Y10770D01*
X-2280Y10790D01*
X-2440Y10820D01*
X-2610Y10860D01*
X-2950Y10960D01*
X-3270Y11120D01*
X-3410Y11230D01*
X-3530Y11350D01*
X-3620Y11450D01*
X-3680Y11580D01*
X-3740Y11700D01*
X-3770Y11840D01*
X-3780Y12000D01*
X-3770Y12170D01*
X-3730Y12330D01*
X-3680Y12470D01*
X-3610Y12590D01*
X-3520Y12700D01*
X-3300Y12890D01*
X-3160Y12970D01*
X-3020Y13020D01*
X-2870Y13080D01*
X-2610Y13150D01*
X-2330Y13220D01*
X-1760Y13330D01*
X-1490Y13380D01*
X-1240Y13450D01*
X-1010Y13500D01*
X-770Y13570D01*
X-500Y13640D01*
X-240Y13740D01*
X30Y13840D01*
X290Y13960D01*
X560Y14100D01*
X730Y14220D01*
X890Y14340D01*
X1040Y14470D01*
X1180Y14620D01*
X1300Y14790D01*
X1390Y14940D01*
X1470Y15100D01*
X1530Y15270D01*
X1570Y15460D01*
X1600Y15660D01*
X1610Y15860D01*
X1600Y16100D01*
X1520Y16560D01*
X1450Y16770D01*
X1360Y16990D01*
X1240Y17200D01*
X1120Y17380D01*
X980Y17550D01*
X820Y17710D01*
X650Y17870D01*
X250Y18150D01*
X20Y18270D01*
X-220Y18370D01*
X-490Y18470D01*
X-770Y18540D01*
X-1060Y18610D01*
X-1360Y18640D01*
X-1690Y18670D01*
X-2030Y18680D01*
X-2350Y18670D01*
X-2660Y18640D01*
X-2930Y18600D01*
X-3190Y18540D01*
X-3430Y18470D01*
X-3640Y18390D01*
X-3840Y18300D01*
X-4020Y18190D01*
X-4190Y18080D01*
X-4360Y17950D01*
X-4520Y17800D01*
X-4650Y17650D01*
X-4870Y17330D01*
X-4950Y17180D01*
X-5030Y16990D01*
X-5090Y16810D01*
X-5140Y16640D01*
X-5180Y16480D01*
X-5190Y16350D01*
X-5200Y16230D01*
X-5220Y16120D01*
Y16060D01*
X-5230Y16030D01*
X-3590D01*
X-3560Y16130D01*
X-3530Y16240D01*
X-3490Y16360D01*
X-3440Y16490D01*
X-3370Y16630D01*
X-3290Y16760D01*
X-3170Y16890D01*
X-3070Y16980D01*
X-2940Y17070D01*
X-2800Y17140D01*
X-2630Y17210D01*
X-2480Y17240D01*
X-2320Y17280D01*
X-2140Y17300D01*
X-1940Y17310D01*
X-1750D01*
X-1570Y17290D01*
X-1370Y17260D01*
X-1160Y17230D01*
X-970Y17170D01*
X-790Y17090D01*
X-650Y17030D01*
X-540Y16950D01*
X-440Y16860D01*
X-340Y16760D01*
X-270Y16650D01*
X-210Y16530D01*
X-180Y16400D01*
X-170Y16250D01*
X-180Y16100D01*
X-200Y15960D01*
X-240Y15830D01*
X-300Y15720D01*
X-404Y15572D01*
X-610Y15400D01*
X-760Y15310D01*
X-920Y15230D01*
X-1120Y15160D01*
X-1350Y15090D01*
X-1590Y15030D01*
X-1830Y14990D01*
X-2090Y14940D01*
X-2360Y14900D01*
X-2620Y14860D01*
X-2970Y14790D01*
X-3300Y14710D01*
X-3610Y14620D01*
X-3900Y14530D01*
X-4160Y14420D01*
X-4410Y14310D01*
X-4620Y14180D01*
X-4820Y14040D01*
X-5000Y13880D01*
X-5120Y13740D01*
X-5220Y13590D01*
X-5320Y13430D01*
X-5390Y13250D01*
X-5460Y13060D01*
X-5500Y12850D01*
X-5530Y12650D01*
X-5550Y12410D01*
Y12170D01*
X-5530Y11930D01*
X-5500Y11700D01*
X-5430Y11470D01*
X-5350Y11250D01*
X-5250Y11040D01*
X-5140Y10830D01*
X-4970Y10610D01*
X-4780Y10400D01*
X-4560Y10200D01*
X-4330Y10020D01*
X-4100Y9880D01*
X-3850Y9760D01*
X-3590Y9650D01*
X-3310Y9550D01*
X-2690Y9430D01*
X-2370Y9390D01*
X-1640D01*
X-1270Y9420D01*
X-940Y9460D01*
X-610Y9520D01*
X-310Y9580D01*
X-20Y9680D01*
X220Y9770D01*
X450Y9880D01*
X650Y10010D01*
X840Y10150D01*
X1010Y10300D01*
X1170Y10470D01*
X1300Y10650D01*
X1410Y10840D01*
X1510Y11050D01*
G37*
G36*
G01X4380Y22100D02*
X4550Y21870D01*
X4760Y21630D01*
X4980Y21420D01*
X5220Y21220D01*
X5470Y21040D01*
X5760Y20880D01*
X6050Y20740D01*
X6560Y20570D01*
X6820Y20520D01*
X7100Y20470D01*
X7390Y20440D01*
X7690Y20430D01*
X8030Y20450D01*
X8360Y20480D01*
X8670Y20530D01*
X8960Y20600D01*
X9240Y20690D01*
X9510Y20810D01*
X9760Y20930D01*
X10020Y21090D01*
X10270Y21260D01*
X10490Y21460D01*
X10700Y21660D01*
X10900Y21880D01*
X11090Y22130D01*
X11260Y22400D01*
X11400Y22680D01*
X11530Y22960D01*
X11640Y23260D01*
X11730Y23560D01*
X11820Y23930D01*
X11880Y24300D01*
X11910Y24680D01*
X11920Y25060D01*
X11900Y25370D01*
X11890Y25450D01*
X11860Y25840D01*
X11780Y26220D01*
X11680Y26590D01*
X11560Y26950D01*
X11440Y27240D01*
X11300Y27500D01*
X11160Y27750D01*
X10990Y28010D01*
X10810Y28240D01*
X10600Y28480D01*
X10370Y28690D01*
X10130Y28890D01*
X9860Y29070D01*
X9580Y29230D01*
X9280Y29360D01*
X9040Y29450D01*
X8770Y29530D01*
X8510Y29590D01*
X8230Y29630D01*
X7940Y29650D01*
X7640Y29660D01*
X7320Y29650D01*
X7010Y29610D01*
X6720Y29560D01*
X6430Y29480D01*
X6170Y29400D01*
X5920Y29290D01*
X5670Y29150D01*
X5420Y29000D01*
X5180Y28820D01*
X4970Y28630D01*
X4760Y28420D01*
X4570Y28200D01*
X4380Y27950D01*
X4220Y27690D01*
X4070Y27410D01*
X3940Y27120D01*
X3830Y26830D01*
X3740Y26530D01*
X3650Y26160D01*
X3580Y25790D01*
X3560Y25542D01*
X3530Y25040D01*
X3540Y24640D01*
X3580Y24270D01*
X3640Y23880D01*
X3730Y23510D01*
X3850Y23150D01*
X3950Y22870D01*
X4080Y22610D01*
X4220Y22350D01*
X4380Y22100D01*
G37*
G36*
G01X-4180Y28290D02*
X-4050Y28430D01*
X-3900Y28580D01*
X-3720Y28730D01*
X-3530Y28870D01*
X-3320Y29010D01*
X-3120Y29140D01*
X-2890Y29270D01*
X-2650Y29370D01*
X-2400Y29460D01*
X-2140Y29540D01*
X-1870Y29600D01*
X-1590Y29620D01*
X-1290Y29640D01*
X-690Y29600D01*
X-400Y29550D01*
X-130Y29480D01*
X140Y29400D01*
X390Y29300D01*
X690Y29170D01*
X980Y29000D01*
X1240Y28820D01*
X1500Y28630D01*
X1720Y28410D01*
X1940Y28180D01*
X2120Y27940D01*
X2280Y27700D01*
X2430Y27440D01*
X2560Y27180D01*
X2680Y26910D01*
X2800Y26550D01*
X2900Y26180D01*
X2970Y25810D01*
X3020Y25430D01*
X3040Y25050D01*
X3030Y24670D01*
X2990Y24300D01*
X2940Y23930D01*
X2850Y23570D01*
X2760Y23270D01*
X2650Y22980D01*
X2520Y22700D01*
X2380Y22420D01*
X2210Y22160D01*
X2030Y21920D01*
X1850Y21690D01*
X1640Y21480D01*
X1420Y21300D01*
X1190Y21120D01*
X930Y20960D01*
X690Y20830D01*
X440Y20720D01*
X160Y20630D01*
X-120Y20550D01*
X-410Y20490D01*
X-720Y20450D01*
X-1040Y20430D01*
X-1290Y20440D01*
X-1540Y20460D01*
X-1770Y20500D01*
X-1990Y20540D01*
X-2200Y20610D01*
X-2380Y20680D01*
X-2560Y20770D01*
X-2730Y20860D01*
X-2950Y21000D01*
X-3150Y21140D01*
X-3370Y21330D01*
X-3690Y21650D01*
Y20800D01*
X-5100D01*
Y25330D01*
X-1430D01*
Y23940D01*
X-3560D01*
Y23460D01*
X-3550Y23430D01*
X-3510Y23370D01*
X-3470Y23300D01*
X-3410Y23190D01*
X-3320Y23070D01*
X-3220Y22930D01*
X-3110Y22790D01*
X-2970Y22640D01*
X-2820Y22490D01*
X-2640Y22350D01*
X-2450Y22220D01*
X-2280Y22110D01*
X-2090Y22030D01*
X-1890Y21950D01*
X-1680Y21910D01*
X-1450Y21870D01*
X-1060D01*
X-770Y21910D01*
X-560Y21950D01*
X-180Y22090D01*
X30Y22220D01*
X240Y22360D01*
X420Y22520D01*
X590Y22700D01*
X740Y22880D01*
X870Y23090D01*
X990Y23310D01*
X1080Y23530D01*
X1170Y23780D01*
X1250Y24090D01*
X1310Y24410D01*
X1340Y24740D01*
X1350Y25060D01*
X1330Y25370D01*
X1300Y25660D01*
X1240Y25940D01*
X1170Y26220D01*
X1080Y26490D01*
X960Y26760D01*
X820Y27000D01*
X670Y27230D01*
X520Y27410D01*
X350Y27580D01*
X170Y27730D01*
X-20Y27870D01*
X-190Y27960D01*
X-380Y28040D01*
X-580Y28110D01*
X-790Y28160D01*
X-1000Y28190D01*
X-1240D01*
X-1460Y28180D01*
X-1680Y28150D01*
X-1880Y28100D01*
X-2060Y28040D01*
X-2220Y27950D01*
X-2370Y27860D01*
X-2530Y27750D01*
X-2680Y27610D01*
X-2840Y27460D01*
X-2970Y27300D01*
X-3190Y26980D01*
X-3290Y26830D01*
X-3370Y26690D01*
X-4880D01*
Y26810D01*
X-4860Y26900D01*
X-4840Y27000D01*
X-4810Y27120D01*
X-4760Y27260D01*
X-4710Y27410D01*
X-4630Y27580D01*
X-4540Y27760D01*
X-4420Y27950D01*
X-4290Y28150D01*
X-4180Y28290D01*
G37*
G36*
G01X2550Y13490D02*
Y15090D01*
X6650D01*
Y16930D01*
X2020D01*
Y18550D01*
X8360D01*
Y9620D01*
X1800D01*
Y11140D01*
X6630D01*
Y13490D01*
X2550D01*
G37*
G36*
G01X35790Y11240D02*
X35970Y10990D01*
X36160Y10770D01*
X36380Y10550D01*
X36630Y10360D01*
X36880Y10190D01*
X37160Y10040D01*
X37450Y9920D01*
X37770Y9810D01*
X38040Y9740D01*
X38600Y9660D01*
X38900Y9630D01*
X39220Y9620D01*
X42660D01*
Y18550D01*
X39200D01*
X38860Y18540D01*
X38530Y18500D01*
X38220Y18450D01*
X37920Y18360D01*
X37630Y18270D01*
X37360Y18150D01*
X37100Y18010D01*
X36830Y17830D01*
X36590Y17620D01*
X36350Y17400D01*
X36140Y17160D01*
X35950Y16910D01*
X35770Y16620D01*
X35610Y16330D01*
X35480Y16030D01*
X35360Y15700D01*
X35260Y15360D01*
X35190Y15030D01*
X35140Y14680D01*
X35100Y14310D01*
X35090Y13940D01*
X35100Y13540D01*
X35140Y13150D01*
X35200Y12790D01*
X35270Y12440D01*
X35380Y12100D01*
X35500Y11780D01*
X35640Y11500D01*
X35790Y11240D01*
G37*
G36*
G01X10450Y12420D02*
X10470Y12360D01*
X10490Y12280D01*
X10540Y12160D01*
X10600Y12030D01*
X10670Y11900D01*
X10760Y11740D01*
X10860Y11590D01*
X10970Y11450D01*
X11100Y11310D01*
X11260Y11180D01*
X11390Y11100D01*
X11520Y11010D01*
X11670Y10950D01*
X11820Y10900D01*
X12000Y10850D01*
X12180Y10830D01*
X12370Y10820D01*
X12580Y10830D01*
X12770Y10860D01*
X12960Y10900D01*
X13140Y10960D01*
X13300Y11050D01*
X13500Y11160D01*
X13690Y11310D01*
X13860Y11470D01*
X14010Y11660D01*
X14150Y11860D01*
X14290Y12100D01*
X14410Y12370D01*
X14520Y12640D01*
X14600Y12930D01*
X14660Y13220D01*
X14710Y13520D01*
X14730Y13830D01*
X14740Y14130D01*
X14730Y14500D01*
X14700Y14860D01*
X14630Y15200D01*
X14560Y15460D01*
X14480Y15700D01*
X14390Y15940D01*
X14280Y16160D01*
X14150Y16370D01*
X14030Y16540D01*
X13900Y16700D01*
X13750Y16840D01*
X13590Y16970D01*
X13410Y17070D01*
X13230Y17160D01*
X13030Y17230D01*
X12830Y17270D01*
X12610Y17300D01*
X12370Y17290D01*
X12200Y17270D01*
X12040Y17230D01*
X11890Y17160D01*
X11730Y17070D01*
X11580Y16980D01*
X11450Y16880D01*
X11310Y16760D01*
X11150Y16600D01*
X11000Y16420D01*
X10870Y16250D01*
X10750Y16070D01*
X10640Y15910D01*
X10550Y15750D01*
X10480Y15610D01*
X8700D01*
X8720Y15660D01*
X8740Y15740D01*
X8760Y15830D01*
X8800Y15940D01*
X8840Y16060D01*
X8900Y16230D01*
X8980Y16420D01*
X9070Y16610D01*
X9180Y16820D01*
X9310Y17040D01*
X9430Y17220D01*
X9560Y17390D01*
X9720Y17560D01*
X9890Y17730D01*
X10080Y17890D01*
X10290Y18040D01*
X10480Y18170D01*
X10680Y18280D01*
X10900Y18370D01*
X11130Y18460D01*
X11390Y18540D01*
X11660Y18600D01*
X11950Y18640D01*
X12260Y18670D01*
X12590Y18680D01*
X12900Y18670D01*
X13200Y18650D01*
X13480Y18610D01*
X13760Y18550D01*
X14010Y18480D01*
X14250Y18380D01*
X14510Y18270D01*
X14740Y18140D01*
X14970Y17990D01*
X15180Y17820D01*
X15370Y17640D01*
X15550Y17450D01*
X15710Y17240D01*
X15880Y17010D01*
X16020Y16760D01*
X16150Y16500D01*
X16270Y16230D01*
X16360Y15950D01*
X16460Y15580D01*
X16540Y15190D01*
X16590Y14810D01*
X16600Y14420D01*
X16590Y14030D01*
X16570Y13640D01*
X16510Y13260D01*
X16430Y12880D01*
X16340Y12520D01*
X16240Y12210D01*
X16120Y11900D01*
X15980Y11610D01*
X15830Y11340D01*
X15660Y11080D01*
X15480Y10820D01*
X15300Y10600D01*
X15100Y10390D01*
X14880Y10200D01*
X14660Y10030D01*
X14420Y9870D01*
X14190Y9750D01*
X13710Y9550D01*
X13450Y9490D01*
X13170Y9440D01*
X12900Y9410D01*
X12610D01*
X12260Y9420D01*
X11930Y9450D01*
X11620Y9500D01*
X11340Y9560D01*
X11070Y9640D01*
X10820Y9720D01*
X10570Y9840D01*
X10330Y9960D01*
X10130Y10090D01*
X9930Y10230D01*
X9760Y10380D01*
X9600Y10530D01*
X9460Y10690D01*
X9280Y10920D01*
X9140Y11140D01*
X9020Y11370D01*
X8920Y11590D01*
X8840Y11780D01*
X8780Y11960D01*
X8750Y12110D01*
X8700Y12350D01*
X8690Y12420D01*
X8680Y12480D01*
Y12510D01*
X10410D01*
X10430Y12480D01*
X10450Y12420D01*
G37*
G36*
G01X26170Y20580D02*
X24380D01*
X23790Y22570D01*
X20490D01*
X19810Y20580D01*
X17970D01*
X21350Y29530D01*
X23170D01*
X26170Y20580D01*
G37*
G36*
G01X42530D02*
X40740D01*
X40150Y22570D01*
X36850D01*
X36170Y20580D01*
X34330D01*
X37710Y29530D01*
X39530D01*
X42530Y20580D01*
G37*
G36*
G01X11820D02*
Y22100D01*
X15810D01*
Y29530D01*
X17590D01*
Y20580D01*
X11820D01*
G37*
G36*
G01X26580D02*
Y29530D01*
X28360D01*
Y23570D01*
X32150Y29530D01*
X33980D01*
Y20580D01*
X32190D01*
Y26630D01*
X28260Y20580D01*
X26580D01*
G37*
G36*
G01X27880Y18550D02*
X34450D01*
Y9620D01*
X27730D01*
Y11140D01*
X32640D01*
Y13530D01*
X28430D01*
Y15160D01*
X32660D01*
Y17060D01*
X27880D01*
Y18550D01*
G37*
G36*
G01X22650Y9650D02*
X19790Y18060D01*
Y18530D01*
X21540D01*
X23500Y12020D01*
X25520Y18550D01*
X27310D01*
Y18080D01*
X24360Y9650D01*
X22650D01*
G37*
G36*
G01X20750Y57150D02*
G02X21102Y56002I3850J552D01*
G01X21296Y56196D01*
G03X25228Y55411I2504J2304D01*
G03X26889Y57072I-628J2289D01*
G03X26901Y57100I-3121J1354D01*
G01X20800D01*
X20750Y57150D01*
G37*
G36*
G01X32644Y55081D02*
G02X16141Y57700I-8044J2615D01*
G01X14600D01*
X17500Y60300D01*
X20300Y57700D01*
X18782D01*
G03X30098Y55801I5816J-7D01*
G01X31700Y54299D01*
X32591Y55109D01*
X32644Y55081D01*
G37*
G36*
G01X31700Y55000D02*
X28800Y57700D01*
X30414D01*
G03X19103Y59599I-5816J-6D01*
G01X17500Y61101D01*
X16608Y60291D01*
X16557Y60326D01*
G02X33062Y57700I8047J-2604D01*
G01X34600D01*
X31700Y55000D01*
G37*
G36*
G01X65860Y9410D02*
X45920D01*
Y29450D01*
X65860D01*
Y9410D01*
G37*
%LPC*%
G75*
G36*
G01X7090Y28061D02*
X6910Y28001D01*
X6740Y27921D01*
X6539Y27811D01*
X6349Y27671D01*
X6169Y27521D01*
X6019Y27341D01*
X5869Y27151D01*
X5729Y26930D01*
X5609Y26680D01*
X5499Y26430D01*
X5419Y26160D01*
X5349Y25870D01*
X5309Y25590D01*
X5289Y25370D01*
X5279Y25300D01*
X5269Y25020D01*
X5279Y24730D01*
X5309Y24430D01*
X5359Y24150D01*
X5429Y23870D01*
X5509Y23610D01*
X5619Y23350D01*
X5749Y23109D01*
X5899Y22879D01*
X6039Y22709D01*
X6199Y22539D01*
X6379Y22389D01*
X6559Y22249D01*
X6730Y22159D01*
X6920Y22079D01*
X7110Y22009D01*
X7320Y21959D01*
X7530Y21929D01*
X7970D01*
X8170Y21959D01*
X8360Y22009D01*
X8550Y22069D01*
X8720Y22139D01*
X8921Y22249D01*
X9111Y22399D01*
X9281Y22549D01*
X9441Y22719D01*
X9581Y22909D01*
X9721Y23140D01*
X9851Y23380D01*
X9951Y23650D01*
X10021Y23910D01*
X10091Y24190D01*
X10141Y24470D01*
X10161Y24760D01*
Y25060D01*
X10151Y25370D01*
X10121Y25640D01*
X10061Y25920D01*
X10001Y26190D01*
X9911Y26470D01*
X9801Y26720D01*
X9671Y26960D01*
X9531Y27191D01*
X9381Y27371D01*
X9221Y27541D01*
X9061Y27691D01*
X8871Y27821D01*
X8700Y27921D01*
X8520Y28001D01*
X8330Y28061D01*
X8130Y28111D01*
X7920Y28141D01*
X7690Y28151D01*
X7490Y28141D01*
X7090Y28061D01*
G37*
G36*
G01X39260Y11009D02*
X40781D01*
Y17041D01*
X39370D01*
X39140Y17031D01*
X38920Y17001D01*
X38720Y16951D01*
X38530Y16891D01*
X38360Y16801D01*
X38199Y16711D01*
X38019Y16581D01*
X37849Y16441D01*
X37709Y16281D01*
X37569Y16101D01*
X37459Y15920D01*
X37329Y15670D01*
X37229Y15430D01*
X37139Y15180D01*
X37029Y14690D01*
X36999Y14450D01*
X36979Y14230D01*
X36969Y14020D01*
Y13730D01*
X36989Y13440D01*
X37019Y13130D01*
X37059Y12900D01*
X37109Y12670D01*
X37179Y12450D01*
X37259Y12230D01*
X37359Y12030D01*
X37459Y11859D01*
X37579Y11699D01*
X37729Y11549D01*
X37879Y11419D01*
X38049Y11299D01*
X38210Y11219D01*
X38390Y11139D01*
X38590Y11089D01*
X38800Y11049D01*
X39020Y11019D01*
X39260Y11009D01*
G37*
G36*
G01X21126Y24407D02*
X21119Y24384D01*
X21116Y24374D01*
X21113Y24363D01*
X21108Y24343D01*
X21105Y24329D01*
X21103Y24319D01*
X21100Y24303D01*
X21097Y24284D01*
X21094Y24260D01*
X21093Y24249D01*
X21092Y24239D01*
X21091Y24223D01*
X21090Y24196D01*
Y23830D01*
X23320D01*
X23250Y24390D01*
X22240Y27650D01*
X21128Y24413D01*
X21126Y24407D01*
G37*
G36*
G01X37486D02*
X37479Y24384D01*
X37476Y24374D01*
X37473Y24363D01*
X37468Y24343D01*
X37465Y24329D01*
X37463Y24319D01*
X37460Y24303D01*
X37457Y24284D01*
X37454Y24260D01*
X37453Y24249D01*
X37452Y24239D01*
X37451Y24223D01*
X37450Y24196D01*
Y23830D01*
X39680D01*
X39610Y24390D01*
X38600Y27650D01*
X37488Y24413D01*
X37486Y24407D01*
G37*
G36*
G01X22300Y58300D02*
X26900D01*
G03X22300I-2300J-569D01*
G37*
G36*
G01X49260Y19300D02*
X61750Y11950D01*
Y26330D01*
X49260Y19300D01*
G37*
%LPD*%
G75*
G36*
G01X19240Y9650D02*
X17330D01*
Y18530D01*
X19240D01*
Y9650D01*
G37*
G54D10*
G01X50211Y39750D02*
X38211D01*
G54D11*
G01X-13500Y-6000D02*
Y-9500D01*
X-9500Y-13500D01*
X-6000D01*
G01X-13500Y-6000D02*
Y11500D01*
G01X-6000Y-13500D02*
X11500D01*
G01X-13500Y64000D02*
Y46500D01*
G01Y64000D02*
Y67500D01*
X-9500Y71500D01*
X-6000D01*
G01D02*
X11500D01*
G01X71500Y-6100D02*
Y-9500D01*
X67500Y-13500D01*
X64000D01*
G01D02*
X46500D01*
G01X64700Y71400D02*
X67600D01*
X71500Y67500D01*
Y64000D01*
G01X64000Y71500D02*
X46500D01*
G01X71500Y-6100D02*
Y11500D01*
G01Y64000D02*
Y46500D01*
G54D12*
G01X-62925Y121233D02*
X-61925Y120400D01*
X-60800Y119900D01*
X-59800D01*
X-58800Y120400D01*
X-58050Y121233D01*
X-57675Y122400D01*
X-57925Y123566D01*
X-58550Y124567D01*
X-59675Y125233D01*
X-61175Y125567D01*
X-62050Y126233D01*
X-62425Y127400D01*
X-62175Y128567D01*
X-61550Y129400D01*
X-60675Y129900D01*
X-59800D01*
X-58925Y129567D01*
X-58175Y128733D01*
G01X-51800Y129900D02*
X-48800D01*
G01X-50300D02*
Y119900D01*
G01X-51800D02*
X-48800D01*
G01X-42800Y129900D02*
Y119900D01*
X-37800D01*
G01X-33050D02*
Y129900D01*
G01X-28300D02*
X-33050Y123733D01*
G01X-27550Y119900D02*
X-30925Y126566D01*
G01X-22925Y121233D02*
X-21925Y120400D01*
X-20800Y119900D01*
X-19800D01*
X-18800Y120400D01*
X-18050Y121233D01*
X-17675Y122400D01*
X-17925Y123566D01*
X-18550Y124567D01*
X-19675Y125233D01*
X-21175Y125567D01*
X-22050Y126233D01*
X-22425Y127400D01*
X-22175Y128567D01*
X-21550Y129400D01*
X-20675Y129900D01*
X-19800D01*
X-18925Y129567D01*
X-18175Y128733D01*
G01X-7550Y129067D02*
X-8300Y129567D01*
X-9175Y129900D01*
X-10175D01*
X-11300Y129400D01*
X-12175Y128567D01*
X-12800Y127567D01*
X-13300Y125900D01*
X-13425Y124400D01*
X-13175Y122900D01*
X-12800Y121900D01*
X-12050Y120900D01*
X-11175Y120233D01*
X-10300Y119900D01*
X-9425D01*
X-8550Y120233D01*
X-7800Y120733D01*
X-7175Y121400D01*
G01X-2800Y119900D02*
Y129900D01*
X325D01*
X1325Y129400D01*
X1950Y128733D01*
X2200Y127400D01*
X1950Y126067D01*
X1200Y125233D01*
X325Y124733D01*
X-2800D01*
G01X325D02*
X2200Y119900D01*
G01X12200D02*
X7200D01*
Y129900D01*
X12200D01*
G01X10200Y125067D02*
X7200D01*
G01X22200Y119900D02*
X17200D01*
Y129900D01*
X22200D01*
G01X20200Y125067D02*
X17200D01*
G01X26825Y119900D02*
Y129900D01*
X32575Y119900D01*
Y129900D01*
G01X47075Y121233D02*
X48075Y120400D01*
X49200Y119900D01*
X50200D01*
X51200Y120400D01*
X51950Y121233D01*
X52325Y122400D01*
X52075Y123566D01*
X51450Y124567D01*
X50325Y125233D01*
X48825Y125567D01*
X47950Y126233D01*
X47575Y127400D01*
X47825Y128567D01*
X48450Y129400D01*
X49325Y129900D01*
X50200D01*
X51075Y129567D01*
X51825Y128733D01*
G01X62200Y119900D02*
X57200D01*
Y129900D01*
X62200D01*
G01X60200Y125067D02*
X57200D01*
G01X72450Y129067D02*
X71700Y129567D01*
X70825Y129900D01*
X69825D01*
X68700Y129400D01*
X67825Y128567D01*
X67200Y127567D01*
X66700Y125900D01*
X66575Y124400D01*
X66825Y122900D01*
X67200Y121900D01*
X67950Y120900D01*
X68825Y120233D01*
X69700Y119900D01*
X70575D01*
X71450Y120233D01*
X72200Y120733D01*
X72825Y121400D01*
G01X79700Y119900D02*
X78700Y120067D01*
X77825Y120733D01*
X77075Y121733D01*
X76575Y122900D01*
X76325Y124233D01*
Y125567D01*
X76575Y126900D01*
X77075Y128067D01*
X77825Y129067D01*
X78700Y129733D01*
X79700Y129900D01*
X80700Y129733D01*
X81575Y129067D01*
X82325Y128067D01*
X82825Y126900D01*
X83075Y125567D01*
Y124233D01*
X82825Y122900D01*
X82325Y121733D01*
X81575Y120733D01*
X80700Y120067D01*
X79700Y119900D01*
G01X86825D02*
Y129900D01*
X92575Y119900D01*
Y129900D01*
G01X96950Y119900D02*
Y129900D01*
X99450D01*
X100450Y129400D01*
X101200Y128733D01*
X101825Y127733D01*
X102325Y126566D01*
X102450Y124900D01*
X102325Y123233D01*
X101825Y122067D01*
X101200Y121066D01*
X100450Y120400D01*
X99450Y119900D01*
X96950D01*
G01X106575D02*
X109700Y129900D01*
X112825Y119900D01*
G01X111700Y123400D02*
X107700D01*
G01X117200Y119900D02*
Y129900D01*
X120325D01*
X121325Y129400D01*
X121950Y128733D01*
X122200Y127400D01*
X121950Y126067D01*
X121200Y125233D01*
X120325Y124733D01*
X117200D01*
G01X120325D02*
X122200Y119900D01*
G01X129700D02*
Y124400D01*
X127200Y129900D01*
G01X132200D02*
X129700Y124400D01*
G01X-20300Y109900D02*
X-21300Y109567D01*
X-22050Y108733D01*
X-22550Y107733D01*
X-22925Y106400D01*
X-23050Y104900D01*
X-22925Y103400D01*
X-22550Y102067D01*
X-22050Y101066D01*
X-21300Y100233D01*
X-20300Y99900D01*
X-19300Y100233D01*
X-18550Y101066D01*
X-18050Y102067D01*
X-17675Y103400D01*
X-17550Y104900D01*
X-17675Y106400D01*
X-18050Y107733D01*
X-18550Y108733D01*
X-19300Y109567D01*
X-20300Y109900D01*
G01X-10300Y99900D02*
X-9425Y100067D01*
X-8425Y100567D01*
X-7800Y101400D01*
X-7550Y102567D01*
X-7800Y103733D01*
X-8550Y104733D01*
X-9675Y105233D01*
X-10925D01*
X-11675Y105567D01*
X-12300Y106400D01*
X-12550Y107567D01*
X-12175Y108733D01*
X-11300Y109567D01*
X-10300Y109900D01*
X-9300Y109567D01*
X-8425Y108733D01*
X-8050Y107567D01*
X-8300Y106400D01*
X-8925Y105567D01*
X-9675Y105233D01*
X-10925D01*
X-12050Y104733D01*
X-12800Y103733D01*
X-13050Y102567D01*
X-12800Y101400D01*
X-12175Y100567D01*
X-11175Y100067D01*
X-10300Y99900D01*
G01X-1925Y103233D02*
X1325D01*
G01X68075D02*
X71325D01*
G01X79700Y109900D02*
X78700Y109567D01*
X77950Y108733D01*
X77450Y107733D01*
X77075Y106400D01*
X76950Y104900D01*
X77075Y103400D01*
X77450Y102067D01*
X77950Y101066D01*
X78700Y100233D01*
X79700Y99900D01*
X80700Y100233D01*
X81450Y101066D01*
X81950Y102067D01*
X82325Y103400D01*
X82450Y104900D01*
X82325Y106400D01*
X81950Y107733D01*
X81450Y108733D01*
X80700Y109567D01*
X79700Y109900D01*
G01X86950Y101400D02*
X87700Y100567D01*
X88575Y100067D01*
X89700Y99900D01*
X90825Y100233D01*
X91700Y100900D01*
X92325Y102067D01*
X92450Y103400D01*
X92200Y104733D01*
X91575Y105567D01*
X90700Y106233D01*
X89825Y106400D01*
X88950Y106233D01*
X87825Y105567D01*
X88200Y109900D01*
X91575D01*
G01X9700Y110400D02*
X8700Y110067D01*
X7950Y109233D01*
X7450Y108233D01*
X7075Y106900D01*
X6950Y105400D01*
X7075Y103900D01*
X7450Y102567D01*
X7950Y101566D01*
X8700Y100733D01*
X9700Y100400D01*
X10700Y100733D01*
X11450Y101566D01*
X11950Y102567D01*
X12325Y103900D01*
X12450Y105400D01*
X12325Y106900D01*
X11950Y108233D01*
X11450Y109233D01*
X10700Y110067D01*
X9700Y110400D01*
G01X16950Y101900D02*
X17700Y101067D01*
X18575Y100567D01*
X19700Y100400D01*
X20825Y100733D01*
X21700Y101400D01*
X22325Y102567D01*
X22450Y103900D01*
X22200Y105233D01*
X21575Y106067D01*
X20700Y106733D01*
X19825Y106900D01*
X18950Y106733D01*
X17825Y106067D01*
X18200Y110400D01*
X21575D01*
G01X29700Y100400D02*
Y110400D01*
X28200Y108400D01*
G01Y100400D02*
X31200D01*
G01X39700D02*
X40575Y100567D01*
X41575Y101067D01*
X42200Y101900D01*
X42450Y103067D01*
X42200Y104233D01*
X41450Y105233D01*
X40325Y105733D01*
X39075D01*
X38325Y106067D01*
X37700Y106900D01*
X37450Y108067D01*
X37825Y109233D01*
X38700Y110067D01*
X39700Y110400D01*
X40700Y110067D01*
X41575Y109233D01*
X41950Y108067D01*
X41700Y106900D01*
X41075Y106067D01*
X40325Y105733D01*
X39075D01*
X37950Y105233D01*
X37200Y104233D01*
X36950Y103067D01*
X37200Y101900D01*
X37825Y101067D01*
X38825Y100567D01*
X39700Y100400D01*
G01X46950Y102400D02*
X47700Y101233D01*
X48700Y100567D01*
X49825Y100400D01*
X50825Y100567D01*
X51825Y101400D01*
X52450Y102400D01*
X52575Y103400D01*
X52325Y104566D01*
X51450Y105400D01*
X50575Y105733D01*
X49450D01*
G01X50575D02*
X51325Y106233D01*
X51950Y107066D01*
X52200Y108067D01*
X51950Y109067D01*
X51325Y109900D01*
X50200Y110400D01*
X49075Y110233D01*
X47950Y109567D01*
G01X59450Y100400D02*
X59700Y102567D01*
X60075Y104400D01*
X60575Y106067D01*
X61200Y107900D01*
X62200Y110400D01*
X57200D01*
G01X12200Y80400D02*
Y90400D01*
X15325D01*
X16325Y89900D01*
X16950Y89233D01*
X17200Y87900D01*
X16950Y86567D01*
X16200Y85733D01*
X15325Y85233D01*
X12200D01*
G01X15325D02*
X17200Y80400D01*
G01X27200D02*
X22200D01*
Y90400D01*
X27200D01*
G01X25200Y85567D02*
X22200D01*
G01X31575Y90400D02*
X34700Y80400D01*
X37825Y90400D01*
G01X55700Y85733D02*
X56200Y86233D01*
X56575Y87066D01*
X56825Y88233D01*
X56575Y89233D01*
X56075Y89900D01*
X55200Y90400D01*
X51825D01*
Y80400D01*
X55950D01*
X56825Y81067D01*
X57325Y82067D01*
X57575Y83233D01*
X57325Y84400D01*
X56575Y85400D01*
X55700Y85733D01*
X51825D01*
G01X47211Y48471D02*
X47711D01*
G01X47211Y48437D02*
X47711D01*
G01X47211Y48402D02*
X47711D01*
G01X47211Y48368D02*
X47711D01*
G01X47211Y48333D02*
X47711D01*
G01X47211Y48299D02*
X47711D01*
G01X47211Y48264D02*
X47711D01*
G01X47211Y48230D02*
X47711D01*
G01X47211Y48195D02*
X47711D01*
G01X47211Y48161D02*
X47711D01*
G01X47211Y48126D02*
X47711D01*
G01X47211Y48092D02*
X47711D01*
G01X47211Y48057D02*
X47711D01*
G01X47211Y48023D02*
X47711D01*
G01X47211Y47988D02*
X47711D01*
G01X47211Y47954D02*
X47711D01*
G01X47211Y47919D02*
X47711D01*
G01X47211Y47885D02*
X47711D01*
G01X47211Y47850D02*
X47711D01*
G01X47211Y47816D02*
X47711D01*
G01X47211Y47781D02*
X47711D01*
G01X47211Y47747D02*
X47711D01*
G01X47211Y47712D02*
X47711D01*
G01X47211Y47678D02*
X47711D01*
G01X47211Y47643D02*
X47711D01*
G01Y48500D02*
Y47625D01*
G01X47211Y48500D02*
X47711D01*
G01X47211Y47625D02*
Y48500D01*
G01X47711Y47625D02*
X47211D01*
G01X40649Y50024D02*
X40773D01*
G01X40410Y49989D02*
X41012D01*
G01X40293Y49955D02*
X41129D01*
G01X40205Y49920D02*
X41218D01*
G01X40131Y49886D02*
X41291D01*
G01X40068Y49851D02*
X41354D01*
G01X40013Y49817D02*
X41410D01*
G01X39963Y49782D02*
X41460D01*
G01X39917Y49748D02*
X41505D01*
G01X39876Y49713D02*
X41547D01*
G01X39837Y49679D02*
X41585D01*
G01X39802Y49644D02*
X41620D01*
G01X39770Y49610D02*
X41653D01*
G01X39739Y49575D02*
X41683D01*
G01X39711Y49541D02*
X41712D01*
G01X39685Y49506D02*
X41738D01*
G01X39660Y49472D02*
X41762D01*
G01X39637Y49437D02*
X41785D01*
G01X39616Y49403D02*
X41807D01*
G01X39596Y49368D02*
X41826D01*
G01X39578Y49334D02*
X41845D01*
G01X40817Y49299D02*
X41862D01*
G01X39561D02*
X40606D01*
G01X40930Y49265D02*
X41878D01*
G01X39545D02*
X40493D01*
G01X40998Y49230D02*
X41892D01*
G01X39530D02*
X40425D01*
G01X41049Y49196D02*
X41906D01*
G01X39517D02*
X40374D01*
G01X41090Y49161D02*
X41918D01*
G01X39504D02*
X40332D01*
G01X41124Y49127D02*
X41929D01*
G01X39493D02*
X40298D01*
G01X41153Y49092D02*
X41940D01*
G01X39483D02*
X40269D01*
G01X41178Y49058D02*
X41949D01*
G01X39474D02*
X40244D01*
G01X41199Y49023D02*
X41957D01*
G01X39466D02*
X40223D01*
G01X41217Y48989D02*
X41964D01*
G01X39459D02*
X40206D01*
G01X41232Y48954D02*
X41970D01*
G01X39453D02*
X40191D01*
G01X41244Y48920D02*
X41975D01*
G01X39448D02*
X40179D01*
G01X41254Y48885D02*
X41979D01*
G01X39443D02*
X40169D01*
G01X41261Y48851D02*
X41982D01*
G01X39440D02*
X40161D01*
G01X41266Y48816D02*
X41985D01*
G01X39438D02*
X40156D01*
G01X41269Y48782D02*
X41986D01*
G01X39437D02*
X40153D01*
G01X41270Y48747D02*
X41986D01*
G01X39436D02*
X40152D01*
G01X41269Y48713D02*
X41986D01*
G01X39437D02*
X40154D01*
G01X41266Y48678D02*
X41984D01*
G01X39438D02*
X40157D01*
G01X41260Y48644D02*
X41982D01*
G01X39441D02*
X40162D01*
G01X41252Y48609D02*
X41978D01*
G01X39444D02*
X40170D01*
G01X41242Y48575D02*
X41974D01*
G01X39448D02*
X40181D01*
G01X41229Y48540D02*
X41969D01*
G01X39454D02*
X40193D01*
G01X41214Y48506D02*
X41963D01*
G01X39460D02*
X40209D01*
G01X41196Y48471D02*
X41955D01*
G01X39467D02*
X40227D01*
G01X41174Y48437D02*
X41947D01*
G01X39475D02*
X40248D01*
G01X41149Y48402D02*
X41938D01*
G01X39485D02*
X40274D01*
G01X41119Y48368D02*
X41928D01*
G01X39495D02*
X40304D01*
G01X41084Y48333D02*
X41916D01*
G01X39506D02*
X40339D01*
G01X41041Y48299D02*
X41904D01*
G01X39519D02*
X40382D01*
G01X40987Y48264D02*
X41890D01*
G01X39533D02*
X40435D01*
G01X40915Y48230D02*
X41875D01*
G01X39547D02*
X40507D01*
G01X40778Y48195D02*
X41859D01*
G01X39563D02*
X40644D01*
G01X39581Y48161D02*
X41842D01*
G01X39599Y48126D02*
X41823D01*
G01X39619Y48092D02*
X41803D01*
G01X39641Y48057D02*
X41781D01*
G01X39664Y48023D02*
X41758D01*
G01X39689Y47988D02*
X41733D01*
G01X39716Y47954D02*
X41707D01*
G01X39744Y47919D02*
X41678D01*
G01X39775Y47885D02*
X41647D01*
G01X39808Y47850D02*
X41614D01*
G01X39844Y47816D02*
X41579D01*
G01X39883Y47781D02*
X41540D01*
G01X39925Y47747D02*
X41498D01*
G01X39971Y47712D02*
X41452D01*
G01X40022Y47678D02*
X41401D01*
G01X40079Y47643D02*
X41344D01*
G01X40143Y47609D02*
X41279D01*
G01X40219Y47574D02*
X41204D01*
G01X40311Y47540D02*
X41112D01*
G01X40436Y47505D02*
X40986D01*
G01X41270Y48750D02*
G03I-559J0D01*
G01X41986D02*
G03I-1275J0D01*
G01X47211Y60250D02*
Y62250D01*
G01X46461Y62237D02*
X47211D01*
G01X46461Y62202D02*
X47211D01*
G01X46461Y62168D02*
X47211D01*
G01X46461Y62133D02*
X47211D01*
G01X46461Y62099D02*
X47211D01*
G01X46461Y62064D02*
X47211D01*
G01X46461Y62030D02*
X47211D01*
G01X46461Y61995D02*
X47211D01*
G01X46461Y61961D02*
X47211D01*
G01X46461Y61926D02*
X47211D01*
G01X46461Y61892D02*
X47211D01*
G01X46461Y61857D02*
X47211D01*
G01X46461Y61823D02*
X47211D01*
G01X46461Y61788D02*
X47211D01*
G01X46461Y61754D02*
X47211D01*
G01X46461Y61719D02*
X47211D01*
G01X46461Y61685D02*
X47211D01*
G01X46461Y61650D02*
X47211D01*
G01X46461Y61616D02*
X47211D01*
G01X46461Y61581D02*
X47211D01*
G01X46461Y61547D02*
X47211D01*
G01X46461Y61512D02*
X47211D01*
G01X46461Y61478D02*
X47211D01*
G01X46461Y61443D02*
X47211D01*
G01X46461Y61409D02*
X47211D01*
G01X46461Y61374D02*
X47211D01*
G01X46461Y61340D02*
X47211D01*
G01X46461Y61305D02*
X47211D01*
G01X46461Y61271D02*
X47211D01*
G01X46461Y61236D02*
X47211D01*
G01X46461Y61202D02*
X47211D01*
G01X46461Y61167D02*
X47211D01*
G01X46461Y61133D02*
X47211D01*
G01X46461Y61098D02*
X47211D01*
G01X46461Y61064D02*
X47211D01*
G01X46461Y61029D02*
X47211D01*
G01X46461Y60995D02*
X47211D01*
G01X46461Y60960D02*
X47211D01*
G01X46461Y60926D02*
X47211D01*
G01X46461Y60891D02*
X47211D01*
G01X46461Y60857D02*
X47211D01*
G01X46461Y60822D02*
X47211D01*
G01X46461Y60788D02*
X47211D01*
G01X46461Y60753D02*
X47211D01*
G01X46461Y60719D02*
X47211D01*
G01X46461Y60684D02*
X47211D01*
G01X46461Y60650D02*
X47211D01*
G01X46461Y60615D02*
X47211D01*
G01X46461Y60581D02*
X47211D01*
G01X46461Y60546D02*
X47211D01*
G01X46461Y60512D02*
X47211D01*
G01X46461Y60477D02*
X47211D01*
G01X46461Y60443D02*
X47211D01*
G01X46461Y60408D02*
X47211D01*
G01X46461Y60374D02*
X47211D01*
G01X46461Y60339D02*
X47211D01*
G01X46461Y60305D02*
X47211D01*
G01X46461Y60270D02*
X47211D01*
G01X46461Y60250D02*
X47211D01*
G01X46461Y62250D02*
Y60250D01*
G01X47211Y62250D02*
X46461D01*
G01X42461Y57000D02*
X45961D01*
G01X42461Y56475D02*
X45961D01*
G01X42461Y56441D02*
X45961D01*
G01X42461Y56406D02*
X45961D01*
G01X42461Y56372D02*
X45961D01*
G01X42461Y56337D02*
X45961D01*
G01X42461Y56303D02*
X45961D01*
G01X42461Y56268D02*
X45961D01*
G01X42461Y56234D02*
X45961D01*
G01X42461Y56199D02*
X45961D01*
G01X42461Y56165D02*
X45961D01*
G01X42461Y56130D02*
X45961D01*
G01X42461Y56096D02*
X45961D01*
G01X42461Y56061D02*
X45961D01*
G01X42461Y56027D02*
X45961D01*
G01X42461Y56000D02*
Y57000D01*
G01X45961Y56000D02*
X42461D01*
G01X45961Y57000D02*
Y56000D01*
G01X42461Y56993D02*
X45961D01*
G01X42461Y56958D02*
X45961D01*
G01X42461Y56924D02*
X45961D01*
G01X42461Y56889D02*
X45961D01*
G01X42461Y56855D02*
X45961D01*
G01X42461Y56820D02*
X45961D01*
G01X42461Y56786D02*
X45961D01*
G01X42461Y56751D02*
X45961D01*
G01X42461Y56717D02*
X45961D01*
G01X42461Y56682D02*
X45961D01*
G01X42461Y56648D02*
X45961D01*
G01X42461Y56613D02*
X45961D01*
G01X42461Y56579D02*
X45961D01*
G01X42461Y56544D02*
X45961D01*
G01X42461Y56510D02*
X45961D01*
G01X40027Y61133D02*
X40395D01*
G01X39905Y61098D02*
X40517D01*
G01X39823Y61064D02*
X40600D01*
G01X39758Y61029D02*
X40665D01*
G01X39703Y60995D02*
X40720D01*
G01X39656Y60960D02*
X40767D01*
G01X39614Y60926D02*
X40808D01*
G01X39577Y60891D02*
X40845D01*
G01X39544Y60857D02*
X40878D01*
G01X39514Y60822D02*
X40908D01*
G01X39488Y60788D02*
X40935D01*
G01X39463Y60753D02*
X40959D01*
G01X39441Y60719D02*
X40981D01*
G01X39421Y60684D02*
X41001D01*
G01X39403Y60650D02*
X41019D01*
G01X39387Y60615D02*
X41036D01*
G01X39373Y60581D02*
X41050D01*
G01X39360Y60546D02*
X41063D01*
G01X39349Y60512D02*
X41074D01*
G01X39339Y60477D02*
X41084D01*
G01X39331Y60443D02*
X41092D01*
G01X39324Y60408D02*
X41099D01*
G01X39318Y60374D02*
X41104D01*
G01X39314Y60339D02*
X41108D01*
G01X39311Y60305D02*
X41111D01*
G01X39310Y60270D02*
X41113D01*
G01X39310Y60236D02*
X41113D01*
G01X39311Y60201D02*
X41111D01*
G01X39314Y60167D02*
X41109D01*
G01X39318Y60132D02*
X41105D01*
G01X39323Y60098D02*
X41100D01*
G01X39329Y60063D02*
X41093D01*
G01X39337Y60029D02*
X41085D01*
G01X39347Y59994D02*
X41076D01*
G01X39358Y59960D02*
X41065D01*
G01X39370Y59925D02*
X41052D01*
G01X39385Y59891D02*
X41038D01*
G01X39400Y59856D02*
X41022D01*
G01X39418Y59822D02*
X41004D01*
G01X39438Y59787D02*
X40985D01*
G01X39459Y59753D02*
X40963D01*
G01X39483Y59718D02*
X40939D01*
G01X39510Y59684D02*
X40913D01*
G01X39539Y59649D02*
X40883D01*
G01X39572Y59615D02*
X40851D01*
G01X39608Y59580D02*
X40814D01*
G01X39649Y59546D02*
X40774D01*
G01X39695Y59511D02*
X40728D01*
G01X39748Y59477D02*
X40674D01*
G01X39811Y59442D02*
X40611D01*
G01X39890Y59408D02*
X40532D01*
G01X40003Y59373D02*
X40420D01*
G01X41113Y60250D02*
G03I-902J0D01*
G54D13*
G01X50055Y-6987D02*
X49748Y-7245D01*
X49403Y-7400D01*
X49097D01*
X48790Y-7245D01*
X48560Y-6987D01*
X48445Y-6625D01*
X48522Y-6263D01*
X48713Y-5953D01*
X49058Y-5747D01*
X49518Y-5643D01*
X49787Y-5437D01*
X49902Y-5075D01*
X49825Y-4713D01*
X49633Y-4455D01*
X49365Y-4300D01*
X49097D01*
X48828Y-4403D01*
X48598Y-4662D01*
G01X45383Y-7400D02*
X46917D01*
Y-4300D01*
X45383D01*
G01X45997Y-5798D02*
X46917D01*
G01X42207Y-4558D02*
X42437Y-4403D01*
X42705Y-4300D01*
X43012D01*
X43357Y-4455D01*
X43625Y-4713D01*
X43817Y-5023D01*
X43970Y-5540D01*
X44008Y-6005D01*
X43932Y-6470D01*
X43817Y-6780D01*
X43587Y-7090D01*
X43318Y-7297D01*
X43050Y-7400D01*
X42782D01*
X42513Y-7297D01*
X42283Y-7142D01*
X42092Y-6935D01*
G01X39950Y-7400D02*
X40257Y-7348D01*
X40525Y-7142D01*
X40755Y-6832D01*
X40908Y-6470D01*
X40985Y-6057D01*
Y-5643D01*
X40908Y-5230D01*
X40755Y-4868D01*
X40525Y-4558D01*
X40257Y-4352D01*
X39950Y-4300D01*
X39643Y-4352D01*
X39375Y-4558D01*
X39145Y-4868D01*
X38992Y-5230D01*
X38915Y-5643D01*
Y-6057D01*
X38992Y-6470D01*
X39145Y-6832D01*
X39375Y-7142D01*
X39643Y-7348D01*
X39950Y-7400D01*
G01X37732D02*
Y-4300D01*
X35968Y-7400D01*
Y-4300D01*
G01X34593Y-7400D02*
Y-4300D01*
X33827D01*
X33520Y-4455D01*
X33290Y-4662D01*
X33098Y-4972D01*
X32945Y-5333D01*
X32907Y-5850D01*
X32945Y-6367D01*
X33098Y-6728D01*
X33290Y-7038D01*
X33520Y-7245D01*
X33827Y-7400D01*
X34593D01*
G01X31608D02*
X30650Y-4300D01*
X29692Y-7400D01*
G01X30037Y-6315D02*
X31263D01*
G01X28317Y-7400D02*
Y-4300D01*
X27358D01*
X27052Y-4455D01*
X26860Y-4662D01*
X26783Y-5075D01*
X26860Y-5488D01*
X27090Y-5747D01*
X27358Y-5902D01*
X28317D01*
G01X27358D02*
X26783Y-7400D01*
G01X24450D02*
Y-6005D01*
X25217Y-4300D01*
G01X23683D02*
X24450Y-6005D01*
G01X19055Y-6987D02*
X18748Y-7245D01*
X18403Y-7400D01*
X18097D01*
X17790Y-7245D01*
X17560Y-6987D01*
X17445Y-6625D01*
X17522Y-6263D01*
X17713Y-5953D01*
X18058Y-5747D01*
X18518Y-5643D01*
X18787Y-5437D01*
X18902Y-5075D01*
X18825Y-4713D01*
X18633Y-4455D01*
X18365Y-4300D01*
X18097D01*
X17828Y-4403D01*
X17598Y-4662D01*
G01X15610Y-4300D02*
X14690D01*
G01X15150D02*
Y-7400D01*
G01X15610D02*
X14690D01*
G01X12893D02*
Y-4300D01*
X12127D01*
X11820Y-4455D01*
X11590Y-4662D01*
X11398Y-4972D01*
X11245Y-5333D01*
X11207Y-5850D01*
X11245Y-6367D01*
X11398Y-6728D01*
X11590Y-7038D01*
X11820Y-7245D01*
X12127Y-7400D01*
X12893D01*
G01X8183D02*
X9717D01*
Y-4300D01*
X8183D01*
G01X8797Y-5798D02*
X9717D01*
G01X54700Y36500D02*
X55007Y36397D01*
X55237Y36138D01*
X55390Y35828D01*
X55505Y35415D01*
X55543Y34950D01*
X55505Y34485D01*
X55390Y34072D01*
X55237Y33762D01*
X55007Y33503D01*
X54700Y33400D01*
X54393Y33503D01*
X54163Y33762D01*
X54010Y34072D01*
X53895Y34485D01*
X53857Y34950D01*
X53895Y35415D01*
X54010Y35828D01*
X54163Y36138D01*
X54393Y36397D01*
X54700Y36500D01*
G01X51600Y33400D02*
X51332Y33452D01*
X51025Y33607D01*
X50833Y33865D01*
X50757Y34227D01*
X50833Y34588D01*
X51063Y34898D01*
X51408Y35053D01*
X51792D01*
X52022Y35157D01*
X52213Y35415D01*
X52290Y35777D01*
X52175Y36138D01*
X51907Y36397D01*
X51600Y36500D01*
X51293Y36397D01*
X51025Y36138D01*
X50910Y35777D01*
X50987Y35415D01*
X51178Y35157D01*
X51408Y35053D01*
X51792D01*
X52137Y34898D01*
X52367Y34588D01*
X52443Y34227D01*
X52367Y33865D01*
X52175Y33607D01*
X51868Y33452D01*
X51600Y33400D01*
G01X48998Y34433D02*
X48002D01*
G01X45400Y36500D02*
X45707Y36397D01*
X45937Y36138D01*
X46090Y35828D01*
X46205Y35415D01*
X46243Y34950D01*
X46205Y34485D01*
X46090Y34072D01*
X45937Y33762D01*
X45707Y33503D01*
X45400Y33400D01*
X45093Y33503D01*
X44863Y33762D01*
X44710Y34072D01*
X44595Y34485D01*
X44557Y34950D01*
X44595Y35415D01*
X44710Y35828D01*
X44863Y36138D01*
X45093Y36397D01*
X45400Y36500D01*
G01X43143Y33865D02*
X42913Y33607D01*
X42645Y33452D01*
X42300Y33400D01*
X41955Y33503D01*
X41687Y33710D01*
X41495Y34072D01*
X41457Y34485D01*
X41533Y34898D01*
X41725Y35157D01*
X41993Y35363D01*
X42262Y35415D01*
X42530Y35363D01*
X42875Y35157D01*
X42760Y36500D01*
X41725D01*
G01X39200Y33400D02*
Y36500D01*
X39660Y35880D01*
G01Y33400D02*
X38740D01*
G01X36100D02*
X35832Y33452D01*
X35525Y33607D01*
X35333Y33865D01*
X35257Y34227D01*
X35333Y34588D01*
X35563Y34898D01*
X35908Y35053D01*
X36292D01*
X36522Y35157D01*
X36713Y35415D01*
X36790Y35777D01*
X36675Y36138D01*
X36407Y36397D01*
X36100Y36500D01*
X35793Y36397D01*
X35525Y36138D01*
X35410Y35777D01*
X35487Y35415D01*
X35678Y35157D01*
X35908Y35053D01*
X36292D01*
X36637Y34898D01*
X36867Y34588D01*
X36943Y34227D01*
X36867Y33865D01*
X36675Y33607D01*
X36368Y33452D01*
X36100Y33400D01*
G01X33843Y34020D02*
X33613Y33658D01*
X33307Y33452D01*
X32962Y33400D01*
X32655Y33452D01*
X32348Y33710D01*
X32157Y34020D01*
X32118Y34330D01*
X32195Y34692D01*
X32463Y34950D01*
X32732Y35053D01*
X33077D01*
G01X32732D02*
X32502Y35208D01*
X32310Y35467D01*
X32233Y35777D01*
X32310Y36087D01*
X32502Y36345D01*
X32847Y36500D01*
X33192Y36448D01*
X33537Y36242D01*
G01X29977Y33400D02*
X29900Y34072D01*
X29785Y34640D01*
X29632Y35157D01*
X29440Y35725D01*
X29133Y36500D01*
X30667D01*
G01X24467Y33400D02*
Y36500D01*
X23508D01*
X23202Y36345D01*
X23010Y36138D01*
X22933Y35725D01*
X23010Y35312D01*
X23240Y35053D01*
X23508Y34898D01*
X24467D01*
G01X23508D02*
X22933Y33400D01*
G01X19833D02*
X21367D01*
Y36500D01*
X19833D01*
G01X20447Y35002D02*
X21367D01*
G01X18458Y36500D02*
X17500Y33400D01*
X16542Y36500D01*
G01X10993Y35053D02*
X10840Y35208D01*
X10725Y35467D01*
X10648Y35828D01*
X10725Y36138D01*
X10878Y36345D01*
X11147Y36500D01*
X12182D01*
Y33400D01*
X10917D01*
X10648Y33607D01*
X10495Y33917D01*
X10418Y34278D01*
X10495Y34640D01*
X10725Y34950D01*
X10993Y35053D01*
X12182D01*
G01X5828Y36500D02*
X4372D01*
X5828Y33400D01*
X4372D01*
G01X36961Y46000D02*
X51461Y64250D01*
G01Y46000D02*
X36961Y64250D01*
G01X47961Y48500D02*
X48211Y60250D01*
G01X41711Y48500D02*
X47961D01*
G01X40211Y60250D02*
X40461Y49500D01*
G01X49211Y60250D02*
X39211D01*
G01X45711Y62500D02*
X45211D01*
G01X45711Y61250D02*
Y62500D01*
G01X42711Y61250D02*
X45711D01*
G01X42711Y62500D02*
Y61250D01*
G01X45711Y62500D02*
X42711D01*
G01X48211Y60251D02*
G03X40211I-4000J-2528D01*
G01X40461Y58500D02*
Y58000D01*
G01X38961Y58500D02*
X40461D01*
G01X38961Y56500D02*
Y58500D01*
G01X40461Y56500D02*
X38961D01*
G01X40461Y58500D02*
Y56500D01*
M02*
