G04 ================== begin FILE IDENTIFICATION RECORD ==================*
G04 Layout Name:  C:/tmp/20_051837b/worklib/02_051837b_top/physical/08_051837b.brd*
G04 Film Name:    silk_prm*
G04 File Format:  Gerber RS274X*
G04 File Origin:  Cadence Allegro 17.2-S033*
G04 Origin Date:  Fri Mar 15 19:56:20 2019*
G04 *
G04 Layer:  PACKAGE GEOMETRY/SILKSCREEN_TOP*
G04 Layer:  BOARD GEOMETRY/TOOLING_CORNERS*
G04 Layer:  BOARD GEOMETRY/SILKSCREEN_TOP*
G04 Layer:  BOARD GEOMETRY/ROOT_NUMBER*
G04 Layer:  REF DES/SILKSCREEN_TOP*
G04 Layer:  MANUFACTURING/SILK_DETAIL_TOP*
G04 *
G04 Offset:    (0.00 0.00)*
G04 Mirror:    No*
G04 Mode:      Positive*
G04 Rotation:  0*
G04 FullContactRelief:  No*
G04 UndefLineWidth:     8.00*
G04 ================== end FILE IDENTIFICATION RECORD ====================*
%FSLAX25Y25*MOIN*%
%IR0*IPPOS*OFA0.00000B0.00000*MIA0B0*SFA1.00000B1.00000*%
%ADD10C,.05*%
%ADD11C,.008*%
%ADD12C,.006*%
G75*
%LPD*%
G75*
G36*
G01X40177Y16170D02*
G02I-1500J0D01*
G37*
G36*
G01X13173Y59637D02*
G03I-1500J0D01*
G37*
G54D10*
G01X-13500Y-6000D02*
Y-9500D01*
X-9500Y-13500D01*
X-6000D01*
G01X-13500Y-6000D02*
Y11500D01*
G01X-6000Y-13500D02*
X11500D01*
G01X-13500Y64000D02*
Y46500D01*
G01Y64000D02*
Y67500D01*
X-9500Y71500D01*
X-6000D01*
G01D02*
X11500D01*
G01X71500Y-6100D02*
Y-9500D01*
X67500Y-13500D01*
X64000D01*
G01D02*
X46500D01*
G01X64700Y71400D02*
X67600D01*
X71500Y67500D01*
Y64000D01*
G01X64000Y71500D02*
X46500D01*
G01X71500Y-6100D02*
Y11500D01*
G01Y64000D02*
Y46500D01*
G54D11*
G01X-52925Y121233D02*
X-51925Y120400D01*
X-50800Y119900D01*
X-49800D01*
X-48800Y120400D01*
X-48050Y121233D01*
X-47675Y122400D01*
X-47925Y123566D01*
X-48550Y124567D01*
X-49675Y125233D01*
X-51175Y125567D01*
X-52050Y126233D01*
X-52425Y127400D01*
X-52175Y128567D01*
X-51550Y129400D01*
X-50675Y129900D01*
X-49800D01*
X-48925Y129567D01*
X-48175Y128733D01*
G01X-41800Y129900D02*
X-38800D01*
G01X-40300D02*
Y119900D01*
G01X-41800D02*
X-38800D01*
G01X-32800Y129900D02*
Y119900D01*
X-27800D01*
G01X-23050D02*
Y129900D01*
G01X-18300D02*
X-23050Y123733D01*
G01X-17550Y119900D02*
X-20925Y126566D01*
G01X-12925Y121233D02*
X-11925Y120400D01*
X-10800Y119900D01*
X-9800D01*
X-8800Y120400D01*
X-8050Y121233D01*
X-7675Y122400D01*
X-7925Y123566D01*
X-8550Y124567D01*
X-9675Y125233D01*
X-11175Y125567D01*
X-12050Y126233D01*
X-12425Y127400D01*
X-12175Y128567D01*
X-11550Y129400D01*
X-10675Y129900D01*
X-9800D01*
X-8925Y129567D01*
X-8175Y128733D01*
G01X2450Y129067D02*
X1700Y129567D01*
X825Y129900D01*
X-175D01*
X-1300Y129400D01*
X-2175Y128567D01*
X-2800Y127567D01*
X-3300Y125900D01*
X-3425Y124400D01*
X-3175Y122900D01*
X-2800Y121900D01*
X-2050Y120900D01*
X-1175Y120233D01*
X-300Y119900D01*
X575D01*
X1450Y120233D01*
X2200Y120733D01*
X2825Y121400D01*
G01X7200Y119900D02*
Y129900D01*
X10325D01*
X11325Y129400D01*
X11950Y128733D01*
X12200Y127400D01*
X11950Y126067D01*
X11200Y125233D01*
X10325Y124733D01*
X7200D01*
G01X10325D02*
X12200Y119900D01*
G01X22200D02*
X17200D01*
Y129900D01*
X22200D01*
G01X20200Y125067D02*
X17200D01*
G01X32200Y119900D02*
X27200D01*
Y129900D01*
X32200D01*
G01X30200Y125067D02*
X27200D01*
G01X36825Y119900D02*
Y129900D01*
X42575Y119900D01*
Y129900D01*
G01X57200Y119900D02*
Y129900D01*
X60200D01*
X61200Y129400D01*
X61950Y128233D01*
X62200Y126900D01*
X61950Y125567D01*
X61325Y124567D01*
X60200Y124066D01*
X57200D01*
G01X67200Y119900D02*
Y129900D01*
X70325D01*
X71325Y129400D01*
X71950Y128733D01*
X72200Y127400D01*
X71950Y126067D01*
X71200Y125233D01*
X70325Y124733D01*
X67200D01*
G01X70325D02*
X72200Y119900D01*
G01X78200Y129900D02*
X81200D01*
G01X79700D02*
Y119900D01*
G01X78200D02*
X81200D01*
G01X86450D02*
Y129900D01*
X89700Y121567D01*
X92950Y129900D01*
Y119900D01*
G01X96575D02*
X99700Y129900D01*
X102825Y119900D01*
G01X101700Y123400D02*
X97700D01*
G01X107200Y119900D02*
Y129900D01*
X110325D01*
X111325Y129400D01*
X111950Y128733D01*
X112200Y127400D01*
X111950Y126067D01*
X111200Y125233D01*
X110325Y124733D01*
X107200D01*
G01X110325D02*
X112200Y119900D01*
G01X119700D02*
Y124400D01*
X117200Y129900D01*
G01X122200D02*
X119700Y124400D01*
G01X-20300Y109900D02*
X-21300Y109567D01*
X-22050Y108733D01*
X-22550Y107733D01*
X-22925Y106400D01*
X-23050Y104900D01*
X-22925Y103400D01*
X-22550Y102067D01*
X-22050Y101066D01*
X-21300Y100233D01*
X-20300Y99900D01*
X-19300Y100233D01*
X-18550Y101066D01*
X-18050Y102067D01*
X-17675Y103400D01*
X-17550Y104900D01*
X-17675Y106400D01*
X-18050Y107733D01*
X-18550Y108733D01*
X-19300Y109567D01*
X-20300Y109900D01*
G01X-10300Y99900D02*
X-9425Y100067D01*
X-8425Y100567D01*
X-7800Y101400D01*
X-7550Y102567D01*
X-7800Y103733D01*
X-8550Y104733D01*
X-9675Y105233D01*
X-10925D01*
X-11675Y105567D01*
X-12300Y106400D01*
X-12550Y107567D01*
X-12175Y108733D01*
X-11300Y109567D01*
X-10300Y109900D01*
X-9300Y109567D01*
X-8425Y108733D01*
X-8050Y107567D01*
X-8300Y106400D01*
X-8925Y105567D01*
X-9675Y105233D01*
X-10925D01*
X-12050Y104733D01*
X-12800Y103733D01*
X-13050Y102567D01*
X-12800Y101400D01*
X-12175Y100567D01*
X-11175Y100067D01*
X-10300Y99900D01*
G01X-1925Y103233D02*
X1325D01*
G01X68075D02*
X71325D01*
G01X79700Y109900D02*
X78700Y109567D01*
X77950Y108733D01*
X77450Y107733D01*
X77075Y106400D01*
X76950Y104900D01*
X77075Y103400D01*
X77450Y102067D01*
X77950Y101066D01*
X78700Y100233D01*
X79700Y99900D01*
X80700Y100233D01*
X81450Y101066D01*
X81950Y102067D01*
X82325Y103400D01*
X82450Y104900D01*
X82325Y106400D01*
X81950Y107733D01*
X81450Y108733D01*
X80700Y109567D01*
X79700Y109900D01*
G01X86950Y101900D02*
X87700Y100733D01*
X88700Y100067D01*
X89825Y99900D01*
X90825Y100067D01*
X91825Y100900D01*
X92450Y101900D01*
X92575Y102900D01*
X92325Y104066D01*
X91450Y104900D01*
X90575Y105233D01*
X89450D01*
G01X90575D02*
X91325Y105733D01*
X91950Y106566D01*
X92200Y107567D01*
X91950Y108567D01*
X91325Y109400D01*
X90200Y109900D01*
X89075Y109733D01*
X87950Y109067D01*
G01X9700Y110400D02*
X8700Y110067D01*
X7950Y109233D01*
X7450Y108233D01*
X7075Y106900D01*
X6950Y105400D01*
X7075Y103900D01*
X7450Y102567D01*
X7950Y101566D01*
X8700Y100733D01*
X9700Y100400D01*
X10700Y100733D01*
X11450Y101566D01*
X11950Y102567D01*
X12325Y103900D01*
X12450Y105400D01*
X12325Y106900D01*
X11950Y108233D01*
X11450Y109233D01*
X10700Y110067D01*
X9700Y110400D01*
G01X16950Y101900D02*
X17700Y101067D01*
X18575Y100567D01*
X19700Y100400D01*
X20825Y100733D01*
X21700Y101400D01*
X22325Y102567D01*
X22450Y103900D01*
X22200Y105233D01*
X21575Y106067D01*
X20700Y106733D01*
X19825Y106900D01*
X18950Y106733D01*
X17825Y106067D01*
X18200Y110400D01*
X21575D01*
G01X29700Y100400D02*
Y110400D01*
X28200Y108400D01*
G01Y100400D02*
X31200D01*
G01X39700D02*
X40575Y100567D01*
X41575Y101067D01*
X42200Y101900D01*
X42450Y103067D01*
X42200Y104233D01*
X41450Y105233D01*
X40325Y105733D01*
X39075D01*
X38325Y106067D01*
X37700Y106900D01*
X37450Y108067D01*
X37825Y109233D01*
X38700Y110067D01*
X39700Y110400D01*
X40700Y110067D01*
X41575Y109233D01*
X41950Y108067D01*
X41700Y106900D01*
X41075Y106067D01*
X40325Y105733D01*
X39075D01*
X37950Y105233D01*
X37200Y104233D01*
X36950Y103067D01*
X37200Y101900D01*
X37825Y101067D01*
X38825Y100567D01*
X39700Y100400D01*
G01X46950Y102400D02*
X47700Y101233D01*
X48700Y100567D01*
X49825Y100400D01*
X50825Y100567D01*
X51825Y101400D01*
X52450Y102400D01*
X52575Y103400D01*
X52325Y104566D01*
X51450Y105400D01*
X50575Y105733D01*
X49450D01*
G01X50575D02*
X51325Y106233D01*
X51950Y107066D01*
X52200Y108067D01*
X51950Y109067D01*
X51325Y109900D01*
X50200Y110400D01*
X49075Y110233D01*
X47950Y109567D01*
G01X59450Y100400D02*
X59700Y102567D01*
X60075Y104400D01*
X60575Y106067D01*
X61200Y107900D01*
X62200Y110400D01*
X57200D01*
G01X41900Y37600D02*
G03I-3500J0D01*
G01X43200Y55400D02*
G03I-3500J0D01*
G01X12200Y80400D02*
Y90400D01*
X15325D01*
X16325Y89900D01*
X16950Y89233D01*
X17200Y87900D01*
X16950Y86567D01*
X16200Y85733D01*
X15325Y85233D01*
X12200D01*
G01X15325D02*
X17200Y80400D01*
G01X27200D02*
X22200D01*
Y90400D01*
X27200D01*
G01X25200Y85567D02*
X22200D01*
G01X31575Y90400D02*
X34700Y80400D01*
X37825Y90400D01*
G01X55700Y85733D02*
X56200Y86233D01*
X56575Y87066D01*
X56825Y88233D01*
X56575Y89233D01*
X56075Y89900D01*
X55200Y90400D01*
X51825D01*
Y80400D01*
X55950D01*
X56825Y81067D01*
X57325Y82067D01*
X57575Y83233D01*
X57325Y84400D01*
X56575Y85400D01*
X55700Y85733D01*
X51825D01*
G01X49200Y37600D02*
G03I-3500J0D01*
G54D12*
G01X8430Y-6450D02*
X9197D01*
Y-7380D01*
X8967Y-7690D01*
X8698Y-7897D01*
X8315Y-8000D01*
X7932Y-7897D01*
X7663Y-7690D01*
X7433Y-7380D01*
X7280Y-7018D01*
X7203Y-6605D01*
Y-6243D01*
X7280Y-5933D01*
X7433Y-5572D01*
X7663Y-5262D01*
X7893Y-5055D01*
X8200Y-4900D01*
X8468D01*
X8775Y-5003D01*
X9005Y-5210D01*
G01X10418Y-8000D02*
Y-4900D01*
X12182Y-8000D01*
Y-4900D01*
G01X13557Y-8000D02*
Y-4900D01*
X14323D01*
X14630Y-5055D01*
X14860Y-5262D01*
X15052Y-5572D01*
X15205Y-5933D01*
X15243Y-6450D01*
X15205Y-6967D01*
X15052Y-7328D01*
X14860Y-7638D01*
X14630Y-7845D01*
X14323Y-8000D01*
X13557D01*
G01X5700Y17900D02*
X5200D01*
Y16400D01*
G01X3900Y13600D02*
Y9800D01*
X7000D01*
G01X8140Y15500D02*
X9060D01*
G01X8600D02*
Y12400D01*
G01X8140D02*
X9060D01*
G01X12543Y15242D02*
X12313Y15397D01*
X12045Y15500D01*
X11738D01*
X11393Y15345D01*
X11125Y15087D01*
X10933Y14777D01*
X10780Y14260D01*
X10742Y13795D01*
X10818Y13330D01*
X10933Y13020D01*
X11163Y12710D01*
X11432Y12503D01*
X11700Y12400D01*
X11968D01*
X12237Y12503D01*
X12467Y12658D01*
X12658Y12865D01*
G01X14800Y12400D02*
Y15500D01*
X14340Y14880D01*
G01Y12400D02*
X15260D01*
G01X-9042Y21393D02*
X-9197Y21163D01*
X-9300Y20895D01*
Y20588D01*
X-9145Y20243D01*
X-8887Y19975D01*
X-8577Y19783D01*
X-8060Y19630D01*
X-7595Y19592D01*
X-7130Y19668D01*
X-6820Y19783D01*
X-6510Y20013D01*
X-6303Y20282D01*
X-6200Y20550D01*
Y20818D01*
X-6303Y21087D01*
X-6458Y21317D01*
X-6665Y21508D01*
G01X-6200Y23650D02*
X-9300D01*
X-8680Y23190D01*
G01X-6200D02*
Y24110D01*
G01X-10467Y46100D02*
Y49200D01*
X-9547D01*
X-9240Y49045D01*
X-9010Y48683D01*
X-8933Y48270D01*
X-9010Y47857D01*
X-9202Y47547D01*
X-9547Y47392D01*
X-10467D01*
G01X-7367Y46100D02*
Y49200D01*
X-6408D01*
X-6102Y49045D01*
X-5910Y48838D01*
X-5833Y48425D01*
X-5910Y48012D01*
X-6140Y47753D01*
X-6408Y47598D01*
X-7367D01*
G01X-6408D02*
X-5833Y46100D01*
G01X-3960Y49200D02*
X-3040D01*
G01X-3500D02*
Y46100D01*
G01X-3960D02*
X-3040D01*
G01X-1397D02*
Y49200D01*
X-400Y46617D01*
X597Y49200D01*
Y46100D01*
G01X1742D02*
X2700Y49200D01*
X3658Y46100D01*
G01X3313Y47185D02*
X2087D01*
G01X5033Y46100D02*
Y49200D01*
X5992D01*
X6298Y49045D01*
X6490Y48838D01*
X6567Y48425D01*
X6490Y48012D01*
X6260Y47753D01*
X5992Y47598D01*
X5033D01*
G01X5992D02*
X6567Y46100D01*
G01X8900D02*
Y47495D01*
X8133Y49200D01*
G01X9667D02*
X8900Y47495D01*
G01X-4855Y42213D02*
X-4548Y41955D01*
X-4203Y41800D01*
X-3897D01*
X-3590Y41955D01*
X-3360Y42213D01*
X-3245Y42575D01*
X-3322Y42937D01*
X-3513Y43247D01*
X-3858Y43453D01*
X-4318Y43557D01*
X-4587Y43763D01*
X-4702Y44125D01*
X-4625Y44487D01*
X-4433Y44745D01*
X-4165Y44900D01*
X-3897D01*
X-3628Y44797D01*
X-3398Y44538D01*
G01X-1410Y44900D02*
X-490D01*
G01X-950D02*
Y41800D01*
G01X-1410D02*
X-490D01*
G01X1307D02*
Y44900D01*
X2073D01*
X2380Y44745D01*
X2610Y44538D01*
X2802Y44228D01*
X2955Y43867D01*
X2993Y43350D01*
X2955Y42833D01*
X2802Y42472D01*
X2610Y42162D01*
X2380Y41955D01*
X2073Y41800D01*
X1307D01*
G01X6017D02*
X4483D01*
Y44900D01*
X6017D01*
G01X5403Y43402D02*
X4483D01*
G01X-9700Y40400D02*
X-9967Y40307D01*
X-10167Y40073D01*
X-10300Y39793D01*
X-10400Y39420D01*
X-10433Y39000D01*
X-10400Y38580D01*
X-10300Y38207D01*
X-10167Y37927D01*
X-9967Y37693D01*
X-9700Y37600D01*
X-9433Y37693D01*
X-9233Y37927D01*
X-9100Y38207D01*
X-9000Y38580D01*
X-8967Y39000D01*
X-9000Y39420D01*
X-9100Y39793D01*
X-9233Y40073D01*
X-9433Y40307D01*
X-9700Y40400D01*
G01X-7100Y37600D02*
X-6867Y37647D01*
X-6600Y37787D01*
X-6433Y38020D01*
X-6367Y38347D01*
X-6433Y38673D01*
X-6633Y38953D01*
X-6933Y39093D01*
X-7267D01*
X-7467Y39187D01*
X-7633Y39420D01*
X-7700Y39747D01*
X-7600Y40073D01*
X-7367Y40307D01*
X-7100Y40400D01*
X-6833Y40307D01*
X-6600Y40073D01*
X-6500Y39747D01*
X-6567Y39420D01*
X-6733Y39187D01*
X-6933Y39093D01*
X-7267D01*
X-7567Y38953D01*
X-7767Y38673D01*
X-7833Y38347D01*
X-7767Y38020D01*
X-7600Y37787D01*
X-7333Y37647D01*
X-7100Y37600D01*
G01X-4933Y38533D02*
X-4067D01*
G01X-1900Y40400D02*
X-2167Y40307D01*
X-2367Y40073D01*
X-2500Y39793D01*
X-2600Y39420D01*
X-2633Y39000D01*
X-2600Y38580D01*
X-2500Y38207D01*
X-2367Y37927D01*
X-2167Y37693D01*
X-1900Y37600D01*
X-1633Y37693D01*
X-1433Y37927D01*
X-1300Y38207D01*
X-1200Y38580D01*
X-1167Y39000D01*
X-1200Y39420D01*
X-1300Y39793D01*
X-1433Y40073D01*
X-1633Y40307D01*
X-1900Y40400D01*
G01X-33Y38020D02*
X167Y37787D01*
X400Y37647D01*
X700Y37600D01*
X1000Y37693D01*
X1233Y37880D01*
X1400Y38207D01*
X1433Y38580D01*
X1367Y38953D01*
X1200Y39187D01*
X967Y39373D01*
X733Y39420D01*
X500Y39373D01*
X200Y39187D01*
X300Y40400D01*
X1200D01*
G01X3300Y37600D02*
Y40400D01*
X2900Y39840D01*
G01Y37600D02*
X3700D01*
G01X5900D02*
X6133Y37647D01*
X6400Y37787D01*
X6567Y38020D01*
X6633Y38347D01*
X6567Y38673D01*
X6367Y38953D01*
X6067Y39093D01*
X5733D01*
X5533Y39187D01*
X5367Y39420D01*
X5300Y39747D01*
X5400Y40073D01*
X5633Y40307D01*
X5900Y40400D01*
X6167Y40307D01*
X6400Y40073D01*
X6500Y39747D01*
X6433Y39420D01*
X6267Y39187D01*
X6067Y39093D01*
X5733D01*
X5433Y38953D01*
X5233Y38673D01*
X5167Y38347D01*
X5233Y38020D01*
X5400Y37787D01*
X5667Y37647D01*
X5900Y37600D01*
G01X7767Y38160D02*
X7967Y37833D01*
X8233Y37647D01*
X8533Y37600D01*
X8800Y37647D01*
X9067Y37880D01*
X9233Y38160D01*
X9267Y38440D01*
X9200Y38767D01*
X8967Y39000D01*
X8733Y39093D01*
X8433D01*
G01X8733D02*
X8933Y39233D01*
X9100Y39467D01*
X9167Y39747D01*
X9100Y40027D01*
X8933Y40260D01*
X8633Y40400D01*
X8333Y40353D01*
X8033Y40167D01*
G01X11033Y37600D02*
X11100Y38207D01*
X11200Y38720D01*
X11333Y39187D01*
X11500Y39700D01*
X11767Y40400D01*
X10433D01*
G01X-10467Y33200D02*
Y36300D01*
X-9508D01*
X-9202Y36145D01*
X-9010Y35938D01*
X-8933Y35525D01*
X-9010Y35112D01*
X-9240Y34853D01*
X-9508Y34698D01*
X-10467D01*
G01X-9508D02*
X-8933Y33200D01*
G01X-5833D02*
X-7367D01*
Y36300D01*
X-5833D01*
G01X-6447Y34802D02*
X-7367D01*
G01X-4458Y36300D02*
X-3500Y33200D01*
X-2542Y36300D01*
G01X3007Y34853D02*
X3160Y35008D01*
X3275Y35267D01*
X3352Y35628D01*
X3275Y35938D01*
X3122Y36145D01*
X2853Y36300D01*
X1818D01*
Y33200D01*
X3083D01*
X3352Y33407D01*
X3505Y33717D01*
X3582Y34078D01*
X3505Y34440D01*
X3275Y34750D01*
X3007Y34853D01*
X1818D01*
G01X8172Y36300D02*
X9628D01*
X8172Y33200D01*
X9628D01*
G01X3100Y26800D02*
Y27400D01*
G01X-917Y28200D02*
Y31300D01*
X42D01*
X348Y31145D01*
X540Y30938D01*
X617Y30525D01*
X540Y30112D01*
X310Y29853D01*
X42Y29698D01*
X-917D01*
G01X42D02*
X617Y28200D01*
G01X2222Y30783D02*
X2452Y31093D01*
X2720Y31248D01*
X3027Y31300D01*
X3410Y31197D01*
X3678Y30938D01*
X3755Y30628D01*
X3717Y30318D01*
X3563Y30060D01*
X2797Y29543D01*
X2452Y29182D01*
X2222Y28665D01*
X2145Y28200D01*
X3755D01*
G01X33242Y-8000D02*
X34200Y-4900D01*
X35158Y-8000D01*
G01X34813Y-6915D02*
X33587D01*
G01X38143Y-5158D02*
X37913Y-5003D01*
X37645Y-4900D01*
X37338D01*
X36993Y-5055D01*
X36725Y-5313D01*
X36533Y-5623D01*
X36380Y-6140D01*
X36342Y-6605D01*
X36418Y-7070D01*
X36533Y-7380D01*
X36763Y-7690D01*
X37032Y-7897D01*
X37300Y-8000D01*
X37568D01*
X37837Y-7897D01*
X38067Y-7742D01*
X38258Y-7535D01*
G01X41243Y-5158D02*
X41013Y-5003D01*
X40745Y-4900D01*
X40438D01*
X40093Y-5055D01*
X39825Y-5313D01*
X39633Y-5623D01*
X39480Y-6140D01*
X39442Y-6605D01*
X39518Y-7070D01*
X39633Y-7380D01*
X39863Y-7690D01*
X40132Y-7897D01*
X40400Y-8000D01*
X40668D01*
X40937Y-7897D01*
X41167Y-7742D01*
X41358Y-7535D01*
G01X15140Y19500D02*
X16060D01*
G01X15600D02*
Y16400D01*
G01X15140D02*
X16060D01*
G01X19543Y19242D02*
X19313Y19397D01*
X19045Y19500D01*
X18738D01*
X18393Y19345D01*
X18125Y19087D01*
X17933Y18777D01*
X17780Y18260D01*
X17742Y17795D01*
X17818Y17330D01*
X17933Y17020D01*
X18163Y16710D01*
X18432Y16503D01*
X18700Y16400D01*
X18968D01*
X19237Y16503D01*
X19467Y16658D01*
X19658Y16865D01*
G01X20957Y17020D02*
X21187Y16658D01*
X21493Y16452D01*
X21838Y16400D01*
X22145Y16452D01*
X22452Y16710D01*
X22643Y17020D01*
X22682Y17330D01*
X22605Y17692D01*
X22337Y17950D01*
X22068Y18053D01*
X21723D01*
G01X22068D02*
X22298Y18208D01*
X22490Y18467D01*
X22567Y18777D01*
X22490Y19087D01*
X22298Y19345D01*
X21953Y19500D01*
X21608Y19448D01*
X21263Y19242D01*
G01X11383Y7700D02*
Y10800D01*
X12342D01*
X12648Y10645D01*
X12840Y10438D01*
X12917Y10025D01*
X12840Y9612D01*
X12610Y9353D01*
X12342Y9198D01*
X11383D01*
G01X12342D02*
X12917Y7700D01*
G01X15250D02*
Y10800D01*
X14790Y10180D01*
G01Y7700D02*
X15710D01*
G01X18993Y26242D02*
X18763Y26397D01*
X18495Y26500D01*
X18188D01*
X17843Y26345D01*
X17575Y26087D01*
X17383Y25777D01*
X17230Y25260D01*
X17192Y24795D01*
X17268Y24330D01*
X17383Y24020D01*
X17613Y23710D01*
X17882Y23503D01*
X18150Y23400D01*
X18418D01*
X18687Y23503D01*
X18917Y23658D01*
X19108Y23865D01*
G01X20522Y25983D02*
X20752Y26293D01*
X21020Y26448D01*
X21327Y26500D01*
X21710Y26397D01*
X21978Y26138D01*
X22055Y25828D01*
X22017Y25518D01*
X21863Y25260D01*
X21097Y24743D01*
X20752Y24382D01*
X20522Y23865D01*
X20445Y23400D01*
X22055D01*
G01X22358Y9193D02*
X22203Y8963D01*
X22100Y8695D01*
Y8388D01*
X22255Y8043D01*
X22513Y7775D01*
X22823Y7583D01*
X23340Y7430D01*
X23805Y7392D01*
X24270Y7468D01*
X24580Y7583D01*
X24890Y7813D01*
X25097Y8082D01*
X25200Y8350D01*
Y8618D01*
X25097Y8887D01*
X24942Y9117D01*
X24735Y9308D01*
G01X23908Y10722D02*
X23547Y10990D01*
X23340Y11220D01*
X23237Y11527D01*
X23340Y11795D01*
X23547Y11987D01*
X23857Y12140D01*
X24218Y12178D01*
X24528Y12140D01*
X24838Y11987D01*
X25097Y11757D01*
X25200Y11488D01*
X25097Y11182D01*
X24787Y10913D01*
X24322Y10760D01*
X23805Y10722D01*
X23133Y10798D01*
X22772Y10913D01*
X22410Y11105D01*
X22152Y11373D01*
X22100Y11642D01*
X22203Y11910D01*
X22462Y12102D01*
G01X33258Y1093D02*
X33103Y863D01*
X33000Y595D01*
Y288D01*
X33155Y-57D01*
X33413Y-325D01*
X33723Y-517D01*
X34240Y-670D01*
X34705Y-708D01*
X35170Y-632D01*
X35480Y-517D01*
X35790Y-287D01*
X35997Y-18D01*
X36100Y250D01*
Y518D01*
X35997Y787D01*
X35842Y1017D01*
X35635Y1208D01*
G01X36100Y3273D02*
X35428Y3350D01*
X34860Y3465D01*
X34343Y3618D01*
X33775Y3810D01*
X33000Y4117D01*
Y2583D01*
G01X21200Y28900D02*
Y27400D01*
G01X36800Y51200D02*
X35500D01*
Y42100D01*
X36300D01*
G01X25183Y29500D02*
Y32600D01*
X26142D01*
X26448Y32445D01*
X26640Y32238D01*
X26717Y31825D01*
X26640Y31412D01*
X26410Y31153D01*
X26142Y30998D01*
X25183D01*
G01X26142D02*
X26717Y29500D01*
G01X28973D02*
X29050Y30172D01*
X29165Y30740D01*
X29318Y31257D01*
X29510Y31825D01*
X29817Y32600D01*
X28283D01*
G01X13093Y30442D02*
X12863Y30597D01*
X12595Y30700D01*
X12288D01*
X11943Y30545D01*
X11675Y30287D01*
X11483Y29977D01*
X11330Y29460D01*
X11292Y28995D01*
X11368Y28530D01*
X11483Y28220D01*
X11713Y27910D01*
X11982Y27703D01*
X12250Y27600D01*
X12518D01*
X12787Y27703D01*
X13017Y27858D01*
X13208Y28065D01*
G01X14507Y28220D02*
X14737Y27858D01*
X15043Y27652D01*
X15388Y27600D01*
X15695Y27652D01*
X16002Y27910D01*
X16193Y28220D01*
X16232Y28530D01*
X16155Y28892D01*
X15887Y29150D01*
X15618Y29253D01*
X15273D01*
G01X15618D02*
X15848Y29408D01*
X16040Y29667D01*
X16117Y29977D01*
X16040Y30287D01*
X15848Y30545D01*
X15503Y30700D01*
X15158Y30648D01*
X14813Y30442D01*
G01X34345Y30913D02*
X34652Y30655D01*
X34997Y30500D01*
X35303D01*
X35610Y30655D01*
X35840Y30913D01*
X35955Y31275D01*
X35878Y31637D01*
X35687Y31947D01*
X35342Y32153D01*
X34882Y32257D01*
X34613Y32463D01*
X34498Y32825D01*
X34575Y33187D01*
X34767Y33445D01*
X35035Y33600D01*
X35303D01*
X35572Y33497D01*
X35802Y33238D01*
G01X38250Y33600D02*
Y30500D01*
G01X37368Y33600D02*
X39132D01*
G01X11640Y65000D02*
X12560D01*
G01X12100D02*
Y61900D01*
G01X11640D02*
X12560D01*
G01X16043Y64742D02*
X15813Y64897D01*
X15545Y65000D01*
X15238D01*
X14893Y64845D01*
X14625Y64587D01*
X14433Y64277D01*
X14280Y63760D01*
X14242Y63295D01*
X14318Y62830D01*
X14433Y62520D01*
X14663Y62210D01*
X14932Y62003D01*
X15200Y61900D01*
X15468D01*
X15737Y62003D01*
X15967Y62158D01*
X16158Y62365D01*
G01X17572Y64483D02*
X17802Y64793D01*
X18070Y64948D01*
X18377Y65000D01*
X18760Y64897D01*
X19028Y64638D01*
X19105Y64328D01*
X19067Y64018D01*
X18913Y63760D01*
X18147Y63243D01*
X17802Y62882D01*
X17572Y62365D01*
X17495Y61900D01*
X19105D01*
G01X27883Y60900D02*
Y64000D01*
X28842D01*
X29148Y63845D01*
X29340Y63638D01*
X29417Y63225D01*
X29340Y62812D01*
X29110Y62553D01*
X28842Y62398D01*
X27883D01*
G01X28842D02*
X29417Y60900D01*
G01X31022Y62192D02*
X31290Y62553D01*
X31520Y62760D01*
X31827Y62863D01*
X32095Y62760D01*
X32287Y62553D01*
X32440Y62243D01*
X32478Y61882D01*
X32440Y61572D01*
X32287Y61262D01*
X32057Y61003D01*
X31788Y60900D01*
X31482Y61003D01*
X31213Y61313D01*
X31060Y61778D01*
X31022Y62295D01*
X31098Y62967D01*
X31213Y63328D01*
X31405Y63690D01*
X31673Y63948D01*
X31942Y64000D01*
X32210Y63897D01*
X32402Y63638D01*
G01X35993Y67742D02*
X35763Y67897D01*
X35495Y68000D01*
X35188D01*
X34843Y67845D01*
X34575Y67587D01*
X34383Y67277D01*
X34230Y66760D01*
X34192Y66295D01*
X34268Y65830D01*
X34383Y65520D01*
X34613Y65210D01*
X34882Y65003D01*
X35150Y64900D01*
X35418D01*
X35687Y65003D01*
X35917Y65158D01*
X36108Y65365D01*
G01X38710Y64900D02*
Y68000D01*
X37292Y65778D01*
X39208D01*
G01X57640Y14500D02*
X58560D01*
G01X58100D02*
Y11400D01*
G01X57640D02*
X58560D01*
G01X62043Y14242D02*
X61813Y14397D01*
X61545Y14500D01*
X61238D01*
X60893Y14345D01*
X60625Y14087D01*
X60433Y13777D01*
X60280Y13260D01*
X60242Y12795D01*
X60318Y12330D01*
X60433Y12020D01*
X60663Y11710D01*
X60932Y11503D01*
X61200Y11400D01*
X61468D01*
X61737Y11503D01*
X61967Y11658D01*
X62158Y11865D01*
G01X64760Y11400D02*
Y14500D01*
X63342Y12278D01*
X65258D01*
G01X43900Y15433D02*
X40800D01*
Y16392D01*
X40955Y16698D01*
X41162Y16890D01*
X41575Y16967D01*
X41988Y16890D01*
X42247Y16660D01*
X42402Y16392D01*
Y15433D01*
G01Y16392D02*
X43900Y16967D01*
G01Y19300D02*
X40800D01*
X41420Y18840D01*
G01X43900D02*
Y19760D01*
G01Y22400D02*
X40800D01*
X41420Y21940D01*
G01X43900D02*
Y22860D01*
G01X60383Y23400D02*
Y26500D01*
X61342D01*
X61648Y26345D01*
X61840Y26138D01*
X61917Y25725D01*
X61840Y25312D01*
X61610Y25053D01*
X61342Y24898D01*
X60383D01*
G01X61342D02*
X61917Y23400D01*
G01X63598Y23762D02*
X63867Y23503D01*
X64173Y23400D01*
X64480Y23503D01*
X64748Y23813D01*
X64940Y24278D01*
X65017Y24743D01*
Y25312D01*
X64940Y25777D01*
X64748Y26190D01*
X64518Y26397D01*
X64250Y26500D01*
X63943Y26397D01*
X63713Y26190D01*
X63560Y25880D01*
X63483Y25467D01*
X63560Y25105D01*
X63752Y24743D01*
X63982Y24537D01*
X64250Y24485D01*
X64557Y24588D01*
X64787Y24847D01*
X65017Y25312D01*
G01X42000Y6883D02*
X38900D01*
Y7842D01*
X39055Y8148D01*
X39262Y8340D01*
X39675Y8417D01*
X40088Y8340D01*
X40347Y8110D01*
X40502Y7842D01*
Y6883D01*
G01Y7842D02*
X42000Y8417D01*
G01X41380Y9907D02*
X41742Y10137D01*
X41948Y10443D01*
X42000Y10788D01*
X41948Y11095D01*
X41690Y11402D01*
X41380Y11593D01*
X41070Y11632D01*
X40708Y11555D01*
X40450Y11287D01*
X40347Y11018D01*
Y10673D01*
G01Y11018D02*
X40192Y11248D01*
X39933Y11440D01*
X39623Y11517D01*
X39313Y11440D01*
X39055Y11248D01*
X38900Y10903D01*
X38952Y10558D01*
X39158Y10213D01*
G01X47993Y8942D02*
X47763Y9097D01*
X47495Y9200D01*
X47188D01*
X46843Y9045D01*
X46575Y8787D01*
X46383Y8477D01*
X46230Y7960D01*
X46192Y7495D01*
X46268Y7030D01*
X46383Y6720D01*
X46613Y6410D01*
X46882Y6203D01*
X47150Y6100D01*
X47418D01*
X47687Y6203D01*
X47917Y6358D01*
X48108Y6565D01*
G01X50250Y6100D02*
X50518Y6152D01*
X50825Y6307D01*
X51017Y6565D01*
X51093Y6927D01*
X51017Y7288D01*
X50787Y7598D01*
X50442Y7753D01*
X50058D01*
X49828Y7857D01*
X49637Y8115D01*
X49560Y8477D01*
X49675Y8838D01*
X49943Y9097D01*
X50250Y9200D01*
X50557Y9097D01*
X50825Y8838D01*
X50940Y8477D01*
X50863Y8115D01*
X50672Y7857D01*
X50442Y7753D01*
X50058D01*
X49713Y7598D01*
X49483Y7288D01*
X49407Y6927D01*
X49483Y6565D01*
X49675Y6307D01*
X49982Y6152D01*
X50250Y6100D01*
G01X57700Y28400D02*
Y27400D01*
G01X42800Y51300D02*
X49600D01*
Y42500D01*
X46000D01*
G01X53600Y49600D02*
X52300D01*
Y37100D01*
X65600D01*
Y49600D01*
X53600D01*
G01X52200Y45600D02*
X49600D01*
G01X56100Y40983D02*
X53000D01*
Y41942D01*
X53155Y42248D01*
X53362Y42440D01*
X53775Y42517D01*
X54188Y42440D01*
X54447Y42210D01*
X54602Y41942D01*
Y40983D01*
G01Y41942D02*
X56100Y42517D01*
G01Y45310D02*
X53000D01*
X55222Y43892D01*
Y45808D01*
G01X60600Y40983D02*
X57500D01*
Y41942D01*
X57655Y42248D01*
X57862Y42440D01*
X58275Y42517D01*
X58688Y42440D01*
X58947Y42210D01*
X59102Y41942D01*
Y40983D01*
G01Y41942D02*
X60600Y42517D01*
G01X60135Y44007D02*
X60393Y44237D01*
X60548Y44505D01*
X60600Y44850D01*
X60497Y45195D01*
X60290Y45463D01*
X59928Y45655D01*
X59515Y45693D01*
X59102Y45617D01*
X58843Y45425D01*
X58637Y45157D01*
X58585Y44888D01*
X58637Y44620D01*
X58843Y44275D01*
X57500Y44390D01*
Y45425D01*
G01X42383Y25900D02*
Y29000D01*
X43342D01*
X43648Y28845D01*
X43840Y28638D01*
X43917Y28225D01*
X43840Y27812D01*
X43610Y27553D01*
X43342Y27398D01*
X42383D01*
G01X43342D02*
X43917Y25900D01*
G01X46250D02*
X46518Y25952D01*
X46825Y26107D01*
X47017Y26365D01*
X47093Y26727D01*
X47017Y27088D01*
X46787Y27398D01*
X46442Y27553D01*
X46058D01*
X45828Y27657D01*
X45637Y27915D01*
X45560Y28277D01*
X45675Y28638D01*
X45943Y28897D01*
X46250Y29000D01*
X46557Y28897D01*
X46825Y28638D01*
X46940Y28277D01*
X46863Y27915D01*
X46672Y27657D01*
X46442Y27553D01*
X46058D01*
X45713Y27398D01*
X45483Y27088D01*
X45407Y26727D01*
X45483Y26365D01*
X45675Y26107D01*
X45982Y25952D01*
X46250Y25900D01*
G01X58833Y32900D02*
Y36000D01*
X59792D01*
X60098Y35845D01*
X60290Y35638D01*
X60367Y35225D01*
X60290Y34812D01*
X60060Y34553D01*
X59792Y34398D01*
X58833D01*
G01X59792D02*
X60367Y32900D01*
G01X62700D02*
Y36000D01*
X62240Y35380D01*
G01Y32900D02*
X63160D01*
G01X65800Y36000D02*
X65493Y35897D01*
X65263Y35638D01*
X65110Y35328D01*
X64995Y34915D01*
X64957Y34450D01*
X64995Y33985D01*
X65110Y33572D01*
X65263Y33262D01*
X65493Y33003D01*
X65800Y32900D01*
X66107Y33003D01*
X66337Y33262D01*
X66490Y33572D01*
X66605Y33985D01*
X66643Y34450D01*
X66605Y34915D01*
X66490Y35328D01*
X66337Y35638D01*
X66107Y35897D01*
X65800Y36000D01*
G01X61758Y42593D02*
X61603Y42363D01*
X61500Y42095D01*
Y41788D01*
X61655Y41443D01*
X61913Y41175D01*
X62223Y40983D01*
X62740Y40830D01*
X63205Y40792D01*
X63670Y40868D01*
X63980Y40983D01*
X64290Y41213D01*
X64497Y41482D01*
X64600Y41750D01*
Y42018D01*
X64497Y42287D01*
X64342Y42517D01*
X64135Y42708D01*
G01Y44007D02*
X64393Y44237D01*
X64548Y44505D01*
X64600Y44850D01*
X64497Y45195D01*
X64290Y45463D01*
X63928Y45655D01*
X63515Y45693D01*
X63102Y45617D01*
X62843Y45425D01*
X62637Y45157D01*
X62585Y44888D01*
X62637Y44620D01*
X62843Y44275D01*
X61500Y44390D01*
Y45425D01*
G01X42495Y30813D02*
X42802Y30555D01*
X43147Y30400D01*
X43453D01*
X43760Y30555D01*
X43990Y30813D01*
X44105Y31175D01*
X44028Y31537D01*
X43837Y31847D01*
X43492Y32053D01*
X43032Y32157D01*
X42763Y32363D01*
X42648Y32725D01*
X42725Y33087D01*
X42917Y33345D01*
X43185Y33500D01*
X43453D01*
X43722Y33397D01*
X43952Y33138D01*
G01X46400Y33500D02*
Y30400D01*
G01X45518Y33500D02*
X47282D01*
G01X49807Y32053D02*
X49960Y32208D01*
X50075Y32467D01*
X50152Y32828D01*
X50075Y33138D01*
X49922Y33345D01*
X49653Y33500D01*
X48618D01*
Y30400D01*
X49883D01*
X50152Y30607D01*
X50305Y30917D01*
X50382Y31278D01*
X50305Y31640D01*
X50075Y31950D01*
X49807Y32053D01*
X48618D01*
G01X44750Y54500D02*
X44443Y54552D01*
X44175Y54758D01*
X43945Y55068D01*
X43792Y55430D01*
X43715Y55843D01*
Y56257D01*
X43792Y56670D01*
X43945Y57032D01*
X44175Y57342D01*
X44443Y57548D01*
X44750Y57600D01*
X45057Y57548D01*
X45325Y57342D01*
X45555Y57032D01*
X45708Y56670D01*
X45785Y56257D01*
Y55843D01*
X45708Y55430D01*
X45555Y55068D01*
X45325Y54758D01*
X45057Y54552D01*
X44750Y54500D01*
G01X47083D02*
Y57600D01*
X48042D01*
X48348Y57445D01*
X48540Y57238D01*
X48617Y56825D01*
X48540Y56412D01*
X48310Y56153D01*
X48042Y55998D01*
X47083D01*
G01X48042D02*
X48617Y54500D01*
G01X42800Y67700D02*
X44300D01*
Y66600D01*
M02*
