G04 ================== begin FILE IDENTIFICATION RECORD ==================*
G04 Layout Name:  C:/tmp/20_059358b/worklib/02_059358b_top/physical/08-059358b.brd*
G04 Film Name:    L2_GND*
G04 File Format:  Gerber RS274X*
G04 File Origin:  Cadence Allegro 17.2-S053*
G04 Origin Date:  Mon Nov 09 16:28:34 2020*
G04 *
G04 Layer:  BOARD GEOMETRY/DESIGN_OUTLINE*
G04 Layer:  BOARD GEOMETRY/TOOLING_CORNERS*
G04 Layer:  VIA CLASS/LAYER2*
G04 Layer:  PIN/LAYER2*
G04 Layer:  ETCH/LAYER2*
G04 Layer:  BOARD GEOMETRY/LAYER2*
G04 Layer:  BOARD GEOMETRY/ROOT_NUMBER*
G04 *
G04 Offset:    (0.0991 0.0000)*
G04 Mirror:    No*
G04 Mode:      Positive*
G04 Rotation:  0*
G04 FullContactRelief:  No*
G04 UndefLineWidth:     0.2007*
G04 ================== end FILE IDENTIFICATION RECORD ====================*
%FSLAX25Y25*MOMM*%
%IR0*IPPOS*OFA0.09910B0.00000*MIA0B0*SFA1.00000B1.00000*%
%ADD13C,.5105*%
%ADD11C,.7595*%
%AMMACRO10*
4,1,36,0.0,-.508,
.088213,-.500282,
.173746,-.477364,
.254,-.439941,
.326536,-.389151,
.389151,-.326536,
.439941,-.254,
.477364,-.173746,
.500282,-.088213,
.508,0.0,
.500282,.088213,
.477364,.173746,
.439941,.254,
.389151,.326536,
.326536,.389151,
.254,.439941,
.173746,.477364,
.088213,.500282,
0.0,.508,
-.088213,.500282,
-.173746,.477364,
-.254,.439941,
-.326536,.389151,
-.389151,.326536,
-.439941,.254,
-.477364,.173746,
-.500282,.088213,
-.508,0.0,
-.500282,-.088213,
-.477364,-.173746,
-.439941,-.254,
-.389151,-.326536,
-.326536,-.389151,
-.254,-.439941,
-.173746,-.477364,
-.088213,-.500282,
0.0,-.508,
0.0*
%
%ADD10MACRO10*%
%ADD12C,1.651*%
%ADD17C,2.159*%
%ADD15C,2.0295*%
%ADD16C,1.7805*%
%ADD14C,1.5189*%
%ADD18C,.5*%
%ADD19C,1.*%
%ADD20C,.2007*%
%ADD21O,1.011X1.0115*%
%ADD22C,1.011*%
%ADD31C,1.26*%
%ADD23C,2.53*%
%ADD26C,2.0172*%
%ADD28C,2.281*%
%ADD24C,2.1514*%
%ADD25C,2.0194*%
%ADD29C,2.1492*%
%ADD30C,2.6572*%
%ADD27C,2.5278*%
G75*
%LPD*%
G75*
G36*
G01X-5300000Y200000D02*
X2300000D01*
Y-300000D01*
X2400000Y-400000D01*
X2900000D01*
Y-1462270D01*
G02X2882480Y-1468620I-9910J-2D01*
G03X2800000Y-1430040I-82480J-68877D01*
G03Y-1644960I0J-107460D01*
G03X2882480Y-1606380I0J107457D01*
G02X2900000Y-1612730I7610J-6348D01*
G01Y-1716100D01*
G02X2882490Y-1722460I-9910J0D01*
G03X2800000Y-1683930I-82490J-69038D01*
G03Y-1899070I0J-107570D01*
G03X2882490Y-1860540I0J107568D01*
G02X2900000Y-1866900I7600J-6360D01*
G01Y-4700000D01*
X2000000D01*
Y-5400000D01*
X-5400000D01*
Y-4700000D01*
X-5900000D01*
Y-1022990D01*
G02X-5882070Y-1017170I9909J1D01*
G03X-5795000Y-1061570I87070J63174D01*
G03Y-846430I0J107570D01*
G03X-5882070Y-890830I0J-107574D01*
G02X-5900000Y-885010I-8021J5819D01*
G01Y-768990D01*
G02X-5882070Y-763170I9909J1D01*
G03X-5795000Y-807570I87070J63174D01*
G03Y-592430I0J107570D01*
G03X-5882070Y-636830I0J-107574D01*
G02X-5900000Y-631010I-8021J5819D01*
G01Y-500000D01*
X-5500000D01*
X-5300000Y-300000D01*
Y200000D01*
G37*
%LPC*%
G75*
G36*
G01X-5459070Y-4434510D02*
G03X-5457370Y-4419220I-5362J8336D01*
G02X-5475500Y-4375000I44862J44220D01*
G02X-5412500Y-4312000I63000J0D01*
G02X-5368750Y-4329670I0J-62996D01*
G02X-5325000Y-4312000I43750J-45326D01*
G02X-5262000Y-4375000I0J-63000D01*
G02X-5284920Y-4423600I-62986J0D01*
G03Y-4438900I6307J-7650D01*
G02X-5262000Y-4487500I-40066J-48600D01*
G02X-5325000Y-4550500I-63000J0D01*
G02X-5368200Y-4533350I5J62998D01*
G03X-5381800I-6800J-7214D01*
G02X-5425000Y-4550500I-43205J45848D01*
G02X-5488000Y-4487500I0J63000D01*
G02X-5459070Y-4434510I62995J0D01*
G37*
G36*
G01X637270Y-3553660D02*
G02X638050Y-3562500I-49769J-8846D01*
G02X536950I-50550J0D01*
G02X539980Y-3545260I50561J0D01*
G02X511950Y-3500000I22526J45260D01*
G02X562500Y-3449450I50550J0D01*
G02X593750Y-3460270I0J-50538D01*
G02X625000Y-3449450I31250J-39718D01*
G02X675550Y-3500000I0J-50550D01*
G02X640620Y-3548080I-50555J0D01*
G03X637270Y-3553660I1527J-4713D01*
G37*
G36*
G01X-4914960Y-3465110D02*
G03X-4921750Y-3449820I-8248J5490D01*
G02X-4975500Y-3387500I9253J62320D01*
G02X-4849500I63000J0D01*
G02X-4860040Y-3422390I-63001J-5D01*
G03X-4853250Y-3437680I8248J-5490D01*
G02X-4799500Y-3500000I-9253J-62320D01*
G02X-4925500I-63000J0D01*
G02X-4914960Y-3465110I63001J5D01*
G37*
G36*
G01X-3091560Y-2589040D02*
G02X-3056030Y-2574450I35530J-35967D01*
G02Y-2675550I0J-50550D01*
G02X-3091560Y-2660960I0J50557D01*
G02X-3127080Y-2675550I-35526J35957D01*
G02Y-2574450I0J50550D01*
G02X-3091560Y-2589040I-6J-50547D01*
G37*
G36*
G01X-3483350Y-2137010D02*
G03X-3482940Y-2122500I-6541J7446D01*
G02X-3498050Y-2086460I35426J36040D01*
G02X-3396950I50550J0D01*
G02X-3414150Y-2124450I-50555J0D01*
G03X-3414560Y-2138960I6541J-7446D01*
G02X-3399450Y-2175000I-35426J-36040D01*
G02X-3421080Y-2216460I-50550J0D01*
G03X-3423130Y-2230800I5672J-8127D01*
G02X-3411950Y-2262500I-39368J-31706D01*
G02X-3513050I-50550J0D01*
G02X-3491420Y-2221040I50550J0D01*
G03X-3489370Y-2206700I-5672J8127D01*
G02X-3491440Y-2203950I39328J31757D01*
G03X-3507250Y-2203370I-8124J-5677D01*
G02X-3546450Y-2222010I-39200J31899D01*
G02Y-2120910I0J50550D01*
G02X-3505010Y-2142510I0J-50552D01*
G03X-3489200Y-2143090I8124J5677D01*
G02X-3483350Y-2137010I39224J-31885D01*
G37*
G36*
G01X746870Y-1995840D02*
G03X746790Y-1979450I-5610J8168D01*
G02X724450Y-1937500I28217J41950D01*
G02X825550I50550J0D01*
G02X803630Y-1979160I-50548J0D01*
G03X803710Y-1995550I5610J-8168D01*
G02X826050Y-2037500I-28217J-41950D01*
G02X724950I-50550J0D01*
G02X746870Y-1995840I50548J0D01*
G37*
G36*
G01X1614730Y-1781250D02*
G02X1625550Y-1812500I-39718J-31250D01*
G02X1575000Y-1863050I-50550J0D01*
G02X1526160Y-1825540I0J50551D01*
G02X1525000Y-1825550I-1016J50541D01*
G02Y-1724450I0J50550D01*
G02X1531160Y-1724830I-27J-50548D01*
G02X1575000Y-1699450I43840J-25173D01*
G02X1625550Y-1750000I0J-50550D01*
G02X1614730Y-1781250I-50538J0D01*
G37*
G36*
G01X-2658590Y-1222140D02*
G03X-2672980Y-1217720I-9088J-3954D01*
G02X-2700000Y-1225550I-27024J42719D01*
G02Y-1124450I0J50550D01*
G02X-2653660Y-1154810I0J-50546D01*
G03X-2639270Y-1159230I9088J3954D01*
G02X-2612250Y-1151400I27024J-42719D01*
G02Y-1252500I0J-50550D01*
G02X-2658590Y-1222140I0J50546D01*
G37*
G54D21*
X-4229000Y-346025D03*
G54D22*
X-3368750Y-2743750D03*
X-400000Y-4400000D03*
X-2237500Y-4512500D03*
X-2700000Y-1587500D03*
X-2820000Y-2610000D03*
X-2837500Y-2050000D03*
X-2951770Y-2055030D03*
X-1153950Y-53950D03*
X-2675000Y-2437500D03*
X-5135900Y-350000D03*
X-3725000Y-337500D03*
X-2162500Y-1400000D03*
X-3975000Y-62500D03*
X-4991000Y12500D03*
X-4387500Y-1400000D03*
X-1536000Y-4976500D03*
X-2812500Y-1241970D03*
X-1725000Y-1287500D03*
X-2137500Y-3180010D03*
X-1028000Y-19470D03*
X-1790000Y-4665000D03*
X-1687500Y-187500D03*
X-774000Y75000D03*
X-4012500Y-337500D03*
X-3118760Y-2055450D03*
X-2062500Y-725000D03*
X-3250000Y-1575000D03*
X-2121790Y-624180D03*
X-2044000Y-4931000D03*
X-2500000Y-3650000D03*
X-3387500Y-325000D03*
X-2000000Y-2962500D03*
X-3575000Y-1550000D03*
X-3687490Y-1725000D03*
X-1850000Y-1917320D03*
X400000Y-1225000D03*
X-1575000Y-3875000D03*
X-2125000Y-4387500D03*
X-1187500Y-2625000D03*
X925000Y-2287500D03*
X-1125000Y-4537500D03*
X-1825000Y-2775000D03*
X-1824990Y-2049990D03*
X-1462500Y-2425000D03*
X1387500Y-2650000D03*
X712500Y-887500D03*
X2012500Y-812500D03*
X-1750000Y-3548000D03*
X-1062500Y-2012500D03*
X300000Y-887500D03*
X-918750Y-3268750D03*
X-4230530Y-825000D03*
X62500Y-4200000D03*
X-5237500Y-2737500D03*
X-550000Y-3787500D03*
X-675000Y-3950000D03*
Y-4075000D03*
X-1725000Y-1137500D03*
X-412500Y-4725000D03*
X-1012500Y-4550000D03*
X-1375000Y-2150000D03*
X-1267500Y-3094990D03*
X2225420Y-812500D03*
X-4537500Y-4012500D03*
X-4575000Y-3562500D03*
X-4737500Y-4712500D03*
X-4687500Y-4487500D03*
X1275520Y-2062490D03*
X-912500Y-2814510D03*
X-325000Y-3787500D03*
X92500Y-2520000D03*
X-2912500Y-1087500D03*
X-2550000Y-462500D03*
X-100000Y-4200000D03*
X-2803950Y-53950D03*
X-1166450Y-4878950D03*
X600000Y-1225000D03*
X-1875000Y-1525000D03*
X946050Y-5171050D03*
X-2050000Y-1550000D03*
X-1650000Y-350000D03*
X400000Y-1475000D03*
X-2362500Y-462500D03*
X-3078950Y-346050D03*
X-2531950Y-3256950D03*
X-1712500Y-2725000D03*
X-1425000Y-2650000D03*
X-1177010Y-1962490D03*
X600000Y-1487500D03*
X937500Y-1837500D03*
X-1177010Y-1787500D03*
X-104320Y-3925000D03*
X-1450000Y-3962500D03*
X-1087500Y-2812500D03*
X-400000Y-4087500D03*
X-1525000Y-2800000D03*
G54D31*
X-1485790Y-1137500D03*
X-3568000Y-4659530D03*
X2789210Y-912500D03*
X-1485790Y-1287500D03*
X-2714560Y-4387500D03*
X-4100000Y-4662500D03*
X1250000Y-700000D03*
X-1125000Y-1130010D03*
X-2714560Y-4562500D03*
X-5075000Y-3025000D03*
X-4400000Y-2050000D03*
X-4625000Y-2567320D03*
X-3925000Y-1725000D03*
G54D23*
X2412500Y-2387500D03*
G54D26*
X-3525000Y-4125000D03*
X-4812500Y-2362500D03*
X-575000Y-700000D03*
X962500Y-3800000D03*
G54D28*
X-4137500Y-2750000D03*
X-400000Y-3037500D03*
X-312500Y-1562500D03*
G54D24*
X-5775000Y-2725000D03*
Y-2217000D03*
X-4779000Y-954000D03*
X-5033000Y-700000D03*
X-4525000D03*
X-5287000Y-954000D03*
X2512500Y-3550000D03*
X-4525000Y-954000D03*
X-5287000Y-700000D03*
X-4779000D03*
X-5033000Y-954000D03*
X-5775000Y-2471000D03*
X-4045000Y-954000D03*
Y-700000D03*
X-3283000Y-954000D03*
X-3029000D03*
X-2775000D03*
X-3537000Y-700000D03*
X-3283000D03*
X-3029000D03*
X-3537000Y-954000D03*
X-2775000Y-700000D03*
X600000Y-2646000D03*
Y-2900000D03*
G54D25*
X-225000Y-700000D03*
X-1275000D03*
X-3850000Y-3800000D03*
X-2137500Y-2787500D03*
X-3525000Y-3800000D03*
X-1750000Y-3075000D03*
X-925000Y-700000D03*
X-3850000Y-4125000D03*
X625000Y-3800000D03*
Y-4125000D03*
X-4800000Y-2050000D03*
X625000Y-4450000D03*
X962500D03*
X-3525000Y-3475000D03*
X-3850000D03*
X-187500Y-4675000D03*
G54D29*
X-5541000Y-700000D03*
Y-954000D03*
X-5775000Y-1963000D03*
X-3791000Y-954000D03*
Y-700000D03*
G54D30*
X2666500Y-2133500D03*
X2158500D03*
Y-2641500D03*
X2666500D03*
G54D27*
X-3882510Y-2495010D03*
X-4392490D03*
Y-3004990D03*
X-3882510D03*
X-654990Y-3292490D03*
X-145010D03*
X-654990Y-2782510D03*
X-145010D03*
X-567490Y-1817490D03*
X-57510D03*
Y-1307510D03*
X-567490D03*
%LPD*%
G75*
G54D10*
X-5727000Y-5026000D03*
X-5600000Y-200000D03*
X2600000Y-5100000D03*
Y-100000D03*
G54D20*
G01X-6000000Y-5500000D02*
X3000000D01*
Y300000D01*
X-6000000D01*
Y-5500000D01*
G01X-5453680Y-7458000D02*
X-5580350D01*
Y-7204000D01*
X-5453680D01*
G01X-5504350Y-7326760D02*
X-5580350D01*
G01X-5342180Y-7204000D02*
X-5263020Y-7458000D01*
X-5183850Y-7204000D01*
G01X-5088180Y-7458000D02*
X-5009020Y-7204000D01*
X-4929850Y-7458000D01*
G01X-4958350Y-7369100D02*
X-5059680D01*
G01X-4818350Y-7204000D02*
Y-7458000D01*
X-4691680D01*
G01X-4542180Y-7373340D02*
X-4459850D01*
G01X-4177350Y-7225170D02*
X-4196350Y-7212460D01*
X-4218510Y-7204000D01*
X-4243850D01*
X-4272350Y-7216710D01*
X-4294510Y-7237870D01*
X-4310350Y-7263270D01*
X-4323020Y-7305600D01*
X-4326180Y-7343700D01*
X-4319840Y-7381800D01*
X-4310350Y-7407200D01*
X-4291350Y-7432610D01*
X-4269180Y-7449540D01*
X-4247020Y-7458000D01*
X-4224850D01*
X-4202680Y-7449540D01*
X-4183680Y-7436840D01*
X-4167850Y-7419910D01*
G01X-4065840Y-7458000D02*
Y-7204000D01*
X-3920190Y-7458000D01*
Y-7204000D01*
G01X-3739020D02*
X-3764350Y-7212460D01*
X-3783350Y-7233630D01*
X-3796010Y-7259030D01*
X-3805510Y-7292900D01*
X-3808680Y-7331000D01*
X-3805510Y-7369100D01*
X-3796010Y-7402970D01*
X-3783350Y-7428370D01*
X-3764350Y-7449540D01*
X-3739020Y-7458000D01*
X-3713690Y-7449540D01*
X-3694680Y-7428370D01*
X-3682020Y-7402970D01*
X-3672520Y-7369100D01*
X-3669350Y-7331000D01*
X-3672520Y-7292900D01*
X-3682020Y-7259030D01*
X-3694680Y-7233630D01*
X-3713690Y-7212460D01*
X-3739020Y-7204000D01*
G01X-3554680Y-7419910D02*
X-3535680Y-7441070D01*
X-3513520Y-7453770D01*
X-3485020Y-7458000D01*
X-3456510Y-7449540D01*
X-3434350Y-7432610D01*
X-3418520Y-7402970D01*
X-3415350Y-7369100D01*
X-3421680Y-7335240D01*
X-3437520Y-7314070D01*
X-3459690Y-7297140D01*
X-3481850Y-7292900D01*
X-3504010Y-7297140D01*
X-3532510Y-7314070D01*
X-3523010Y-7204000D01*
X-3437520D01*
G01X-3193020Y-7458000D02*
Y-7204000D01*
X-3310180Y-7386030D01*
X-3151850D01*
G01X-2977020Y-7204000D02*
X-3002350Y-7212460D01*
X-3021350Y-7233630D01*
X-3034010Y-7259030D01*
X-3043510Y-7292900D01*
X-3046680Y-7331000D01*
X-3043510Y-7369100D01*
X-3034010Y-7402970D01*
X-3021350Y-7428370D01*
X-3002350Y-7449540D01*
X-2977020Y-7458000D01*
X-2951690Y-7449540D01*
X-2932680Y-7428370D01*
X-2920020Y-7402970D01*
X-2910520Y-7369100D01*
X-2907350Y-7331000D01*
X-2910520Y-7292900D01*
X-2920020Y-7259030D01*
X-2932680Y-7233630D01*
X-2951690Y-7212460D01*
X-2977020Y-7204000D01*
G01X-2764180Y-7373340D02*
X-2681850D01*
G01X-2548180Y-7458000D02*
X-2469020Y-7204000D01*
X-2389850Y-7458000D01*
G01X-2418350Y-7369100D02*
X-2519680D01*
G01X-2278350Y-7458000D02*
Y-7204000D01*
X-2199180D01*
X-2173850Y-7216710D01*
X-2158020Y-7233630D01*
X-2151680Y-7267500D01*
X-2158020Y-7301370D01*
X-2177020Y-7322530D01*
X-2199180Y-7335240D01*
X-2278350D01*
G01X-2199180D02*
X-2151680Y-7458000D01*
G01X-2030680D02*
Y-7204000D01*
X-1967350D01*
X-1942020Y-7216710D01*
X-1923020Y-7233630D01*
X-1907180Y-7259030D01*
X-1894520Y-7288670D01*
X-1891350Y-7331000D01*
X-1894520Y-7373340D01*
X-1907180Y-7402970D01*
X-1923020Y-7428370D01*
X-1942020Y-7445300D01*
X-1967350Y-7458000D01*
X-2030680D01*
G01X-1767180Y-7204000D02*
X-1646850D01*
X-1767180Y-7458000D01*
X-1646850D01*
G01X-1262350D02*
Y-7204000D01*
X-1183180D01*
X-1157850Y-7216710D01*
X-1142020Y-7233630D01*
X-1135680Y-7267500D01*
X-1142020Y-7301370D01*
X-1161020Y-7322530D01*
X-1183180Y-7335240D01*
X-1262350D01*
G01X-1183180D02*
X-1135680Y-7458000D01*
G01X-881680D02*
X-1008350D01*
Y-7204000D01*
X-881680D01*
G01X-932350Y-7326760D02*
X-1008350D01*
G01X-770180Y-7204000D02*
X-691020Y-7458000D01*
X-611850Y-7204000D01*
G01X-478180Y-7373340D02*
X-395850D01*
G01X-157690Y-7322530D02*
X-145020Y-7309830D01*
X-135520Y-7288670D01*
X-129180Y-7259030D01*
X-135520Y-7233630D01*
X-148180Y-7216710D01*
X-170350Y-7204000D01*
X-255840D01*
Y-7458000D01*
X-151350D01*
X-129180Y-7441070D01*
X-116520Y-7415670D01*
X-110190Y-7386030D01*
X-116520Y-7356410D01*
X-135520Y-7331000D01*
X-157690Y-7322530D01*
X-255840D01*
G01X-5815640Y199430D02*
X-5809850Y207320D01*
X-5803100Y211270D01*
X-5795370Y212590D01*
X-5785720Y209960D01*
X-5778970Y203370D01*
X-5777040Y195480D01*
X-5778000Y187570D01*
X-5781860Y180990D01*
X-5801170Y167830D01*
X-5809850Y158610D01*
X-5815640Y145450D01*
X-5817570Y133600D01*
X-5777040D01*
G01X-4728840Y-6183500D02*
Y-6437500D01*
X-4602170D01*
G01X-4471670Y-6225830D02*
X-4452670Y-6200440D01*
X-4430500Y-6187730D01*
X-4405170Y-6183500D01*
X-4373510Y-6191960D01*
X-4351340Y-6213130D01*
X-4345010Y-6238530D01*
X-4348170Y-6263940D01*
X-4360840Y-6285100D01*
X-4424170Y-6327430D01*
X-4452670Y-6357070D01*
X-4471670Y-6399410D01*
X-4478000Y-6437500D01*
X-4345010D01*
G01X-3941500Y-6183500D02*
X-3865510D01*
G01X-3903510D02*
Y-6437500D01*
G01X-3941500D02*
X-3865510D01*
G01X-3703340D02*
Y-6268170D01*
G01Y-6310500D02*
X-3690670Y-6289330D01*
X-3671670Y-6272400D01*
X-3646340Y-6268170D01*
X-3624180Y-6272400D01*
X-3605170Y-6289330D01*
X-3595670Y-6318970D01*
Y-6437500D01*
G01X-3395510Y-6183500D02*
Y-6437500D01*
G01X-3439840Y-6268170D02*
X-3351170D01*
G01X-3189000Y-6323200D02*
X-3087670D01*
X-3097170Y-6293570D01*
X-3113000Y-6276640D01*
X-3135170Y-6268170D01*
X-3157340Y-6272400D01*
X-3176340Y-6285100D01*
X-3189000Y-6314740D01*
X-3195340Y-6340140D01*
Y-6365530D01*
X-3189000Y-6390940D01*
X-3173170Y-6416340D01*
X-3154170Y-6433270D01*
X-3132000Y-6437500D01*
X-3109840Y-6429040D01*
X-3087670Y-6403640D01*
G01X-2931840Y-6437500D02*
Y-6268170D01*
G01Y-6302030D02*
X-2916010Y-6285100D01*
X-2900170Y-6272400D01*
X-2878000Y-6268170D01*
X-2862180Y-6272400D01*
X-2843170Y-6285100D01*
G01X-2687340Y-6437500D02*
Y-6268170D01*
G01Y-6310500D02*
X-2674670Y-6289330D01*
X-2655670Y-6272400D01*
X-2630340Y-6268170D01*
X-2608180Y-6272400D01*
X-2589170Y-6289330D01*
X-2579670Y-6318970D01*
Y-6437500D01*
G01X-2322510D02*
Y-6268170D01*
G01Y-6297800D02*
X-2335170Y-6280870D01*
X-2354180Y-6272400D01*
X-2376340Y-6268170D01*
X-2398500Y-6276640D01*
X-2417500Y-6293570D01*
X-2430170Y-6318970D01*
X-2436500Y-6352840D01*
X-2430170Y-6386700D01*
X-2417500Y-6412110D01*
X-2398500Y-6429040D01*
X-2376340Y-6437500D01*
X-2354180Y-6433270D01*
X-2335170Y-6420570D01*
X-2322510Y-6403640D01*
G01X-2125510Y-6437500D02*
Y-6183500D01*
G01X-1598510Y-6310500D02*
X-1535170D01*
Y-6386700D01*
X-1554170Y-6412110D01*
X-1576340Y-6429040D01*
X-1608000Y-6437500D01*
X-1639670Y-6429040D01*
X-1661840Y-6412110D01*
X-1680840Y-6386700D01*
X-1693510Y-6357070D01*
X-1699840Y-6323200D01*
Y-6293570D01*
X-1693510Y-6268170D01*
X-1680840Y-6238530D01*
X-1661840Y-6213130D01*
X-1642840Y-6196210D01*
X-1617510Y-6183500D01*
X-1595340D01*
X-1570010Y-6191960D01*
X-1551010Y-6208900D01*
G01X-1436330Y-6437500D02*
Y-6183500D01*
X-1290680Y-6437500D01*
Y-6183500D01*
G01X-1179170Y-6437500D02*
Y-6183500D01*
X-1115840D01*
X-1090510Y-6196210D01*
X-1071510Y-6213130D01*
X-1055670Y-6238530D01*
X-1043010Y-6268170D01*
X-1039840Y-6310500D01*
X-1043010Y-6352840D01*
X-1055670Y-6382470D01*
X-1071510Y-6407870D01*
X-1090510Y-6424800D01*
X-1115840Y-6437500D01*
X-1179170D01*
G01X-4247020Y-6696000D02*
X-4272350Y-6704460D01*
X-4291350Y-6725630D01*
X-4304010Y-6751030D01*
X-4313510Y-6784900D01*
X-4316680Y-6823000D01*
X-4313510Y-6861100D01*
X-4304010Y-6894970D01*
X-4291350Y-6920370D01*
X-4272350Y-6941540D01*
X-4247020Y-6950000D01*
X-4221690Y-6941540D01*
X-4202680Y-6920370D01*
X-4190020Y-6894970D01*
X-4180520Y-6861100D01*
X-4177350Y-6823000D01*
X-4180520Y-6784900D01*
X-4190020Y-6751030D01*
X-4202680Y-6725630D01*
X-4221690Y-6704460D01*
X-4247020Y-6696000D01*
G01X-3993020Y-6950000D02*
X-3970850Y-6945770D01*
X-3945520Y-6933070D01*
X-3929680Y-6911910D01*
X-3923350Y-6882270D01*
X-3929680Y-6852640D01*
X-3948680Y-6827240D01*
X-3977180Y-6814530D01*
X-4008850D01*
X-4027850Y-6806070D01*
X-4043680Y-6784900D01*
X-4050010Y-6755270D01*
X-4040510Y-6725630D01*
X-4018350Y-6704460D01*
X-3993020Y-6696000D01*
X-3967690Y-6704460D01*
X-3945520Y-6725630D01*
X-3936020Y-6755270D01*
X-3942350Y-6784900D01*
X-3958180Y-6806070D01*
X-3977180Y-6814530D01*
X-4008850D01*
X-4037350Y-6827240D01*
X-4056350Y-6852640D01*
X-4062680Y-6882270D01*
X-4056350Y-6911910D01*
X-4040510Y-6933070D01*
X-4015180Y-6945770D01*
X-3993020Y-6950000D01*
G01X-3780180Y-6865340D02*
X-3697850D01*
G01X-2002180D02*
X-1919850D01*
G01X-1707020Y-6696000D02*
X-1732350Y-6704460D01*
X-1751350Y-6725630D01*
X-1764010Y-6751030D01*
X-1773510Y-6784900D01*
X-1776680Y-6823000D01*
X-1773510Y-6861100D01*
X-1764010Y-6894970D01*
X-1751350Y-6920370D01*
X-1732350Y-6941540D01*
X-1707020Y-6950000D01*
X-1681690Y-6941540D01*
X-1662680Y-6920370D01*
X-1650020Y-6894970D01*
X-1640520Y-6861100D01*
X-1637350Y-6823000D01*
X-1640520Y-6784900D01*
X-1650020Y-6751030D01*
X-1662680Y-6725630D01*
X-1681690Y-6704460D01*
X-1707020Y-6696000D01*
G01X-1459350Y-6950000D02*
X-1453020Y-6894970D01*
X-1443510Y-6848410D01*
X-1430850Y-6806070D01*
X-1415020Y-6759500D01*
X-1389680Y-6696000D01*
X-1516350D01*
G01X-3485020D02*
X-3510350Y-6704460D01*
X-3529350Y-6725630D01*
X-3542010Y-6751030D01*
X-3551510Y-6784900D01*
X-3554680Y-6823000D01*
X-3551510Y-6861100D01*
X-3542010Y-6894970D01*
X-3529350Y-6920370D01*
X-3510350Y-6941540D01*
X-3485020Y-6950000D01*
X-3459690Y-6941540D01*
X-3440680Y-6920370D01*
X-3428020Y-6894970D01*
X-3418520Y-6861100D01*
X-3415350Y-6823000D01*
X-3418520Y-6784900D01*
X-3428020Y-6751030D01*
X-3440680Y-6725630D01*
X-3459690Y-6704460D01*
X-3485020Y-6696000D01*
G01X-3300680Y-6911910D02*
X-3281680Y-6933070D01*
X-3259520Y-6945770D01*
X-3231020Y-6950000D01*
X-3202510Y-6941540D01*
X-3180350Y-6924610D01*
X-3164520Y-6894970D01*
X-3161350Y-6861100D01*
X-3167680Y-6827240D01*
X-3183520Y-6806070D01*
X-3205690Y-6789140D01*
X-3227850Y-6784900D01*
X-3250010Y-6789140D01*
X-3278510Y-6806070D01*
X-3269010Y-6696000D01*
X-3183520D01*
G01X-3030850Y-6920370D02*
X-3008680Y-6941540D01*
X-2983350Y-6950000D01*
X-2958020Y-6941540D01*
X-2935850Y-6916140D01*
X-2920020Y-6878030D01*
X-2913680Y-6839930D01*
Y-6793370D01*
X-2920020Y-6755270D01*
X-2935850Y-6721400D01*
X-2954850Y-6704460D01*
X-2977020Y-6696000D01*
X-3002350Y-6704460D01*
X-3021350Y-6721400D01*
X-3034010Y-6746800D01*
X-3040350Y-6780670D01*
X-3034010Y-6810300D01*
X-3018180Y-6839930D01*
X-2999180Y-6856870D01*
X-2977020Y-6861100D01*
X-2951690Y-6852640D01*
X-2932680Y-6831470D01*
X-2913680Y-6793370D01*
G01X-2792680Y-6899200D02*
X-2773680Y-6928840D01*
X-2748350Y-6945770D01*
X-2719850Y-6950000D01*
X-2694510Y-6945770D01*
X-2669180Y-6924610D01*
X-2653350Y-6899200D01*
X-2650190Y-6873800D01*
X-2656520Y-6844170D01*
X-2678680Y-6823000D01*
X-2700850Y-6814530D01*
X-2729350D01*
G01X-2700850D02*
X-2681850Y-6801830D01*
X-2666020Y-6780670D01*
X-2659680Y-6755270D01*
X-2666020Y-6729870D01*
X-2681850Y-6708710D01*
X-2710350Y-6696000D01*
X-2738850Y-6700230D01*
X-2767350Y-6717170D01*
G01X-2538680Y-6911910D02*
X-2519680Y-6933070D01*
X-2497520Y-6945770D01*
X-2469020Y-6950000D01*
X-2440510Y-6941540D01*
X-2418350Y-6924610D01*
X-2402520Y-6894970D01*
X-2399350Y-6861100D01*
X-2405680Y-6827240D01*
X-2421520Y-6806070D01*
X-2443690Y-6789140D01*
X-2465850Y-6784900D01*
X-2488010Y-6789140D01*
X-2516510Y-6806070D01*
X-2507010Y-6696000D01*
X-2421520D01*
G01X-2215020Y-6950000D02*
X-2192850Y-6945770D01*
X-2167520Y-6933070D01*
X-2151680Y-6911910D01*
X-2145350Y-6882270D01*
X-2151680Y-6852640D01*
X-2170680Y-6827240D01*
X-2199180Y-6814530D01*
X-2230850D01*
X-2249850Y-6806070D01*
X-2265680Y-6784900D01*
X-2272010Y-6755270D01*
X-2262510Y-6725630D01*
X-2240350Y-6704460D01*
X-2215020Y-6696000D01*
X-2189690Y-6704460D01*
X-2167520Y-6725630D01*
X-2158020Y-6755270D01*
X-2164350Y-6784900D01*
X-2180180Y-6806070D01*
X-2199180Y-6814530D01*
X-2230850D01*
X-2259350Y-6827240D01*
X-2278350Y-6852640D01*
X-2284680Y-6882270D01*
X-2278350Y-6911910D01*
X-2262510Y-6933070D01*
X-2237180Y-6945770D01*
X-2215020Y-6950000D01*
G54D11*
X-5325000Y-4375000D03*
X-5412500D03*
X-5325000Y-4487500D03*
X-5425000D03*
X-4862500Y-3500000D03*
X-4912500Y-3387500D03*
X-5075000Y-3025000D03*
X-5200000Y-2050000D03*
X-4625000Y-2567320D03*
X-4400000Y-2050000D03*
X-3568000Y-4659530D03*
X-4100000Y-4662500D03*
X-4062500Y-2272950D03*
X-3922950Y-1550000D03*
X-3925000Y-1725000D03*
X-3035450Y-4387500D03*
Y-4562500D03*
X-2714560Y-4387500D03*
Y-4562500D03*
X-1964210Y-1287500D03*
Y-1137500D03*
X-1674990Y-3762980D03*
X-1485790Y-1287500D03*
Y-1137500D03*
X-972950Y-4000000D03*
X-1125000Y-1130010D03*
X462500Y-1952060D03*
X-38490Y-887500D03*
X637500Y-1952060D03*
X1250000Y-700000D03*
X1713480Y-125000D03*
Y125000D03*
X2789210Y-912500D03*
G54D12*
X-5775000Y-2471000D03*
Y-2725000D03*
Y-1963000D03*
Y-2217000D03*
X-5795000Y-954000D03*
X-5541000D03*
X-5287000D03*
X-5795000Y-700000D03*
X-5541000D03*
X-5287000D03*
X-5033000Y-954000D03*
X-4779000D03*
X-5033000Y-700000D03*
X-4779000D03*
X-4525000Y-954000D03*
Y-700000D03*
X-4045000Y-954000D03*
X-3791000D03*
X-3537000D03*
X-4045000Y-700000D03*
X-3791000D03*
X-3537000D03*
X-3283000Y-954000D03*
X-3029000D03*
X-3283000Y-700000D03*
X-3029000D03*
X-2775000Y-954000D03*
Y-700000D03*
X600000Y-2900000D03*
Y-2646000D03*
X2512500Y-3550000D03*
X2800000Y-1791500D03*
Y-1537500D03*
G54D13*
X-5362500Y-825000D03*
X-4912500Y-4712500D03*
X-5212500Y-4900000D03*
X-5287500D03*
X-4912500Y-4300000D03*
Y-4375000D03*
Y-4450000D03*
Y-4612500D03*
Y-4512500D03*
X-4862500Y-3700000D03*
X-4962500D03*
X-5237500Y-2737500D03*
X-5162500Y-775000D03*
X-5135900Y-350000D03*
X-4900000Y-437500D03*
X-5000000Y-537500D03*
X-5050000Y-325000D03*
X-4875000Y-287500D03*
X-4991000Y12500D03*
X-4525000Y-4687500D03*
X-4462500D03*
X-4737500Y-4712500D03*
X-4687500Y-4487500D03*
X-4537500Y-4012500D03*
X-4575000Y-3562500D03*
X-4362500Y-2437500D03*
X-4387500Y-1400000D03*
X-4230530Y-825000D03*
X-4425000Y-412500D03*
X-4587500D03*
X-4550000Y-287500D03*
X-4362500Y-275000D03*
X-4300000Y-100000D03*
X-4212500D03*
X-4582020Y-53950D03*
X-4229000Y-346000D03*
Y-346050D03*
X-3965210Y-2247510D03*
X-3687490Y-1725000D03*
X-4012500Y-337500D03*
X-3975000Y-62500D03*
X-4100000Y-275000D03*
X-3725000Y-337500D03*
X-3371370Y-4450000D03*
X-3196000Y-4179000D03*
X-3060000Y-4671980D03*
X-3368750Y-2743750D03*
X-3262500Y-2800000D03*
X-3012500Y-2412500D03*
X-3187500D03*
X-3100000D03*
X-3127080Y-2625000D03*
X-3056030D03*
X-3462500Y-2262500D03*
X-3447500Y-2086460D03*
X-3187500Y-2262500D03*
X-3100000D03*
X-3012500D03*
Y-2337500D03*
X-3100000D03*
X-3187500D03*
X-3337500Y-1950000D03*
Y-1800000D03*
Y-1875000D03*
X-3450000Y-2175000D03*
X-3546450Y-2171460D03*
X-3118760Y-2055450D03*
X-3575000Y-1550000D03*
X-3250000Y-1575000D03*
X-3387500Y-325000D03*
X-3078950Y-346050D03*
X-2806000Y-5378020D03*
X-2462500Y-3725000D03*
X-2500000Y-3650000D03*
X-2437500Y-3450000D03*
Y-3362500D03*
X-2736970Y-3274990D03*
X-2531950Y-3256950D03*
X-2925000Y-2412500D03*
X-2937500Y-2800000D03*
X-2600000Y-2387500D03*
X-2675000Y-2437500D03*
X-2820000Y-2610000D03*
X-2925000Y-2262500D03*
Y-2337500D03*
X-2712500Y-1875000D03*
Y-1787500D03*
Y-1950000D03*
X-2837500Y-2050000D03*
X-2951770Y-2055030D03*
X-2700000Y-1175000D03*
Y-1587500D03*
X-2812500Y-1241970D03*
X-2612250Y-1201950D03*
X-2912500Y-1087500D03*
X-2550000Y-462500D03*
X-2803950Y-53950D03*
X-2044000Y-4931000D03*
X-2125000Y-4387500D03*
X-2237500Y-4512500D03*
X-2161700Y-3850000D03*
X-2100000Y-3548000D03*
X-1925000D03*
X-2412500Y-4048000D03*
X-2137500Y-3180010D03*
X-2312500Y-3450000D03*
Y-3362500D03*
X-2000000Y-2962500D03*
X-2237500Y-2537510D03*
X-2387500Y-2787500D03*
X-2337500Y-1987500D03*
X-1850000Y-1917320D03*
X-2050000Y-1550000D03*
X-2305770Y-1523050D03*
Y-1201950D03*
X-1875000Y-1525000D03*
X-2162500Y-1400000D03*
X-2062500Y-725000D03*
X-2121790Y-624180D03*
X-2362500Y-462500D03*
X-1536000Y-4976500D03*
X-1790000Y-4665000D03*
X-1750000Y-3548000D03*
X-1575000Y-3875000D03*
X-1450000Y-3962500D03*
X-1361700Y-3286700D03*
X-1362500Y-3094990D03*
X-1267500D03*
X-1274990Y-2714400D03*
X-1275000Y-2525000D03*
X-1712500Y-2725000D03*
X-1425000Y-2650000D03*
X-1825000Y-2775000D03*
X-1462500Y-2425000D03*
X-1525000Y-2800000D03*
X-1275000Y-2237500D03*
Y-2337500D03*
X-1468000Y-1780000D03*
X-1473000Y-1962500D03*
X-1824990Y-2049990D03*
X-1375000Y-2150000D03*
X-1725000Y-1287500D03*
Y-1137500D03*
X-1687500Y-187500D03*
X-1650000Y-350000D03*
X-1166450Y-4878950D03*
X-1250000Y-4486320D03*
X-950000Y-4300000D03*
X-1025000Y-4262500D03*
Y-4337500D03*
X-875000Y-4262500D03*
Y-4337500D03*
X-1012500Y-4550000D03*
X-1125000Y-4537500D03*
X-675000Y-3950000D03*
Y-4075000D03*
X-900000Y-3377010D03*
X-1087500Y-3110500D03*
X-912500D03*
X-918750Y-3268750D03*
X-1087500Y-2812500D03*
X-912500Y-2814510D03*
X-1200000Y-2525000D03*
X-1137500D03*
X-1187500Y-2625000D03*
X-1177010Y-1962490D03*
Y-1787500D03*
X-1062500Y-2012500D03*
X-1225000Y-2287500D03*
X-1175000Y-2237500D03*
Y-2337500D03*
X-1153950Y-53950D03*
X-1028000Y-19470D03*
X-774000Y75000D03*
X-412500Y-4725000D03*
X-100000Y-4200000D03*
X-212500D03*
X-400000Y-4400000D03*
X-104320Y-3925000D03*
X-325000Y-3912500D03*
X-262500D03*
X-237500Y-3962500D03*
X-550000Y-3787500D03*
X-400000Y-4087500D03*
X-325000Y-3787500D03*
X62500Y-4200000D03*
X287500Y-4400000D03*
Y-4087500D03*
X275000Y-3787500D03*
X187500Y-2978470D03*
X92500Y-2520000D03*
X422990Y-2687500D03*
Y-2512500D03*
X400000Y-1475000D03*
Y-1225000D03*
X300000Y-887500D03*
X946050Y-5171050D03*
X587500Y-3562500D03*
X575000Y-3139510D03*
X562500Y-3500000D03*
X625000D03*
X835670Y-2126830D03*
X925000Y-2287500D03*
X775500Y-2037500D03*
X937500Y-1837500D03*
X775000Y-1937500D03*
X600000Y-1225000D03*
Y-1487500D03*
X911700Y-1149040D03*
X1012500Y-862500D03*
Y-925000D03*
Y-987500D03*
X712500Y-887500D03*
X1373000Y-2925000D03*
X1387500Y-2650000D03*
X1275520Y-2212510D03*
Y-2062490D03*
X1575000Y-1812500D03*
X1525000Y-1775000D03*
X1337500Y-1225000D03*
X1137500D03*
X1237500D03*
X1462500D03*
X1587500Y-1312500D03*
Y-1237500D03*
X1575000Y-1750000D03*
X1612500Y-537500D03*
X1537500D03*
X1462500D03*
X1950000Y-1312500D03*
X1887500D03*
X1825000D03*
X2112500Y-600000D03*
X2037500D03*
X1975000D03*
Y-675000D03*
X2037500D03*
X2112500D03*
Y-1037500D03*
Y-887500D03*
Y-962500D03*
X2012500Y-812500D03*
X2225420D03*
G54D14*
X-4812500Y-2362500D03*
X-4800000Y-2050000D03*
X-3850000Y-4125000D03*
Y-3800000D03*
Y-3475000D03*
X-3525000Y-4125000D03*
Y-3800000D03*
Y-3475000D03*
X-2137500Y-2787500D03*
X-1750000Y-3075000D03*
X-1275000Y-700000D03*
X-925000D03*
X-187500Y-4675000D03*
X-225000Y-700000D03*
X-575000D03*
X625000Y-4125000D03*
X962500Y-4450000D03*
X625000D03*
Y-3800000D03*
X962500D03*
G54D15*
X-4392490Y-3004990D03*
Y-2495010D03*
X-3882510Y-3004990D03*
Y-2495010D03*
X-654990Y-3292490D03*
Y-2782510D03*
X-145010Y-3292490D03*
Y-2782510D03*
X-57510Y-1817490D03*
X-567490D03*
X-57510Y-1307510D03*
X-567490D03*
X2412500Y-2387500D03*
G54D16*
X-4137500Y-2750000D03*
X-400000Y-3037500D03*
X-312500Y-1562500D03*
G54D17*
X2158500Y-2641500D03*
Y-2133500D03*
X2666500Y-2641500D03*
Y-2133500D03*
G54D18*
G01X-5775000Y-2075410D02*
Y-1963000D01*
G01D02*
Y-1850590D01*
G01Y-1963000D02*
X-5662590D01*
G01X-5541000Y-812410D02*
Y-700000D01*
G01D02*
Y-587590D01*
G01X-5653410Y-700000D02*
X-5541000D01*
G01D02*
X-5428590D01*
G01X-5541000Y-1066410D02*
Y-954000D01*
G01D02*
Y-841590D01*
G01X-5653410Y-954000D02*
X-5541000D01*
G01D02*
X-5428590D01*
G01X-4812500Y-2468310D02*
Y-2362500D01*
G01D02*
Y-2256690D01*
G01X-4918310Y-2362500D02*
X-4812500D01*
G01D02*
X-4706690D01*
G01X-4392490Y-3136330D02*
Y-3004990D01*
G01D02*
Y-2873650D01*
G01X-4523830Y-3004990D02*
X-4392490D01*
G01D02*
X-4261150D01*
G01X-4392490Y-2626350D02*
Y-2495010D01*
G01D02*
Y-2363670D01*
G01X-4523830Y-2495010D02*
X-4392490D01*
G01D02*
X-4261150D01*
G01X-3630810Y-4125000D02*
X-3525000D01*
G01X-3882510Y-3136330D02*
Y-3004990D01*
G01D02*
Y-2873650D01*
G01X-4013850Y-3004990D02*
X-3882510D01*
G01D02*
X-3751170D01*
G01X-3882510Y-2626350D02*
Y-2495010D01*
G01D02*
Y-2363670D01*
G01X-4013850Y-2495010D02*
X-3882510D01*
G01D02*
X-3751170D01*
G01X-3791000Y-812410D02*
Y-700000D01*
G01D02*
Y-587590D01*
G01X-3903410Y-700000D02*
X-3791000D01*
G01D02*
X-3678590D01*
G01X-3791000Y-1066410D02*
Y-954000D01*
G01D02*
Y-841590D01*
G01X-3903410Y-954000D02*
X-3791000D01*
G01D02*
X-3678590D01*
G01X-3525000Y-4230810D02*
Y-4125000D01*
G01D02*
Y-4019190D01*
G01Y-4125000D02*
X-3419190D01*
G01X-786330Y-3292490D02*
X-654990D01*
G01X-786330Y-2782510D02*
X-654990D01*
G01X-698830Y-1817490D02*
X-567490D01*
G01X-698830Y-1307510D02*
X-567490D01*
G01X-145010Y-3423830D02*
Y-3292490D01*
G01D02*
Y-3161150D01*
G01X-276350Y-3292490D02*
X-145010D01*
G01D02*
X-13670D01*
G01X-654990Y-3423830D02*
Y-3292490D01*
G01D02*
Y-3161150D01*
G01Y-3292490D02*
X-523650D01*
G01X-654990Y-2913850D02*
Y-2782510D01*
G01D02*
Y-2651170D01*
G01Y-2782510D02*
X-523650D01*
G01X-145010Y-2913850D02*
Y-2782510D01*
G01D02*
Y-2651170D01*
G01X-276350Y-2782510D02*
X-145010D01*
G01D02*
X-13670D01*
G01X-188850Y-1817490D02*
X-57510D01*
G01X-567490Y-1948830D02*
Y-1817490D01*
G01D02*
Y-1686150D01*
G01Y-1817490D02*
X-436150D01*
G01X-567490Y-1438850D02*
Y-1307510D01*
G01D02*
Y-1176170D01*
G01Y-1307510D02*
X-436150D01*
G01X-188850D02*
X-57510D01*
G01X-575000Y-805810D02*
Y-700000D01*
G01D02*
Y-594190D01*
G01X-680810Y-700000D02*
X-575000D01*
G01D02*
X-469190D01*
G01X-57510Y-1948830D02*
Y-1817490D01*
G01D02*
Y-1686150D01*
G01Y-1817490D02*
X73830D01*
G01X-57510Y-1438850D02*
Y-1307510D01*
G01D02*
Y-1176170D01*
G01Y-1307510D02*
X73830D01*
G01X962500Y-3905810D02*
Y-3800000D01*
G01D02*
Y-3694190D01*
G01X856690Y-3800000D02*
X962500D01*
G01D02*
X1068310D01*
G01X2158500Y-2779310D02*
Y-2641500D01*
G01D02*
Y-2503690D01*
G01X2020690Y-2641500D02*
X2158500D01*
G01D02*
X2296310D01*
G01X2158500Y-2271310D02*
Y-2133500D01*
G01D02*
Y-1995690D01*
G01X2020690Y-2133500D02*
X2158500D01*
G01D02*
X2296310D01*
G01X2666500Y-2779310D02*
Y-2641500D01*
G01D02*
Y-2503690D01*
G01X2528690Y-2641500D02*
X2666500D01*
G01D02*
X2804310D01*
G01X2666500Y-2271310D02*
Y-2133500D01*
G01D02*
Y-1995690D01*
G01X2528690Y-2133500D02*
X2666500D01*
G01D02*
X2804310D01*
G01X2800000Y-1649910D02*
Y-1537500D01*
G01D02*
Y-1425090D01*
G01X2687590Y-1537500D02*
X2800000D01*
G54D19*
G01X-6050000Y-4950000D02*
Y-5550000D01*
X-5450000D01*
G01Y350000D02*
X-6050000D01*
Y-250000D01*
G01X2450000Y-5550000D02*
X3050000D01*
Y-4950000D01*
G01Y-250000D02*
Y350000D01*
X2450000D01*
M02*
