G04 ================== begin FILE IDENTIFICATION RECORD ==================*
G04 Layout Name:  C:/tmp/20_059358b/worklib/02_059358b_top/physical/08-059358b.brd*
G04 Film Name:    L4_BOT*
G04 File Format:  Gerber RS274X*
G04 File Origin:  Cadence Allegro 17.2-S053*
G04 Origin Date:  Mon Nov 09 16:28:31 2020*
G04 *
G04 Layer:  BOARD GEOMETRY/DESIGN_OUTLINE*
G04 Layer:  BOARD GEOMETRY/TOOLING_CORNERS*
G04 Layer:  BOARD GEOMETRY/LYR_BOTTOM*
G04 Layer:  BOARD GEOMETRY/ROOT_NUMBER*
G04 Layer:  VIA CLASS/BOTTOM*
G04 Layer:  PIN/BOTTOM*
G04 Layer:  ETCH/BOTTOM*
G04 *
G04 Offset:    (0.0991 0.0000)*
G04 Mirror:    No*
G04 Mode:      Positive*
G04 Rotation:  0*
G04 FullContactRelief:  No*
G04 UndefLineWidth:     0.2007*
G04 ================== end FILE IDENTIFICATION RECORD ====================*
%FSLAX25Y25*MOMM*%
%IR0*IPPOS*OFA0.09910B0.00000*MIA0B0*SFA1.00000B1.00000*%
%ADD30R,.9906X.9398*%
%ADD20R,.9398X.9906*%
%ADD17C,.5105*%
%ADD31R,.9906X1.6002*%
%ADD12C,.7595*%
%ADD23R,.6096X2.1793*%
%ADD16R,.5588X.5588*%
%AMMACRO11*
4,1,36,0.0,-.508,
.088213,-.500282,
.173746,-.477364,
.254,-.439941,
.326536,-.389151,
.389151,-.326536,
.439941,-.254,
.477364,-.173746,
.500282,-.088213,
.508,0.0,
.500282,.088213,
.477364,.173746,
.439941,.254,
.389151,.326536,
.326536,.389151,
.254,.439941,
.173746,.477364,
.088213,.500282,
0.0,.508,
-.088213,.500282,
-.173746,.477364,
-.254,.439941,
-.326536,.389151,
-.389151,.326536,
-.439941,.254,
-.477364,.173746,
-.500282,.088213,
-.508,0.0,
-.500282,-.088213,
-.477364,-.173746,
-.439941,-.254,
-.389151,-.326536,
-.326536,-.389151,
-.254,-.439941,
-.173746,-.477364,
-.088213,-.500282,
0.0,-.508,
0.0*
%
%ADD11MACRO11*%
%ADD28R,1.27X1.016*%
%ADD27R,1.016X1.27*%
%ADD10C,1.0211*%
%ADD14C,1.651*%
%ADD19R,1.27X3.429*%
%ADD33C,2.159*%
%ADD21C,2.0295*%
%ADD15R,1.651X1.651*%
%ADD22C,1.7805*%
%ADD24R,.8001X.7493*%
%ADD18C,1.5189*%
%ADD13R,.7493X.8001*%
%ADD25O,.254X.889*%
%ADD32O,.8636X.3048*%
%ADD26R,2.3876X1.651*%
%ADD29R,.7112X.9906*%
%ADD34C,.2*%
%ADD35C,.3*%
%ADD36C,.4*%
%ADD37C,.5*%
%ADD38C,.6*%
%ADD39C,.7*%
%ADD40C,.25*%
%ADD41C,.8*%
%ADD42C,1.*%
%ADD43C,.2007*%
%ADD54C,1.011*%
%ADD53C,1.26*%
%ADD45C,2.53*%
%ADD47C,2.0172*%
%ADD50C,2.1514*%
%ADD49C,2.281*%
%ADD44C,1.5216*%
%ADD46C,2.0194*%
%ADD51C,2.1492*%
%ADD52C,2.6572*%
%ADD48C,2.5278*%
G75*
%LPD*%
G75*
G36*
G01X-5300000Y200000D02*
X2300000D01*
Y-300000D01*
X2400000Y-400000D01*
X2900000D01*
Y-1420960D01*
G02X2887940Y-1430630I-9910J4D01*
G03X2882550Y-1430040I-5390J-24325D01*
G01X2717450D01*
G03X2692540Y-1454950I0J-24910D01*
G01Y-1620050D01*
G03X2717450Y-1644960I24910J0D01*
G01X2882550D01*
G03X2887940Y-1644370I0J24915D01*
G02X2900000Y-1654040I2150J-9674D01*
G01Y-1716100D01*
G02X2882490Y-1722460I-9910J0D01*
G03X2800000Y-1683930I-82490J-69038D01*
G03Y-1899070I0J-107570D01*
G03X2882490Y-1860540I0J107568D01*
G02X2900000Y-1866900I7600J-6360D01*
G01Y-4700000D01*
X2000000D01*
Y-5400000D01*
X-5400000D01*
Y-5276070D01*
G02X-5385470Y-5267310I9908J-5D01*
G03X-5350000Y-5276080I35462J67312D01*
G03Y-5123920I0J76080D01*
G03X-5385470Y-5132690I-8J-76082D01*
G02X-5400000Y-5123930I-4622J8765D01*
G01Y-4700000D01*
X-5900000D01*
Y-1022990D01*
G02X-5882070Y-1017170I9909J1D01*
G03X-5870020Y-1031090I87056J63186D01*
G01Y-1305000D01*
G03X-5848050Y-1358050I75034J0D01*
G01X-5540550Y-1665550D01*
G03X-5487500Y-1687520I53050J53064D01*
G01X-4275000D01*
G03X-4221950Y-1665550I0J75034D01*
G01X-4199220Y-1642810D01*
X-4071060Y-1770980D01*
G03X-4025080Y-1790020I45973J45983D01*
G01X-3925000D01*
G03Y-1659980I0J65020D01*
G01X-3998150D01*
X-4133840Y-1524290D01*
X-4134190Y-1523060D01*
G03X-4206290Y-1468770I-72100J-20731D01*
G03X-4259340Y-1490740I0J-75034D01*
G01X-4306070Y-1537480D01*
X-5456430D01*
X-5719980Y-1273930D01*
Y-1031090D01*
G03Y-876910I-75013J77090D01*
G01Y-777090D01*
G03X-5687430Y-700000I-75013J77090D01*
G03X-5795000Y-592430I-107570J0D01*
G03X-5882070Y-636830I0J-107574D01*
G02X-5900000Y-631010I-8021J5819D01*
G01Y-500000D01*
X-5500000D01*
X-5350440Y-350440D01*
G02X-5333520Y-357440I7010J-7004D01*
G01Y-517500D01*
G03X-5308500Y-542520I25020J0D01*
G01X-5181500D01*
G03X-5156480Y-517500I0J25020D01*
G01Y-409510D01*
G02X-5144820Y-399760I9909J-3D01*
G03X-5135900Y-400550I8902J49762D01*
G03Y-299450I0J50550D01*
G03X-5144820Y-300240I-18J-50552D01*
G02X-5156480Y-290490I-1751J9753D01*
G01Y-174600D01*
G03X-5181500Y-149580I-25020J0D01*
G01X-5300000D01*
Y200000D01*
G37*
%LPC*%
G75*
G36*
G01X-1152420Y-3074980D02*
Y-3000040D01*
G02X-1127500Y-2975140I24910J-10D01*
G01X-1047500D01*
G02X-1022580Y-3000040I10J-24910D01*
G01Y-3074980D01*
G02X-1047500Y-3099880I-24910J10D01*
G01X-1127500D01*
G02X-1152420Y-3074980I-10J24910D01*
G37*
G36*
G01X492430Y-2982550D02*
Y-2817450D01*
G02X517450Y-2792430I25020J0D01*
G01X682550D01*
G02X707570Y-2817450I0J-25020D01*
G01Y-2982550D01*
G02X682550Y-3007570I-25020J0D01*
G01X517450D01*
G02X492430Y-2982550I0J25020D01*
G37*
G36*
G01X-2882570Y-782550D02*
Y-617450D01*
G02X-2857550Y-592430I25020J0D01*
G01X-2692450D01*
G02X-2667430Y-617450I0J-25020D01*
G01Y-782550D01*
G02X-2692450Y-807570I-25020J0D01*
G01X-2857550D01*
G02X-2882570Y-782550I0J25020D01*
G37*
G36*
G01X-3108500Y-3779960D02*
Y-3562040D01*
G02X-3083480Y-3537020I25020J0D01*
G01X-3022520D01*
G02X-2997500Y-3562040I0J-25020D01*
G01Y-3779960D01*
G02X-3022520Y-3804980I-25020J0D01*
G01X-3083480D01*
G02X-3108500Y-3779960I0J25020D01*
G37*
G36*
G01X-1989920Y-3512480D02*
Y-3437540D01*
G02X-1965000Y-3412640I24910J-10D01*
G01X-1885000D01*
G02X-1860080Y-3437540I10J-24910D01*
G01Y-3512480D01*
G02X-1885000Y-3537380I-24910J10D01*
G01X-1965000D01*
G02X-1989920Y-3512480I-10J24910D01*
G37*
G36*
G01X-27420Y-3924960D02*
Y-3850020D01*
G02X-2500Y-3825120I24910J-10D01*
G01X77500D01*
G02X102420Y-3850020I10J-24910D01*
G01Y-3924960D01*
G02X77500Y-3949860I-24910J10D01*
G01X-2500D01*
G02X-27420Y-3924960I-10J24910D01*
G37*
G36*
G01X-4418520Y-5342500D02*
Y-4999600D01*
G02X-4393500Y-4974580I25020J0D01*
G01X-4266500D01*
G02X-4241480Y-4999600I0J-25020D01*
G01Y-5342500D01*
G02X-4266500Y-5367520I-25020J0D01*
G01X-4393500D01*
G02X-4418520Y-5342500I0J25020D01*
G37*
G36*
G01X-3910520D02*
Y-4999600D01*
G02X-3885500Y-4974580I25020J0D01*
G01X-3758500D01*
G02X-3733480Y-4999600I0J-25020D01*
G01Y-5342500D01*
G02X-3758500Y-5367520I-25020J0D01*
G01X-3885500D01*
G02X-3910520Y-5342500I0J25020D01*
G37*
G36*
G01X-3402520D02*
Y-4999600D01*
G02X-3377500Y-4974580I25020J0D01*
G01X-3250500D01*
G02X-3225480Y-4999600I0J-25020D01*
G01Y-5342500D01*
G02X-3250500Y-5367520I-25020J0D01*
G01X-3377500D01*
G02X-3402520Y-5342500I0J25020D01*
G37*
G36*
G01X-3148410Y-5050400D02*
Y-4707500D01*
G02X-3123500Y-4682590I24910J0D01*
G01X-2996500D01*
G02X-2971590Y-4707500I0J-24910D01*
G01Y-5050400D01*
G02X-2996500Y-5075310I-24910J0D01*
G01X-3123500D01*
G02X-3148410Y-5050400I0J24910D01*
G37*
G36*
G01X-2894410Y-5342500D02*
Y-4999600D01*
G02X-2869500Y-4974690I24910J0D01*
G01X-2742500D01*
G02X-2717590Y-4999600I0J-24910D01*
G01Y-5342500D01*
G02X-2742500Y-5367410I-24910J0D01*
G01X-2869500D01*
G02X-2894410Y-5342500I0J24910D01*
G37*
G36*
G01X-2640520Y-5050400D02*
Y-4707500D01*
G02X-2615500Y-4682480I25020J0D01*
G01X-2488500D01*
G02X-2463480Y-4707500I0J-25020D01*
G01Y-5050400D01*
G02X-2488500Y-5075420I-25020J0D01*
G01X-2615500D01*
G02X-2640520Y-5050400I0J25020D01*
G37*
G36*
G01X-2588210Y-2601000D02*
Y-2474000D01*
G02X-2563300Y-2449090I24910J0D01*
G01X-2461700D01*
G02X-2436790Y-2474000I0J-24910D01*
G01Y-2601000D01*
G02X-2461700Y-2625910I-24910J0D01*
G01X-2563300D01*
G02X-2588210Y-2601000I0J24910D01*
G37*
G36*
G01X-3809520Y-517500D02*
Y-174600D01*
G02X-3784500Y-149580I25020J0D01*
G01X-3657500D01*
G02X-3632480Y-174600I0J-25020D01*
G01Y-517500D01*
G02X-3657500Y-542520I-25020J0D01*
G01X-3784500D01*
G02X-3809520Y-517500I0J25020D01*
G37*
G36*
G01X-4063520Y-225400D02*
Y117500D01*
G02X-4038500Y142520I25020J0D01*
G01X-3911500D01*
G02X-3886480Y117500I0J-25020D01*
G01Y-225400D01*
G02X-3911500Y-250420I-25020J0D01*
G01X-4038500D01*
G02X-4063520Y-225400I0J25020D01*
G37*
G36*
G01X-4571410D02*
Y117500D01*
G02X-4546500Y142410I24910J0D01*
G01X-4419500D01*
G02X-4394590Y117500I0J-24910D01*
G01Y-225400D01*
G02X-4419500Y-250310I-24910J0D01*
G01X-4546500D01*
G02X-4571410Y-225400I0J24910D01*
G37*
G36*
G01X-3012380Y-4602500D02*
Y-4522500D01*
G02X-2987480Y-4497580I24910J10D01*
G01X-2912540D01*
G02X-2887640Y-4522500I-10J-24910D01*
G01Y-4602500D01*
G02X-2912540Y-4627420I-24910J-10D01*
G01X-2987480D01*
G02X-3012380Y-4602500I10J24910D01*
G37*
G36*
G01X-4825520Y-517500D02*
Y-174600D01*
G02X-4800500Y-149580I25020J0D01*
G01X-4673500D01*
G02X-4648480Y-174600I0J-25020D01*
G01Y-517500D01*
G02X-4673500Y-542520I-25020J0D01*
G01X-4800500D01*
G02X-4825520Y-517500I0J25020D01*
G37*
G36*
G01X-5079520Y-225400D02*
Y117500D01*
G02X-5054500Y142520I25020J0D01*
G01X-4927500D01*
G02X-4902480Y117500I0J-25020D01*
G01Y-225400D01*
G02X-4927500Y-250420I-25020J0D01*
G01X-5054500D01*
G02X-5079520Y-225400I0J25020D01*
G37*
G36*
G01X-2164920Y-3512480D02*
Y-3437540D01*
G02X-2140000Y-3412640I24910J-10D01*
G01X-2060000D01*
G02X-2035080Y-3437540I10J-24910D01*
G01Y-3512480D01*
G02X-2060000Y-3537380I-24910J10D01*
G01X-2140000D01*
G02X-2164920Y-3512480I-10J24910D01*
G37*
G36*
G01X-2877420Y-3312460D02*
Y-3237520D01*
G02X-2852500Y-3212620I24910J-10D01*
G01X-2772500D01*
G02X-2747580Y-3237520I10J-24910D01*
G01Y-3312460D01*
G02X-2772500Y-3337360I-24910J10D01*
G01X-2852500D01*
G02X-2877420Y-3312460I-10J24910D01*
G37*
G36*
G01X-977420Y-3074980D02*
Y-3000040D01*
G02X-952500Y-2975140I24910J-10D01*
G01X-872500D01*
G02X-847580Y-3000040I10J-24910D01*
G01Y-3074980D01*
G02X-872500Y-3099880I-24910J10D01*
G01X-952500D01*
G02X-977420Y-3074980I-10J24910D01*
G37*
G36*
G01X287640Y-2552500D02*
Y-2472500D01*
G02X312540Y-2447580I24910J10D01*
G01X387480D01*
G02X412380Y-2472500I-10J-24910D01*
G01Y-2552500D01*
G02X387480Y-2577420I-24910J-10D01*
G01X312540D01*
G02X287640Y-2552500I10J24910D01*
G37*
G36*
G01X-862520Y-225400D02*
Y117500D01*
G02X-837500Y142520I25020J0D01*
G01X-710500D01*
G02X-685480Y117500I0J-25020D01*
G01Y-225400D01*
G02X-710500Y-250420I-25020J0D01*
G01X-837500D01*
G02X-862520Y-225400I0J25020D01*
G37*
G36*
G01X-964920Y-3487460D02*
Y-3412520D01*
G02X-940000Y-3387620I24910J-10D01*
G01X-860000D01*
G02X-835080Y-3412520I10J-24910D01*
G01Y-3487460D01*
G02X-860000Y-3512360I-24910J10D01*
G01X-940000D01*
G02X-964920Y-3487460I-10J24910D01*
G37*
G36*
G01X287640Y-2727500D02*
Y-2647500D01*
G02X312540Y-2622580I24910J10D01*
G01X387480D01*
G02X412380Y-2647500I-10J-24910D01*
G01Y-2727500D01*
G02X387480Y-2752420I-24910J-10D01*
G01X312540D01*
G02X287640Y-2727500I10J24910D01*
G37*
G36*
G01X-3108390Y-4287960D02*
Y-4070040D01*
G02X-3083480Y-4045120I24910J10D01*
G01X-3022520D01*
G02X-2997610Y-4070040I0J-24910D01*
G01Y-4287960D01*
G02X-3022520Y-4312880I-24910J-10D01*
G01X-3083480D01*
G02X-3108390Y-4287960I0J24910D01*
G37*
G36*
G01X-2449860Y-1552500D02*
Y-1472500D01*
G02X-2424960Y-1447580I24910J10D01*
G01X-2350020D01*
G02X-2325120Y-1472500I-10J-24910D01*
G01Y-1552500D01*
G02X-2350020Y-1577420I-24910J-10D01*
G01X-2424960D01*
G02X-2449860Y-1552500I10J24910D01*
G37*
G36*
G01X-949880Y-4040000D02*
Y-3960000D01*
G02X-924980Y-3935080I24910J10D01*
G01X-850040D01*
G02X-825140Y-3960000I-10J-24910D01*
G01Y-4040000D01*
G02X-850040Y-4064920I-24910J-10D01*
G01X-924980D01*
G02X-949880Y-4040000I10J24910D01*
G37*
G36*
G01X-1338410Y-4450800D02*
Y-4349200D01*
G02X-1313500Y-4324290I24910J0D01*
G01X-1186500D01*
G02X-1161590Y-4349200I0J-24910D01*
G01Y-4450800D01*
G02X-1186500Y-4475710I-24910J0D01*
G01X-1313500D01*
G02X-1338410Y-4450800I0J24910D01*
G37*
G36*
G01X-1116520Y-5342500D02*
Y-4999600D01*
G02X-1091500Y-4974580I25020J0D01*
G01X-964500D01*
G02X-939480Y-4999600I0J-25020D01*
G01Y-5136030D01*
X909600D01*
G02X946050Y-5120500I36450J-35010D01*
G02Y-5221600I0J-50550D01*
G02X909600Y-5206070I0J50540D01*
G01X-939480D01*
Y-5342500D01*
G02X-964500Y-5367520I-25020J0D01*
G01X-1091500D01*
G02X-1116520Y-5342500I0J25020D01*
G37*
G36*
G01X-1624520Y-4999600D02*
G02X-1599500Y-4974580I25020J0D01*
G01X-1586700D01*
X-1586160Y-4970240D01*
G02X-1485840I50160J-6259D01*
G01X-1485300Y-4974580D01*
X-1472500D01*
G02X-1447480Y-4999600I0J-25020D01*
G01Y-5342500D01*
G02X-1472500Y-5367520I-25020J0D01*
G01X-1599500D01*
G02X-1624520Y-5342500I0J25020D01*
G01Y-4999600D01*
G37*
G36*
G01X-2079020Y-4974580D02*
Y-4967510D01*
X-2080410Y-4966070D01*
G02X-2094550Y-4931000I36420J35070D01*
G02X-1993450I50550J0D01*
G02X-2007590Y-4966070I-50560J0D01*
G01X-2008980Y-4967510D01*
Y-4974580D01*
X-1980500D01*
G02X-1955480Y-4999600I0J-25020D01*
G01Y-5342500D01*
G02X-1980500Y-5367520I-25020J0D01*
G01X-2107500D01*
G02X-2132520Y-5342500I0J25020D01*
G01Y-4999600D01*
G02X-2107500Y-4974580I25020J0D01*
G01X-2079020D01*
G37*
G36*
G01X-1849980Y-4682480D02*
G03X-1840150Y-4671330I-3J9910D01*
G02X-1840550Y-4665000I50149J6347D01*
G02X-1739450I50550J0D01*
G02X-1739850Y-4671330I-50549J17D01*
G03X-1730020Y-4682480I9833J-1240D01*
G01X-1726500D01*
G02X-1701480Y-4707500I0J-25020D01*
G01Y-5050400D01*
G02X-1726500Y-5075420I-25020J0D01*
G01X-1853500D01*
G02X-1878520Y-5050400I0J25020D01*
G01Y-4707500D01*
G02X-1853500Y-4682480I25020J0D01*
G01X-1849980D01*
G37*
G36*
G01X-3637270Y-4683150D02*
G03X-3629830Y-4671610I-2285J9642D01*
G02X-3631000Y-4659530I61830J12085D01*
G02X-3505000I63000J0D01*
G02X-3506170Y-4671610I-63000J5D01*
G03X-3498730Y-4683150I9725J-1898D01*
G02X-3479480Y-4707500I-5776J-24350D01*
G01Y-5050400D01*
G02X-3504500Y-5075420I-25020J0D01*
G01X-3631500D01*
G02X-3656520Y-5050400I0J25020D01*
G01Y-4707500D01*
G02X-3637270Y-4683150I25026J0D01*
G37*
G36*
G01X-4164520Y-4713280D02*
G02X-4175020Y-4675000I64529J38280D01*
G01Y-4662500D01*
G02X-4100000Y-4587480I75020J0D01*
G02X-4028570Y-4639560I0J-75025D01*
G01X-4028210Y-4640700D01*
X-4022950Y-4645950D01*
G02X-4002370Y-4684620I-53052J-53045D01*
G02X-3987480Y-4707500I-10134J-22880D01*
G01Y-5050400D01*
G02X-4012500Y-5075420I-25020J0D01*
G01X-4139500D01*
G02X-4164520Y-5050400I0J25020D01*
G01Y-4713280D01*
G37*
G36*
G01X-2862480Y-4602500D02*
Y-4522500D01*
G02X-2837460Y-4497480I25020J0D01*
G01X-2762520D01*
G02X-2747510Y-4502480I4J-25019D01*
G01X-2733720D01*
X-2733010Y-4502260D01*
G02X-2714560Y-4499500I18443J-60241D01*
G02Y-4625500I0J-63000D01*
G02X-2733010Y-4622740I-7J63001D01*
G01X-2733720Y-4622520D01*
X-2747510D01*
G02X-2762520Y-4627520I-15006J20019D01*
G01X-2837460D01*
G02X-2862480Y-4602500I0J25020D01*
G37*
G36*
G01X-4775020Y-4537500D02*
G02X-4764030Y-4510970I37517J0D01*
G01X-4738020Y-4484960D01*
X-4737860Y-4483160D01*
G02X-4687500Y-4436950I50360J-4336D01*
G02X-4636950Y-4487500I0J-50550D01*
G02X-4683160Y-4537860I-50546J0D01*
G01X-4684960Y-4538020D01*
X-4699980Y-4553040D01*
Y-4678620D01*
G02X-4686950Y-4712500I-37532J-33880D01*
G02X-4788050I-50550J0D01*
G02X-4775020Y-4678620I50562J0D01*
G01Y-4537500D01*
G37*
G36*
G01X-5459070Y-4434510D02*
G03X-5457370Y-4419220I-5362J8336D01*
G02X-5475500Y-4375000I44862J44220D01*
G02X-5412500Y-4312000I63000J0D01*
G02X-5368750Y-4329670I0J-62996D01*
G02X-5325000Y-4312000I43750J-45326D01*
G02X-5262000Y-4375000I0J-63000D01*
G02X-5284920Y-4423600I-62986J0D01*
G03Y-4438900I6307J-7650D01*
G02X-5262000Y-4487500I-40066J-48600D01*
G02X-5325000Y-4550500I-63000J0D01*
G02X-5368200Y-4533350I5J62998D01*
G03X-5381800I-6800J-7214D01*
G02X-5425000Y-4550500I-43205J45848D01*
G02X-5488000Y-4487500I0J63000D01*
G02X-5459070Y-4434510I62995J0D01*
G37*
G36*
G01X-2854500Y-4287960D02*
Y-4070040D01*
G02X-2829480Y-4045020I25020J0D01*
G01X-2768520D01*
G02X-2743500Y-4070040I0J-25020D01*
G01Y-4287960D01*
G02X-2748980Y-4303590I-25020J-4D01*
G01Y-4326460D01*
G02X-2747510Y-4327480I-13519J-21053D01*
G01X-2733720D01*
X-2733010Y-4327260D01*
G02X-2714560Y-4324500I18443J-60241D01*
G02Y-4450500I0J-63000D01*
G02X-2733010Y-4447740I-7J63001D01*
G01X-2733720Y-4447520D01*
X-2747510D01*
G02X-2762520Y-4452520I-15006J20019D01*
G01X-2837460D01*
G02X-2862480Y-4427500I0J25020D01*
G01Y-4347500D01*
G02X-2849020Y-4325310I25021J0D01*
G01Y-4303590D01*
G02X-2854500Y-4287960I19540J15626D01*
G37*
G36*
G01X-1500020Y-4001920D02*
Y-3969810D01*
X-1500070Y-3969470D01*
G02X-1500550Y-3962500I50071J6950D01*
G02X-1399450I50550J0D01*
G02X-1399930Y-3969470I-50551J-20D01*
G01X-1399980Y-3969810D01*
Y-4001920D01*
X-1397500Y-4003350D01*
G02X-1384980Y-4025020I-12498J-21672D01*
G01Y-4099960D01*
G02X-1410000Y-4124980I-25020J0D01*
G01X-1490000D01*
G02X-1515020Y-4099960I0J25020D01*
G01Y-4025020D01*
G02X-1502500Y-4003350I25018J-2D01*
G01X-1500020Y-4001920D01*
G37*
G36*
G01X-1363350Y-3549990D02*
X-1311650D01*
G02X-1290000Y-3537520I21646J-12553D01*
G01X-1210000D01*
G02X-1184980Y-3562540I0J-25020D01*
G01Y-3637480D01*
G02X-1197500Y-3659150I-25018J2D01*
G01X-1199980Y-3660580D01*
Y-3934630D01*
X-1195850Y-3935330D01*
G02X-1175020Y-3960000I-4191J-24668D01*
G01Y-4040000D01*
G02X-1200040Y-4065020I-25020J0D01*
G01X-1274980D01*
G02X-1300000Y-4040000I0J25020D01*
G01Y-4001510D01*
G02X-1300020Y-4000000I50001J1417D01*
G01Y-3660580D01*
X-1302500Y-3659150D01*
G02X-1311650Y-3650030I12489J21680D01*
G01X-1363350D01*
G02X-1385000Y-3662500I-21646J12553D01*
G01X-1465000D01*
G02X-1490020Y-3637480I0J25020D01*
G01Y-3562540D01*
G02X-1465000Y-3537520I25020J0D01*
G01X-1385000D01*
G02X-1363350Y-3549990I4J-25023D01*
G37*
G36*
G01X-4562500Y-3484980D02*
X-4446650D01*
G02X-4427000Y-3475450I19650J-15493D01*
G01X-4333020D01*
G02X-4308000Y-3500470I0J-25020D01*
G01Y-3599530D01*
G02X-4333020Y-3624550I-25020J0D01*
G01X-4427000D01*
G02X-4446650Y-3615020I0J25023D01*
G01X-4536670D01*
G02X-4575000Y-3627520I-38330J52518D01*
G02X-4640020Y-3562500I0J65020D01*
G02X-4620980Y-3516520I65023J7D01*
G01X-4608480Y-3504020D01*
G02X-4562500Y-3484980I45973J-45983D01*
G37*
G36*
G01X-4266980Y-3475450D02*
X-4228380D01*
X-4228110Y-3475420D01*
G02X-4219990Y-3474980I8113J-74580D01*
G01X-4100000D01*
G02X-4046950Y-3496950I0J-75034D01*
G01X-3844760Y-3699150D01*
X-3842910Y-3699280D01*
G02X-3749030Y-3800000I-7089J-100720D01*
G02X-3850000Y-3900970I-100970J0D01*
G02X-3950720Y-3807090I0J100969D01*
G01X-3950850Y-3805240D01*
X-4131070Y-3625020D01*
X-4219990D01*
G02X-4228110Y-3624580I-7J75020D01*
G01X-4228380Y-3624550D01*
X-4266980D01*
G02X-4292000Y-3599530I0J25020D01*
G01Y-3571050D01*
X-4292190Y-3570390D01*
G02X-4295010Y-3550000I72202J20376D01*
G02X-4292190Y-3529610I75022J14D01*
G01X-4292000Y-3528950D01*
Y-3500470D01*
G02X-4266980Y-3475450I25020J0D01*
G37*
G36*
G01X637270Y-3553660D02*
G02X638050Y-3562500I-49769J-8846D01*
G02X536950I-50550J0D01*
G02X539980Y-3545260I50561J0D01*
G02X511950Y-3500000I22526J45260D01*
G02X562500Y-3449450I50550J0D01*
G02X593750Y-3460270I0J-50538D01*
G02X625000Y-3449450I31250J-39718D01*
G02X675550Y-3500000I0J-50550D01*
G02X640620Y-3548080I-50555J0D01*
G03X637270Y-3553660I1527J-4713D01*
G37*
G36*
G01X-1815020Y-3512480D02*
Y-3437540D01*
G02X-1790000Y-3412520I25020J0D01*
G01X-1710000D01*
G02X-1684980Y-3437540I0J-25020D01*
G01Y-3512480D01*
G02X-1700940Y-3535800I-25019J1D01*
G02X-1699450Y-3548000I-49062J-12183D01*
G02X-1800550I-50550J0D01*
G02X-1799060Y-3535800I50552J17D01*
G02X-1815020Y-3512480I9059J23321D01*
G37*
G36*
G01X-4914960Y-3465110D02*
G03X-4921750Y-3449820I-8248J5490D01*
G02X-4975500Y-3387500I9253J62320D01*
G02X-4849500I63000J0D01*
G02X-4860040Y-3422390I-63001J-5D01*
G03X-4853250Y-3437680I8248J-5490D01*
G02X-4799500Y-3500000I-9253J-62320D01*
G02X-4925500I-63000J0D01*
G02X-4914960Y-3465110I63001J5D01*
G37*
G36*
G01X-1137480Y-3302500D02*
Y-3222500D01*
G02X-1112460Y-3197480I25020J0D01*
G01X-1037520D01*
G02X-1012590Y-3220430I-3J-25018D01*
G01X-1012210Y-3224980D01*
X-944040D01*
G02X-918750Y-3218200I25290J-43777D01*
G02Y-3319300I0J-50550D01*
G02X-958470Y-3300020I0J50555D01*
G01X-1012210D01*
X-1012590Y-3304570D01*
G02X-1033340Y-3327170I-24934J2067D01*
G01X-1037470Y-3327870D01*
Y-3382650D01*
G03X-1032930Y-3387590I4955J-3D01*
G02X-1009980Y-3412520I-2068J-24933D01*
G01Y-3487460D01*
G02X-1035000Y-3512480I-25020J0D01*
G01X-1115000D01*
G02X-1140020Y-3487460I0J25020D01*
G01Y-3412520D01*
G02X-1117060Y-3387590I25018J-3D01*
G03X-1112510Y-3382650I-405J4938D01*
G01Y-3327870D01*
X-1116640Y-3327170D01*
G02X-1137480Y-3302500I4181J24669D01*
G37*
G36*
G01X-977520Y-2850020D02*
G02X-972520Y-2835010I25019J4D01*
G01Y-2814510D01*
G02X-852480I60020J0D01*
G01Y-2835010D01*
G02X-847480Y-2850020I-20019J-15006D01*
G01Y-2924960D01*
G02X-872500Y-2949980I-25020J0D01*
G01X-952500D01*
G02X-977520Y-2924960I0J25020D01*
G01Y-2850020D01*
G37*
G36*
G01X-5882570Y-2807550D02*
Y-2642450D01*
G02X-5857550Y-2617430I25020J0D01*
G01X-5692450D01*
G02X-5667430Y-2642450I0J-25020D01*
G01Y-2689980D01*
X-5550000D01*
Y-2685000D01*
G02X-5524980Y-2659980I25020J0D01*
G01X-5450040D01*
G02X-5425020Y-2685000I0J-25020D01*
G01Y-2765000D01*
G02X-5450040Y-2790020I-25020J0D01*
G01X-5524980D01*
G02X-5550000Y-2765000I0J25020D01*
G01Y-2760020D01*
X-5667430D01*
Y-2807550D01*
G02X-5692450Y-2832570I-25020J0D01*
G01X-5857550D01*
G02X-5882570Y-2807550I0J25020D01*
G37*
G36*
G01X1449980Y-2765540D02*
X1384960Y-2700520D01*
X1383160Y-2700360D01*
G02X1336950Y-2650000I4336J50360D01*
G02X1387500Y-2599450I50550J0D01*
G02X1437860Y-2645660I0J-50546D01*
G01X1438020Y-2647460D01*
X1514030Y-2723470D01*
G02X1525020Y-2750000I-26527J-26530D01*
G01Y-4237500D01*
G02X1514030Y-4264030I-37517J0D01*
G01X872580Y-4905480D01*
G02X846050Y-4916470I-26530J26527D01*
G01X-685480D01*
Y-5050400D01*
G02X-710500Y-5075420I-25020J0D01*
G01X-837500D01*
G02X-862520Y-5050400I0J25020D01*
G01Y-4707500D01*
G02X-837500Y-4682480I25020J0D01*
G01X-710500D01*
G02X-685480Y-4707500I0J-25020D01*
G01Y-4841430D01*
X830510D01*
X1449980Y-4221960D01*
Y-2765540D01*
G37*
G36*
G01X100000Y-2462480D02*
X139420D01*
X140850Y-2460000D01*
G02X162520Y-2447480I21672J-12498D01*
G01X237460D01*
G02X262480Y-2472500I0J-25020D01*
G01Y-2552500D01*
G02X237460Y-2577520I-25020J0D01*
G01X184680D01*
G03X177670Y-2594440I-2J-9911D01*
G01X205700Y-2622480D01*
X237460D01*
G02X262480Y-2647500I0J-25020D01*
G01Y-2727500D01*
G02X237460Y-2752520I-25020J0D01*
G01X162520D01*
G02X137500Y-2727500I0J25020D01*
G01Y-2695750D01*
X57130Y-2615380D01*
G02X42480Y-2580010I35373J35370D01*
G01Y-2527310D01*
X42430Y-2526970D01*
G02X41950Y-2520000I50071J6950D01*
G02X62020Y-2479670I50556J0D01*
G01X62300Y-2479460D01*
X64630Y-2477130D01*
G02X100000Y-2462480I35370J-35373D01*
G37*
G36*
G01X-5550000Y-2510020D02*
X-5674760D01*
G02X-5775000Y-2578570I-100240J39015D01*
G02Y-2363430I0J107570D01*
G02X-5672000Y-2439980I0J-107570D01*
G01X-5550000D01*
Y-2435000D01*
G02X-5524980Y-2409980I25020J0D01*
G01X-5450040D01*
G02X-5425020Y-2435000I0J-25020D01*
G01Y-2515000D01*
G02X-5450040Y-2540020I-25020J0D01*
G01X-5524980D01*
G02X-5550000Y-2515000I0J25020D01*
G01Y-2510020D01*
G37*
G36*
G01X-5527950Y-2247520D02*
X-5671850D01*
G02X-5775000Y-2324570I-103150J30521D01*
G02Y-2109430I0J107570D01*
G02X-5674950Y-2177480I0J-107574D01*
G01X-5527950D01*
X-5526650Y-2174510D01*
G02X-5503740Y-2159540I22910J-10046D01*
G01X-5346260D01*
G02X-5335450Y-2161990I11J-25023D01*
G01X-5334440Y-2162480D01*
X-5287500D01*
G02X-5252130Y-2177130I0J-50023D01*
G01X-5202130Y-2227130D01*
G02X-5187480Y-2262500I-35373J-35370D01*
G01Y-2730190D01*
X-5187430Y-2730530D01*
G02X-5186950Y-2737500I-50071J-6950D01*
G02X-5237500Y-2788050I-50550J0D01*
G02X-5270040Y-2776180I0J50537D01*
G01X-5271420Y-2775020D01*
X-5276920D01*
X-5278350Y-2777500D01*
G02X-5300020Y-2790020I-21672J12498D01*
G01X-5374960D01*
G02X-5399980Y-2765000I0J25020D01*
G01Y-2685000D01*
G02X-5374960Y-2659980I25020J0D01*
G01X-5300020D01*
G02X-5298170Y-2660040I115J-25019D01*
G03X-5287520Y-2650160I742J9881D01*
G01Y-2549840D01*
G03X-5298170Y-2539960I-9908J-1D01*
G02X-5300020Y-2540020I-1735J24959D01*
G01X-5374960D01*
G02X-5399980Y-2515000I0J25020D01*
G01Y-2435000D01*
G02X-5374960Y-2409980I25020J0D01*
G01X-5300020D01*
G02X-5298170Y-2410040I115J-25019D01*
G03X-5287520Y-2400160I742J9881D01*
G01Y-2283220D01*
X-5308220Y-2262520D01*
X-5334440D01*
X-5335450Y-2263010D01*
G02X-5346260Y-2265460I-10799J22573D01*
G01X-5503740D01*
G02X-5526650Y-2250490I0J25016D01*
G01X-5527950Y-2247520D01*
G37*
G36*
G01X-1862510Y-2741110D02*
Y-2083870D01*
G02X-1875540Y-2049990I37532J33880D01*
G02X-1774440I50550J0D01*
G02X-1787470Y-2083870I-50562J0D01*
G01Y-2741140D01*
G02X-1774450Y-2775000I-37518J-33860D01*
G02X-1875550I-50550J0D01*
G02X-1862510Y-2741110I50559J0D01*
G37*
G36*
G01X-4935850Y-2012010D02*
X-4934550Y-2014980D01*
X-4894700D01*
G02X-4705300I94700J-35017D01*
G01X-4677950D01*
X-4676650Y-2012010D01*
G02X-4653740Y-1997040I22910J-10046D01*
G01X-4561920D01*
G02X-4524200Y-1984980I37720J-52958D01*
G01X-4400000D01*
G02Y-2115020I0J-65020D01*
G01X-4524200D01*
G02X-4561920Y-2102960I0J65018D01*
G01X-4653740D01*
G02X-4676650Y-2087990I0J25016D01*
G01X-4677950Y-2085020D01*
X-4705300D01*
G02X-4894700I-94700J35017D01*
G01X-4934550D01*
X-4935850Y-2087990D01*
G02X-4958760Y-2102960I-22910J10046D01*
G01X-5014640D01*
G02X-5031070Y-2096810I0J25022D01*
G03X-5044070Y-2096780I-6517J-7467D01*
G02X-5060360Y-2102850I-16295J18838D01*
G01X-5116240D01*
G02X-5141150Y-2077940I0J24910D01*
G01Y-2022060D01*
G02X-5116240Y-1997150I24910J0D01*
G01X-5060360D01*
G02X-5044070Y-2003220I-5J-24908D01*
G03X-5031070Y-2003190I6483J7497D01*
G02X-5014640Y-1997040I16430J-18872D01*
G01X-4958760D01*
G02X-4935850Y-2012010I0J-25016D01*
G37*
G36*
G01X1614730Y-1781250D02*
G02X1625550Y-1812500I-39718J-31250D01*
G02X1575000Y-1863050I-50550J0D01*
G02X1526160Y-1825540I0J50551D01*
G02X1525000Y-1825550I-1016J50541D01*
G02Y-1724450I0J50550D01*
G02X1531160Y-1724830I-27J-50548D01*
G02X1575000Y-1699450I43840J-25173D01*
G02X1625550Y-1750000I0J-50550D01*
G02X1614730Y-1781250I-50538J0D01*
G37*
G36*
G01X-1299530Y-1058000D02*
X-1271050D01*
X-1270390Y-1057810D01*
G02X-1250000Y-1054990I20376J-72202D01*
G01X-1125000D01*
G02Y-1205030I0J-75020D01*
G01X-1250000D01*
G02X-1270390Y-1202210I-14J75022D01*
G01X-1271050Y-1202020D01*
X-1299530D01*
G02X-1324550Y-1177000I0J25020D01*
G01Y-1138400D01*
X-1324580Y-1138130D01*
G02X-1325020Y-1130010I74580J8113D01*
G02X-1324580Y-1121890I75020J7D01*
G01X-1324550Y-1121620D01*
Y-1083020D01*
G02X-1299530Y-1058000I25020J0D01*
G37*
G36*
G01X-3349760Y-1475240D02*
X-2963080Y-1088550D01*
X-2963040Y-1086550D01*
G02X-2912500Y-1036950I50540J-949D01*
G02X-2861950Y-1087500I0J-50550D01*
G02X-2911550Y-1138040I-50549J0D01*
G01X-2913550Y-1138080D01*
X-3289980Y-1514510D01*
Y-1522550D01*
G03X-3275140Y-1531150I9911J-1D01*
G02X-3250000Y-1524450I25149J-43848D01*
G02X-3199450Y-1575000I0J-50550D01*
G02X-3206660Y-1601010I-50548J8D01*
G01X-3208650Y-1604330D01*
X-3087750Y-1725230D01*
G02X-3077490Y-1749990I-24746J-24760D01*
G01Y-2026260D01*
G02X-3068210Y-2055450I-41268J-29190D01*
G02X-3169310I-50550J0D01*
G02X-3147530Y-2013890I50542J0D01*
G01Y-1764500D01*
X-3274760Y-1637260D01*
G02X-3280680Y-1629380I24758J24764D01*
G01X-3282100Y-1626810D01*
X-3289980D01*
Y-1672980D01*
X-3250240Y-1712730D01*
G02X-3239980Y-1737490I-24746J-24760D01*
G01Y-2287500D01*
G02X-3250240Y-2312260I-35006J0D01*
G01X-3333730Y-2395760D01*
Y-2707300D01*
G02X-3318200Y-2743750I-35010J-36450D01*
G02X-3419300I-50550J0D01*
G02X-3403770Y-2707300I50540J0D01*
G01Y-2381250D01*
G02X-3393510Y-2356490I35006J0D01*
G01X-3310020Y-2272990D01*
Y-1752000D01*
X-3349760Y-1712250D01*
G02X-3360020Y-1687490I24746J24760D01*
G01Y-1500000D01*
G02X-3349760Y-1475240I35006J0D01*
G37*
G36*
G01X324180Y-828750D02*
Y-824000D01*
G02X349200Y-798980I25020J0D01*
G01X450800D01*
G02X475820Y-824000I0J-25020D01*
G01Y-951000D01*
G02X450800Y-976020I-25020J0D01*
G01X349200D01*
G02X324180Y-951000I0J25020D01*
G01Y-946250D01*
G03X311930Y-936620I-9910J0D01*
G02X300000Y-938050I-11938J49119D01*
G02Y-836950I0J50550D01*
G02X311930Y-838380I-8J-50549D01*
G03X324180Y-828750I2340J9630D01*
G37*
G36*
G01X524180Y-951000D02*
Y-824000D01*
G02X549200Y-798980I25020J0D01*
G01X650800D01*
G02X675820Y-824000I0J-25020D01*
G01Y-833290D01*
G03X690120Y-842180I9911J-3D01*
G02X712500Y-836950I22391J-45317D01*
G02X746380Y-849980I0J-50562D01*
G01X775000D01*
G02X801530Y-860970I0J-37517D01*
G01X1064030Y-1123470D01*
G02X1075020Y-1150000I-26527J-26530D01*
G01Y-2175000D01*
G02X1064030Y-2201530I-37517J0D01*
G01X975520Y-2290040D01*
X975360Y-2291840D01*
G02X925000Y-2338050I-50360J4336D01*
G02X874450Y-2287500I0J50550D01*
G02X920660Y-2237140I50546J0D01*
G01X922460Y-2236980D01*
X999980Y-2159460D01*
Y-1165540D01*
X759460Y-925020D01*
X746420D01*
X745040Y-926180D01*
G02X712500Y-938050I-32540J38667D01*
G02X690120Y-932820I11J50547D01*
G03X675820Y-941710I-4389J-8887D01*
G01Y-951000D01*
G02X650800Y-976020I-25020J0D01*
G01X549200D01*
G02X524180Y-951000I0J25020D01*
G37*
G36*
G01X2046380Y-850020D02*
G02X2012500Y-863050I-33880J37532D01*
G02Y-761950I0J50550D01*
G02X2046380Y-774980I0J-50562D01*
G01X2191540D01*
G02X2225420Y-761950I33880J-37532D01*
G02Y-863050I0J-50550D01*
G02X2191540Y-850020I0J50562D01*
G01X2046380D01*
G37*
G36*
G01X-1315020Y-903350D02*
Y-792700D01*
G02X-1375970Y-700000I40020J92700D01*
G02X-1174030I100970J0D01*
G02X-1184980Y-745730I-100965J0D01*
G01Y-903350D01*
G02X-1175450Y-923000I-15493J-19650D01*
G01Y-1016980D01*
G02X-1200470Y-1042000I-25020J0D01*
G01X-1299530D01*
G02X-1324550Y-1016980I0J25020D01*
G01Y-923000D01*
G02X-1315020Y-903350I25023J0D01*
G37*
G36*
G01X1250000Y-775020D02*
X-157420D01*
G02X-225000Y-800970I-67580J75022D01*
G02Y-599030I0J100970D01*
G02X-157420Y-624980I0J-100972D01*
G01X1250000D01*
G02Y-775020I0J-75020D01*
G37*
G36*
G01X-4632570Y-782550D02*
Y-617450D01*
G02X-4607550Y-592430I25020J0D01*
G01X-4442450D01*
G02X-4417430Y-617450I0J-25020D01*
G01Y-770540D01*
X-4362740Y-825240D01*
G02X-4352480Y-850000I-24746J-24760D01*
G01Y-1363550D01*
G02X-4336950Y-1400000I-35010J-36450D01*
G02X-4438050I-50550J0D01*
G02X-4422520Y-1363550I50540J0D01*
G01Y-1026330D01*
G03X-4440240Y-1020230I-9911J-2D01*
G02X-4525000Y-1061570I-84760J66222D01*
G02Y-846430I0J107570D01*
G02X-4440240Y-887770I0J-107562D01*
G03X-4422520Y-881670I7809J6102D01*
G01Y-864510D01*
X-4479460Y-807570D01*
X-4607550D01*
G02X-4632570Y-782550I0J25020D01*
G37*
G36*
G01X-4317520Y-517500D02*
Y-174600D01*
G02X-4292500Y-149580I25020J0D01*
G01X-4165500D01*
G02X-4140480Y-174600I0J-25020D01*
G01Y-517500D01*
G02X-4165500Y-542520I-25020J0D01*
G01X-4195510D01*
Y-788550D01*
G02X-4179980Y-825000I-35010J-36450D01*
G02X-4281080I-50550J0D01*
G02X-4265550Y-788550I50540J0D01*
G01Y-542520D01*
X-4292500D01*
G02X-4317520Y-517500I0J25020D01*
G37*
G36*
G01X-3301520D02*
Y-174600D01*
G02X-3276500Y-149580I25020J0D01*
G01X-3149500D01*
G02X-3124480Y-174600I0J-25020D01*
G01Y-308530D01*
X-3112870D01*
X-3111490Y-307370D01*
G02X-3078950Y-295500I32540J-38667D01*
G02Y-396600I0J-50550D01*
G02X-3111490Y-384730I0J50537D01*
G01X-3112870Y-383570D01*
X-3124480D01*
Y-517500D01*
G02X-3149500Y-542520I-25020J0D01*
G01X-3276500D01*
G02X-3301520Y-517500I0J25020D01*
G37*
G36*
G01X-2132520D02*
Y-174600D01*
G02X-2107500Y-149580I25020J0D01*
G01X-1980500D01*
G02X-1955480Y-174600I0J-25020D01*
G01Y-517500D01*
G02X-1980500Y-542520I-25020J0D01*
G01X-2008980D01*
Y-550600D01*
G02X-2019240Y-575360I-35006J0D01*
G01X-2071310Y-627440D01*
X-2071490Y-629200D01*
G02X-2121790Y-674730I-50300J5020D01*
G02Y-573630I0J50550D01*
G02X-2118970Y-573710I-23J-50549D01*
G01X-2116760Y-573830D01*
X-2093900Y-550980D01*
G03X-2097410Y-542520I-3505J3504D01*
G01X-2107500D01*
G02X-2132520Y-517500I0J25020D01*
G37*
G36*
G01X-3047520Y-225400D02*
Y117500D01*
G02X-3022500Y142520I25020J0D01*
G01X-2895500D01*
G02X-2870480Y117500I0J-25020D01*
G01Y-16430D01*
X-2837830D01*
G02X-2803950Y-3400I33880J-37532D01*
G02Y-104500I0J-50550D01*
G02X-2837830Y-91470I0J50562D01*
G01X-2870480D01*
Y-225400D01*
G02X-2895500Y-250420I-25020J0D01*
G01X-3022500D01*
G02X-3047520Y-225400I0J25020D01*
G37*
G36*
G01X-1878520D02*
Y117500D01*
G02X-1853500Y142520I25020J0D01*
G01X-1726500D01*
G02X-1701480Y117500I0J-25020D01*
G01Y-127180D01*
G03X-1690900Y-137060I9908J5D01*
G02X-1687500Y-136950I3334J-50442D01*
G02Y-238050I0J-50550D01*
G02X-1703580Y-235430I-17J50553D01*
G02X-1726500Y-250420I-22920J10028D01*
G01X-1853500D01*
G02X-1878520Y-225400I0J25020D01*
G37*
G36*
G01X-1370520Y117500D02*
G02X-1345500Y142520I25020J0D01*
G01X-1218500D01*
G02X-1193480Y117500I0J-25020D01*
G01Y-1240D01*
G03X-1178720Y-9880I9908J-1D01*
G02X-1153950Y-3400I24762J-44072D01*
G02X-1103400Y-53950I0J-50550D01*
G02X-1116430Y-87830I-50562J0D01*
G01Y-143060D01*
G03X-1102260Y-152010I9909J-4D01*
G02X-1091500Y-149580I10756J-22591D01*
G01X-1063020D01*
Y-55920D01*
G02X-1078550Y-19470I35010J36450D01*
G02X-977450I50550J0D01*
G02X-992980Y-55920I-50540J0D01*
G01Y-149580D01*
X-964500D01*
G02X-939480Y-174600I0J-25020D01*
G01Y-517500D01*
G02X-939570Y-519610I-25020J10D01*
G01X-939590Y-519820D01*
Y-524980D01*
X-475000D01*
G02X-448470Y-535970I0J-37517D01*
G01X-385970Y-598470D01*
G02X-374980Y-625000I-26527J-26530D01*
G01Y-871960D01*
X-246960Y-999980D01*
X75000D01*
G02X101530Y-1010970I0J-37517D01*
G01X239030Y-1148470D01*
G02X250020Y-1175000I-26527J-26530D01*
G01Y-1546960D01*
X428040Y-1724980D01*
X600000D01*
G02X601230Y-1725000I5J-37520D01*
G03X608560Y-1708090I324J9903D01*
G01X475240Y-1574760D01*
G02X464980Y-1550000I24746J24760D01*
G01Y-1452950D01*
X462010Y-1451650D01*
G02X453650Y-1445680I10050J22911D01*
G03X446350I-3650J-3354D01*
G02X443120Y-1448630I-18423J16928D01*
G02X450550Y-1475000I-43117J-26380D01*
G02X349450I-50550J0D01*
G02X356880Y-1448630I50547J-10D01*
G02X347040Y-1428740I15182J19890D01*
G01Y-1372860D01*
G02X353140Y-1356490I25015J0D01*
G03Y-1343510I-7490J6490D01*
G02X347040Y-1327140I18915J16370D01*
G01Y-1271260D01*
G02X356880Y-1251370I25022J0D01*
G02X349450Y-1225000I43117J26380D01*
G02X450550I50550J0D01*
G02X443120Y-1251370I-50547J10D01*
G02X446350Y-1254320I-15193J-19878D01*
G03X453650I3650J3354D01*
G02X472060Y-1246240I18410J-16933D01*
G01X527940D01*
G02X546350Y-1254320I0J-25013D01*
G03X553650I3650J3354D01*
G02X556880Y-1251370I18423J-16928D01*
G02X549450Y-1225000I43117J26380D01*
G02X650550I50550J0D01*
G02X643120Y-1251370I-50547J10D01*
G02X652960Y-1271260I-15182J-19890D01*
G01Y-1327140D01*
G02X646860Y-1343510I-25015J0D01*
G03Y-1356490I7490J-6490D01*
G02X652960Y-1372860I-18915J-16370D01*
G01Y-1385870D01*
X653130Y-1386500D01*
G02X655020Y-1400800I-53130J-14297D01*
G01Y-1487500D01*
G02X544980I-55020J0D01*
G01Y-1451220D01*
X538980D01*
X538030Y-1451640D01*
X537990Y-1451650D01*
X535020Y-1452950D01*
Y-1535490D01*
X862260Y-1862740D01*
G02X872520Y-1887500I-24746J-24760D01*
G01Y-1962500D01*
G02X862260Y-1987260I-35006J0D01*
G01X842330Y-2007190D01*
X842070Y-2007580D01*
G02X837870Y-2012650I-28948J19706D01*
G01X824740Y-2025780D01*
X825210Y-2028340D01*
G02X826050Y-2037500I-49708J-9177D01*
G02X724950I-50550J0D01*
G02X746870Y-1995840I50548J0D01*
G03X746790Y-1979450I-5610J8168D01*
G02X724640Y-1941840I28214J41944D01*
G01X724480Y-1940040D01*
X584460Y-1800020D01*
X412500D01*
G02X385970Y-1789030I0J37517D01*
G01X185970Y-1589030D01*
G02X174980Y-1562500I26527J26530D01*
G01Y-1190540D01*
X59460Y-1075020D01*
X-262500D01*
G02X-289030Y-1064030I0J37517D01*
G01X-439030Y-914030D01*
G02X-450020Y-887500I26527J26530D01*
G01Y-640540D01*
X-490540Y-600020D01*
X-510520D01*
G03X-516290Y-617990I-4J-9910D01*
G02X-474140Y-700000I-58707J-82010D01*
G02X-675860I-100860J0D01*
G02X-633710Y-617990I100857J0D01*
G03X-639480Y-600020I-5766J8060D01*
G01X-860330D01*
G03X-866110Y-617980I-3J-9909D01*
G02X-824030Y-700000I-58894J-82020D01*
G02X-925000Y-800970I-100970J0D01*
G02X-1018740Y-737520I0J100970D01*
G01X-1050000D01*
G02X-1076530Y-726530I0J37517D01*
G01X-1180480Y-622580D01*
G02X-1191470Y-596050I26527J26530D01*
G01Y-255850D01*
G03X-1206240Y-247210I-9910J4D01*
G02X-1218500Y-250420I-12260J21807D01*
G01X-1231430D01*
Y-391450D01*
G02X-1241690Y-416210I-35006J0D01*
G01X-1437740Y-612260D01*
G02X-1462500Y-622520I-24760J24746D01*
G01X-1910490D01*
X-2011920Y-723950D01*
X-2011960Y-725950D01*
G02X-2062500Y-775550I-50540J949D01*
G02X-2113050Y-725000I0J50550D01*
G02X-2063450Y-674460I50549J0D01*
G01X-2061450Y-674420D01*
X-1949760Y-562740D01*
G02X-1925000Y-552480I24760J-24746D01*
G01X-1477010D01*
X-1475500Y-550980D01*
G03X-1479010Y-542520I-3505J3504D01*
G01X-1599500D01*
G02X-1624520Y-517500I0J25020D01*
G01Y-408420D01*
G03X-1636980Y-398840I-9911J2D01*
G02X-1650000Y-400550I-13036J48838D01*
G02Y-299450I0J50550D01*
G02X-1636980Y-301160I-16J-50548D01*
G03X-1624520Y-291580I2549J9578D01*
G01Y-174600D01*
G02X-1599500Y-149580I25020J0D01*
G01X-1472500D01*
G02X-1447480Y-174600I0J-25020D01*
G01Y-499030D01*
G03X-1430560Y-506040I9911J-3D01*
G01X-1301470Y-376940D01*
Y-250420D01*
X-1345500D01*
G02X-1370520Y-225400I0J25020D01*
G01Y117500D01*
G37*
G36*
G01X-2386520D02*
G02X-2361500Y142520I25020J0D01*
G01X-2234500D01*
G02X-2209480Y117500I0J-25020D01*
G01Y-225400D01*
G02X-2234500Y-250420I-25020J0D01*
G01X-2361500D01*
G02X-2374800Y-246590I0J25008D01*
G03X-2389980Y-254980I-5270J-8393D01*
G01Y-404650D01*
G03X-2377190Y-414130I9909J1D01*
G02X-2362500Y-411950I14685J-48371D01*
G02X-2311950Y-462500I0J-50550D01*
G02X-2327480Y-498950I-50540J0D01*
G01Y-837500D01*
G02X-2337740Y-862260I-35006J0D01*
G01X-2458700Y-983220D01*
G03X-2450880Y-1000110I7007J-7011D01*
G02X-2447800Y-999980I3121J-37388D01*
G01X-2187500D01*
G02X-2160970Y-1010970I0J-37517D01*
G01X-2135970Y-1035970D01*
G02X-2124980Y-1062500I-26527J-26530D01*
G01Y-1070150D01*
G03X-2120430Y-1075090I4955J-2D01*
G02X-2097480Y-1100020I-2068J-24933D01*
G01Y-1174960D01*
G02X-2122500Y-1199980I-25020J0D01*
G01X-2202500D01*
G02X-2227520Y-1174960I0J25020D01*
G01Y-1100020D01*
G02X-2225070Y-1089210I25019J12D01*
G03X-2234000Y-1075020I-8936J4281D01*
G01X-2432260D01*
X-2561730Y-1204490D01*
X-2561890Y-1206290D01*
G02X-2612250Y-1252500I-50360J4336D01*
G02X-2648050Y-1237640I0J50554D01*
G03X-2664980Y-1244630I-7021J-6993D01*
G01Y-1549980D01*
X-2640540D01*
X-2600000Y-1509430D01*
Y-1472500D01*
G02X-2574980Y-1447480I25020J0D01*
G01X-2500040D01*
G02X-2475020Y-1472500I0J-25020D01*
G01Y-1552500D01*
G02X-2500040Y-1577520I-25020J0D01*
G01X-2561960D01*
X-2598470Y-1614030D01*
G02X-2625000Y-1625020I-26530J26527D01*
G01X-2666120D01*
G02X-2700000Y-1638050I-33880J37532D01*
G02X-2735590Y-1623400I0J50555D01*
G03X-2752480Y-1630430I-6981J-7033D01*
G01Y-1792510D01*
G02X-2762740Y-1817270I-35006J0D01*
G01X-2826020Y-1880560D01*
G03X-2819020Y-1897480I7006J-7010D01*
G01X-2800020D01*
G02X-2775000Y-1922500I0J-25020D01*
G01Y-2002500D01*
G02X-2788400Y-2024660I-25022J-1D01*
G03X-2790690Y-2030920I2299J-4390D01*
G02X-2786950Y-2050000I-46799J-19080D01*
G02X-2837500Y-2100550I-50550J0D01*
G02X-2874200Y-2084770I-6J50553D01*
G02X-2894750Y-2074760I4221J34765D01*
G01X-2900420Y-2069100D01*
X-2904630Y-2073300D01*
X-2905000Y-2074220D01*
G02X-2951770Y-2105580I-46770J19196D01*
G02X-3002320Y-2055030I0J50550D01*
G02X-3000130Y-2040320I50549J-8D01*
G03X-3009610Y-2027520I-9482J2888D01*
G01X-3024980D01*
G02X-3050000Y-2002500I0J25020D01*
G01Y-1922500D01*
G02X-3024980Y-1897480I25020J0D01*
G01X-2950040D01*
G02X-2942940Y-1898500I29J-25020D01*
G03X-2937010Y-1895770I1407J4749D01*
G02X-2929790Y-1885280I31975J-14278D01*
G01X-2822520Y-1778000D01*
Y-1327010D01*
X-2837260Y-1312260D01*
G02X-2847520Y-1287500I24746J24760D01*
G01Y-1278480D01*
X-2848910Y-1277040D01*
G02Y-1206900I36420J35070D01*
G01X-2847520Y-1205460D01*
Y-1200000D01*
G02X-2837260Y-1175240I35006J0D01*
G01X-2736100Y-1074080D01*
G03X-2745800Y-1057530I-7005J7012D01*
G02X-2775000Y-1061570I-29203J103530D01*
G02X-2667430Y-954000I0J107570D01*
G02X-2671470Y-983200I-107570J3D01*
G03X-2654920Y-992900I9538J-2695D01*
G01X-2460020Y-797990D01*
Y-547080D01*
G03X-2475200Y-538690I-9910J-3D01*
G02X-2488500Y-542520I-13300J21178D01*
G01X-2615500D01*
G02X-2640520Y-517500I0J25020D01*
G01Y-174600D01*
G02X-2615500Y-149580I25020J0D01*
G01X-2488500D01*
G02X-2468530Y-159530I0J-25015D01*
G03X-2452760Y-159600I7912J5968D01*
G02X-2449760Y-156190I27736J-21377D01*
G01X-2386520Y-92940D01*
Y117500D01*
G37*
G36*
G01X-965370Y-3562490D02*
X-964670Y-3558360D01*
G02X-940000Y-3537520I24669J-4181D01*
G01X-860000D01*
G02X-835330Y-3558360I1J-25021D01*
G01X-834630Y-3562490D01*
X187510D01*
G02X214040Y-3573480I0J-37517D01*
G01X451530Y-3810970D01*
G02X462520Y-3837500I-26527J-26530D01*
G01Y-3909460D01*
X585210Y-4032150D01*
X588220Y-4030970D01*
G02X625000Y-4024030I36787J-94029D01*
G02X524030Y-4125000I0J-100970D01*
G02X530970Y-4088220I100969J-7D01*
G01X532150Y-4085210D01*
X398470Y-3951530D01*
G02X387480Y-3925000I26527J26530D01*
G01Y-3853040D01*
X171970Y-3637530D01*
X-834630D01*
X-835330Y-3641660D01*
G02X-860000Y-3662500I-24669J4181D01*
G01X-940000D01*
G02X-964670Y-3641660I-1J25021D01*
G01X-965370Y-3637530D01*
X-1009630D01*
X-1010330Y-3641660D01*
G02X-1032930Y-3662410I-24667J4184D01*
G03X-1037470Y-3667350I415J-4937D01*
G01Y-3938350D01*
G02X-1025000Y-3960000I-12553J-21646D01*
G01Y-4009420D01*
X-973470Y-4060960D01*
G02X-965240Y-4073360I-26525J-26536D01*
G03X-959410Y-4076290I4590J1868D01*
G02X-950000Y-4075090I9424J-36408D01*
G02X-932310Y-4079510I0J-37610D01*
G03X-925020Y-4075140I2335J4370D01*
G01Y-4074980D01*
X-835360D01*
X-800020Y-4039640D01*
Y-3902140D01*
X-597860Y-3699980D01*
X-499980D01*
Y-3727480D01*
X-325000D01*
G02Y-3847520I0J-60020D01*
G01X-499980D01*
Y-4002140D01*
X-489640Y-4012480D01*
X-380160D01*
G02X-376540Y-4008490I31561J-24997D01*
G03X-376530Y-4001360I-3436J3570D01*
G02X-388770Y-3972500I27904J28860D01*
G02X-348620Y-3932350I40150J0D01*
G01X-292740D01*
G02X-275230Y-3936370I0J-40144D01*
G02X-262030Y-3932580I13207J-21118D01*
G01X-162970D01*
G02X-160290Y-3932720I42J-24912D01*
G03X-154810Y-3927550I534J4923D01*
G02X-154870Y-3925000I50492J2464D01*
G02X-53770I50550J0D01*
G02X-55490Y-3938080I-50551J-6D01*
G02X-36120Y-3972500I-20897J-34420D01*
G02X-40280Y-3990330I-40262J-7D01*
G01X-40800Y-3991370D01*
Y-3997480D01*
X-27690D01*
X-26720Y-3993770D01*
G02X-2500Y-3975020I24222J-6270D01*
G01X77500D01*
G02X102520Y-4000040I0J-25020D01*
G01Y-4074980D01*
G02X77500Y-4100000I-25020J0D01*
G01X-2500D01*
G02X-26730Y-4081240I-4J25022D01*
G01X-27690Y-4077520D01*
X-40800D01*
Y-4083630D01*
X-40280Y-4084670D01*
G02X-36130Y-4101550I-36100J-17826D01*
G01X-36080Y-4103530D01*
X-27140Y-4112480D01*
X150020D01*
Y-4272860D01*
X122860Y-4300020D01*
X-135360D01*
X-162520Y-4272860D01*
Y-4142420D01*
X-262030D01*
G02X-275120Y-4138700I5J24909D01*
G02X-292740Y-4142760I-17620J36205D01*
G01X-328920D01*
X-358830Y-4182650D01*
X-353470Y-4186670D01*
X-351720Y-4186610D01*
G02X-350800Y-4186590I1001J-24888D01*
G01X-249200D01*
G02X-224290Y-4211500I0J-24910D01*
G01Y-4338500D01*
G02X-249200Y-4363410I-24910J0D01*
G01X-350800D01*
G02X-353930Y-4363210I20J24909D01*
G03X-358620Y-4370970I-630J-4916D01*
G02X-349450Y-4400000I-41366J-29030D01*
G02X-349930Y-4406970I-50551J-20D01*
G01X-349980Y-4407310D01*
Y-4450020D01*
X-392690D01*
X-393030Y-4450070D01*
G02X-400000Y-4450550I-6950J50071D01*
G02X-406970Y-4450070I-20J50551D01*
G01X-407310Y-4450020D01*
X-535360D01*
X-785360Y-4200020D01*
X-796620D01*
G03X-806300Y-4212070I-3J-9910D01*
G02X-805710Y-4217450I-24319J-5389D01*
G01Y-4382550D01*
G02X-814640Y-4401660I-24912J0D01*
G03X-815940Y-4407590I3175J-3803D01*
G02X-812280Y-4423800I-34067J-16210D01*
G01Y-4462480D01*
X-637500D01*
G02X-610970Y-4473470I0J-37517D01*
G01X-409960Y-4674480D01*
X-408160Y-4674640D01*
G02X-361950Y-4725000I-4336J-50360D01*
G02X-412500Y-4775550I-50550J0D01*
G02X-462860Y-4729340I0J50546D01*
G01X-463020Y-4727540D01*
X-653040Y-4537520D01*
X-844920D01*
G02X-850970Y-4537030I-6J37520D01*
G03X-862480Y-4546810I-1601J-9779D01*
G01Y-4625000D01*
G02X-873470Y-4651530I-37517J0D01*
G01X-910970Y-4689030D01*
G02X-937500Y-4700020I-26530J26527D01*
G01X-1193590D01*
Y-4705180D01*
X-1193570Y-4705390D01*
G02X-1193480Y-4707500I-24930J-2120D01*
G01Y-4820960D01*
G03X-1180760Y-4830470I9910J-6D01*
G02X-1166450Y-4828400I14317J-48479D01*
G02Y-4929500I0J-50550D01*
G02X-1180760Y-4927430I7J50549D01*
G03X-1193480Y-4936940I-2810J-9504D01*
G01Y-5050400D01*
G02X-1218500Y-5075420I-25020J0D01*
G01X-1345500D01*
G02X-1370520Y-5050400I0J25020D01*
G01Y-4707500D01*
G02X-1370430Y-4705390I25020J-10D01*
G01X-1370410Y-4705180D01*
Y-4700020D01*
X-1499990D01*
G02X-1526520Y-4689030I0J37517D01*
G01X-1665530Y-4550020D01*
X-2203620D01*
G02X-2237500Y-4563050I-33880J37532D01*
G02Y-4461950I0J50550D01*
G02X-2203620Y-4474980I0J-50562D01*
G01X-1649990D01*
G02X-1623460Y-4485970I0J-37517D01*
G01X-1484450Y-4624980D01*
X-1477010D01*
G03X-1470000Y-4608060I5J9910D01*
G01X-1653040Y-4425020D01*
X-2091120D01*
G02X-2125000Y-4438050I-33880J37532D01*
G02Y-4336950I0J50550D01*
G02X-2091120Y-4349980I0J-50562D01*
G01X-1637500D01*
G02X-1610970Y-4360970I0J-37517D01*
G01X-1396960Y-4574980D01*
X-1178810D01*
G03X-1169990Y-4560550I2J9909D01*
G02X-1175550Y-4537500I44999J23050D01*
G02X-1125000Y-4486950I50550J0D01*
G02X-1122460Y-4487010I77J-50552D01*
G01X-1120270Y-4487120D01*
X-1087720Y-4454580D01*
Y-4423800D01*
G02X-1084060Y-4407590I37727J0D01*
G03X-1085360Y-4401660I-4475J2127D01*
G02X-1094290Y-4382550I15982J19110D01*
G01Y-4217450D01*
G02X-1085360Y-4198340I24912J0D01*
G03X-1084060Y-4192410I-3175J3803D01*
G02X-1087720Y-4176200I34067J16210D01*
G01Y-4150020D01*
X-1146960D01*
X-1161480Y-4164540D01*
Y-4250800D01*
G02X-1186500Y-4275820I-25020J0D01*
G01X-1313500D01*
G02X-1335600Y-4262530I0J25020D01*
G01X-1388350D01*
G02X-1410000Y-4275000I-21646J12553D01*
G01X-1490000D01*
G02X-1515020Y-4249980I0J25020D01*
G01Y-4175040D01*
G02X-1490000Y-4150020I25020J0D01*
G01X-1410000D01*
G02X-1388350Y-4162490I4J-25023D01*
G01X-1338520D01*
Y-4149200D01*
G02X-1313500Y-4124180I25020J0D01*
G01X-1227240D01*
X-1189030Y-4085970D01*
G02X-1162500Y-4074980I26530J-26527D01*
G01X-1077530D01*
G03X-1074030Y-4066520I-3J4955D01*
G01X-1075530Y-4065020D01*
X-1124960D01*
G02X-1149980Y-4040000I0J25020D01*
G01Y-3960000D01*
G02X-1137510Y-3938350I25023J4D01*
G01Y-3648460D01*
X-1137930Y-3647510D01*
G02X-1140020Y-3637480I22930J10011D01*
G01Y-3562540D01*
G02X-1115000Y-3537520I25020J0D01*
G01X-1035000D01*
G02X-1010330Y-3558360I1J-25021D01*
G01X-1009630Y-3562490D01*
X-965370D01*
G37*
G36*
G01X-2981500Y-4070040D02*
G02X-2956480Y-4045020I25020J0D01*
G01X-2895520D01*
G02X-2870500Y-4070040I0J-25020D01*
G01Y-4287960D01*
G02X-2895520Y-4312980I-25020J0D01*
G01X-2913210D01*
Y-4322230D01*
X-2908970Y-4322840D01*
G02X-2887640Y-4347500I-3579J-24651D01*
G01Y-4427500D01*
G02X-2912540Y-4452420I-24910J-10D01*
G01X-2987480D01*
G02X-3012380Y-4427500I10J24910D01*
G01Y-4347500D01*
G02X-2987480Y-4322580I24910J10D01*
G01X-2981170D01*
G03X-2974160Y-4305660I5J9910D01*
G02X-2981500Y-4287960I17678J17703D01*
G01Y-4070040D01*
G37*
G36*
G01X-1775520Y-1134960D02*
X-1775360Y-1133160D01*
G02X-1725000Y-1086950I50360J-4336D01*
G02X-1674450Y-1137500I0J-50550D01*
G02X-1720660Y-1187860I-50546J0D01*
G01X-1722460Y-1188020D01*
X-1762480Y-1228040D01*
Y-1233690D01*
G03X-1748050Y-1242510I9909J-2D01*
G02X-1725000Y-1236950I23050J-44999D01*
G02X-1674640Y-1283160I0J-50546D01*
G01X-1674480Y-1284960D01*
X-1521960Y-1437480D01*
X-1325000D01*
G02X-1298470Y-1448470I0J-37517D01*
G01X-1035970Y-1710970D01*
G02X-1024980Y-1737500I-26527J-26530D01*
G01Y-1978620D01*
G02X-1011950Y-2012500I-37532J-33880D01*
G02X-1113050I-50550J0D01*
G02X-1100020Y-1978620I50562J0D01*
G01Y-1753040D01*
X-1340540Y-1512520D01*
X-1422680D01*
G03X-1425870Y-1521270I-4J-4955D01*
G02X-1423470Y-1523470I-24129J-28731D01*
G01X-1348470Y-1598470D01*
G02X-1337480Y-1625000I-26527J-26530D01*
G01Y-1975000D01*
G02X-1348470Y-2001530I-37517J0D01*
G01X-1424980Y-2078040D01*
Y-2104730D01*
G03X-1408500Y-2112150I9911J2D01*
G02X-1375000Y-2099450I33506J-37848D01*
G02X-1324450Y-2150000I0J-50550D01*
G02X-1324930Y-2156970I-50551J-20D01*
G01X-1324980Y-2157310D01*
Y-2529280D01*
X-1279280Y-2574980D01*
X-1194810D01*
X-1194470Y-2574930D01*
G02X-1187500Y-2574450I6950J-50071D01*
G02Y-2675550I0J-50550D01*
G02X-1194470Y-2675070I-20J50551D01*
G01X-1194810Y-2675020D01*
X-1300000D01*
G02X-1335370Y-2660370I0J50023D01*
G01X-1357740Y-2638000D01*
G03X-1374620Y-2645820I-7005J-7008D01*
G02X-1374460Y-2649050I-50383J-4115D01*
G01X-1374420Y-2651050D01*
X-1337740Y-2687740D01*
G02X-1327480Y-2712500I-24746J-24760D01*
G01Y-2780460D01*
X-1231940D01*
G02X-1210500Y-2792590I0J-25013D01*
G01X-1209050Y-2794990D01*
X-1154870D01*
X-1129940Y-2770060D01*
G02X-1087500Y-2752480I42440J-42437D01*
G02X-1027480Y-2812500I0J-60020D01*
G01Y-2835010D01*
G02X-1022480Y-2850020I-20019J-15006D01*
G01Y-2924960D01*
G02X-1047500Y-2949980I-25020J0D01*
G01X-1127500D01*
G02X-1152520Y-2924960I0J25020D01*
G01Y-2915030D01*
X-1209050D01*
X-1210500Y-2917430D01*
G02X-1231940Y-2929560I-21440J12883D01*
G01X-1493060D01*
G02X-1518080Y-2904540I0J25020D01*
G01Y-2860390D01*
G03X-1527500Y-2850490I-9909J3D01*
G02X-1558500Y-2837850I2509J50487D01*
G03X-1574980Y-2845270I-6569J-7422D01*
G01Y-2904280D01*
X-1539630Y-2939630D01*
G02X-1524980Y-2975000I-35373J-35370D01*
G01Y-3018340D01*
G03X-1508830Y-3026030I9908J5D01*
G02X-1493060Y-3020440I15764J-19432D01*
G01X-1421940D01*
G02X-1409890Y-3023540I-12J-25017D01*
G02X-1398060Y-3020550I11830J-21908D01*
G01X-1326940D01*
G02X-1315110Y-3023540I0J-24898D01*
G02X-1303060Y-3020440I12062J-21917D01*
G01X-1231940D01*
G02X-1206920Y-3045460I0J-25020D01*
G01Y-3084830D01*
X-1189640Y-3102110D01*
G02X-1174990Y-3137480I-35373J-35370D01*
G01Y-3200850D01*
G02X-1162520Y-3222500I-12553J-21646D01*
G01Y-3302500D01*
G02X-1183360Y-3327170I-25021J-1D01*
G01X-1187490Y-3327870D01*
Y-3401540D01*
X-1187070Y-3402490D01*
G02X-1184980Y-3412520I-22930J-10011D01*
G01Y-3487460D01*
G02X-1210000Y-3512480I-25020J0D01*
G01X-1290000D01*
G02X-1315020Y-3487460I0J25020D01*
G01Y-3412520D01*
G02X-1290000Y-3387500I25020J0D01*
G01X-1262530D01*
Y-3327870D01*
X-1266660Y-3327170D01*
G02X-1287500Y-3302500I4181J24669D01*
G01Y-3222500D01*
G02X-1275030Y-3200850I25023J4D01*
G01Y-3169540D01*
X-1303060D01*
G02X-1315110Y-3166440I12J25017D01*
G02X-1318380Y-3167910I-11821J21925D01*
G03X-1319510Y-3176630I1704J-4654D01*
G02X-1308850Y-3197060I-14247J-20430D01*
G01Y-3252940D01*
G02X-1333760Y-3277850I-24910J0D01*
G01X-1389640D01*
G02X-1399460Y-3275830I6J24909D01*
G03X-1413280Y-3284940I-3909J-9107D01*
G01Y-3290980D01*
X-1389630Y-3314630D01*
G02X-1374980Y-3350000I-35373J-35370D01*
G01Y-3389420D01*
X-1372500Y-3390850D01*
G02X-1359980Y-3412520I-12498J-21672D01*
G01Y-3487460D01*
G02X-1385000Y-3512480I-25020J0D01*
G01X-1465000D01*
G02X-1490020Y-3487460I0J25020D01*
G01Y-3412520D01*
G02X-1477500Y-3390850I25018J-2D01*
G01X-1475020Y-3389420D01*
Y-3370720D01*
X-1498670Y-3347070D01*
G02X-1513320Y-3311700I35373J35370D01*
G01Y-3264760D01*
X-1513810Y-3263750D01*
G02X-1515270Y-3259920I22573J10798D01*
G01X-1516300Y-3256350D01*
X-1524980D01*
Y-3867690D01*
X-1524930Y-3868030D01*
G02X-1524450Y-3875000I-50071J-6950D01*
G02X-1575000Y-3925550I-50550J0D01*
G02X-1581970Y-3925070I-20J50551D01*
G01X-1582310Y-3925020D01*
X-1887510D01*
G02X-1922880Y-3910370I0J50023D01*
G01X-1945740Y-3887510D01*
X-1950700D01*
X-1952190Y-3889570D01*
G02X-1972500Y-3899980I-20312J14611D01*
G01X-2052500D01*
G02X-2077520Y-3874960I0J25020D01*
G01Y-3825530D01*
X-2089830Y-3813220D01*
G02X-2099160Y-3797730I26528J26533D01*
G01X-2100240Y-3794230D01*
X-2108850D01*
Y-3802940D01*
G02X-2133760Y-3827850I-24910J0D01*
G01X-2189640D01*
G02X-2205930Y-3821780I5J24908D01*
G03X-2218930Y-3821810I-6483J-7497D01*
G02X-2235360Y-3827960I-16430J18872D01*
G01X-2291240D01*
G02X-2316260Y-3802940I0J25020D01*
G01Y-3747060D01*
G02X-2310640Y-3731260I25020J0D01*
G03Y-3718740I-7682J6260D01*
G02X-2316260Y-3702940I19400J15800D01*
G01Y-3675530D01*
X-2320560Y-3671230D01*
G03X-2337480Y-3678240I-7010J-7005D01*
G01Y-3787490D01*
G02X-2346310Y-3811670I-37522J0D01*
G01X-2347480Y-3813050D01*
Y-3819280D01*
X-2277130Y-3889620D01*
G02X-2263580Y-3914550I-35369J-35371D01*
G01X-2263280Y-3915990D01*
X-2244720Y-3934540D01*
X-2133760D01*
G02X-2122950Y-3936990I11J-25023D01*
G01X-2121940Y-3937480D01*
X-2074140D01*
G02X-2052500Y-3925020I21640J-12561D01*
G01X-1972500D01*
G02X-1947480Y-3950040I0J-25020D01*
G01Y-4024980D01*
G02X-1960000Y-4046650I-25018J2D01*
G01X-1962480Y-4048080D01*
Y-4111700D01*
G02X-1977130Y-4147070I-50023J0D01*
G01X-1997040Y-4166980D01*
Y-4177140D01*
G02X-2003140Y-4193510I-25015J0D01*
G03Y-4206490I7490J-6490D01*
G02X-1997040Y-4222860I-18915J-16370D01*
G01Y-4278740D01*
G02X-2022060Y-4303760I-25020J0D01*
G01X-2077940D01*
G02X-2088750Y-4301310I-11J25023D01*
G01X-2089760Y-4300820D01*
X-2399200D01*
G02X-2434570Y-4286170I0J50023D01*
G01X-2605900Y-4114840D01*
G02X-2607850Y-4112780I35338J35404D01*
G03X-2616500Y-4116080I-3696J-3298D01*
G01Y-4287960D01*
G02X-2641520Y-4312980I-25020J0D01*
G01X-2702480D01*
G02X-2727500Y-4287960I0J25020D01*
G01Y-4070040D01*
G02X-2702480Y-4045020I25020J0D01*
G01X-2641520D01*
G02X-2633600Y-4046300I20J-25018D01*
G03X-2620550Y-4036900I3141J9398D01*
G01Y-3813100D01*
G03X-2633600Y-3803700I-9909J2D01*
G02X-2641520Y-3804980I-7900J23738D01*
G01X-2702480D01*
G02X-2727500Y-3779960I0J25020D01*
G01Y-3562040D01*
G02X-2702480Y-3537020I25020J0D01*
G01X-2641520D01*
G02X-2633600Y-3538300I20J-25018D01*
G03X-2620550Y-3528900I3141J9398D01*
G01Y-3512700D01*
X-2645750Y-3487500D01*
X-2677500D01*
G02X-2699150Y-3475030I-4J25023D01*
G01X-2750850D01*
G02X-2772500Y-3487500I-21646J12553D01*
G01X-2804250D01*
X-2836850Y-3520100D01*
G03X-2829740Y-3537020I7006J-7010D01*
G01X-2768520D01*
G02X-2743500Y-3562040I0J-25020D01*
G01Y-3779960D01*
G02X-2768520Y-3804980I-25020J0D01*
G01X-2829480D01*
G02X-2854500Y-3779960I0J25020D01*
G01Y-3562040D01*
G02X-2848300Y-3545550I25020J4D01*
G01X-2845240Y-3542060D01*
X-2852030Y-3535270D01*
X-2871450Y-3554700D01*
X-2870950Y-3557290D01*
G02X-2870500Y-3562040I-24571J-4724D01*
G01Y-3779960D01*
G02X-2895520Y-3804980I-25020J0D01*
G01X-2956480D01*
G02X-2981500Y-3779960I0J25020D01*
G01Y-3562040D01*
G02X-2976930Y-3547610I25022J14D01*
G01X-2976020Y-3546330D01*
Y-3538510D01*
G02X-2961370Y-3503140I50023J0D01*
G01X-2877520Y-3419300D01*
Y-3387540D01*
G02X-2852500Y-3362520I25020J0D01*
G01X-2772500D01*
G02X-2750850Y-3374990I4J-25023D01*
G01X-2699150D01*
G02X-2677500Y-3362520I21646J-12553D01*
G01X-2597500D01*
G02X-2572480Y-3387540I0J-25020D01*
G01Y-3419300D01*
X-2535160Y-3456610D01*
G02X-2528420Y-3464990I-35381J-35357D01*
G01X-2519290Y-3462320D01*
Y-3329950D01*
G02X-2517560Y-3320820I24912J9D01*
G03X-2527620Y-3307310I-9219J3636D01*
G02X-2531950Y-3307500I-4379J50358D01*
G02X-2557550Y-3300540I0J50560D01*
G03X-2572480Y-3309090I-5019J-8546D01*
G01Y-3312460D01*
G02X-2597500Y-3337480I-25020J0D01*
G01X-2677500D01*
G02X-2702520Y-3312460I0J25020D01*
G01Y-3237520D01*
G02X-2677500Y-3212500I25020J0D01*
G01X-2628080D01*
X-2581710Y-3166130D01*
X-2587320Y-3160520D01*
X-2590160Y-3161400D01*
G02X-2597500Y-3162500I-7338J23923D01*
G01X-2677500D01*
G02X-2702520Y-3137480I0J25020D01*
G01Y-3062540D01*
G02X-2677500Y-3037520I25020J0D01*
G01X-2597500D01*
G02X-2574760Y-3052100I1J-25022D01*
G01X-2573430Y-3054990D01*
X-2558300D01*
G02X-2557400Y-3054980I950J-45009D01*
G01X-2524740D01*
X-2523570Y-3051670D01*
G02X-2499980Y-3034980I23592J-8329D01*
G01X-2425040D01*
G02X-2400020Y-3060000I0J-25020D01*
G01Y-3112960D01*
X-2391890Y-3121090D01*
G03X-2374980Y-3114090I7003J7008D01*
G01Y-3060000D01*
G02X-2360400Y-3037260I25022J1D01*
G01X-2357510Y-3035930D01*
Y-2989070D01*
X-2360400Y-2987740D01*
G02X-2374980Y-2965000I10442J22739D01*
G01Y-2885000D01*
G02X-2349960Y-2859980I25020J0D01*
G01X-2275020D01*
G02X-2250000Y-2885000I0J-25020D01*
G01Y-2965000D01*
G02X-2264580Y-2987740I-25022J-1D01*
G01X-2267470Y-2989070D01*
Y-3035930D01*
X-2264580Y-3037260D01*
G02X-2250000Y-3060000I-10442J-22739D01*
G01Y-3140000D01*
G02X-2275020Y-3165020I-25020J0D01*
G01X-2289980D01*
Y-3177840D01*
G03X-2279020Y-3187690I9908J2D01*
G02X-2275000Y-3187480I3975J-37512D01*
G02X-2238490Y-3215720I0J-37721D01*
G01X-2237530Y-3219430D01*
X-2190270D01*
G03X-2181620Y-3204680I2J9910D01*
G02X-2188050Y-3180010I44111J24670D01*
G02X-2086950I50550J0D01*
G02X-2122890Y-3228400I-50546J0D01*
G03X-2127030Y-3244900I2864J-9488D01*
G01X-2109420Y-3262500D01*
X-2060000D01*
G02X-2037260Y-3277080I1J-25022D01*
G01X-2035930Y-3279970D01*
X-1989070D01*
X-1987740Y-3277080D01*
G02X-1965000Y-3262500I22739J-10442D01*
G01X-1885000D01*
G02X-1863350Y-3274970I4J-25023D01*
G01X-1811650D01*
G02X-1802500Y-3265850I21639J-12560D01*
G01X-1800020Y-3264420D01*
Y-3162710D01*
G02X-1850970Y-3075000I50021J87710D01*
G02X-1649030I100970J0D01*
G02X-1699980Y-3162710I-100971J0D01*
G01Y-3264420D01*
X-1697500Y-3265850D01*
G02X-1684980Y-3287520I-12498J-21672D01*
G01Y-3362460D01*
G02X-1710000Y-3387480I-25020J0D01*
G01X-1790000D01*
G02X-1811650Y-3375010I-4J25023D01*
G01X-1863350D01*
G02X-1885000Y-3387480I-21646J12553D01*
G01X-1965000D01*
G02X-1987740Y-3372900I-1J25022D01*
G01X-1989070Y-3370010D01*
X-2035930D01*
X-2037260Y-3372900D01*
G02X-2060000Y-3387480I-22739J10442D01*
G01X-2140000D01*
G02X-2165020Y-3362460I0J25020D01*
G01Y-3313030D01*
X-2183580Y-3294470D01*
X-2237530D01*
X-2238490Y-3298180D01*
G02X-2240940Y-3304910I-36510J9480D01*
G03X-2239640Y-3310840I4475J-2127D01*
G02X-2230710Y-3329950I-15982J-19110D01*
G01Y-3495050D01*
G02X-2239640Y-3514160I-24912J0D01*
G03X-2240940Y-3520090I3175J-3803D01*
G02X-2238490Y-3526820I-34060J-16210D01*
G01X-2237530Y-3530530D01*
X-2206950D01*
G02X-2180420Y-3541520I0J-37517D01*
G01X-2135970Y-3585970D01*
G02X-2124980Y-3612500I-26527J-26530D01*
G01Y-3623440D01*
X-2122300Y-3624820D01*
G02X-2116010Y-3629420I-11445J-22250D01*
G03X-2108990I3510J3491D01*
G02X-2091240Y-3622040I17744J-17642D01*
G01X-1933760D01*
G02X-1911880Y-3634930I0J-25015D01*
G01X-1910460Y-3637480D01*
X-1887790D01*
X-1887410Y-3632930D01*
G02X-1862480Y-3609980I24933J-2068D01*
G01X-1787540D01*
G02X-1762520Y-3635000I0J-25020D01*
G01Y-3715000D01*
G02X-1787540Y-3740020I-25020J0D01*
G01X-1862480D01*
G02X-1887410Y-3717070I3J25018D01*
G01X-1887790Y-3712520D01*
X-1910460D01*
X-1911880Y-3715070D01*
G02X-1933760Y-3727960I-21880J12125D01*
G01X-2025780D01*
Y-3771150D01*
X-2021920Y-3775000D01*
X-1972500D01*
G02X-1950850Y-3787470I4J-25023D01*
G01X-1925020D01*
G02X-1889650Y-3802120I0J-50023D01*
G01X-1866790Y-3824980D01*
X-1625020D01*
Y-3749730D01*
G03X-1635670Y-3739850I-9908J-1D01*
G02X-1637520Y-3739920I-1866J24843D01*
G01X-1712460D01*
G02X-1737360Y-3715000I10J24910D01*
G01Y-3635000D01*
G02X-1712460Y-3610080I24910J10D01*
G01X-1637520D01*
G02X-1635670Y-3610150I-16J-24913D01*
G03X-1625020Y-3600270I742J9881D01*
G01Y-2995720D01*
X-1660370Y-2960370D01*
G02X-1675020Y-2925000I35373J35370D01*
G01Y-2860740D01*
X-1684010Y-2857860D01*
G02X-1687740Y-2862260I-28486J20367D01*
G01X-1750240Y-2924760D01*
G02X-1775000Y-2935020I-24760J24746D01*
G01X-1922990D01*
X-1928200Y-2940220D01*
X-1928560Y-2941000D01*
G02X-1935970Y-2951530I-33934J16008D01*
G01X-1949480Y-2965040D01*
X-1949640Y-2966840D01*
G02X-2000000Y-3013050I-50360J4336D01*
G02X-2050550Y-2962500I0J50550D01*
G02X-2002580Y-2912020I50546J0D01*
G01X-2000020Y-2909460D01*
Y-1612500D01*
G02X-1989030Y-1585970I37517J0D01*
G01X-1925520Y-1522460D01*
X-1925360Y-1520660D01*
G02X-1875000Y-1474450I50360J-4336D01*
G02X-1824450Y-1525000I0J-50550D01*
G02X-1870660Y-1575360I-50546J0D01*
G01X-1872460Y-1575520D01*
X-1924980Y-1628040D01*
Y-2864980D01*
X-1789510D01*
X-1747520Y-2822990D01*
Y-2761450D01*
G02X-1763050Y-2725000I35010J36450D01*
G02X-1712500Y-2674450I50550J0D01*
G02X-1689450Y-2680010I0J-50559D01*
G03X-1675020Y-2671190I4521J8818D01*
G01Y-1995720D01*
X-1703400Y-1967340D01*
X-1842690D01*
X-1843030Y-1967390D01*
G02X-1850000Y-1967870I-6950J50071D01*
G02Y-1866770I0J50550D01*
G02X-1843030Y-1867250I20J-50551D01*
G01X-1842690Y-1867300D01*
X-1682680D01*
G02X-1647310Y-1881950I0J-50023D01*
G01X-1589630Y-1939630D01*
G02X-1574980Y-1975000I-35373J-35370D01*
G01Y-2754730D01*
G03X-1558500Y-2762150I9911J2D01*
G02X-1525000Y-2749450I33506J-37848D01*
G02X-1518030Y-2749930I20J-50551D01*
G01X-1517690Y-2749980D01*
X-1475000D01*
G02X-1439630Y-2764630I0J-50023D01*
G01X-1423800Y-2780460D01*
X-1397520D01*
Y-2727010D01*
X-1423950Y-2700580D01*
X-1425950Y-2700540D01*
G02X-1475550Y-2650000I949J50540D01*
G02X-1425000Y-2599450I50550J0D01*
G02X-1406070Y-2603130I-4J-50549D01*
G01X-1403030Y-2604360D01*
X-1397200Y-2598540D01*
X-1410370Y-2585370D01*
G02X-1425020Y-2550000I35373J35370D01*
G01Y-2478810D01*
G03X-1439450Y-2469990I-9909J2D01*
G02X-1462500Y-2475550I-23050J44999D01*
G02X-1513050Y-2425000I0J50550D01*
G02X-1500020Y-2391120I50562J0D01*
G01Y-2062500D01*
G02X-1489030Y-2035970I37517J0D01*
G01X-1412520Y-1959460D01*
Y-1640540D01*
X-1465540Y-1587520D01*
X-1550000D01*
G02X-1576530Y-1576530I0J37517D01*
G01X-1800000Y-1353060D01*
X-1910970Y-1464030D01*
G02X-1937500Y-1475020I-26530J26527D01*
G01X-2046960D01*
X-2054520Y-1482580D01*
G03X-2047920Y-1499490I7004J-7009D01*
G02X-1999450Y-1550000I-2083J-50510D01*
G02X-2036360Y-1598680I-50557J0D01*
G01X-2039980Y-1599690D01*
Y-1897050D01*
X-2037010Y-1898350D01*
G02X-2022040Y-1921260I-10046J-22910D01*
G01Y-1977140D01*
G02X-2028140Y-1993510I-25015J0D01*
G03Y-2006490I7490J-6490D01*
G02X-2022040Y-2022860I-18915J-16370D01*
G01Y-2078740D01*
G02X-2037010Y-2101650I-25016J0D01*
G01X-2039980Y-2102950D01*
Y-2137500D01*
G02X-2050240Y-2162260I-35006J0D01*
G01X-2200240Y-2312260D01*
G02X-2225000Y-2322520I-24760J24746D01*
G01X-2635490D01*
X-2683020Y-2370040D01*
G03X-2675840Y-2386960I7008J-7009D01*
G02X-2675000Y-2386950I1022J-50538D01*
G02X-2624450Y-2437500I0J-50550D01*
G02X-2636900Y-2470720I-50545J0D01*
G02X-2636680Y-2474000I-24798J-3311D01*
G01Y-2601000D01*
G02X-2658220Y-2625780I-25024J0D01*
G01X-2662480Y-2626380D01*
Y-2654280D01*
X-2602130Y-2714630D01*
G02X-2587480Y-2750000I-35373J-35370D01*
G01Y-2889420D01*
X-2585000Y-2890850D01*
G02X-2582520Y-2892480I-12478J-21686D01*
G01X-2525000D01*
Y-2885000D01*
G02X-2499980Y-2859980I25020J0D01*
G01X-2425040D01*
G02X-2400020Y-2885000I0J-25020D01*
G01Y-2965000D01*
G02X-2425040Y-2990020I-25020J0D01*
G01X-2499980D01*
G02X-2517840Y-2982520I1J25018D01*
G01X-2572470D01*
X-2572480Y-2987470D01*
G02X-2597500Y-3012480I-25020J10D01*
G01X-2677500D01*
G02X-2700240Y-2997900I-1J25022D01*
G01X-2701570Y-2995010D01*
X-2756340D01*
X-3229980Y-3468650D01*
Y-3550000D01*
G02X-3243170Y-3581830I-45017J7D01*
G01X-3429220Y-3767890D01*
X-3428360Y-3770730D01*
G02X-3424030Y-3800000I-96643J-29252D01*
G02X-3525000Y-3699030I-100970J0D01*
G02X-3495730Y-3703360I18J-100973D01*
G01X-3492890Y-3704220D01*
X-3320020Y-3531350D01*
Y-3450000D01*
G02X-3306830Y-3418170I45017J-7D01*
G01X-2806820Y-2918160D01*
G02X-2774990Y-2904970I31837J-31827D01*
G01X-2701570D01*
X-2700240Y-2902080D01*
G02X-2690000Y-2890850I22734J-10446D01*
G01X-2687520Y-2889420D01*
Y-2770720D01*
X-2747870Y-2710370D01*
G02X-2762520Y-2675000I35373J35370D01*
G01Y-2626380D01*
X-2766780Y-2625780D01*
G02X-2767580Y-2625650I3613J24758D01*
G03X-2773040Y-2628700I-855J-4882D01*
G02X-2820000Y-2660550I-46960J18694D01*
G02X-2870550Y-2610000I0J50550D01*
G02X-2868950Y-2597400I50548J-17D01*
G03X-2878550Y-2585020I-9599J2469D01*
G01X-2966520D01*
X-3005450Y-2623950D01*
X-3005490Y-2625950D01*
G02X-3056030Y-2675550I-50540J949D01*
G02X-3091560Y-2660960I0J50557D01*
G02X-3127080Y-2675550I-35526J35957D01*
G02X-3177630Y-2625000I0J50550D01*
G02X-3162080Y-2588530I50542J0D01*
G02X-3151840Y-2564820I35001J-1050D01*
G01X-3074260Y-2487240D01*
G02X-3049500Y-2476980I24760J-24746D01*
G01X-2889010D01*
X-2885020Y-2472990D01*
Y-2425000D01*
G02X-2874760Y-2400240I35006J0D01*
G01X-2699260Y-2224740D01*
G02X-2674500Y-2214480I24760J-24746D01*
G01X-2264010D01*
X-2210020Y-2160490D01*
Y-2102950D01*
X-2212990Y-2101650D01*
G02X-2227960Y-2078740I10046J22910D01*
G01Y-2022860D01*
G02X-2221860Y-2006490I25015J0D01*
G03Y-1993510I-7490J6490D01*
G02X-2227960Y-1977140I18915J16370D01*
G01Y-1921260D01*
G02X-2215070Y-1899380I25015J0D01*
G01X-2212520Y-1897960D01*
Y-1550000D01*
G02X-2201530Y-1523470I37517J0D01*
G01X-2149740Y-1471680D01*
G03X-2157630Y-1454800I-7009J7008D01*
G02X-2162500Y-1455020I-4915J54798D01*
G02X-2217520Y-1400000I0J55020D01*
G01Y-1344990D01*
G02X-2227520Y-1324980I15019J20009D01*
G01Y-1250040D01*
G02X-2202500Y-1225020I25020J0D01*
G01X-2122500D01*
G02X-2097480Y-1250040I0J-25020D01*
G01Y-1324980D01*
G02X-2107480Y-1344990I-25019J-1D01*
G01Y-1400000D01*
G02X-2107700Y-1404870I-55018J45D01*
G03X-2090820Y-1412760I9872J-881D01*
G01X-2089030Y-1410970D01*
G02X-2062500Y-1399980I26530J-26527D01*
G01X-1953040D01*
X-1837520Y-1284460D01*
Y-1212500D01*
G02X-1826530Y-1185970I37517J0D01*
G01X-1775520Y-1134960D01*
G37*
G36*
G01X-3555520Y117500D02*
G02X-3530500Y142520I25020J0D01*
G01X-3403500D01*
G02X-3378480Y117500I0J-25020D01*
G01Y-225400D01*
G02X-3403500Y-250420I-25020J0D01*
G01X-3431980D01*
Y-275400D01*
G03X-3416400Y-283530I9911J-1D01*
G02X-3387500Y-274450I28905J-41468D01*
G02X-3336950Y-325000I0J-50550D01*
G02X-3352480Y-361450I-50540J0D01*
G01Y-535490D01*
X-3294910Y-593070D01*
X-3292600Y-592860D01*
G02X-3283000Y-592430I9609J-107140D01*
G02X-3175430Y-700000I0J-107570D01*
G02X-3184880Y-744080I-107568J8D01*
G01X-3186280Y-747200D01*
X-3125240Y-808240D01*
G02X-3114980Y-833000I-24746J-24760D01*
G01Y-864470D01*
G03X-3098650Y-872030I9911J-8D01*
G02X-3029000Y-846430I69657J-81967D01*
G02Y-1061570I0J-107570D01*
G02X-3105240Y-1029890I0J107578D01*
G03X-3120590Y-1031500I-7027J-6987D01*
G02X-3125240Y-1037250I-29401J19021D01*
G01X-3412480Y-1324500D01*
Y-2050010D01*
G02X-3396950Y-2086460I-35010J-36450D01*
G02X-3414150Y-2124450I-50555J0D01*
G03X-3414560Y-2138960I6541J-7446D01*
G02X-3399450Y-2175000I-35426J-36040D01*
G02X-3421080Y-2216460I-50550J0D01*
G03X-3423130Y-2230800I5672J-8127D01*
G02X-3411950Y-2262500I-39368J-31706D01*
G02X-3462500Y-2313050I-50550J0D01*
G02X-3498950Y-2297520I0J50540D01*
G01X-3562500D01*
G02X-3587260Y-2287260I0J35006D01*
G01X-3662260Y-2212260D01*
G02X-3672520Y-2187500I24746J24760D01*
G01Y-1789500D01*
X-3686440Y-1775580D01*
X-3688440Y-1775540D01*
G02X-3738030Y-1725950I950J50540D01*
G01X-3738070Y-1723950D01*
X-3879730Y-1582280D01*
G02X-3889990Y-1557520I24746J24760D01*
G01Y-1222040D01*
X-3937260Y-1174760D01*
G02X-3947520Y-1150000I24746J24760D01*
G01Y-1032310D01*
G03X-3964820Y-1025710I-9910J-3D01*
G02X-4045000Y-1061570I-80180J71708D01*
G02X-4152570Y-954000I0J107570D01*
G02X-4120020Y-876910I107563J0D01*
G01Y-777090D01*
G02X-4152570Y-700000I75013J77090D01*
G02X-4045000Y-592430I107570J0D01*
G02X-3964820Y-628290I0J-107568D01*
G03X-3947520Y-621690I7390J6603D01*
G01Y-452010D01*
X-4011450Y-388080D01*
X-4013450Y-388040D01*
G02X-4063050Y-337500I949J50540D01*
G02X-4012500Y-286950I50550J0D01*
G02X-3961960Y-336550I0J-50549D01*
G01X-3961920Y-338550D01*
X-3887740Y-412740D01*
G02X-3877480Y-437500I-24746J-24760D01*
G01Y-611050D01*
G03X-3861110Y-618560I9909J4D01*
G02X-3791000Y-592540I70110J-81444D01*
G02X-3706380Y-633770I0J-107452D01*
G01X-3704890Y-635670D01*
X-3697520D01*
Y-625000D01*
G02X-3687260Y-600240I35006J0D01*
G01X-3502020Y-414990D01*
Y-250420D01*
X-3530500D01*
G02X-3555520Y-225400I0J25020D01*
G01Y117500D01*
G37*
G54D54*
X-4537500Y-4012500D03*
X1275520Y-2062490D03*
X-1177010Y-1962490D03*
X937500Y-1837500D03*
X-1177010Y-1787500D03*
G54D53*
X-1485790Y-1137500D03*
X2789210Y-912500D03*
X-1485790Y-1287500D03*
X-5075000Y-3025000D03*
X-4625000Y-2567320D03*
G54D45*
X2412500Y-2387500D03*
G54D47*
X-3525000Y-4125000D03*
X-4812500Y-2362500D03*
X962500Y-3800000D03*
G54D50*
X-4779000Y-954000D03*
X-5033000Y-700000D03*
X-5287000Y-954000D03*
X2512500Y-3550000D03*
X-5287000Y-700000D03*
X-4779000D03*
X-5033000Y-954000D03*
X-3029000Y-700000D03*
X600000Y-2646000D03*
G54D49*
X-4137500Y-2750000D03*
X-400000Y-3037500D03*
X-312500Y-1562500D03*
G54D44*
X2700000Y-550000D03*
G54D46*
X-2137500Y-2787500D03*
X-3850000Y-4125000D03*
X625000Y-3800000D03*
Y-4450000D03*
X962500D03*
X-3525000Y-3475000D03*
X-3850000D03*
X-187500Y-4675000D03*
G54D51*
X-5541000Y-700000D03*
Y-954000D03*
X-5775000Y-1963000D03*
G54D52*
X2666500Y-2133500D03*
X2158500D03*
Y-2641500D03*
X2666500D03*
G54D48*
X-3882510Y-2495010D03*
X-4392490D03*
Y-3004990D03*
X-3882510D03*
X-654990Y-3292490D03*
X-145010D03*
X-654990Y-2782510D03*
X-145010D03*
X-567490Y-1817490D03*
X-57510D03*
Y-1307510D03*
X-567490D03*
%LPD*%
G75*
G36*
G01X-3861110Y-1035440D02*
G03X-3791000Y-1061460I70110J81444D01*
G03X-3714490Y-1029450I-7J107457D01*
G02X-3697520Y-1036410I7058J-6958D01*
G01Y-1050000D01*
G03X-3687260Y-1074760I35006J0D01*
G01X-3610020Y-1152010D01*
Y-1513550D01*
G03Y-1586450I35010J-36450D01*
G01Y-1729020D01*
G02X-3626940Y-1736030I-9911J-3D01*
G01X-3636910Y-1726050D01*
X-3636950Y-1724050D01*
G03X-3686540Y-1674460I-50540J-950D01*
G01X-3688540Y-1674420D01*
X-3819950Y-1543010D01*
Y-1207530D01*
G03X-3830210Y-1182770I-35006J0D01*
G01X-3877480Y-1135490D01*
Y-1042950D01*
G02X-3861110Y-1035440I9909J-4D01*
G37*
G36*
G01Y-781440D02*
G03X-3791000Y-807460I70110J81444D01*
G03X-3714490Y-775450I-7J107457D01*
G02X-3697520Y-782410I7058J-6958D01*
G01Y-871590D01*
G02X-3714490Y-878550I-9912J-2D01*
G03X-3791000Y-846540I-76517J-75447D01*
G03X-3861110Y-872560I0J-107464D01*
G02X-3877480Y-865050I-6461J7514D01*
G01Y-788950D01*
G02X-3861110Y-781440I9909J-4D01*
G37*
G36*
G01X-2449460Y-3648960D02*
G03X-2442650Y-3638410I-25541J23959D01*
G02X-2436550Y-3635590I4579J-1897D01*
G03X-2425000Y-3637410I11558J35789D01*
G03X-2422970Y-3637350I-96J37607D01*
G02X-2412520Y-3647250I539J-9897D01*
G01Y-3762500D01*
X-2452500D01*
G03X-2477520Y-3787520I0J-25020D01*
G01Y-3862460D01*
G03X-2452500Y-3887480I25020J0D01*
G01X-2420750D01*
X-2412510Y-3895720D01*
G02X-2419520Y-3912640I-7008J-7009D01*
G01X-2452500D01*
G03X-2477420Y-3937540I-10J-24910D01*
G01Y-4012480D01*
G03X-2452500Y-4037380I24910J10D01*
G01X-2372500D01*
G03X-2347580Y-4012480I10J24910D01*
G01Y-3997080D01*
G02X-2330670Y-3990070I9908J1D01*
G01X-2316260Y-4004480D01*
Y-4015440D01*
G03X-2291240Y-4040460I25020J0D01*
G01X-2133760D01*
G03X-2122950Y-4038010I11J25023D01*
G01X-2121940Y-4037520D01*
X-2074150D01*
G03X-2065000Y-4046650I21647J12544D01*
G01X-2062520Y-4048080D01*
Y-4090980D01*
X-2067780Y-4096240D01*
X-2077940D01*
G03X-2102960Y-4121260I0J-25020D01*
G01Y-4177140D01*
G03X-2100950Y-4186970I25021J-4D01*
G02X-2110060Y-4200780I-9109J-3901D01*
G01X-2378480D01*
X-2520510Y-4058750D01*
Y-3709520D01*
G02X-2508860Y-3699770I9909J-5D01*
G03X-2500000Y-3700550I8846J49771D01*
G03X-2449450Y-3650000I0J50550D01*
G03X-2449460Y-3648960I-50550J34D01*
G37*
G36*
G01X-812500Y-4237500D02*
X-1075000D01*
X-1175000Y-4337500D01*
X-1362500D01*
Y-4525000D01*
X-1225000D01*
X-1150000Y-4450000D01*
Y-4425000D01*
X-1087500Y-4362500D01*
X-812500D01*
Y-4237500D01*
G37*
G36*
G01X-587500Y-3725000D02*
X-775000Y-3912500D01*
Y-4050000D01*
X-825000Y-4100000D01*
X-900000D01*
Y-4175000D01*
X-775000D01*
X-525000Y-4425000D01*
X-375000D01*
Y-4400000D01*
X-425000Y-4350000D01*
Y-4162500D01*
X-375000D01*
X-337500Y-4112500D01*
X-300000D01*
Y-4037500D01*
X-500000D01*
X-525000Y-4012500D01*
Y-3725000D01*
X-587500D01*
G37*
G36*
G01X-137500Y-4087500D02*
X-87500D01*
X-37500Y-4137500D01*
X125000D01*
Y-4262500D01*
X112500Y-4275000D01*
X-125000D01*
X-137500Y-4262500D01*
Y-4087500D01*
G37*
G36*
G01X-475000Y-3862500D02*
X-287500D01*
X-212500Y-3787500D01*
X112500D01*
X137500Y-3812500D01*
Y-3925000D01*
X-25000D01*
X-50000Y-3900000D01*
Y-3887500D01*
X-75000Y-3862500D01*
X-125000D01*
X-175000Y-3912500D01*
Y-4362500D01*
X-350000D01*
Y-4212500D01*
X-325000Y-4187500D01*
X-275000D01*
X-250000Y-4162500D01*
Y-3987500D01*
X-262500Y-3975000D01*
X-475000D01*
X-487500Y-3962500D01*
Y-3875000D01*
X-475000Y-3862500D01*
G37*
G54D10*
X-5350000Y-5200000D03*
X2200000Y-5300000D03*
X2700000Y-550000D03*
G54D11*
X-5727000Y-5026000D03*
X-5600000Y-200000D03*
X2600000Y-5100000D03*
Y-100000D03*
G54D20*
X-4219990Y-3550000D03*
X-4380010D03*
G54D21*
X-4392490Y-3004990D03*
Y-2495010D03*
X-3882510Y-3004990D03*
Y-2495010D03*
X-654990Y-3292490D03*
Y-2782510D03*
X-145010Y-3292490D03*
Y-2782510D03*
X-57510Y-1817490D03*
X-567490D03*
X-57510Y-1307510D03*
X-567490D03*
X2412500Y-2387500D03*
G54D12*
X-5325000Y-4375000D03*
X-5412500D03*
X-5325000Y-4487500D03*
X-5425000D03*
X-4862500Y-3500000D03*
X-4912500Y-3387500D03*
X-5075000Y-3025000D03*
X-5200000Y-2050000D03*
X-4625000Y-2567320D03*
X-4400000Y-2050000D03*
X-3568000Y-4659530D03*
X-4100000Y-4662500D03*
X-4062500Y-2272950D03*
X-3922950Y-1550000D03*
X-3925000Y-1725000D03*
X-3035450Y-4387500D03*
Y-4562500D03*
X-2714560Y-4387500D03*
Y-4562500D03*
X-1964210Y-1287500D03*
Y-1137500D03*
X-1674990Y-3762980D03*
X-1485790Y-1287500D03*
Y-1137500D03*
X-972950Y-4000000D03*
X-1125000Y-1130010D03*
X462500Y-1952060D03*
X-38490Y-887500D03*
X637500Y-1952060D03*
X1250000Y-700000D03*
X1713480Y-125000D03*
Y125000D03*
X2789210Y-912500D03*
G54D30*
X-1250000Y-969990D03*
Y-1130010D03*
G54D40*
G01X-5245000Y-346050D02*
X-5140030D01*
X-5136080Y-350000D01*
X-5135900D01*
G01X-4991000Y-53950D02*
Y12500D01*
G01X-4737500Y-4712500D02*
Y-4537500D01*
X-4687500Y-4487500D01*
G01X-3721000Y-346050D02*
X-3725000Y-342050D01*
Y-337500D01*
G01X-3213000Y-346050D02*
X-3078950D01*
G01X-2425000Y-3687500D02*
X-2462500Y-3725000D01*
G01X-2637500Y-3274990D02*
X-2535020Y-3172510D01*
X-2462500D01*
X-2425000Y-3210010D01*
Y-3256950D01*
G01X-2700000Y-1587500D02*
X-2625000D01*
X-2550000Y-1512500D01*
X-2537510D01*
G01X-2612250Y-1201950D02*
X-2447800Y-1037500D01*
X-2187500D01*
X-2162500Y-1062500D01*
Y-1137490D01*
G01X-2959000Y-53950D02*
X-2803950D01*
G01X-2125000Y-4387500D02*
X-1637500D01*
X-1412500Y-4612500D01*
X-980080D01*
X-975000Y-4607420D01*
Y-4600000D01*
X-950000Y-4575000D01*
Y-4455550D01*
G01X-2237500Y-4512500D02*
X-1649990D01*
X-1499990Y-4662500D01*
X-937500D01*
X-900000Y-4625000D01*
Y-4455550D01*
G01X-2425000Y-3568050D02*
Y-3462500D01*
X-2437500Y-3450000D01*
G01X-2425000Y-3568050D02*
Y-3687500D01*
G01X-2161700Y-3675000D02*
X-2162500Y-3674200D01*
Y-3612500D01*
X-2206950Y-3568050D01*
X-2275000D01*
G01X-2063300Y-3675000D02*
X-2161700D01*
G01X-2012500Y-3837490D02*
X-2063300Y-3786690D01*
Y-3675000D01*
G01X-2325000Y-3568050D02*
Y-3613730D01*
X-2263730Y-3675000D01*
X-2263300D01*
G01D02*
Y-3775000D01*
G01X-2375000Y-3568050D02*
Y-3787490D01*
X-2412500Y-3824990D01*
G01X-1961700Y-3675000D02*
X-1825010D01*
G01X-2000000Y-2962500D02*
X-1962500Y-2925000D01*
G01X-2275000Y-3256950D02*
X-2168040D01*
X-2100000Y-3324990D01*
G01X-1962500Y-2925000D02*
Y-1612500D01*
X-1875000Y-1525000D01*
G01X-1800000Y-1300000D02*
X-1937500Y-1437500D01*
X-2062500D01*
X-2175000Y-1550000D01*
Y-1949200D01*
G01X-1825010Y-3675000D02*
X-1825000D01*
G01X-1457500Y-3094990D02*
Y-3219200D01*
X-1463300Y-3225000D01*
G01X-1825000Y-2775000D02*
X-1824990Y-2774990D01*
Y-2049990D01*
G01X-1800000Y-1300000D02*
X-1550000Y-1550000D01*
X-1450000D01*
X-1375000Y-1625000D01*
Y-1975000D01*
X-1462500Y-2062500D01*
Y-2425000D01*
G01X-1062500Y-2012500D02*
Y-1737500D01*
X-1325000Y-1475000D01*
X-1537500D01*
X-1725000Y-1287500D01*
G01Y-1137500D02*
X-1800000Y-1212500D01*
Y-1300000D01*
G01X1387500Y-2650000D02*
X1487500Y-2750000D01*
Y-4237500D01*
X846050Y-4878950D01*
X-774000D01*
G01X-950000Y-4144450D02*
Y-4300000D01*
G01Y-4144450D02*
Y-4080080D01*
X-944920Y-4075000D01*
G01X-1000000Y-4455550D02*
Y-4530080D01*
X-1012610Y-4542690D01*
Y-4549890D01*
X-1012500Y-4550000D01*
G01X-1125000Y-4537500D02*
X-1117580D01*
X-1050000Y-4469920D01*
Y-4455550D01*
G01X-850000D02*
Y-4494920D01*
X-844920Y-4500000D01*
X-637500D01*
X-412500Y-4725000D01*
G01X-1087490Y-4000000D02*
X-1000000Y-4087490D01*
Y-4144450D01*
G01X-1050000D02*
Y-4125000D01*
X-1062500Y-4112500D01*
X-1162500D01*
X-1250000Y-4200000D01*
G01X-937500Y-4075000D02*
X-925000Y-4062500D01*
X-912500D01*
X-900000Y-4050000D01*
Y-4012490D01*
X-887510Y-4000000D01*
G01X-944920Y-4075000D02*
X-937500D01*
G01X-1075000Y-3600010D02*
X-900000D01*
G01X625000Y-4125000D02*
X425000Y-3925000D01*
Y-3837500D01*
X187510Y-3600010D01*
X-900000D01*
G01X-1074990Y-3262500D02*
Y-3449980D01*
X-1075000Y-3449990D01*
G01X-1074990Y-3262500D02*
X-925000D01*
X-918750Y-3268750D01*
G01X-1250000Y-3449990D02*
X-1225010Y-3425000D01*
Y-3262500D01*
G01X-925000Y-700000D02*
X-1050000D01*
X-1153950Y-596050D01*
Y-53950D01*
G01X775000Y-1937500D02*
X600000Y-1762500D01*
X412500D01*
X212500Y-1562500D01*
Y-1175000D01*
X75000Y-1037500D01*
X-262500D01*
X-412500Y-887500D01*
Y-625000D01*
X-475000Y-562500D01*
X-1000000D01*
X-1028000Y-534500D01*
Y-346050D01*
G01X400000Y-1475000D02*
Y-1400800D01*
G01Y-1225000D02*
Y-1299200D01*
G01D02*
X500000D01*
G01X400000Y-887500D02*
X300000D01*
G01X925000Y-2287500D02*
X1037500Y-2175000D01*
Y-1150000D01*
X775000Y-887500D01*
X712500D01*
G01X600000Y-1225000D02*
Y-1299200D01*
G01Y-887500D02*
X712500D01*
G01X2225420Y-812500D02*
X2012500D01*
G54D13*
X-5487510Y-2725000D03*
X-5337490D03*
X-5487510Y-2475000D03*
X-5337490D03*
X-2950010Y-4387500D03*
X-2799990D03*
X-2950010Y-4562500D03*
X-2799990D03*
X-2462510Y-2925000D03*
Y-3100000D03*
X-2837490Y-1962500D03*
X-2987510D03*
X-2537510Y-1512500D03*
X-2312490Y-2925000D03*
Y-3100000D03*
X-2387490Y-1512500D03*
X-1674990Y-3675000D03*
X-1825010D03*
X-1237510Y-4000000D03*
X-1087490D03*
X-887510D03*
X-737490D03*
X-1074990Y-3262500D03*
X-1225010D03*
X350010Y-2687500D03*
X199990D03*
X350010Y-2512500D03*
X199990D03*
G54D22*
X-4137500Y-2750000D03*
X-400000Y-3037500D03*
X-312500Y-1562500D03*
G54D31*
X-212500Y-4037500D03*
G54D41*
G01X-3925000Y-1725000D02*
X-4025080D01*
X-4206290Y-1543790D01*
G01X-4380010Y-3550000D02*
X-4562500D01*
X-4575000Y-3562500D01*
G01X-4524200Y-2050000D02*
X-4400000D01*
G01X-1250000Y-969990D02*
Y-725000D01*
X-1275000Y-700000D01*
G54D32*
X-320680Y-4102500D03*
Y-4037500D03*
Y-3972500D03*
X-104320D03*
Y-4037500D03*
Y-4102500D03*
G54D14*
X-5775000Y-2471000D03*
Y-1963000D03*
Y-2217000D03*
X-5795000Y-954000D03*
X-5541000D03*
X-5287000D03*
X-5795000Y-700000D03*
X-5541000D03*
X-5287000D03*
X-5033000Y-954000D03*
X-4779000D03*
X-5033000Y-700000D03*
X-4779000D03*
X-4525000Y-954000D03*
X-4045000D03*
X-3791000D03*
X-3537000D03*
X-4045000Y-700000D03*
X-3791000D03*
X-3537000D03*
X-3283000Y-954000D03*
X-3029000D03*
X-3283000Y-700000D03*
X-3029000D03*
X-2775000Y-954000D03*
X600000Y-2646000D03*
X2512500Y-3550000D03*
X2800000Y-1791500D03*
G54D23*
X-3053000Y-4179000D03*
Y-3671000D03*
X-2672000Y-4179000D03*
X-2799000D03*
X-2926000D03*
X-2672000Y-3671000D03*
X-2799000D03*
X-2926000D03*
G54D42*
G01X-6050000Y-4950000D02*
Y-5550000D01*
X-5450000D01*
G01Y350000D02*
X-6050000D01*
Y-250000D01*
G01X-4206290Y-1543790D02*
X-4275000Y-1612500D01*
X-5487500D01*
X-5795000Y-1305000D01*
Y-954000D01*
G01Y-700000D02*
Y-954000D01*
G01X-4219990Y-3550000D02*
X-4100000D01*
X-3850000Y-3800000D01*
G01X-4076000Y-4878950D02*
Y-4699000D01*
X-4100000Y-4675000D01*
Y-4662500D01*
G01X-4045000Y-954000D02*
Y-700000D01*
G01X-1250000Y-1130010D02*
X-1125000D01*
G01X1250000Y-700000D02*
X-225000D01*
G01X2450000Y-5550000D02*
X3050000D01*
Y-4950000D01*
G01Y-250000D02*
Y350000D01*
X2450000D01*
G54D24*
X-2412500Y-3975010D03*
Y-3824990D03*
X-2637500Y-3274990D03*
Y-3425010D03*
Y-2949990D03*
Y-3100010D03*
X-2812500Y-3274990D03*
Y-3425010D03*
X-2012500Y-3837490D03*
Y-3987510D03*
X-1925000Y-3475010D03*
Y-3324990D03*
X-2100000Y-3475010D03*
Y-3324990D03*
X-2162500Y-1287510D03*
Y-1137490D03*
X-1450000Y-4212510D03*
X-1425000Y-3600010D03*
X-1450000Y-4062490D03*
X-1250000Y-3600010D03*
X-1425000Y-3449990D03*
X-1750000Y-3324990D03*
Y-3475010D03*
X-1250000Y-3449990D03*
X-1075000Y-3600010D03*
X-900000D03*
X-1075000Y-3449990D03*
X-900000D03*
X-912500Y-3037510D03*
X-1087500D03*
X-912500Y-2887490D03*
X-1087500D03*
X37500Y-3887490D03*
Y-4037510D03*
G54D15*
X-5775000Y-2725000D03*
X-4525000Y-700000D03*
X-2775000D03*
X600000Y-2900000D03*
X2800000Y-1537500D03*
G54D33*
X2158500Y-2641500D03*
Y-2133500D03*
X2666500Y-2641500D03*
Y-2133500D03*
G54D43*
G01X-6000000Y-5500000D02*
X3000000D01*
Y300000D01*
X-6000000D01*
Y-5500000D01*
G01X-5453680Y-7458000D02*
X-5580350D01*
Y-7204000D01*
X-5453680D01*
G01X-5504350Y-7326760D02*
X-5580350D01*
G01X-5342180Y-7204000D02*
X-5263020Y-7458000D01*
X-5183850Y-7204000D01*
G01X-5088180Y-7458000D02*
X-5009020Y-7204000D01*
X-4929850Y-7458000D01*
G01X-4958350Y-7369100D02*
X-5059680D01*
G01X-4818350Y-7204000D02*
Y-7458000D01*
X-4691680D01*
G01X-4542180Y-7373340D02*
X-4459850D01*
G01X-4177350Y-7225170D02*
X-4196350Y-7212460D01*
X-4218510Y-7204000D01*
X-4243850D01*
X-4272350Y-7216710D01*
X-4294510Y-7237870D01*
X-4310350Y-7263270D01*
X-4323020Y-7305600D01*
X-4326180Y-7343700D01*
X-4319840Y-7381800D01*
X-4310350Y-7407200D01*
X-4291350Y-7432610D01*
X-4269180Y-7449540D01*
X-4247020Y-7458000D01*
X-4224850D01*
X-4202680Y-7449540D01*
X-4183680Y-7436840D01*
X-4167850Y-7419910D01*
G01X-4065840Y-7458000D02*
Y-7204000D01*
X-3920190Y-7458000D01*
Y-7204000D01*
G01X-3739020D02*
X-3764350Y-7212460D01*
X-3783350Y-7233630D01*
X-3796010Y-7259030D01*
X-3805510Y-7292900D01*
X-3808680Y-7331000D01*
X-3805510Y-7369100D01*
X-3796010Y-7402970D01*
X-3783350Y-7428370D01*
X-3764350Y-7449540D01*
X-3739020Y-7458000D01*
X-3713690Y-7449540D01*
X-3694680Y-7428370D01*
X-3682020Y-7402970D01*
X-3672520Y-7369100D01*
X-3669350Y-7331000D01*
X-3672520Y-7292900D01*
X-3682020Y-7259030D01*
X-3694680Y-7233630D01*
X-3713690Y-7212460D01*
X-3739020Y-7204000D01*
G01X-3554680Y-7419910D02*
X-3535680Y-7441070D01*
X-3513520Y-7453770D01*
X-3485020Y-7458000D01*
X-3456510Y-7449540D01*
X-3434350Y-7432610D01*
X-3418520Y-7402970D01*
X-3415350Y-7369100D01*
X-3421680Y-7335240D01*
X-3437520Y-7314070D01*
X-3459690Y-7297140D01*
X-3481850Y-7292900D01*
X-3504010Y-7297140D01*
X-3532510Y-7314070D01*
X-3523010Y-7204000D01*
X-3437520D01*
G01X-3193020Y-7458000D02*
Y-7204000D01*
X-3310180Y-7386030D01*
X-3151850D01*
G01X-2977020Y-7204000D02*
X-3002350Y-7212460D01*
X-3021350Y-7233630D01*
X-3034010Y-7259030D01*
X-3043510Y-7292900D01*
X-3046680Y-7331000D01*
X-3043510Y-7369100D01*
X-3034010Y-7402970D01*
X-3021350Y-7428370D01*
X-3002350Y-7449540D01*
X-2977020Y-7458000D01*
X-2951690Y-7449540D01*
X-2932680Y-7428370D01*
X-2920020Y-7402970D01*
X-2910520Y-7369100D01*
X-2907350Y-7331000D01*
X-2910520Y-7292900D01*
X-2920020Y-7259030D01*
X-2932680Y-7233630D01*
X-2951690Y-7212460D01*
X-2977020Y-7204000D01*
G01X-2764180Y-7373340D02*
X-2681850D01*
G01X-2548180Y-7458000D02*
X-2469020Y-7204000D01*
X-2389850Y-7458000D01*
G01X-2418350Y-7369100D02*
X-2519680D01*
G01X-2278350Y-7458000D02*
Y-7204000D01*
X-2199180D01*
X-2173850Y-7216710D01*
X-2158020Y-7233630D01*
X-2151680Y-7267500D01*
X-2158020Y-7301370D01*
X-2177020Y-7322530D01*
X-2199180Y-7335240D01*
X-2278350D01*
G01X-2199180D02*
X-2151680Y-7458000D01*
G01X-2030680D02*
Y-7204000D01*
X-1967350D01*
X-1942020Y-7216710D01*
X-1923020Y-7233630D01*
X-1907180Y-7259030D01*
X-1894520Y-7288670D01*
X-1891350Y-7331000D01*
X-1894520Y-7373340D01*
X-1907180Y-7402970D01*
X-1923020Y-7428370D01*
X-1942020Y-7445300D01*
X-1967350Y-7458000D01*
X-2030680D01*
G01X-1767180Y-7204000D02*
X-1646850D01*
X-1767180Y-7458000D01*
X-1646850D01*
G01X-1262350D02*
Y-7204000D01*
X-1183180D01*
X-1157850Y-7216710D01*
X-1142020Y-7233630D01*
X-1135680Y-7267500D01*
X-1142020Y-7301370D01*
X-1161020Y-7322530D01*
X-1183180Y-7335240D01*
X-1262350D01*
G01X-1183180D02*
X-1135680Y-7458000D01*
G01X-881680D02*
X-1008350D01*
Y-7204000D01*
X-881680D01*
G01X-932350Y-7326760D02*
X-1008350D01*
G01X-770180Y-7204000D02*
X-691020Y-7458000D01*
X-611850Y-7204000D01*
G01X-478180Y-7373340D02*
X-395850D01*
G01X-157690Y-7322530D02*
X-145020Y-7309830D01*
X-135520Y-7288670D01*
X-129180Y-7259030D01*
X-135520Y-7233630D01*
X-148180Y-7216710D01*
X-170350Y-7204000D01*
X-255840D01*
Y-7458000D01*
X-151350D01*
X-129180Y-7441070D01*
X-116520Y-7415670D01*
X-110190Y-7386030D01*
X-116520Y-7356410D01*
X-135520Y-7331000D01*
X-157690Y-7322530D01*
X-255840D01*
G01X-5608880Y133600D02*
Y212590D01*
X-5573160Y155980D01*
X-5621430D01*
G01X-4247020Y-6696000D02*
X-4272350Y-6704460D01*
X-4291350Y-6725630D01*
X-4304010Y-6751030D01*
X-4313510Y-6784900D01*
X-4316680Y-6823000D01*
X-4313510Y-6861100D01*
X-4304010Y-6894970D01*
X-4291350Y-6920370D01*
X-4272350Y-6941540D01*
X-4247020Y-6950000D01*
X-4221690Y-6941540D01*
X-4202680Y-6920370D01*
X-4190020Y-6894970D01*
X-4180520Y-6861100D01*
X-4177350Y-6823000D01*
X-4180520Y-6784900D01*
X-4190020Y-6751030D01*
X-4202680Y-6725630D01*
X-4221690Y-6704460D01*
X-4247020Y-6696000D01*
G01X-3993020Y-6950000D02*
X-3970850Y-6945770D01*
X-3945520Y-6933070D01*
X-3929680Y-6911910D01*
X-3923350Y-6882270D01*
X-3929680Y-6852640D01*
X-3948680Y-6827240D01*
X-3977180Y-6814530D01*
X-4008850D01*
X-4027850Y-6806070D01*
X-4043680Y-6784900D01*
X-4050010Y-6755270D01*
X-4040510Y-6725630D01*
X-4018350Y-6704460D01*
X-3993020Y-6696000D01*
X-3967690Y-6704460D01*
X-3945520Y-6725630D01*
X-3936020Y-6755270D01*
X-3942350Y-6784900D01*
X-3958180Y-6806070D01*
X-3977180Y-6814530D01*
X-4008850D01*
X-4037350Y-6827240D01*
X-4056350Y-6852640D01*
X-4062680Y-6882270D01*
X-4056350Y-6911910D01*
X-4040510Y-6933070D01*
X-4015180Y-6945770D01*
X-3993020Y-6950000D01*
G01X-3780180Y-6865340D02*
X-3697850D01*
G01X-2002180D02*
X-1919850D01*
G01X-1707020Y-6696000D02*
X-1732350Y-6704460D01*
X-1751350Y-6725630D01*
X-1764010Y-6751030D01*
X-1773510Y-6784900D01*
X-1776680Y-6823000D01*
X-1773510Y-6861100D01*
X-1764010Y-6894970D01*
X-1751350Y-6920370D01*
X-1732350Y-6941540D01*
X-1707020Y-6950000D01*
X-1681690Y-6941540D01*
X-1662680Y-6920370D01*
X-1650020Y-6894970D01*
X-1640520Y-6861100D01*
X-1637350Y-6823000D01*
X-1640520Y-6784900D01*
X-1650020Y-6751030D01*
X-1662680Y-6725630D01*
X-1681690Y-6704460D01*
X-1707020Y-6696000D01*
G01X-1513180Y-6738330D02*
X-1494180Y-6712940D01*
X-1472010Y-6700230D01*
X-1446680Y-6696000D01*
X-1415020Y-6704460D01*
X-1392850Y-6725630D01*
X-1386520Y-6751030D01*
X-1389680Y-6776440D01*
X-1402350Y-6797600D01*
X-1465680Y-6839930D01*
X-1494180Y-6869570D01*
X-1513180Y-6911910D01*
X-1519510Y-6950000D01*
X-1386520D01*
G01X-4310350Y-6188000D02*
Y-6442000D01*
X-4183680D01*
G01X-3955020D02*
Y-6188000D01*
X-4072180Y-6370030D01*
X-3913850D01*
G01X-3551510Y-6408140D02*
X-3526180Y-6429300D01*
X-3497680Y-6442000D01*
X-3472350D01*
X-3447020Y-6429300D01*
X-3428020Y-6408140D01*
X-3418520Y-6378500D01*
X-3424850Y-6348870D01*
X-3440680Y-6323470D01*
X-3469180Y-6306530D01*
X-3507180Y-6298070D01*
X-3529350Y-6281140D01*
X-3538850Y-6251500D01*
X-3532510Y-6221870D01*
X-3516680Y-6200710D01*
X-3494520Y-6188000D01*
X-3472350D01*
X-3450180Y-6196460D01*
X-3431180Y-6217630D01*
G01X-3167680Y-6442000D02*
X-3294350D01*
Y-6188000D01*
X-3167680D01*
G01X-3218350Y-6310760D02*
X-3294350D01*
G01X-2907350Y-6209170D02*
X-2926350Y-6196460D01*
X-2948510Y-6188000D01*
X-2973850D01*
X-3002350Y-6200710D01*
X-3024510Y-6221870D01*
X-3040350Y-6247270D01*
X-3053020Y-6289600D01*
X-3056180Y-6327700D01*
X-3049840Y-6365800D01*
X-3040350Y-6391200D01*
X-3021350Y-6416610D01*
X-2999180Y-6433540D01*
X-2977020Y-6442000D01*
X-2954850D01*
X-2932680Y-6433540D01*
X-2913680Y-6420840D01*
X-2897850Y-6403910D01*
G01X-2723020Y-6442000D02*
X-2748350Y-6437770D01*
X-2770510Y-6420840D01*
X-2789510Y-6395440D01*
X-2802180Y-6365800D01*
X-2808510Y-6331930D01*
Y-6298070D01*
X-2802180Y-6264200D01*
X-2789510Y-6234560D01*
X-2770510Y-6209170D01*
X-2748350Y-6192230D01*
X-2723020Y-6188000D01*
X-2697690Y-6192230D01*
X-2675520Y-6209170D01*
X-2656520Y-6234560D01*
X-2643850Y-6264200D01*
X-2637520Y-6298070D01*
Y-6331930D01*
X-2643850Y-6365800D01*
X-2656520Y-6395440D01*
X-2675520Y-6420840D01*
X-2697690Y-6437770D01*
X-2723020Y-6442000D01*
G01X-2541840D02*
Y-6188000D01*
X-2396190Y-6442000D01*
Y-6188000D01*
G01X-2284680Y-6442000D02*
Y-6188000D01*
X-2221350D01*
X-2196020Y-6200710D01*
X-2177020Y-6217630D01*
X-2161180Y-6243030D01*
X-2148520Y-6272670D01*
X-2145350Y-6315000D01*
X-2148520Y-6357340D01*
X-2161180Y-6386970D01*
X-2177020Y-6412370D01*
X-2196020Y-6429300D01*
X-2221350Y-6442000D01*
X-2284680D01*
G01X-2040180D02*
X-1961020Y-6188000D01*
X-1881850Y-6442000D01*
G01X-1910350Y-6353100D02*
X-2011680D01*
G01X-1770350Y-6442000D02*
Y-6188000D01*
X-1691180D01*
X-1665850Y-6200710D01*
X-1650020Y-6217630D01*
X-1643680Y-6251500D01*
X-1650020Y-6285370D01*
X-1669020Y-6306530D01*
X-1691180Y-6319240D01*
X-1770350D01*
G01X-1691180D02*
X-1643680Y-6442000D01*
G01X-1453020D02*
Y-6327700D01*
X-1516350Y-6188000D01*
G01X-1389680D02*
X-1453020Y-6327700D01*
G01X-3485020Y-6696000D02*
X-3510350Y-6704460D01*
X-3529350Y-6725630D01*
X-3542010Y-6751030D01*
X-3551510Y-6784900D01*
X-3554680Y-6823000D01*
X-3551510Y-6861100D01*
X-3542010Y-6894970D01*
X-3529350Y-6920370D01*
X-3510350Y-6941540D01*
X-3485020Y-6950000D01*
X-3459690Y-6941540D01*
X-3440680Y-6920370D01*
X-3428020Y-6894970D01*
X-3418520Y-6861100D01*
X-3415350Y-6823000D01*
X-3418520Y-6784900D01*
X-3428020Y-6751030D01*
X-3440680Y-6725630D01*
X-3459690Y-6704460D01*
X-3485020Y-6696000D01*
G01X-3300680Y-6911910D02*
X-3281680Y-6933070D01*
X-3259520Y-6945770D01*
X-3231020Y-6950000D01*
X-3202510Y-6941540D01*
X-3180350Y-6924610D01*
X-3164520Y-6894970D01*
X-3161350Y-6861100D01*
X-3167680Y-6827240D01*
X-3183520Y-6806070D01*
X-3205690Y-6789140D01*
X-3227850Y-6784900D01*
X-3250010Y-6789140D01*
X-3278510Y-6806070D01*
X-3269010Y-6696000D01*
X-3183520D01*
G01X-3030850Y-6920370D02*
X-3008680Y-6941540D01*
X-2983350Y-6950000D01*
X-2958020Y-6941540D01*
X-2935850Y-6916140D01*
X-2920020Y-6878030D01*
X-2913680Y-6839930D01*
Y-6793370D01*
X-2920020Y-6755270D01*
X-2935850Y-6721400D01*
X-2954850Y-6704460D01*
X-2977020Y-6696000D01*
X-3002350Y-6704460D01*
X-3021350Y-6721400D01*
X-3034010Y-6746800D01*
X-3040350Y-6780670D01*
X-3034010Y-6810300D01*
X-3018180Y-6839930D01*
X-2999180Y-6856870D01*
X-2977020Y-6861100D01*
X-2951690Y-6852640D01*
X-2932680Y-6831470D01*
X-2913680Y-6793370D01*
G01X-2792680Y-6899200D02*
X-2773680Y-6928840D01*
X-2748350Y-6945770D01*
X-2719850Y-6950000D01*
X-2694510Y-6945770D01*
X-2669180Y-6924610D01*
X-2653350Y-6899200D01*
X-2650190Y-6873800D01*
X-2656520Y-6844170D01*
X-2678680Y-6823000D01*
X-2700850Y-6814530D01*
X-2729350D01*
G01X-2700850D02*
X-2681850Y-6801830D01*
X-2666020Y-6780670D01*
X-2659680Y-6755270D01*
X-2666020Y-6729870D01*
X-2681850Y-6708710D01*
X-2710350Y-6696000D01*
X-2738850Y-6700230D01*
X-2767350Y-6717170D01*
G01X-2538680Y-6911910D02*
X-2519680Y-6933070D01*
X-2497520Y-6945770D01*
X-2469020Y-6950000D01*
X-2440510Y-6941540D01*
X-2418350Y-6924610D01*
X-2402520Y-6894970D01*
X-2399350Y-6861100D01*
X-2405680Y-6827240D01*
X-2421520Y-6806070D01*
X-2443690Y-6789140D01*
X-2465850Y-6784900D01*
X-2488010Y-6789140D01*
X-2516510Y-6806070D01*
X-2507010Y-6696000D01*
X-2421520D01*
G01X-2215020Y-6950000D02*
X-2192850Y-6945770D01*
X-2167520Y-6933070D01*
X-2151680Y-6911910D01*
X-2145350Y-6882270D01*
X-2151680Y-6852640D01*
X-2170680Y-6827240D01*
X-2199180Y-6814530D01*
X-2230850D01*
X-2249850Y-6806070D01*
X-2265680Y-6784900D01*
X-2272010Y-6755270D01*
X-2262510Y-6725630D01*
X-2240350Y-6704460D01*
X-2215020Y-6696000D01*
X-2189690Y-6704460D01*
X-2167520Y-6725630D01*
X-2158020Y-6755270D01*
X-2164350Y-6784900D01*
X-2180180Y-6806070D01*
X-2199180Y-6814530D01*
X-2230850D01*
X-2259350Y-6827240D01*
X-2278350Y-6852640D01*
X-2284680Y-6882270D01*
X-2278350Y-6911910D01*
X-2262510Y-6933070D01*
X-2237180Y-6945770D01*
X-2215020Y-6950000D01*
G54D34*
G01X-5487510Y-2725000D02*
X-5775000D01*
G01X-5487510Y-2475000D02*
X-5771000D01*
X-5775000Y-2471000D01*
G01X-5475800Y-2212500D02*
X-5770500D01*
X-5775000Y-2217000D01*
G01X-4625800Y-2050000D02*
X-4800000D01*
G01X-4986700D02*
X-4800000D01*
G01X-4387500Y-1400000D02*
Y-850000D01*
X-4525000Y-712500D01*
Y-700000D01*
G01X-4230530Y-825000D02*
Y-347580D01*
X-4229000Y-346050D01*
G01D02*
Y-346000D01*
G01X-3462500Y-2262500D02*
X-3562500D01*
X-3637500Y-2187500D01*
Y-1774990D01*
X-3687490Y-1725000D01*
G01X-4012500Y-337500D02*
X-3912500Y-437500D01*
Y-1150000D01*
X-3854970Y-1207530D01*
Y-1557520D01*
X-3687490Y-1725000D01*
G01X-3575000Y-1550000D02*
Y-1137500D01*
X-3662500Y-1050000D01*
Y-625000D01*
X-3467000Y-429500D01*
Y-53950D01*
G01X-3975000D02*
Y-62500D01*
G01X-3368750Y-2743750D02*
Y-2381250D01*
X-3275000Y-2287500D01*
Y-1737490D01*
X-3325000Y-1687490D01*
Y-1500000D01*
X-2912500Y-1087500D01*
G01X-3127080Y-2625000D02*
Y-2589580D01*
X-3049500Y-2512000D01*
X-2874500D01*
X-2850000Y-2487500D01*
Y-2425000D01*
X-2674500Y-2249500D01*
X-2249500D01*
X-2175000Y-2175000D01*
Y-2050800D01*
G01X-3056030Y-2625000D02*
X-2981030Y-2550000D01*
X-2837500D01*
X-2800000Y-2512500D01*
Y-2437500D01*
X-2650000Y-2287500D01*
X-2225000D01*
X-2075000Y-2137500D01*
Y-2050800D01*
G01X-3447500Y-2086460D02*
Y-1309990D01*
X-3150000Y-1012490D01*
Y-833000D01*
X-3283000Y-700000D01*
G01X-3450000Y-2175000D02*
X-3503030Y-2121970D01*
Y-1128030D01*
X-3400000Y-1025000D01*
Y-837000D01*
X-3537000Y-700000D01*
G01X-3575000Y-1550000D02*
Y-2142910D01*
X-3546450Y-2171460D01*
G01X-3250000Y-1575000D02*
Y-1612500D01*
X-3112510Y-1749990D01*
Y-2050010D01*
X-3117950Y-2055450D01*
X-3118760D01*
G01X-3387500Y-325000D02*
Y-550000D01*
X-3283000Y-654500D01*
Y-700000D01*
G01X-2475000Y-3568050D02*
Y-3625000D01*
X-2500000Y-3650000D01*
G01X-2475000Y-3256950D02*
X-2531950D01*
G01X-2462510Y-3100000D02*
X-2375000Y-3187510D01*
Y-3256950D01*
G01X-2837490Y-1962500D02*
X-2837500Y-1962510D01*
Y-2050000D01*
G01D02*
X-2869990D01*
X-2905030Y-2014960D01*
Y-1910040D01*
X-2787500Y-1792510D01*
Y-1312500D01*
X-2812500Y-1287500D01*
Y-1241970D01*
G01X-2987510Y-1962500D02*
X-2962490Y-1987520D01*
Y-2050010D01*
X-2957470Y-2055030D01*
X-2951770D01*
G01X-2700000Y-1175000D02*
Y-1587500D01*
G01X-2812500Y-1241970D02*
Y-1200000D01*
X-2425000Y-812500D01*
Y-180950D01*
X-2298000Y-53950D01*
G01X-2362500Y-462500D02*
Y-837500D01*
X-2700000Y-1175000D01*
G01X-2550000Y-462500D02*
Y-348050D01*
X-2552000Y-346050D01*
G01X-2044000Y-5171050D02*
Y-4931000D01*
G01X-2312490Y-3100000D02*
X-2325000Y-3112510D01*
Y-3256950D01*
G01X-1712500Y-2725000D02*
Y-2837500D01*
X-1775000Y-2900000D01*
X-1937500D01*
X-1962500Y-2925000D01*
G01X-2075000Y-1949200D02*
Y-1575000D01*
X-2050000Y-1550000D01*
G01X-2062500Y-725000D02*
X-1925000Y-587500D01*
X-1462500D01*
X-1266450Y-391450D01*
Y-69500D01*
X-1282000Y-53950D01*
G01X-2044000Y-346050D02*
Y-550600D01*
X-2117580Y-624180D01*
X-2121790D01*
G01X-1790000Y-4878950D02*
Y-4665000D01*
G01X-1425000Y-2650000D02*
X-1362500Y-2712500D01*
Y-2855010D01*
G01X-1687500Y-187500D02*
X-1700000Y-200000D01*
X-1755000D01*
X-1790000Y-165000D01*
Y-53950D01*
G01X-1650000Y-350000D02*
X-1539950D01*
X-1536000Y-346050D01*
G01X-1282000Y-4878950D02*
X-1166450D01*
G01X-1028000Y-5171050D02*
X946050D01*
G01X-774000Y-53950D02*
Y75000D01*
G01X-1028000Y-346050D02*
Y-19470D01*
G01X-587500Y-3787500D02*
X-550000D01*
G01X500000Y-1400800D02*
Y-1550000D01*
X837500Y-1887500D01*
Y-1962500D01*
X813110Y-1986890D01*
Y-1987890D01*
X775500Y-2025500D01*
Y-2037500D01*
G54D25*
X-2475000Y-3568050D03*
Y-3256950D03*
X-2425000Y-3568050D03*
X-2375000D03*
X-2325000D03*
X-2275000D03*
Y-3256950D03*
X-2325000D03*
X-2375000D03*
X-2425000D03*
X-1050000Y-4455550D03*
X-850000Y-4144450D03*
X-900000D03*
X-950000D03*
X-1000000D03*
X-1050000D03*
X-1000000Y-4455550D03*
X-950000D03*
X-900000D03*
X-850000D03*
G54D16*
X-5374200Y-2212500D03*
X-5475800D03*
X-4986700Y-2050000D03*
X-5088300D03*
X-4625800D03*
X-4524200D03*
X-2050000Y-4149200D03*
Y-4250800D03*
X-2161700Y-3775000D03*
X-2263300D03*
X-1961700Y-3675000D03*
X-2063300D03*
X-2263300Y-3987500D03*
X-2161700D03*
X-2263300Y-3675000D03*
X-2161700D03*
X-2175000Y-1949200D03*
Y-2050800D03*
X-2075000Y-1949200D03*
Y-2050800D03*
X-1361700Y-3225000D03*
X-1463300D03*
X400000Y-1299200D03*
Y-1400800D03*
X500000Y-1299200D03*
Y-1400800D03*
X600000D03*
Y-1299200D03*
G54D35*
G01X-104320Y-3925000D02*
Y-3972500D01*
G01Y-4037500D02*
X37490D01*
X37500Y-4037510D01*
G54D26*
X-2375000Y-3412500D03*
X-950000Y-4300000D03*
G54D17*
X-5362500Y-825000D03*
X-4912500Y-4712500D03*
X-5212500Y-4900000D03*
X-5287500D03*
X-4912500Y-4300000D03*
Y-4375000D03*
Y-4450000D03*
Y-4612500D03*
Y-4512500D03*
X-4862500Y-3700000D03*
X-4962500D03*
X-5237500Y-2737500D03*
X-5162500Y-775000D03*
X-5135900Y-350000D03*
X-4900000Y-437500D03*
X-5000000Y-537500D03*
X-5050000Y-325000D03*
X-4875000Y-287500D03*
X-4991000Y12500D03*
X-4525000Y-4687500D03*
X-4462500D03*
X-4737500Y-4712500D03*
X-4687500Y-4487500D03*
X-4537500Y-4012500D03*
X-4575000Y-3562500D03*
X-4362500Y-2437500D03*
X-4387500Y-1400000D03*
X-4230530Y-825000D03*
X-4425000Y-412500D03*
X-4587500D03*
X-4550000Y-287500D03*
X-4362500Y-275000D03*
X-4300000Y-100000D03*
X-4212500D03*
X-4582020Y-53950D03*
X-4229000Y-346000D03*
Y-346050D03*
X-3965210Y-2247510D03*
X-3687490Y-1725000D03*
X-4012500Y-337500D03*
X-3975000Y-62500D03*
X-4100000Y-275000D03*
X-3725000Y-337500D03*
X-3371370Y-4450000D03*
X-3196000Y-4179000D03*
X-3060000Y-4671980D03*
X-3368750Y-2743750D03*
X-3262500Y-2800000D03*
X-3012500Y-2412500D03*
X-3187500D03*
X-3100000D03*
X-3127080Y-2625000D03*
X-3056030D03*
X-3462500Y-2262500D03*
X-3447500Y-2086460D03*
X-3187500Y-2262500D03*
X-3100000D03*
X-3012500D03*
Y-2337500D03*
X-3100000D03*
X-3187500D03*
X-3337500Y-1950000D03*
Y-1800000D03*
Y-1875000D03*
X-3450000Y-2175000D03*
X-3546450Y-2171460D03*
X-3118760Y-2055450D03*
X-3575000Y-1550000D03*
X-3250000Y-1575000D03*
X-3387500Y-325000D03*
X-3078950Y-346050D03*
X-2806000Y-5378020D03*
X-2462500Y-3725000D03*
X-2500000Y-3650000D03*
X-2437500Y-3450000D03*
Y-3362500D03*
X-2736970Y-3274990D03*
X-2531950Y-3256950D03*
X-2925000Y-2412500D03*
X-2937500Y-2800000D03*
X-2600000Y-2387500D03*
X-2675000Y-2437500D03*
X-2820000Y-2610000D03*
X-2925000Y-2262500D03*
Y-2337500D03*
X-2712500Y-1875000D03*
Y-1787500D03*
Y-1950000D03*
X-2837500Y-2050000D03*
X-2951770Y-2055030D03*
X-2700000Y-1175000D03*
Y-1587500D03*
X-2812500Y-1241970D03*
X-2612250Y-1201950D03*
X-2912500Y-1087500D03*
X-2550000Y-462500D03*
X-2803950Y-53950D03*
X-2044000Y-4931000D03*
X-2125000Y-4387500D03*
X-2237500Y-4512500D03*
X-2161700Y-3850000D03*
X-2100000Y-3548000D03*
X-1925000D03*
X-2412500Y-4048000D03*
X-2137500Y-3180010D03*
X-2312500Y-3450000D03*
Y-3362500D03*
X-2000000Y-2962500D03*
X-2237500Y-2537510D03*
X-2387500Y-2787500D03*
X-2337500Y-1987500D03*
X-1850000Y-1917320D03*
X-2050000Y-1550000D03*
X-2305770Y-1523050D03*
Y-1201950D03*
X-1875000Y-1525000D03*
X-2162500Y-1400000D03*
X-2062500Y-725000D03*
X-2121790Y-624180D03*
X-2362500Y-462500D03*
X-1536000Y-4976500D03*
X-1790000Y-4665000D03*
X-1750000Y-3548000D03*
X-1575000Y-3875000D03*
X-1450000Y-3962500D03*
X-1361700Y-3286700D03*
X-1362500Y-3094990D03*
X-1267500D03*
X-1274990Y-2714400D03*
X-1275000Y-2525000D03*
X-1712500Y-2725000D03*
X-1425000Y-2650000D03*
X-1825000Y-2775000D03*
X-1462500Y-2425000D03*
X-1525000Y-2800000D03*
X-1275000Y-2237500D03*
Y-2337500D03*
X-1468000Y-1780000D03*
X-1473000Y-1962500D03*
X-1824990Y-2049990D03*
X-1375000Y-2150000D03*
X-1725000Y-1287500D03*
Y-1137500D03*
X-1687500Y-187500D03*
X-1650000Y-350000D03*
X-1166450Y-4878950D03*
X-1250000Y-4486320D03*
X-950000Y-4300000D03*
X-1025000Y-4262500D03*
Y-4337500D03*
X-875000Y-4262500D03*
Y-4337500D03*
X-1012500Y-4550000D03*
X-1125000Y-4537500D03*
X-675000Y-3950000D03*
Y-4075000D03*
X-900000Y-3377010D03*
X-1087500Y-3110500D03*
X-912500D03*
X-918750Y-3268750D03*
X-1087500Y-2812500D03*
X-912500Y-2814510D03*
X-1200000Y-2525000D03*
X-1137500D03*
X-1187500Y-2625000D03*
X-1177010Y-1962490D03*
Y-1787500D03*
X-1062500Y-2012500D03*
X-1225000Y-2287500D03*
X-1175000Y-2237500D03*
Y-2337500D03*
X-1153950Y-53950D03*
X-1028000Y-19470D03*
X-774000Y75000D03*
X-412500Y-4725000D03*
X-100000Y-4200000D03*
X-212500D03*
X-400000Y-4400000D03*
X-104320Y-3925000D03*
X-325000Y-3912500D03*
X-262500D03*
X-237500Y-3962500D03*
X-550000Y-3787500D03*
X-400000Y-4087500D03*
X-325000Y-3787500D03*
X62500Y-4200000D03*
X287500Y-4400000D03*
Y-4087500D03*
X275000Y-3787500D03*
X187500Y-2978470D03*
X92500Y-2520000D03*
X422990Y-2687500D03*
Y-2512500D03*
X400000Y-1475000D03*
Y-1225000D03*
X300000Y-887500D03*
X946050Y-5171050D03*
X587500Y-3562500D03*
X575000Y-3139510D03*
X562500Y-3500000D03*
X625000D03*
X835670Y-2126830D03*
X925000Y-2287500D03*
X775500Y-2037500D03*
X937500Y-1837500D03*
X775000Y-1937500D03*
X600000Y-1225000D03*
Y-1487500D03*
X911700Y-1149040D03*
X1012500Y-862500D03*
Y-925000D03*
Y-987500D03*
X712500Y-887500D03*
X1373000Y-2925000D03*
X1387500Y-2650000D03*
X1275520Y-2212510D03*
Y-2062490D03*
X1575000Y-1812500D03*
X1525000Y-1775000D03*
X1337500Y-1225000D03*
X1137500D03*
X1237500D03*
X1462500D03*
X1587500Y-1312500D03*
Y-1237500D03*
X1575000Y-1750000D03*
X1612500Y-537500D03*
X1537500D03*
X1462500D03*
X1950000Y-1312500D03*
X1887500D03*
X1825000D03*
X2112500Y-600000D03*
X2037500D03*
X1975000D03*
Y-675000D03*
X2037500D03*
X2112500D03*
Y-1037500D03*
Y-887500D03*
Y-962500D03*
X2012500Y-812500D03*
X2225420D03*
G54D36*
G01X-4483000Y-53950D02*
X-4582020D01*
G01X-3060000Y-4878950D02*
Y-4671980D01*
G01X-2637500Y-2949990D02*
X-2774990D01*
X-3275000Y-3450000D01*
Y-3550000D01*
X-3525000Y-3800000D01*
G01X-2806000Y-5171050D02*
Y-5378020D01*
G01X-2812500Y-3274990D02*
X-2736970D01*
G01X-2637500Y-2949990D02*
X-2625010Y-2937500D01*
X-2475010D01*
X-2462510Y-2925000D01*
G01X-2637500Y-3100010D02*
X-2557410D01*
X-2557400Y-3100000D01*
X-2462510D01*
G01X-2161700Y-3775000D02*
Y-3850000D01*
G01X-2100000Y-3475010D02*
Y-3548000D01*
G01X-1925000Y-3475010D02*
Y-3548000D01*
G01X-2412500Y-3975010D02*
Y-4048000D01*
G01X-1925000Y-3324990D02*
X-2100000D01*
G01X-2312490Y-2925000D02*
Y-3100000D01*
G01X-1750000Y-3475010D02*
Y-3548000D01*
G01X-1674990Y-3675000D02*
Y-3762980D01*
G01X-1250000Y-4400000D02*
Y-4486320D01*
G01X-900000Y-3449990D02*
Y-3377010D01*
G01X-1087500Y-3037510D02*
Y-3110500D01*
G01X-912500Y-3037510D02*
Y-3110500D01*
G01X350010Y-2512500D02*
X422990D01*
G54D18*
X-4812500Y-2362500D03*
X-4800000Y-2050000D03*
X-3850000Y-4125000D03*
Y-3800000D03*
Y-3475000D03*
X-3525000Y-4125000D03*
Y-3800000D03*
Y-3475000D03*
X-2137500Y-2787500D03*
X-1750000Y-3075000D03*
X-1275000Y-700000D03*
X-925000D03*
X-187500Y-4675000D03*
X-225000Y-700000D03*
X-575000D03*
X625000Y-4125000D03*
X962500Y-4450000D03*
X625000D03*
Y-3800000D03*
X962500D03*
G54D27*
X-2712500Y-2537500D03*
X-2512500D03*
X-500000Y-4275000D03*
X-300000D03*
X400000Y-887500D03*
X600000D03*
G54D37*
G01X-5775000Y-2075410D02*
Y-1963000D01*
G01D02*
Y-1850590D01*
G01Y-1963000D02*
X-5662590D01*
G01X-5374200Y-2212500D02*
X-5287500D01*
X-5237500Y-2262500D01*
Y-2475000D01*
G01X-5541000Y-812410D02*
Y-700000D01*
G01D02*
Y-587590D01*
G01X-5653410Y-700000D02*
X-5541000D01*
G01D02*
X-5428590D01*
G01X-5541000Y-1066410D02*
Y-954000D01*
G01D02*
Y-841590D01*
G01X-5653410Y-954000D02*
X-5541000D01*
G01D02*
X-5428590D01*
G01X-4812500Y-2468310D02*
Y-2362500D01*
G01D02*
Y-2256690D01*
G01X-4918310Y-2362500D02*
X-4812500D01*
G01D02*
X-4706690D01*
G01X-5337490Y-2725000D02*
X-5250000D01*
X-5237500Y-2737500D01*
G01Y-2475000D02*
Y-2737500D01*
G01X-5337490Y-2475000D02*
X-5237500D01*
G01X-5088300Y-2107800D02*
Y-2050000D01*
G01D02*
Y-1992200D01*
G01X-4392490Y-3136330D02*
Y-3004990D01*
G01D02*
Y-2873650D01*
G01X-4523830Y-3004990D02*
X-4392490D01*
G01D02*
X-4261150D01*
G01X-4392490Y-2626350D02*
Y-2495010D01*
G01D02*
Y-2363670D01*
G01X-4523830Y-2495010D02*
X-4392490D01*
G01D02*
X-4261150D01*
G01X-4483000Y-255260D02*
Y-53950D01*
G01D02*
Y147360D01*
G01Y-53950D02*
X-4389640D01*
G01X-3630810Y-4125000D02*
X-3525000D01*
G01X-3882510Y-3136330D02*
Y-3004990D01*
G01D02*
Y-2873650D01*
G01X-4013850Y-3004990D02*
X-3882510D01*
G01D02*
X-3751170D01*
G01X-3882510Y-2626350D02*
Y-2495010D01*
G01D02*
Y-2363670D01*
G01X-4013850Y-2495010D02*
X-3882510D01*
G01D02*
X-3751170D01*
G01X-3791000Y-1066410D02*
Y-954000D01*
G01Y-812410D02*
Y-700000D01*
G01D02*
Y-587590D01*
G01Y-954000D02*
Y-841590D01*
G01X-3060000Y-5080260D02*
Y-4878950D01*
G01X-3153360D02*
X-3060000D01*
G01D02*
X-2966640D01*
G01X-3053000Y-4179000D02*
X-3196000D01*
G01X-3053000Y-4317830D02*
Y-4179000D01*
G01D02*
Y-4040170D01*
G01X-3525000Y-4230810D02*
Y-4125000D01*
G01D02*
Y-4019190D01*
G01Y-4125000D02*
X-3419190D01*
G01X-2806000Y-5171050D02*
Y-4969740D01*
G01X-2899360Y-5171050D02*
X-2806000D01*
G01D02*
X-2712640D01*
G01X-2799000Y-4179000D02*
Y-4386510D01*
X-2799990Y-4387500D01*
G01X-2950010Y-4457370D02*
Y-4387500D01*
G01D02*
X-2882680D01*
G01X-2950010Y-4632370D02*
Y-4562500D01*
G01D02*
Y-4492630D01*
G01Y-4562500D02*
X-2882680D01*
G01X-2637500Y-3425010D02*
X-2570530Y-3491980D01*
Y-4079470D01*
X-2399200Y-4250800D01*
X-2050000D01*
G01X-2926000Y-3671000D02*
Y-3538510D01*
X-2812500Y-3425010D01*
G01Y-3342320D02*
Y-3274990D01*
G01D02*
Y-3207660D01*
G01X-2882370Y-3274990D02*
X-2812500D01*
G01X-2524240Y-3412500D02*
X-2375000D01*
G01X-2712500Y-2537500D02*
Y-2675000D01*
X-2637500Y-2750000D01*
Y-2949990D01*
G01X-2812500Y-3425010D02*
X-2637500D01*
G01X-2512500Y-2537500D02*
Y-2475000D01*
X-2600000Y-2387500D01*
G01X-2512500Y-2630860D02*
Y-2537500D01*
G01X-2593160D02*
X-2512500D01*
G01D02*
X-2431840D01*
G01X-2712500D02*
Y-2475000D01*
X-2675000Y-2437500D01*
G01X-2454820Y-1512500D02*
X-2387490D01*
G01X-2049200Y-4250000D02*
X-2050000Y-4250800D01*
G01X-2012500Y-3987510D02*
Y-4111700D01*
X-2050000Y-4149200D01*
G01X-1575000Y-3875000D02*
X-1887510D01*
X-1925020Y-3837490D01*
X-2012500D01*
G01X-2412500Y-3824990D02*
X-2312500Y-3924990D01*
Y-3937500D01*
X-2263300Y-3986700D01*
Y-3987500D01*
G01X-2161700D02*
X-2012510D01*
X-2012500Y-3987510D01*
G01X-2100000Y-3475010D02*
Y-3407680D01*
G01X-2169870Y-3475010D02*
X-2100000D01*
G01D02*
X-2030130D01*
G01X-2375000Y-3412500D02*
X-2225760D01*
G01X-1925000Y-3475010D02*
Y-3407680D01*
G01X-1994870Y-3475010D02*
X-1925000D01*
G01D02*
X-1855130D01*
G01X-1925000Y-3324990D02*
X-1750000D01*
G01X-2387490Y-1582370D02*
Y-1512500D01*
G01D02*
Y-1442630D01*
G01X-1536000Y-5171050D02*
Y-4976500D01*
G01X-1343360Y-4400000D02*
X-1250000D01*
G01X-1450000Y-4212510D02*
X-1262510D01*
X-1250000Y-4200000D01*
G01X-1674990Y-3675000D02*
Y-3605130D01*
G01X-1742320Y-3675000D02*
X-1674990D01*
G01X-1575000Y-3875000D02*
Y-2975000D01*
X-1625000Y-2925000D01*
Y-1975000D01*
X-1682680Y-1917320D01*
X-1850000D01*
G01X-1425000Y-3600010D02*
X-1250000D01*
G01X-1450000Y-4062490D02*
Y-3962500D01*
G01X-1361700Y-3225000D02*
Y-3286700D01*
G01X-1225010Y-3262500D02*
Y-3137480D01*
X-1267500Y-3094990D01*
G01X-1425000Y-3449990D02*
Y-3350000D01*
X-1463300Y-3311700D01*
Y-3225000D01*
G01X-1750000Y-3324990D02*
Y-3075000D01*
G01X-1525000Y-2800000D02*
X-1475000D01*
X-1457500Y-2817500D01*
Y-2855010D01*
G01X-1375000Y-2150000D02*
Y-2550000D01*
X-1300000Y-2625000D01*
X-1187500D01*
G01X-1099240Y-4300000D02*
X-950000D01*
G01D02*
X-800760D01*
G01X-1250000Y-4400000D02*
Y-4319340D01*
G01Y-4400000D02*
X-1156640D01*
G01X-1075000Y-3600010D02*
X-1087490D01*
Y-4000000D01*
G01X-1250000Y-3600010D02*
Y-4000000D01*
X-1237510D01*
G01X-1087500Y-3037510D02*
Y-2970180D01*
G01X-1157370Y-3037510D02*
X-1087500D01*
G01D02*
X-1017630D01*
G01X-900000Y-3517320D02*
Y-3449990D01*
G01X-969870D02*
X-900000D01*
G01D02*
X-830130D01*
G01X-912500Y-3037510D02*
Y-2970180D01*
G01X-982370Y-3037510D02*
X-912500D01*
G01D02*
X-842630D01*
G01X-786330Y-3292490D02*
X-654990D01*
G01X-786330Y-2782510D02*
X-654990D01*
G01X-698830Y-1817490D02*
X-567490D01*
G01X-698830Y-1307510D02*
X-567490D01*
G01X-212500Y-4147370D02*
Y-4037500D01*
G01X-300000Y-4368360D02*
Y-4275000D01*
G01D02*
Y-4181640D01*
G01Y-4275000D02*
X-219340D01*
G01X-320680Y-3972500D02*
Y-3927400D01*
G01X-393720Y-3972500D02*
X-320680D01*
G01X-212500Y-4037500D02*
Y-3927630D01*
G01X-145010Y-3423830D02*
Y-3292490D01*
G01D02*
Y-3161150D01*
G01X-276350Y-3292490D02*
X-145010D01*
G01D02*
X-13670D01*
G01X-654990Y-3423830D02*
Y-3292490D01*
G01D02*
Y-3161150D01*
G01Y-3292490D02*
X-523650D01*
G01X-654990Y-2913850D02*
Y-2782510D01*
G01D02*
Y-2651170D01*
G01Y-2782510D02*
X-523650D01*
G01X-145010Y-2913850D02*
Y-2782510D01*
G01D02*
Y-2651170D01*
G01X-276350Y-2782510D02*
X-145010D01*
G01D02*
X-13670D01*
G01X-188850Y-1817490D02*
X-57510D01*
G01X-567490Y-1948830D02*
Y-1817490D01*
G01D02*
Y-1686150D01*
G01Y-1817490D02*
X-436150D01*
G01X-567490Y-1438850D02*
Y-1307510D01*
G01D02*
Y-1176170D01*
G01Y-1307510D02*
X-436150D01*
G01X-188850D02*
X-57510D01*
G01X-575000Y-805810D02*
Y-700000D01*
G01X-680810D02*
X-575000D01*
G01D02*
X-469190D01*
G01X37500Y-3954820D02*
Y-3887490D01*
G01D02*
Y-3820160D01*
G01X-32370Y-3887490D02*
X37500D01*
G01D02*
X107370D01*
G01X92500Y-2520000D02*
Y-2580010D01*
X199990Y-2687500D01*
G01Y-2512500D02*
X100000D01*
X92500Y-2520000D01*
G01X200000Y-2512500D02*
X199990D01*
G01X350010Y-2582370D02*
Y-2512500D01*
G01D02*
Y-2442630D01*
G01X282680Y-2512500D02*
X350010D01*
G01Y-2757370D02*
Y-2687500D01*
G01D02*
Y-2617630D01*
G01X282680Y-2687500D02*
X350010D01*
G01X-57510Y-1948830D02*
Y-1817490D01*
G01D02*
Y-1686150D01*
G01Y-1817490D02*
X73830D01*
G01X-57510Y-1438850D02*
Y-1307510D01*
G01D02*
Y-1176170D01*
G01Y-1307510D02*
X73830D01*
G01X962500Y-3905810D02*
Y-3800000D01*
G01D02*
Y-3694190D01*
G01X856690Y-3800000D02*
X962500D01*
G01D02*
X1068310D01*
G01X2158500Y-2779310D02*
Y-2641500D01*
G01D02*
Y-2503690D01*
G01X2020690Y-2641500D02*
X2158500D01*
G01D02*
X2296310D01*
G01X2158500Y-2271310D02*
Y-2133500D01*
G01D02*
Y-1995690D01*
G01X2020690Y-2133500D02*
X2158500D01*
G01D02*
X2296310D01*
G01X2666500Y-2779310D02*
Y-2641500D01*
G01D02*
Y-2503690D01*
G01X2528690Y-2641500D02*
X2666500D01*
G01D02*
X2804310D01*
G01X2666500Y-2271310D02*
Y-2133500D01*
G01D02*
Y-1995690D01*
G01X2528690Y-2133500D02*
X2666500D01*
G01D02*
X2804310D01*
G01X2800000Y-1649910D02*
Y-1537500D01*
G01D02*
Y-1425090D01*
G01X2687590Y-1537500D02*
X2800000D01*
G54D19*
X-4737000Y-346050D03*
X-4991000Y-53950D03*
X-5245000Y-346050D03*
X-4330000Y-5171050D03*
X-4229000Y-346050D03*
X-4483000Y-53950D03*
X-3822000Y-5171050D03*
X-3568000Y-4878950D03*
X-4076000D03*
X-3721000Y-346050D03*
X-3975000Y-53950D03*
X-3314000Y-5171050D03*
X-3060000Y-4878950D03*
X-2959000Y-53950D03*
X-3213000Y-346050D03*
X-3467000Y-53950D03*
X-2806000Y-5171050D03*
X-2552000Y-4878950D03*
Y-346050D03*
X-2044000Y-5171050D03*
X-1790000Y-4878950D03*
Y-53950D03*
X-2044000Y-346050D03*
X-2298000Y-53950D03*
X-1536000Y-5171050D03*
X-1282000Y-4878950D03*
Y-53950D03*
X-1536000Y-346050D03*
X-1028000Y-5171050D03*
X-774000Y-4878950D03*
Y-53950D03*
X-1028000Y-346050D03*
G54D28*
X-1250000Y-4200000D03*
Y-4400000D03*
G54D38*
G01X-5088300Y-2050000D02*
X-5200000D01*
G01X-2305770Y-1523050D02*
X-2316320Y-1512500D01*
G01D02*
X-2387490D01*
G01X-2162500Y-1287510D02*
Y-1400000D01*
G01X600000Y-1400800D02*
Y-1487500D01*
G54D29*
X-1267500Y-3094990D03*
X-1362500D03*
X-1457500D03*
X-1267500Y-2855010D03*
X-1362500D03*
X-1457500D03*
G54D39*
G01X-3568000Y-4878950D02*
Y-4659530D01*
G01X-2950010Y-4387500D02*
X-3035450D01*
G01X-2950010Y-4562500D02*
X-3035450D01*
G01X-2799990Y-4387500D02*
X-2714560D01*
G01X-2799990Y-4562500D02*
X-2714560D01*
G01X-1267500Y-2855010D02*
X-1130010D01*
X-1087500Y-2812500D01*
G01X-887510Y-4000000D02*
X-972950D01*
G01X-1087500Y-2887490D02*
Y-2812500D01*
G01X-912500Y-2887490D02*
Y-2814510D01*
G01X-550000Y-3787500D02*
X-325000D01*
G01X350010Y-2687500D02*
X422990D01*
M02*
