M48
METRIC,TZ
T01C.2489
T02C.4089
T03C1.0211
T04C1.1405
T05C1.27
T06C1.5189
T07C1.651
T08C3.2004
;LEADER: 12 
;HEADER: 08-059358b 
;CODE  : ASCII 
;FILE  : ncdrill-1-4.drl for  ... layers TOP and BOTTOM
;DESIGN: 08-059358b.brd
;T01 Holesize 1. = 0.248900 Tolerance = +0.076200/-0.076200 PLATED MM Quantity = 243
;T02 Holesize 2. = 0.408900 Tolerance = +0.076200/-0.076200 PLATED MM Quantity = 33
;T03 Holesize 3. = 1.021100 Tolerance = +0.076200/-0.076200 PLATED MM Quantity = 20
;T04 Holesize 4. = 1.140500 Tolerance = +0.076200/-0.076200 PLATED MM Quantity = 33
;T05 Holesize 5. = 1.270000 Tolerance = +0.076200/-0.076200 PLATED MM Quantity = 3
;T06 Holesize 6. = 1.518900 Tolerance = +0.076200/-0.076200 PLATED MM Quantity = 13
;T07 Holesize 7. = 1.651000 Tolerance = +0.078700/-0.078700 PLATED MM Quantity = 4
;T08 Holesize 8. = 3.200400 Tolerance = +0.000000/-0.000000 NON_PLATED MM Quantity = 4
%
G90
T01
X-30600Y-46720
X-28060Y-53780
X7750Y-19375
X-10280Y-195
X-4000Y-44000
X-3250Y-37875
X-4000Y-40875
X-6750Y-40750
X-6750Y-39500
X-5500Y-37875
X9460Y-51710
X-11664Y-48790
X-11540Y-540
X-28040Y-540
X4000Y-12250
X-30790Y-3461
X-21625Y-14000
X9375Y-18375
X6000Y-14875
X-16500Y-3500
X-21218Y-6242
X-13750Y-21500
X-11875Y-26250
X-14500Y-39625
X-52375Y-27375
X-7740Y750
X-37250Y-3375
X-15250Y-28000
X22254Y-8125
X20125Y-8125
X-26122Y-12020
X3000Y-8875
X7755Y-20375
X6000Y-12250
X9250Y-22875
X7125Y-8875
X-16875Y-1875
X-17250Y-11375
X-14625Y-24250
X-46875Y-44875
X-47375Y-47125
X5875Y-35625
X6250Y-35000
X5625Y-35000
X15250Y-17750
X15750Y-18125
X15750Y-17500
X-9188Y-32688
X-31188Y-20555
X-32500Y-15750
X-20440Y-49310
X-17900Y-46650
X-18250Y-27750
X-18250Y-20500
X-15360Y-49765
X13875Y-26500
X4000Y-14750
X-18750Y-15250
X-14250Y-26500
X-17125Y-27250
X-20000Y-29625
X-25000Y-36500
X-25320Y-32570
X-35464Y-21715
X-43875Y-14000
X-4125Y-47250
X-11250Y-45375
X-10125Y-45500
X-15750Y-38750
X-18500Y-19173
X-29518Y-20550
X-28200Y-26100
X-28375Y-20500
X-28125Y-12420
X-34500Y-21750
X-42305Y-8250
X-42290Y-3461
X-42290Y-3460
X-25500Y-4625
X-23625Y-4625
X-27000Y-15875
X-27000Y-11750
X-26750Y-24375
X-30560Y-26250
X-31271Y-26250
X-2125Y-42000
X-2375Y-39625
X-2625Y-39125
X-3250Y-39125
X-41000Y-2750
X-42125Y-1000
X-43000Y-1000
X-43625Y-2750
X-45500Y-2875
X-45875Y-4125
X-44250Y-4125
X-48750Y-2875
X-50500Y-3250
X-50000Y-5375
X-49000Y-4375
X-51625Y-7750
X-53625Y-8250
X14625Y-5375
R02X750
X21125Y-9625
X18250Y-13125
R02X625
X15875Y-12375
X15875Y-13125
X14625Y-12250
X12375Y-12250
X11375Y-12250
X13375Y-12250
X10125Y-9875
R02Y625
X21125Y-8875
X21125Y-10375
X21125Y-6750
X20375Y-6750
X19750Y-6750
X19750Y-6000
X20375Y-6000
X21125Y-6000
X8357Y-21268
X-23375Y-19875
X-27125Y-19500
X-27125Y-17875
X-27125Y-18750
X-33375Y-18750
X-33375Y-18000
X-33375Y-19500
X-12750Y-23375
X-11750Y-23375
X-11750Y-22375
X-12750Y-22375
X-11375Y-25250
X-12000Y-25250
X-12750Y-25250
X-12750Y-27144
X-23875Y-27875
X-26000Y-23875
X-22375Y-25375
X-43625Y-24375
X-13617Y-32867
X-29375Y-28000
X-31875Y-23375
R03X875
X-30125Y-22625
R02X-875
X-31000Y-24125
X-31875Y-24125
X-30125Y-24125
X-29250Y-24125
X-29250Y-22625
X-32625Y-28000
X-24375Y-33625
X-24375Y-34500
X-23125Y-33625
X-23125Y-34500
X-24625Y-37250
X-49625Y-37000
X-48625Y-37000
X-8750Y-43375
X-8750Y-42625
X-10250Y-43375
X-10250Y-42625
X-9500Y-43000
X-31960Y-41790
X-52875Y-49000
X-52125Y-49000
X-44625Y-46875
X-45250Y-46875
X-49125Y-45125
X-49125Y-47125
X-49125Y-46125
X-49125Y-44500
X-49125Y-43750
X-49125Y-43000
X-17250Y-12875
X-10625Y-20125
X-20500Y-15500
X-33688Y-27438
X-29125Y-10875
X-20625Y-7250
X-39750Y-625
X-33875Y-3250
X-34475Y-20865
X625Y-42000
X-1000Y-42000
X-11770Y-17875
X925Y-25200
X-10875Y-28125
X-11770Y-19625
X-1043Y-39250
X-45750Y-35625
X-45375Y-40125
X-40125Y-3375
X-34625Y-22625
X-49910Y125
X-22375Y-45125
X-51359Y-3500
X-21250Y-43875
X1875Y-29785
X-12675Y-30950
X-13625Y-30950
X12755Y-20625
X12755Y-22125
X5750Y-31395
X13730Y-29250
X4230Y-26875
X4230Y-25125
X-14680Y-17800
X-14730Y-19625
X-19250Y-35480
X-21000Y-35480
X-24125Y-40480
X-12500Y-44863
X-9000Y-33770
X-10875Y-31105
X-9125Y-31105
X-9125Y-28145
X-27370Y-32750
X-33714Y-44500
X-21375Y-31800
X2750Y-37875
X2875Y-40875
X2875Y-44000
X-45820Y-540
X9117Y-11490
X-17500Y-35480
X-21617Y-38500
X-36875Y-17250
X-35750Y-15500
X-23058Y-12020
X-23058Y-15231
X-12250Y-22875
X-39652Y-22475
T02
X-35680Y-46595
X-11250Y-11300
X-44000Y-20500
X-46250Y-25673
X-39250Y-17250
X-41000Y-46625
X12500Y-7000
X-52000Y-20500
X-50750Y-30250
X-54250Y-44875
X-53250Y-44875
X-54125Y-43750
X-53250Y-43750
X-49125Y-33875
X-48625Y-35000
X-40625Y-22730
X-9730Y-40000
X-16750Y-37630
X-30355Y-45625
X-27146Y-45625
X-30355Y-43875
X-27146Y-43875
X-385Y-8875
X17135Y1250
X17135Y-1250
X-14858Y-12875
X-19642Y-12875
X-14858Y-11375
X-19642Y-11375
X6375Y-19521
X4625Y-19521
X27892Y-9125
X-39230Y-15500
T03
X-21375Y-27875
X-38500Y-38000
X6250Y-41250
X-38500Y-34750
X-35250Y-34750
X9625Y-44500
X6250Y-44500
X-12750Y-7000
X-48000Y-20500
X6250Y-38000
X-48125Y-23625
X-35250Y-41250
X-5750Y-7000
X9625Y-38000
X-2250Y-7000
X-38500Y-41250
X-17500Y-30750
X-9250Y-7000
X-1875Y-46750
X-35250Y-38000
T04
X-57750Y-27250
R03Y2540
X25125Y-35500
X-45250Y-7000
R05X-2540
X-45250Y-9540
R05X-2540
X-27750Y-7000
R05X-2540
X-27750Y-9540
R05X-2540
X6000Y-29000
X6000Y-26460
X28000Y-15375
X28000Y-17915
T05
X-4000Y-30375
X-3125Y-15625
X-41375Y-27500
T06
X24125Y-23875
X-6550Y-27825
X-1450Y-27825
X-1450Y-32925
X-6550Y-32925
X-5675Y-13075
X-575Y-13075
X-575Y-18175
X-5675Y-18175
X-38825Y-30050
X-43925Y-30050
X-43925Y-24950
X-38825Y-24950
T07
X21585Y-26415
X26665Y-26415
X26665Y-21335
X21585Y-21335
T08
X26000Y-51000
X-57270Y-50260
X26000Y-1000
X-56000Y-2000
M30
