G04 ================== begin FILE IDENTIFICATION RECORD ==================*
G04 Layout Name:  C:/tmp/20_059358b/worklib/02_059358b_top/physical/08-059358b.brd*
G04 Film Name:    PMB*
G04 File Format:  Gerber RS274X*
G04 File Origin:  Cadence Allegro 17.2-S053*
G04 Origin Date:  Mon Nov 09 16:28:34 2020*
G04 *
G04 Layer:  BOARD GEOMETRY/DESIGN_OUTLINE*
G04 Layer:  PIN/PASTEMASK_BOTTOM*
G04 Layer:  PACKAGE GEOMETRY/PASTEMASK_BOTTOM*
G04 Layer:  BOARD GEOMETRY/PASTEMASK_BOTTOM*
G04 Layer:  BOARD GEOMETRY/ROOT_NUMBER*
G04 *
G04 Offset:    (0.0991 0.0000)*
G04 Mirror:    No*
G04 Mode:      Positive*
G04 Rotation:  0*
G04 FullContactRelief:  No*
G04 UndefLineWidth:     0.2007*
G04 ================== end FILE IDENTIFICATION RECORD ====================*
%FSLAX25Y25*MOMM*%
%IR0*IPPOS*OFA0.09910B0.00000*MIA0B0*SFA1.00000B1.00000*%
%ADD22R,.9906X.9398*%
%ADD14R,.9398X.9906*%
%ADD23R,.9906X1.6002*%
%ADD15R,.6096X2.1793*%
%ADD12R,.5588X.5588*%
%ADD20R,1.27X1.016*%
%ADD19R,1.016X1.27*%
%ADD10C,1.0211*%
%ADD13R,1.27X3.429*%
%ADD16R,.8001X.7493*%
%ADD11R,.7493X.8001*%
%ADD17O,.254X.889*%
%ADD24O,.8636X.3048*%
%ADD18R,2.3876X1.651*%
%ADD21R,.7112X.9906*%
%ADD25C,.2007*%
G75*
%LPD*%
G75*
G54D10*
X-5350000Y-5200000D03*
X2200000Y-5300000D03*
X2700000Y-550000D03*
G54D11*
X-5487510Y-2725000D03*
X-5337490D03*
X-5487510Y-2475000D03*
X-5337490D03*
X-2950010Y-4387500D03*
X-2799990D03*
X-2950010Y-4562500D03*
X-2799990D03*
X-2462510Y-2925000D03*
Y-3100000D03*
X-2837490Y-1962500D03*
X-2987510D03*
X-2537510Y-1512500D03*
X-2312490Y-2925000D03*
Y-3100000D03*
X-2387490Y-1512500D03*
X-1674990Y-3675000D03*
X-1825010D03*
X-1237510Y-4000000D03*
X-1087490D03*
X-887510D03*
X-737490D03*
X-1074990Y-3262500D03*
X-1225010D03*
X350010Y-2687500D03*
X199990D03*
X350010Y-2512500D03*
X199990D03*
G54D20*
X-1250000Y-4200000D03*
Y-4400000D03*
G54D21*
X-1267500Y-3094990D03*
X-1362500D03*
X-1457500D03*
X-1267500Y-2855010D03*
X-1362500D03*
X-1457500D03*
G54D12*
X-5374200Y-2212500D03*
X-5475800D03*
X-4986700Y-2050000D03*
X-5088300D03*
X-4625800D03*
X-4524200D03*
X-2050000Y-4149200D03*
Y-4250800D03*
X-2161700Y-3775000D03*
X-2263300D03*
X-1961700Y-3675000D03*
X-2063300D03*
X-2263300Y-3987500D03*
X-2161700D03*
X-2263300Y-3675000D03*
X-2161700D03*
X-2175000Y-1949200D03*
Y-2050800D03*
X-2075000Y-1949200D03*
Y-2050800D03*
X-1361700Y-3225000D03*
X-1463300D03*
X400000Y-1299200D03*
Y-1400800D03*
X500000Y-1299200D03*
Y-1400800D03*
X600000D03*
Y-1299200D03*
G54D13*
X-4737000Y-346050D03*
X-4991000Y-53950D03*
X-5245000Y-346050D03*
X-4330000Y-5171050D03*
X-4229000Y-346050D03*
X-4483000Y-53950D03*
X-3822000Y-5171050D03*
X-3568000Y-4878950D03*
X-4076000D03*
X-3721000Y-346050D03*
X-3975000Y-53950D03*
X-3314000Y-5171050D03*
X-3060000Y-4878950D03*
X-2959000Y-53950D03*
X-3213000Y-346050D03*
X-3467000Y-53950D03*
X-2806000Y-5171050D03*
X-2552000Y-4878950D03*
Y-346050D03*
X-2044000Y-5171050D03*
X-1790000Y-4878950D03*
Y-53950D03*
X-2044000Y-346050D03*
X-2298000Y-53950D03*
X-1536000Y-5171050D03*
X-1282000Y-4878950D03*
Y-53950D03*
X-1536000Y-346050D03*
X-1028000Y-5171050D03*
X-774000Y-4878950D03*
Y-53950D03*
X-1028000Y-346050D03*
G54D22*
X-1250000Y-969990D03*
Y-1130010D03*
G54D23*
X-212500Y-4037500D03*
G54D14*
X-4219990Y-3550000D03*
X-4380010D03*
G54D24*
X-320680Y-4102500D03*
Y-4037500D03*
Y-3972500D03*
X-104320D03*
Y-4037500D03*
Y-4102500D03*
G54D15*
X-3053000Y-4179000D03*
Y-3671000D03*
X-2672000Y-4179000D03*
X-2799000D03*
X-2926000D03*
X-2672000Y-3671000D03*
X-2799000D03*
X-2926000D03*
G54D25*
G01X-6000000Y-5500000D02*
X3000000D01*
Y300000D01*
X-6000000D01*
Y-5500000D01*
G01X-5453680Y-7458000D02*
X-5580350D01*
Y-7204000D01*
X-5453680D01*
G01X-5504350Y-7326760D02*
X-5580350D01*
G01X-5342180Y-7204000D02*
X-5263020Y-7458000D01*
X-5183850Y-7204000D01*
G01X-5088180Y-7458000D02*
X-5009020Y-7204000D01*
X-4929850Y-7458000D01*
G01X-4958350Y-7369100D02*
X-5059680D01*
G01X-4818350Y-7204000D02*
Y-7458000D01*
X-4691680D01*
G01X-4542180Y-7373340D02*
X-4459850D01*
G01X-4177350Y-7225170D02*
X-4196350Y-7212460D01*
X-4218510Y-7204000D01*
X-4243850D01*
X-4272350Y-7216710D01*
X-4294510Y-7237870D01*
X-4310350Y-7263270D01*
X-4323020Y-7305600D01*
X-4326180Y-7343700D01*
X-4319840Y-7381800D01*
X-4310350Y-7407200D01*
X-4291350Y-7432610D01*
X-4269180Y-7449540D01*
X-4247020Y-7458000D01*
X-4224850D01*
X-4202680Y-7449540D01*
X-4183680Y-7436840D01*
X-4167850Y-7419910D01*
G01X-4065840Y-7458000D02*
Y-7204000D01*
X-3920190Y-7458000D01*
Y-7204000D01*
G01X-3739020D02*
X-3764350Y-7212460D01*
X-3783350Y-7233630D01*
X-3796010Y-7259030D01*
X-3805510Y-7292900D01*
X-3808680Y-7331000D01*
X-3805510Y-7369100D01*
X-3796010Y-7402970D01*
X-3783350Y-7428370D01*
X-3764350Y-7449540D01*
X-3739020Y-7458000D01*
X-3713690Y-7449540D01*
X-3694680Y-7428370D01*
X-3682020Y-7402970D01*
X-3672520Y-7369100D01*
X-3669350Y-7331000D01*
X-3672520Y-7292900D01*
X-3682020Y-7259030D01*
X-3694680Y-7233630D01*
X-3713690Y-7212460D01*
X-3739020Y-7204000D01*
G01X-3554680Y-7419910D02*
X-3535680Y-7441070D01*
X-3513520Y-7453770D01*
X-3485020Y-7458000D01*
X-3456510Y-7449540D01*
X-3434350Y-7432610D01*
X-3418520Y-7402970D01*
X-3415350Y-7369100D01*
X-3421680Y-7335240D01*
X-3437520Y-7314070D01*
X-3459690Y-7297140D01*
X-3481850Y-7292900D01*
X-3504010Y-7297140D01*
X-3532510Y-7314070D01*
X-3523010Y-7204000D01*
X-3437520D01*
G01X-3193020Y-7458000D02*
Y-7204000D01*
X-3310180Y-7386030D01*
X-3151850D01*
G01X-2977020Y-7204000D02*
X-3002350Y-7212460D01*
X-3021350Y-7233630D01*
X-3034010Y-7259030D01*
X-3043510Y-7292900D01*
X-3046680Y-7331000D01*
X-3043510Y-7369100D01*
X-3034010Y-7402970D01*
X-3021350Y-7428370D01*
X-3002350Y-7449540D01*
X-2977020Y-7458000D01*
X-2951690Y-7449540D01*
X-2932680Y-7428370D01*
X-2920020Y-7402970D01*
X-2910520Y-7369100D01*
X-2907350Y-7331000D01*
X-2910520Y-7292900D01*
X-2920020Y-7259030D01*
X-2932680Y-7233630D01*
X-2951690Y-7212460D01*
X-2977020Y-7204000D01*
G01X-2764180Y-7373340D02*
X-2681850D01*
G01X-2548180Y-7458000D02*
X-2469020Y-7204000D01*
X-2389850Y-7458000D01*
G01X-2418350Y-7369100D02*
X-2519680D01*
G01X-2278350Y-7458000D02*
Y-7204000D01*
X-2199180D01*
X-2173850Y-7216710D01*
X-2158020Y-7233630D01*
X-2151680Y-7267500D01*
X-2158020Y-7301370D01*
X-2177020Y-7322530D01*
X-2199180Y-7335240D01*
X-2278350D01*
G01X-2199180D02*
X-2151680Y-7458000D01*
G01X-2030680D02*
Y-7204000D01*
X-1967350D01*
X-1942020Y-7216710D01*
X-1923020Y-7233630D01*
X-1907180Y-7259030D01*
X-1894520Y-7288670D01*
X-1891350Y-7331000D01*
X-1894520Y-7373340D01*
X-1907180Y-7402970D01*
X-1923020Y-7428370D01*
X-1942020Y-7445300D01*
X-1967350Y-7458000D01*
X-2030680D01*
G01X-1767180Y-7204000D02*
X-1646850D01*
X-1767180Y-7458000D01*
X-1646850D01*
G01X-1262350D02*
Y-7204000D01*
X-1183180D01*
X-1157850Y-7216710D01*
X-1142020Y-7233630D01*
X-1135680Y-7267500D01*
X-1142020Y-7301370D01*
X-1161020Y-7322530D01*
X-1183180Y-7335240D01*
X-1262350D01*
G01X-1183180D02*
X-1135680Y-7458000D01*
G01X-881680D02*
X-1008350D01*
Y-7204000D01*
X-881680D01*
G01X-932350Y-7326760D02*
X-1008350D01*
G01X-770180Y-7204000D02*
X-691020Y-7458000D01*
X-611850Y-7204000D01*
G01X-478180Y-7373340D02*
X-395850D01*
G01X-157690Y-7322530D02*
X-145020Y-7309830D01*
X-135520Y-7288670D01*
X-129180Y-7259030D01*
X-135520Y-7233630D01*
X-148180Y-7216710D01*
X-170350Y-7204000D01*
X-255840D01*
Y-7458000D01*
X-151350D01*
X-129180Y-7441070D01*
X-116520Y-7415670D01*
X-110190Y-7386030D01*
X-116520Y-7356410D01*
X-135520Y-7331000D01*
X-157690Y-7322530D01*
X-255840D01*
G01X-5199350Y-6442000D02*
Y-6188000D01*
X-5123350D01*
X-5098020Y-6200710D01*
X-5079020Y-6230330D01*
X-5072680Y-6264200D01*
X-5079020Y-6298070D01*
X-5094850Y-6323470D01*
X-5123350Y-6336170D01*
X-5199350D01*
G01X-4961180Y-6442000D02*
X-4882020Y-6188000D01*
X-4802850Y-6442000D01*
G01X-4831350Y-6353100D02*
X-4932680D01*
G01X-4694510Y-6408140D02*
X-4669180Y-6429300D01*
X-4640680Y-6442000D01*
X-4615350D01*
X-4590020Y-6429300D01*
X-4571020Y-6408140D01*
X-4561520Y-6378500D01*
X-4567850Y-6348870D01*
X-4583680Y-6323470D01*
X-4612180Y-6306530D01*
X-4650180Y-6298070D01*
X-4672350Y-6281140D01*
X-4681850Y-6251500D01*
X-4675510Y-6221870D01*
X-4659680Y-6200710D01*
X-4637520Y-6188000D01*
X-4615350D01*
X-4593180Y-6196460D01*
X-4574180Y-6217630D01*
G01X-4374020Y-6188000D02*
Y-6442000D01*
G01X-4446840Y-6188000D02*
X-4301190D01*
G01X-4056680Y-6442000D02*
X-4183350D01*
Y-6188000D01*
X-4056680D01*
G01X-4107350Y-6310760D02*
X-4183350D01*
G01X-3948350Y-6442000D02*
Y-6188000D01*
X-3866020Y-6399670D01*
X-3783680Y-6188000D01*
Y-6442000D01*
G01X-3691180D02*
X-3612020Y-6188000D01*
X-3532850Y-6442000D01*
G01X-3561350Y-6353100D02*
X-3662680D01*
G01X-3424510Y-6408140D02*
X-3399180Y-6429300D01*
X-3370680Y-6442000D01*
X-3345350D01*
X-3320020Y-6429300D01*
X-3301020Y-6408140D01*
X-3291520Y-6378500D01*
X-3297850Y-6348870D01*
X-3313680Y-6323470D01*
X-3342180Y-6306530D01*
X-3380180Y-6298070D01*
X-3402350Y-6281140D01*
X-3411850Y-6251500D01*
X-3405510Y-6221870D01*
X-3389680Y-6200710D01*
X-3367520Y-6188000D01*
X-3345350D01*
X-3323180Y-6196460D01*
X-3304180Y-6217630D01*
G01X-3173680Y-6442000D02*
Y-6188000D01*
G01X-3053350D02*
X-3173680Y-6344640D01*
G01X-3034350Y-6442000D02*
X-3119850Y-6272670D01*
G01X-2662510Y-6408140D02*
X-2637180Y-6429300D01*
X-2608680Y-6442000D01*
X-2583350D01*
X-2558020Y-6429300D01*
X-2539020Y-6408140D01*
X-2529520Y-6378500D01*
X-2535850Y-6348870D01*
X-2551680Y-6323470D01*
X-2580180Y-6306530D01*
X-2618180Y-6298070D01*
X-2640350Y-6281140D01*
X-2649850Y-6251500D01*
X-2643510Y-6221870D01*
X-2627680Y-6200710D01*
X-2605520Y-6188000D01*
X-2583350D01*
X-2561180Y-6196460D01*
X-2542180Y-6217630D01*
G01X-2278680Y-6442000D02*
X-2405350D01*
Y-6188000D01*
X-2278680D01*
G01X-2329350Y-6310760D02*
X-2405350D01*
G01X-2018350Y-6209170D02*
X-2037350Y-6196460D01*
X-2059510Y-6188000D01*
X-2084850D01*
X-2113350Y-6200710D01*
X-2135510Y-6221870D01*
X-2151350Y-6247270D01*
X-2164020Y-6289600D01*
X-2167180Y-6327700D01*
X-2160840Y-6365800D01*
X-2151350Y-6391200D01*
X-2132350Y-6416610D01*
X-2110180Y-6433540D01*
X-2088020Y-6442000D01*
X-2065850D01*
X-2043680Y-6433540D01*
X-2024680Y-6420840D01*
X-2008850Y-6403910D01*
G01X-1834020Y-6442000D02*
X-1859350Y-6437770D01*
X-1881510Y-6420840D01*
X-1900510Y-6395440D01*
X-1913180Y-6365800D01*
X-1919510Y-6331930D01*
Y-6298070D01*
X-1913180Y-6264200D01*
X-1900510Y-6234560D01*
X-1881510Y-6209170D01*
X-1859350Y-6192230D01*
X-1834020Y-6188000D01*
X-1808690Y-6192230D01*
X-1786520Y-6209170D01*
X-1767520Y-6234560D01*
X-1754850Y-6264200D01*
X-1748520Y-6298070D01*
Y-6331930D01*
X-1754850Y-6365800D01*
X-1767520Y-6395440D01*
X-1786520Y-6420840D01*
X-1808690Y-6437770D01*
X-1834020Y-6442000D01*
G01X-1652840D02*
Y-6188000D01*
X-1507190Y-6442000D01*
Y-6188000D01*
G01X-1395680Y-6442000D02*
Y-6188000D01*
X-1332350D01*
X-1307020Y-6200710D01*
X-1288020Y-6217630D01*
X-1272180Y-6243030D01*
X-1259520Y-6272670D01*
X-1256350Y-6315000D01*
X-1259520Y-6357340D01*
X-1272180Y-6386970D01*
X-1288020Y-6412370D01*
X-1307020Y-6429300D01*
X-1332350Y-6442000D01*
X-1395680D01*
G01X-1151180D02*
X-1072020Y-6188000D01*
X-992850Y-6442000D01*
G01X-1021350Y-6353100D02*
X-1122680D01*
G01X-881350Y-6442000D02*
Y-6188000D01*
X-802180D01*
X-776850Y-6200710D01*
X-761020Y-6217630D01*
X-754680Y-6251500D01*
X-761020Y-6285370D01*
X-780020Y-6306530D01*
X-802180Y-6319240D01*
X-881350D01*
G01X-802180D02*
X-754680Y-6442000D01*
G01X-564020D02*
Y-6327700D01*
X-627350Y-6188000D01*
G01X-500680D02*
X-564020Y-6327700D01*
G01X-4247020Y-6696000D02*
X-4272350Y-6704460D01*
X-4291350Y-6725630D01*
X-4304010Y-6751030D01*
X-4313510Y-6784900D01*
X-4316680Y-6823000D01*
X-4313510Y-6861100D01*
X-4304010Y-6894970D01*
X-4291350Y-6920370D01*
X-4272350Y-6941540D01*
X-4247020Y-6950000D01*
X-4221690Y-6941540D01*
X-4202680Y-6920370D01*
X-4190020Y-6894970D01*
X-4180520Y-6861100D01*
X-4177350Y-6823000D01*
X-4180520Y-6784900D01*
X-4190020Y-6751030D01*
X-4202680Y-6725630D01*
X-4221690Y-6704460D01*
X-4247020Y-6696000D01*
G01X-3993020Y-6950000D02*
X-3970850Y-6945770D01*
X-3945520Y-6933070D01*
X-3929680Y-6911910D01*
X-3923350Y-6882270D01*
X-3929680Y-6852640D01*
X-3948680Y-6827240D01*
X-3977180Y-6814530D01*
X-4008850D01*
X-4027850Y-6806070D01*
X-4043680Y-6784900D01*
X-4050010Y-6755270D01*
X-4040510Y-6725630D01*
X-4018350Y-6704460D01*
X-3993020Y-6696000D01*
X-3967690Y-6704460D01*
X-3945520Y-6725630D01*
X-3936020Y-6755270D01*
X-3942350Y-6784900D01*
X-3958180Y-6806070D01*
X-3977180Y-6814530D01*
X-4008850D01*
X-4037350Y-6827240D01*
X-4056350Y-6852640D01*
X-4062680Y-6882270D01*
X-4056350Y-6911910D01*
X-4040510Y-6933070D01*
X-4015180Y-6945770D01*
X-3993020Y-6950000D01*
G01X-3780180Y-6865340D02*
X-3697850D01*
G01X-2002180D02*
X-1919850D01*
G01X-1707020Y-6950000D02*
Y-6696000D01*
X-1745010Y-6746800D01*
G01Y-6950000D02*
X-1669020D01*
G01X-1453020Y-6696000D02*
X-1478350Y-6704460D01*
X-1497350Y-6725630D01*
X-1510010Y-6751030D01*
X-1519510Y-6784900D01*
X-1522680Y-6823000D01*
X-1519510Y-6861100D01*
X-1510010Y-6894970D01*
X-1497350Y-6920370D01*
X-1478350Y-6941540D01*
X-1453020Y-6950000D01*
X-1427690Y-6941540D01*
X-1408680Y-6920370D01*
X-1396020Y-6894970D01*
X-1386520Y-6861100D01*
X-1383350Y-6823000D01*
X-1386520Y-6784900D01*
X-1396020Y-6751030D01*
X-1408680Y-6725630D01*
X-1427690Y-6704460D01*
X-1453020Y-6696000D01*
G01X-3485020D02*
X-3510350Y-6704460D01*
X-3529350Y-6725630D01*
X-3542010Y-6751030D01*
X-3551510Y-6784900D01*
X-3554680Y-6823000D01*
X-3551510Y-6861100D01*
X-3542010Y-6894970D01*
X-3529350Y-6920370D01*
X-3510350Y-6941540D01*
X-3485020Y-6950000D01*
X-3459690Y-6941540D01*
X-3440680Y-6920370D01*
X-3428020Y-6894970D01*
X-3418520Y-6861100D01*
X-3415350Y-6823000D01*
X-3418520Y-6784900D01*
X-3428020Y-6751030D01*
X-3440680Y-6725630D01*
X-3459690Y-6704460D01*
X-3485020Y-6696000D01*
G01X-3300680Y-6911910D02*
X-3281680Y-6933070D01*
X-3259520Y-6945770D01*
X-3231020Y-6950000D01*
X-3202510Y-6941540D01*
X-3180350Y-6924610D01*
X-3164520Y-6894970D01*
X-3161350Y-6861100D01*
X-3167680Y-6827240D01*
X-3183520Y-6806070D01*
X-3205690Y-6789140D01*
X-3227850Y-6784900D01*
X-3250010Y-6789140D01*
X-3278510Y-6806070D01*
X-3269010Y-6696000D01*
X-3183520D01*
G01X-3030850Y-6920370D02*
X-3008680Y-6941540D01*
X-2983350Y-6950000D01*
X-2958020Y-6941540D01*
X-2935850Y-6916140D01*
X-2920020Y-6878030D01*
X-2913680Y-6839930D01*
Y-6793370D01*
X-2920020Y-6755270D01*
X-2935850Y-6721400D01*
X-2954850Y-6704460D01*
X-2977020Y-6696000D01*
X-3002350Y-6704460D01*
X-3021350Y-6721400D01*
X-3034010Y-6746800D01*
X-3040350Y-6780670D01*
X-3034010Y-6810300D01*
X-3018180Y-6839930D01*
X-2999180Y-6856870D01*
X-2977020Y-6861100D01*
X-2951690Y-6852640D01*
X-2932680Y-6831470D01*
X-2913680Y-6793370D01*
G01X-2792680Y-6899200D02*
X-2773680Y-6928840D01*
X-2748350Y-6945770D01*
X-2719850Y-6950000D01*
X-2694510Y-6945770D01*
X-2669180Y-6924610D01*
X-2653350Y-6899200D01*
X-2650190Y-6873800D01*
X-2656520Y-6844170D01*
X-2678680Y-6823000D01*
X-2700850Y-6814530D01*
X-2729350D01*
G01X-2700850D02*
X-2681850Y-6801830D01*
X-2666020Y-6780670D01*
X-2659680Y-6755270D01*
X-2666020Y-6729870D01*
X-2681850Y-6708710D01*
X-2710350Y-6696000D01*
X-2738850Y-6700230D01*
X-2767350Y-6717170D01*
G01X-2538680Y-6911910D02*
X-2519680Y-6933070D01*
X-2497520Y-6945770D01*
X-2469020Y-6950000D01*
X-2440510Y-6941540D01*
X-2418350Y-6924610D01*
X-2402520Y-6894970D01*
X-2399350Y-6861100D01*
X-2405680Y-6827240D01*
X-2421520Y-6806070D01*
X-2443690Y-6789140D01*
X-2465850Y-6784900D01*
X-2488010Y-6789140D01*
X-2516510Y-6806070D01*
X-2507010Y-6696000D01*
X-2421520D01*
G01X-2215020Y-6950000D02*
X-2192850Y-6945770D01*
X-2167520Y-6933070D01*
X-2151680Y-6911910D01*
X-2145350Y-6882270D01*
X-2151680Y-6852640D01*
X-2170680Y-6827240D01*
X-2199180Y-6814530D01*
X-2230850D01*
X-2249850Y-6806070D01*
X-2265680Y-6784900D01*
X-2272010Y-6755270D01*
X-2262510Y-6725630D01*
X-2240350Y-6704460D01*
X-2215020Y-6696000D01*
X-2189690Y-6704460D01*
X-2167520Y-6725630D01*
X-2158020Y-6755270D01*
X-2164350Y-6784900D01*
X-2180180Y-6806070D01*
X-2199180Y-6814530D01*
X-2230850D01*
X-2259350Y-6827240D01*
X-2278350Y-6852640D01*
X-2284680Y-6882270D01*
X-2278350Y-6911910D01*
X-2262510Y-6933070D01*
X-2237180Y-6945770D01*
X-2215020Y-6950000D01*
G54D16*
X-2412500Y-3975010D03*
Y-3824990D03*
X-2637500Y-3274990D03*
Y-3425010D03*
Y-2949990D03*
Y-3100010D03*
X-2812500Y-3274990D03*
Y-3425010D03*
X-2012500Y-3837490D03*
Y-3987510D03*
X-1925000Y-3475010D03*
Y-3324990D03*
X-2100000Y-3475010D03*
Y-3324990D03*
X-2162500Y-1287510D03*
Y-1137490D03*
X-1450000Y-4212510D03*
X-1425000Y-3600010D03*
X-1450000Y-4062490D03*
X-1250000Y-3600010D03*
X-1425000Y-3449990D03*
X-1750000Y-3324990D03*
Y-3475010D03*
X-1250000Y-3449990D03*
X-1075000Y-3600010D03*
X-900000D03*
X-1075000Y-3449990D03*
X-900000D03*
X-912500Y-3037510D03*
X-1087500D03*
X-912500Y-2887490D03*
X-1087500D03*
X37500Y-3887490D03*
Y-4037510D03*
G54D17*
X-2475000Y-3568050D03*
Y-3256950D03*
X-2425000Y-3568050D03*
X-2375000D03*
X-2325000D03*
X-2275000D03*
Y-3256950D03*
X-2325000D03*
X-2375000D03*
X-2425000D03*
X-1050000Y-4455550D03*
X-850000Y-4144450D03*
X-900000D03*
X-950000D03*
X-1000000D03*
X-1050000D03*
X-1000000Y-4455550D03*
X-950000D03*
X-900000D03*
X-850000D03*
G54D18*
X-2375000Y-3412500D03*
X-950000Y-4300000D03*
G54D19*
X-2712500Y-2537500D03*
X-2512500D03*
X-500000Y-4275000D03*
X-300000D03*
X400000Y-887500D03*
X600000D03*
M02*
