G04 ================== begin FILE IDENTIFICATION RECORD ==================*
G04 Layout Name:  C:/tmp/20_059358b/worklib/02_059358b_top/physical/08-059358b.brd*
G04 Film Name:    SKB*
G04 File Format:  Gerber RS274X*
G04 File Origin:  Cadence Allegro 17.2-S053*
G04 Origin Date:  Mon Nov 09 16:28:34 2020*
G04 *
G04 Layer:  REF DES/SILKSCREEN_BOTTOM*
G04 Layer:  PACKAGE GEOMETRY/SILKSCREEN_BOTTOM*
G04 Layer:  BOARD GEOMETRY/SILKSCREEN_BOTTOM*
G04 Layer:  BOARD GEOMETRY/DESIGN_OUTLINE*
G04 Layer:  BOARD GEOMETRY/ROOT_NUMBER*
G04 *
G04 Offset:    (0.0991 0.0000)*
G04 Mirror:    No*
G04 Mode:      Positive*
G04 Rotation:  0*
G04 FullContactRelief:  No*
G04 UndefLineWidth:     0.2007*
G04 ================== end FILE IDENTIFICATION RECORD ====================*
%FSLAX25Y25*MOMM*%
%IR0*IPPOS*OFA0.09910B0.00000*MIA0B0*SFA1.00000B1.00000*%
%ADD10C,.1295*%
%ADD11C,.1499*%
%ADD12C,.7595*%
%ADD13C,.2007*%
%ADD14C,.0991*%
G75*
%LPD*%
G75*
G36*
G01X-2527220Y-4204400D02*
G02I-38100J0D01*
G37*
G36*
G01X-2176900Y-3582500D02*
G03I-38100J0D01*
G37*
G36*
G01X-749400Y-4550000D02*
G03I-38100J0D01*
G37*
G36*
G01X-1155140Y-3125000D02*
G03I-38100J0D01*
G37*
G36*
G01X1430830Y-4489100D02*
X1544880D01*
X1798880Y-4793900D01*
X1830880Y-4743100D01*
X1925880D01*
X1843810Y-4946050D01*
X1754910D01*
X1430830Y-4489100D01*
G37*
G54D10*
G01X-5312160Y-5301860D02*
G02X-5388100Y-5300840I-36607J101982D01*
G01Y-5097900D02*
G02X-5312160Y-5098910I36619J-102075D01*
G01X-5452110Y-5161900D02*
G03X-5455160Y-5227940I101953J-37799D01*
G01X-5248150Y-5161900D02*
G02Y-5237850I-101816J-37975D01*
G01X2238100Y-5401850D02*
G02X2162130Y-5400840I-36636J101977D01*
G01X2098150Y-5261900D02*
G03X2095100Y-5327940I101828J-37793D01*
G01X2162130Y-5197890D02*
G02X2238100Y-5198910I36621J-102076D01*
G01X2302110Y-5261900D02*
G02Y-5337840I-101942J-37970D01*
G01X2738100Y-651860D02*
G02X2662150Y-651100I-36959J101923D01*
G01Y-447900D02*
G02X2738100Y-448910I36624J-102093D01*
G01X2598140Y-511900D02*
G03X2595100Y-577940I101845J-37778D01*
G01X2802110Y-511900D02*
G02Y-587850I-101934J-37975D01*
G54D11*
G01X2575160Y-4371000D02*
X2582040Y-4073060D01*
G01X2416180Y-4371000D02*
X2575160D01*
G01X2664060Y-4435010D02*
X2296040Y-3970950D01*
G01Y-4435010D02*
X2664060Y-3970950D01*
G01X2385190Y-4117000D02*
Y-4129950D01*
G01X2378080Y-4073060D02*
X2385190Y-4346110D01*
G01X2347090Y-4168050D02*
Y-4117000D01*
G01X2385190Y-4168050D02*
X2347090D01*
G01X2385190Y-4117000D02*
Y-4168050D01*
G01X2607190Y-4073060D02*
X2353190D01*
G01X2518010Y-4014890D02*
X2505080D01*
G01X2518010Y-4046900D02*
Y-4014890D01*
G01X2442090Y-4046900D02*
X2518010D01*
G01X2442090Y-4014890D02*
Y-4046900D01*
G01X2518010Y-4014890D02*
X2442090D01*
G01X2582040Y-4073060D02*
G03X2378080I-101980J-63633D01*
G01X2347090Y-4117000D02*
X2385190D01*
G54D12*
G01X2632080Y-4593000D02*
X2328040D01*
G54D13*
G01X-6000000Y-5500000D02*
X3000000D01*
Y300000D01*
X-6000000D01*
Y-5500000D01*
G01X-5453680Y-7458000D02*
X-5580350D01*
Y-7204000D01*
X-5453680D01*
G01X-5504350Y-7326760D02*
X-5580350D01*
G01X-5342180Y-7204000D02*
X-5263020Y-7458000D01*
X-5183850Y-7204000D01*
G01X-5088180Y-7458000D02*
X-5009020Y-7204000D01*
X-4929850Y-7458000D01*
G01X-4958350Y-7369100D02*
X-5059680D01*
G01X-4818350Y-7204000D02*
Y-7458000D01*
X-4691680D01*
G01X-4542180Y-7373340D02*
X-4459850D01*
G01X-4177350Y-7225170D02*
X-4196350Y-7212460D01*
X-4218510Y-7204000D01*
X-4243850D01*
X-4272350Y-7216710D01*
X-4294510Y-7237870D01*
X-4310350Y-7263270D01*
X-4323020Y-7305600D01*
X-4326180Y-7343700D01*
X-4319840Y-7381800D01*
X-4310350Y-7407200D01*
X-4291350Y-7432610D01*
X-4269180Y-7449540D01*
X-4247020Y-7458000D01*
X-4224850D01*
X-4202680Y-7449540D01*
X-4183680Y-7436840D01*
X-4167850Y-7419910D01*
G01X-4065840Y-7458000D02*
Y-7204000D01*
X-3920190Y-7458000D01*
Y-7204000D01*
G01X-3739020D02*
X-3764350Y-7212460D01*
X-3783350Y-7233630D01*
X-3796010Y-7259030D01*
X-3805510Y-7292900D01*
X-3808680Y-7331000D01*
X-3805510Y-7369100D01*
X-3796010Y-7402970D01*
X-3783350Y-7428370D01*
X-3764350Y-7449540D01*
X-3739020Y-7458000D01*
X-3713690Y-7449540D01*
X-3694680Y-7428370D01*
X-3682020Y-7402970D01*
X-3672520Y-7369100D01*
X-3669350Y-7331000D01*
X-3672520Y-7292900D01*
X-3682020Y-7259030D01*
X-3694680Y-7233630D01*
X-3713690Y-7212460D01*
X-3739020Y-7204000D01*
G01X-3554680Y-7419910D02*
X-3535680Y-7441070D01*
X-3513520Y-7453770D01*
X-3485020Y-7458000D01*
X-3456510Y-7449540D01*
X-3434350Y-7432610D01*
X-3418520Y-7402970D01*
X-3415350Y-7369100D01*
X-3421680Y-7335240D01*
X-3437520Y-7314070D01*
X-3459690Y-7297140D01*
X-3481850Y-7292900D01*
X-3504010Y-7297140D01*
X-3532510Y-7314070D01*
X-3523010Y-7204000D01*
X-3437520D01*
G01X-3193020Y-7458000D02*
Y-7204000D01*
X-3310180Y-7386030D01*
X-3151850D01*
G01X-2977020Y-7204000D02*
X-3002350Y-7212460D01*
X-3021350Y-7233630D01*
X-3034010Y-7259030D01*
X-3043510Y-7292900D01*
X-3046680Y-7331000D01*
X-3043510Y-7369100D01*
X-3034010Y-7402970D01*
X-3021350Y-7428370D01*
X-3002350Y-7449540D01*
X-2977020Y-7458000D01*
X-2951690Y-7449540D01*
X-2932680Y-7428370D01*
X-2920020Y-7402970D01*
X-2910520Y-7369100D01*
X-2907350Y-7331000D01*
X-2910520Y-7292900D01*
X-2920020Y-7259030D01*
X-2932680Y-7233630D01*
X-2951690Y-7212460D01*
X-2977020Y-7204000D01*
G01X-2764180Y-7373340D02*
X-2681850D01*
G01X-2548180Y-7458000D02*
X-2469020Y-7204000D01*
X-2389850Y-7458000D01*
G01X-2418350Y-7369100D02*
X-2519680D01*
G01X-2278350Y-7458000D02*
Y-7204000D01*
X-2199180D01*
X-2173850Y-7216710D01*
X-2158020Y-7233630D01*
X-2151680Y-7267500D01*
X-2158020Y-7301370D01*
X-2177020Y-7322530D01*
X-2199180Y-7335240D01*
X-2278350D01*
G01X-2199180D02*
X-2151680Y-7458000D01*
G01X-2030680D02*
Y-7204000D01*
X-1967350D01*
X-1942020Y-7216710D01*
X-1923020Y-7233630D01*
X-1907180Y-7259030D01*
X-1894520Y-7288670D01*
X-1891350Y-7331000D01*
X-1894520Y-7373340D01*
X-1907180Y-7402970D01*
X-1923020Y-7428370D01*
X-1942020Y-7445300D01*
X-1967350Y-7458000D01*
X-2030680D01*
G01X-1767180Y-7204000D02*
X-1646850D01*
X-1767180Y-7458000D01*
X-1646850D01*
G01X-1262350D02*
Y-7204000D01*
X-1183180D01*
X-1157850Y-7216710D01*
X-1142020Y-7233630D01*
X-1135680Y-7267500D01*
X-1142020Y-7301370D01*
X-1161020Y-7322530D01*
X-1183180Y-7335240D01*
X-1262350D01*
G01X-1183180D02*
X-1135680Y-7458000D01*
G01X-881680D02*
X-1008350D01*
Y-7204000D01*
X-881680D01*
G01X-932350Y-7326760D02*
X-1008350D01*
G01X-770180Y-7204000D02*
X-691020Y-7458000D01*
X-611850Y-7204000D01*
G01X-478180Y-7373340D02*
X-395850D01*
G01X-157690Y-7322530D02*
X-145020Y-7309830D01*
X-135520Y-7288670D01*
X-129180Y-7259030D01*
X-135520Y-7233630D01*
X-148180Y-7216710D01*
X-170350Y-7204000D01*
X-255840D01*
Y-7458000D01*
X-151350D01*
X-129180Y-7441070D01*
X-116520Y-7415670D01*
X-110190Y-7386030D01*
X-116520Y-7356410D01*
X-135520Y-7331000D01*
X-157690Y-7322530D01*
X-255840D01*
G01X-5575010Y-2637500D02*
X-5249990D01*
Y-2812500D01*
X-5575010D01*
Y-2637500D01*
G01Y-2387500D02*
X-5249990D01*
Y-2562500D01*
X-5575010D01*
Y-2387500D01*
G01X-5352710Y-2125000D02*
Y-2046010D01*
X-5376840D01*
X-5384560Y-2049960D01*
X-5389390Y-2055230D01*
X-5391320Y-2065760D01*
X-5389390Y-2076290D01*
X-5383600Y-2082870D01*
X-5376840Y-2086820D01*
X-5352710D01*
G01X-5376840D02*
X-5391320Y-2125000D01*
G01X-5448060D02*
X-5449990Y-2107890D01*
X-5452890Y-2093410D01*
X-5456750Y-2080240D01*
X-5461580Y-2065760D01*
X-5469300Y-2046010D01*
X-5430690D01*
G01X-5506740Y-2109200D02*
X-5512530Y-2118420D01*
X-5520250Y-2123680D01*
X-5528940Y-2125000D01*
X-5536660Y-2123680D01*
X-5544380Y-2117100D01*
X-5549210Y-2109200D01*
X-5550170Y-2101300D01*
X-5548240Y-2092090D01*
X-5541490Y-2085510D01*
X-5534730Y-2082870D01*
X-5526040D01*
G01X-5534730D02*
X-5540520Y-2078920D01*
X-5545350Y-2072340D01*
X-5547280Y-2064440D01*
X-5545350Y-2056540D01*
X-5540520Y-2049960D01*
X-5531840Y-2046010D01*
X-5523150Y-2047330D01*
X-5514460Y-2052590D01*
G01X-5521520Y-2258220D02*
X-5328480D01*
Y-2166780D01*
X-5521520D01*
Y-2258220D01*
G01X-5092600Y155600D02*
X-2857400D01*
Y-47600D01*
X-2806600D01*
Y-352400D01*
X-3111400D01*
Y-555600D01*
X-5346600D01*
Y-352400D01*
X-5397400D01*
Y-47600D01*
X-5092600D01*
Y155600D01*
G01X-5329510Y-6408140D02*
X-5304180Y-6429300D01*
X-5275680Y-6442000D01*
X-5250350D01*
X-5225020Y-6429300D01*
X-5206020Y-6408140D01*
X-5196520Y-6378500D01*
X-5202850Y-6348870D01*
X-5218680Y-6323470D01*
X-5247180Y-6306530D01*
X-5285180Y-6298070D01*
X-5307350Y-6281140D01*
X-5316850Y-6251500D01*
X-5310510Y-6221870D01*
X-5294680Y-6200710D01*
X-5272520Y-6188000D01*
X-5250350D01*
X-5228180Y-6196460D01*
X-5209180Y-6217630D01*
G01X-5047010Y-6188000D02*
X-4971020D01*
G01X-5009020D02*
Y-6442000D01*
G01X-5047010D02*
X-4971020D01*
G01X-4818350Y-6188000D02*
Y-6442000D01*
X-4691680D01*
G01X-4570680D02*
Y-6188000D01*
G01X-4450350D02*
X-4570680Y-6344640D01*
G01X-4431350Y-6442000D02*
X-4516850Y-6272670D01*
G01X-4313510Y-6408140D02*
X-4288180Y-6429300D01*
X-4259680Y-6442000D01*
X-4234350D01*
X-4209020Y-6429300D01*
X-4190020Y-6408140D01*
X-4180520Y-6378500D01*
X-4186850Y-6348870D01*
X-4202680Y-6323470D01*
X-4231180Y-6306530D01*
X-4269180Y-6298070D01*
X-4291350Y-6281140D01*
X-4300850Y-6251500D01*
X-4294510Y-6221870D01*
X-4278680Y-6200710D01*
X-4256520Y-6188000D01*
X-4234350D01*
X-4212180Y-6196460D01*
X-4193180Y-6217630D01*
G01X-3923350Y-6209170D02*
X-3942350Y-6196460D01*
X-3964510Y-6188000D01*
X-3989850D01*
X-4018350Y-6200710D01*
X-4040510Y-6221870D01*
X-4056350Y-6247270D01*
X-4069020Y-6289600D01*
X-4072180Y-6327700D01*
X-4065840Y-6365800D01*
X-4056350Y-6391200D01*
X-4037350Y-6416610D01*
X-4015180Y-6433540D01*
X-3993020Y-6442000D01*
X-3970850D01*
X-3948680Y-6433540D01*
X-3929680Y-6420840D01*
X-3913850Y-6403910D01*
G01X-3802350Y-6442000D02*
Y-6188000D01*
X-3723180D01*
X-3697850Y-6200710D01*
X-3682020Y-6217630D01*
X-3675680Y-6251500D01*
X-3682020Y-6285370D01*
X-3701020Y-6306530D01*
X-3723180Y-6319240D01*
X-3802350D01*
G01X-3723180D02*
X-3675680Y-6442000D01*
G01X-3421680D02*
X-3548350D01*
Y-6188000D01*
X-3421680D01*
G01X-3472350Y-6310760D02*
X-3548350D01*
G01X-3167680Y-6442000D02*
X-3294350D01*
Y-6188000D01*
X-3167680D01*
G01X-3218350Y-6310760D02*
X-3294350D01*
G01X-3049840Y-6442000D02*
Y-6188000D01*
X-2904190Y-6442000D01*
Y-6188000D01*
G01X-2535510Y-6408140D02*
X-2510180Y-6429300D01*
X-2481680Y-6442000D01*
X-2456350D01*
X-2431020Y-6429300D01*
X-2412020Y-6408140D01*
X-2402520Y-6378500D01*
X-2408850Y-6348870D01*
X-2424680Y-6323470D01*
X-2453180Y-6306530D01*
X-2491180Y-6298070D01*
X-2513350Y-6281140D01*
X-2522850Y-6251500D01*
X-2516510Y-6221870D01*
X-2500680Y-6200710D01*
X-2478520Y-6188000D01*
X-2456350D01*
X-2434180Y-6196460D01*
X-2415180Y-6217630D01*
G01X-2151680Y-6442000D02*
X-2278350D01*
Y-6188000D01*
X-2151680D01*
G01X-2202350Y-6310760D02*
X-2278350D01*
G01X-1891350Y-6209170D02*
X-1910350Y-6196460D01*
X-1932510Y-6188000D01*
X-1957850D01*
X-1986350Y-6200710D01*
X-2008510Y-6221870D01*
X-2024350Y-6247270D01*
X-2037020Y-6289600D01*
X-2040180Y-6327700D01*
X-2033840Y-6365800D01*
X-2024350Y-6391200D01*
X-2005350Y-6416610D01*
X-1983180Y-6433540D01*
X-1961020Y-6442000D01*
X-1938850D01*
X-1916680Y-6433540D01*
X-1897680Y-6420840D01*
X-1881850Y-6403910D01*
G01X-1707020Y-6442000D02*
X-1732350Y-6437770D01*
X-1754510Y-6420840D01*
X-1773510Y-6395440D01*
X-1786180Y-6365800D01*
X-1792510Y-6331930D01*
Y-6298070D01*
X-1786180Y-6264200D01*
X-1773510Y-6234560D01*
X-1754510Y-6209170D01*
X-1732350Y-6192230D01*
X-1707020Y-6188000D01*
X-1681690Y-6192230D01*
X-1659520Y-6209170D01*
X-1640520Y-6234560D01*
X-1627850Y-6264200D01*
X-1621520Y-6298070D01*
Y-6331930D01*
X-1627850Y-6365800D01*
X-1640520Y-6395440D01*
X-1659520Y-6420840D01*
X-1681690Y-6437770D01*
X-1707020Y-6442000D01*
G01X-1525840D02*
Y-6188000D01*
X-1380190Y-6442000D01*
Y-6188000D01*
G01X-1268680Y-6442000D02*
Y-6188000D01*
X-1205350D01*
X-1180020Y-6200710D01*
X-1161020Y-6217630D01*
X-1145180Y-6243030D01*
X-1132520Y-6272670D01*
X-1129350Y-6315000D01*
X-1132520Y-6357340D01*
X-1145180Y-6386970D01*
X-1161020Y-6412370D01*
X-1180020Y-6429300D01*
X-1205350Y-6442000D01*
X-1268680D01*
G01X-1024180D02*
X-945020Y-6188000D01*
X-865850Y-6442000D01*
G01X-894350Y-6353100D02*
X-995680D01*
G01X-754350Y-6442000D02*
Y-6188000D01*
X-675180D01*
X-649850Y-6200710D01*
X-634020Y-6217630D01*
X-627680Y-6251500D01*
X-634020Y-6285370D01*
X-653020Y-6306530D01*
X-675180Y-6319240D01*
X-754350D01*
G01X-675180D02*
X-627680Y-6442000D01*
G01X-437020D02*
Y-6327700D01*
X-500350Y-6188000D01*
G01X-373680D02*
X-437020Y-6327700D01*
G01X-4992710Y-2760000D02*
Y-2681010D01*
X-5016840D01*
X-5024560Y-2684960D01*
X-5029390Y-2690230D01*
X-5031320Y-2700760D01*
X-5029390Y-2711290D01*
X-5023600Y-2717870D01*
X-5016840Y-2721820D01*
X-4992710D01*
G01X-5016840D02*
X-5031320Y-2760000D01*
G01X-5088060D02*
X-5089990Y-2742890D01*
X-5092890Y-2728410D01*
X-5096750Y-2715240D01*
X-5101580Y-2700760D01*
X-5109300Y-2681010D01*
X-5070690D01*
G01X-5149640Y-2694170D02*
X-5155430Y-2686280D01*
X-5162180Y-2682330D01*
X-5169910Y-2681010D01*
X-5179560Y-2683640D01*
X-5186310Y-2690230D01*
X-5188240Y-2698120D01*
X-5187280Y-2706030D01*
X-5183420Y-2712610D01*
X-5164110Y-2725770D01*
X-5155430Y-2734990D01*
X-5149640Y-2748150D01*
X-5147710Y-2760000D01*
X-5188240D01*
G01X-5012710Y-2520000D02*
Y-2441010D01*
X-5036840D01*
X-5044560Y-2444960D01*
X-5049390Y-2450230D01*
X-5051320Y-2460760D01*
X-5049390Y-2471290D01*
X-5043600Y-2477870D01*
X-5036840Y-2481820D01*
X-5012710D01*
G01X-5036840D02*
X-5051320Y-2520000D01*
G01X-5108060D02*
X-5109990Y-2502890D01*
X-5112890Y-2488410D01*
X-5116750Y-2475240D01*
X-5121580Y-2460760D01*
X-5129300Y-2441010D01*
X-5090690D01*
G01X-5199560Y-2520000D02*
Y-2441010D01*
X-5163840Y-2497620D01*
X-5212110D01*
G01X-4976790Y-1975000D02*
Y-1896260D01*
X-5001130D01*
X-5008920Y-1900200D01*
X-5013790Y-1905450D01*
X-5015730Y-1915950D01*
X-5013790Y-1926440D01*
X-5007940Y-1933000D01*
X-5001130Y-1936940D01*
X-4976790D01*
G01X-5001130D02*
X-5015730Y-1975000D01*
G01X-5056500Y-1942190D02*
X-5063320Y-1933000D01*
X-5069160Y-1927760D01*
X-5076950Y-1925130D01*
X-5083760Y-1927760D01*
X-5088630Y-1933000D01*
X-5092530Y-1940880D01*
X-5093500Y-1950070D01*
X-5092530Y-1957940D01*
X-5088630Y-1965820D01*
X-5082790Y-1972380D01*
X-5075970Y-1975000D01*
X-5068180Y-1972380D01*
X-5061370Y-1964500D01*
X-5057470Y-1952690D01*
X-5056500Y-1939570D01*
X-5058450Y-1922510D01*
X-5061370Y-1913320D01*
X-5066240Y-1904130D01*
X-5073050Y-1897570D01*
X-5079870Y-1896260D01*
X-5086680Y-1898880D01*
X-5091550Y-1905450D01*
G01X-5151790Y-1975000D02*
X-5153740Y-1957940D01*
X-5156660Y-1943510D01*
X-5160560Y-1930380D01*
X-5165420Y-1915950D01*
X-5173210Y-1896260D01*
X-5134270D01*
G01X-5134020Y-2095720D02*
X-4940980D01*
Y-2004280D01*
X-5134020D01*
Y-2095720D01*
G01X-5262490Y-12500D02*
Y66490D01*
X-5250910Y50690D01*
G01Y-12500D02*
X-5274080D01*
G01X-4247020Y-6696000D02*
X-4272350Y-6704460D01*
X-4291350Y-6725630D01*
X-4304010Y-6751030D01*
X-4313510Y-6784900D01*
X-4316680Y-6823000D01*
X-4313510Y-6861100D01*
X-4304010Y-6894970D01*
X-4291350Y-6920370D01*
X-4272350Y-6941540D01*
X-4247020Y-6950000D01*
X-4221690Y-6941540D01*
X-4202680Y-6920370D01*
X-4190020Y-6894970D01*
X-4180520Y-6861100D01*
X-4177350Y-6823000D01*
X-4180520Y-6784900D01*
X-4190020Y-6751030D01*
X-4202680Y-6725630D01*
X-4221690Y-6704460D01*
X-4247020Y-6696000D01*
G01X-3993020Y-6950000D02*
X-3970850Y-6945770D01*
X-3945520Y-6933070D01*
X-3929680Y-6911910D01*
X-3923350Y-6882270D01*
X-3929680Y-6852640D01*
X-3948680Y-6827240D01*
X-3977180Y-6814530D01*
X-4008850D01*
X-4027850Y-6806070D01*
X-4043680Y-6784900D01*
X-4050010Y-6755270D01*
X-4040510Y-6725630D01*
X-4018350Y-6704460D01*
X-3993020Y-6696000D01*
X-3967690Y-6704460D01*
X-3945520Y-6725630D01*
X-3936020Y-6755270D01*
X-3942350Y-6784900D01*
X-3958180Y-6806070D01*
X-3977180Y-6814530D01*
X-4008850D01*
X-4037350Y-6827240D01*
X-4056350Y-6852640D01*
X-4062680Y-6882270D01*
X-4056350Y-6911910D01*
X-4040510Y-6933070D01*
X-4015180Y-6945770D01*
X-3993020Y-6950000D01*
G01X-3780180Y-6865340D02*
X-3697850D01*
G01X-2002180D02*
X-1919850D01*
G01X-1707020Y-6696000D02*
X-1732350Y-6704460D01*
X-1751350Y-6725630D01*
X-1764010Y-6751030D01*
X-1773510Y-6784900D01*
X-1776680Y-6823000D01*
X-1773510Y-6861100D01*
X-1764010Y-6894970D01*
X-1751350Y-6920370D01*
X-1732350Y-6941540D01*
X-1707020Y-6950000D01*
X-1681690Y-6941540D01*
X-1662680Y-6920370D01*
X-1650020Y-6894970D01*
X-1640520Y-6861100D01*
X-1637350Y-6823000D01*
X-1640520Y-6784900D01*
X-1650020Y-6751030D01*
X-1662680Y-6725630D01*
X-1681690Y-6704460D01*
X-1707020Y-6696000D01*
G01X-1522680Y-6911910D02*
X-1503680Y-6933070D01*
X-1481520Y-6945770D01*
X-1453020Y-6950000D01*
X-1424510Y-6941540D01*
X-1402350Y-6924610D01*
X-1386520Y-6894970D01*
X-1383350Y-6861100D01*
X-1389680Y-6827240D01*
X-1405520Y-6806070D01*
X-1427690Y-6789140D01*
X-1449850Y-6784900D01*
X-1472010Y-6789140D01*
X-1500510Y-6806070D01*
X-1491010Y-6696000D01*
X-1405520D01*
G01X-4431600Y-5380600D02*
X-2704400D01*
Y-5177400D01*
X-2399600D01*
Y-4872600D01*
X-2450400D01*
Y-4669400D01*
X-4177600D01*
Y-4872600D01*
X-4482400D01*
Y-5177400D01*
X-4431600D01*
Y-5380600D01*
G01X-4349990Y-4825000D02*
Y-4746010D01*
X-4338410Y-4761810D01*
G01Y-4825000D02*
X-4361580D01*
G01X-4285690Y-3450000D02*
X-4258420D01*
Y-3385990D01*
X-4285690D01*
G01X-4274780Y-3416930D02*
X-4258420D01*
G01X-4314990Y-3396660D02*
X-4319080Y-3390260D01*
X-4323850Y-3387060D01*
X-4329300Y-3385990D01*
X-4336110Y-3388120D01*
X-4340880Y-3393460D01*
X-4342250Y-3399860D01*
X-4341570Y-3406260D01*
X-4338840Y-3411590D01*
X-4325210Y-3422260D01*
X-4319080Y-3429730D01*
X-4314990Y-3440400D01*
X-4313620Y-3450000D01*
X-4342250D01*
G01X-4476790Y-1958560D02*
Y-1879820D01*
X-4501130D01*
X-4508920Y-1883760D01*
X-4513790Y-1889010D01*
X-4515730Y-1899510D01*
X-4513790Y-1910000D01*
X-4507940Y-1916560D01*
X-4501130Y-1920500D01*
X-4476790D01*
G01X-4501130D02*
X-4515730Y-1958560D01*
G01X-4556500Y-1925750D02*
X-4563320Y-1916560D01*
X-4569160Y-1911320D01*
X-4576950Y-1908690D01*
X-4583760Y-1911320D01*
X-4588630Y-1916560D01*
X-4592530Y-1924440D01*
X-4593500Y-1933630D01*
X-4592530Y-1941500D01*
X-4588630Y-1949380D01*
X-4582790Y-1955940D01*
X-4575970Y-1958560D01*
X-4568180Y-1955940D01*
X-4561370Y-1948060D01*
X-4557470Y-1936250D01*
X-4556500Y-1923130D01*
X-4558450Y-1906070D01*
X-4561370Y-1896880D01*
X-4566240Y-1887690D01*
X-4573050Y-1881130D01*
X-4579870Y-1879820D01*
X-4586680Y-1882440D01*
X-4591550Y-1889010D01*
G01X-4632320Y-1942810D02*
X-4638160Y-1952000D01*
X-4645950Y-1957250D01*
X-4654710Y-1958560D01*
X-4662500Y-1957250D01*
X-4670290Y-1950690D01*
X-4675160Y-1942810D01*
X-4676130Y-1934940D01*
X-4674190Y-1925750D01*
X-4667370Y-1919190D01*
X-4660560Y-1916560D01*
X-4651790D01*
G01X-4660560D02*
X-4666400Y-1912630D01*
X-4671270Y-1906070D01*
X-4673210Y-1898190D01*
X-4671270Y-1890320D01*
X-4666400Y-1883760D01*
X-4657630Y-1879820D01*
X-4648870Y-1881130D01*
X-4640110Y-1886380D01*
G01X-4478480Y-2004280D02*
X-4671520D01*
Y-2095720D01*
X-4478480D01*
Y-2004280D01*
G01X-4229200Y-662500D02*
Y-583510D01*
X-4252370D01*
X-4260090Y-587460D01*
X-4265880Y-596670D01*
X-4267810Y-607210D01*
X-4265880Y-617740D01*
X-4261050Y-625640D01*
X-4252370Y-629590D01*
X-4229200D01*
G01X-4305250Y-646700D02*
X-4311040Y-655920D01*
X-4318760Y-661180D01*
X-4327450Y-662500D01*
X-4335170Y-661180D01*
X-4342890Y-654600D01*
X-4347720Y-646700D01*
X-4348680Y-638800D01*
X-4346750Y-629590D01*
X-4340000Y-623010D01*
X-4333240Y-620370D01*
X-4324550D01*
G01X-4333240D02*
X-4339030Y-616420D01*
X-4343860Y-609840D01*
X-4345790Y-601940D01*
X-4343860Y-594040D01*
X-4339030Y-587460D01*
X-4330350Y-583510D01*
X-4321660Y-584830D01*
X-4312970Y-590090D01*
G01X-3781700Y-4640000D02*
Y-4561010D01*
X-3804870D01*
X-3812590Y-4564960D01*
X-3818380Y-4574170D01*
X-3820310Y-4584710D01*
X-3818380Y-4595240D01*
X-3813550Y-4603140D01*
X-3804870Y-4607090D01*
X-3781700D01*
G01X-3860650Y-4574170D02*
X-3866440Y-4566280D01*
X-3873190Y-4562330D01*
X-3880920Y-4561010D01*
X-3890570Y-4563640D01*
X-3897320Y-4570230D01*
X-3899250Y-4578120D01*
X-3898290Y-4586030D01*
X-3894430Y-4592610D01*
X-3875120Y-4605770D01*
X-3866440Y-4614990D01*
X-3860650Y-4628150D01*
X-3858720Y-4640000D01*
X-3899250D01*
G01X-3485020Y-6696000D02*
X-3510350Y-6704460D01*
X-3529350Y-6725630D01*
X-3542010Y-6751030D01*
X-3551510Y-6784900D01*
X-3554680Y-6823000D01*
X-3551510Y-6861100D01*
X-3542010Y-6894970D01*
X-3529350Y-6920370D01*
X-3510350Y-6941540D01*
X-3485020Y-6950000D01*
X-3459690Y-6941540D01*
X-3440680Y-6920370D01*
X-3428020Y-6894970D01*
X-3418520Y-6861100D01*
X-3415350Y-6823000D01*
X-3418520Y-6784900D01*
X-3428020Y-6751030D01*
X-3440680Y-6725630D01*
X-3459690Y-6704460D01*
X-3485020Y-6696000D01*
G01X-3300680Y-6911910D02*
X-3281680Y-6933070D01*
X-3259520Y-6945770D01*
X-3231020Y-6950000D01*
X-3202510Y-6941540D01*
X-3180350Y-6924610D01*
X-3164520Y-6894970D01*
X-3161350Y-6861100D01*
X-3167680Y-6827240D01*
X-3183520Y-6806070D01*
X-3205690Y-6789140D01*
X-3227850Y-6784900D01*
X-3250010Y-6789140D01*
X-3278510Y-6806070D01*
X-3269010Y-6696000D01*
X-3183520D01*
G01X-3030850Y-6920370D02*
X-3008680Y-6941540D01*
X-2983350Y-6950000D01*
X-2958020Y-6941540D01*
X-2935850Y-6916140D01*
X-2920020Y-6878030D01*
X-2913680Y-6839930D01*
Y-6793370D01*
X-2920020Y-6755270D01*
X-2935850Y-6721400D01*
X-2954850Y-6704460D01*
X-2977020Y-6696000D01*
X-3002350Y-6704460D01*
X-3021350Y-6721400D01*
X-3034010Y-6746800D01*
X-3040350Y-6780670D01*
X-3034010Y-6810300D01*
X-3018180Y-6839930D01*
X-2999180Y-6856870D01*
X-2977020Y-6861100D01*
X-2951690Y-6852640D01*
X-2932680Y-6831470D01*
X-2913680Y-6793370D01*
G01X-2792680Y-6899200D02*
X-2773680Y-6928840D01*
X-2748350Y-6945770D01*
X-2719850Y-6950000D01*
X-2694510Y-6945770D01*
X-2669180Y-6924610D01*
X-2653350Y-6899200D01*
X-2650190Y-6873800D01*
X-2656520Y-6844170D01*
X-2678680Y-6823000D01*
X-2700850Y-6814530D01*
X-2729350D01*
G01X-2700850D02*
X-2681850Y-6801830D01*
X-2666020Y-6780670D01*
X-2659680Y-6755270D01*
X-2666020Y-6729870D01*
X-2681850Y-6708710D01*
X-2710350Y-6696000D01*
X-2738850Y-6700230D01*
X-2767350Y-6717170D01*
G01X-2538680Y-6911910D02*
X-2519680Y-6933070D01*
X-2497520Y-6945770D01*
X-2469020Y-6950000D01*
X-2440510Y-6941540D01*
X-2418350Y-6924610D01*
X-2402520Y-6894970D01*
X-2399350Y-6861100D01*
X-2405680Y-6827240D01*
X-2421520Y-6806070D01*
X-2443690Y-6789140D01*
X-2465850Y-6784900D01*
X-2488010Y-6789140D01*
X-2516510Y-6806070D01*
X-2507010Y-6696000D01*
X-2421520D01*
G01X-2215020Y-6950000D02*
X-2192850Y-6945770D01*
X-2167520Y-6933070D01*
X-2151680Y-6911910D01*
X-2145350Y-6882270D01*
X-2151680Y-6852640D01*
X-2170680Y-6827240D01*
X-2199180Y-6814530D01*
X-2230850D01*
X-2249850Y-6806070D01*
X-2265680Y-6784900D01*
X-2272010Y-6755270D01*
X-2262510Y-6725630D01*
X-2240350Y-6704460D01*
X-2215020Y-6696000D01*
X-2189690Y-6704460D01*
X-2167520Y-6725630D01*
X-2158020Y-6755270D01*
X-2164350Y-6784900D01*
X-2180180Y-6806070D01*
X-2199180Y-6814530D01*
X-2230850D01*
X-2259350Y-6827240D01*
X-2278350Y-6852640D01*
X-2284680Y-6882270D01*
X-2278350Y-6911910D01*
X-2262510Y-6933070D01*
X-2237180Y-6945770D01*
X-2215020Y-6950000D01*
G01X-3121580Y-3696400D02*
X-3141900D01*
Y-4153600D01*
X-3121580D01*
G01X-3118250Y-4352590D02*
X-3112460Y-4348640D01*
X-3105700Y-4346010D01*
X-3097980D01*
X-3089290Y-4349960D01*
X-3082540Y-4356540D01*
X-3077710Y-4364440D01*
X-3073850Y-4377610D01*
X-3072880Y-4389450D01*
X-3074820Y-4401300D01*
X-3077710Y-4409200D01*
X-3083500Y-4417100D01*
X-3090260Y-4422370D01*
X-3097010Y-4425000D01*
X-3103770D01*
X-3110530Y-4422370D01*
X-3116320Y-4418420D01*
X-3121150Y-4413150D01*
G01X-3153760D02*
X-3159550Y-4419740D01*
X-3166310Y-4423680D01*
X-3174990Y-4425000D01*
X-3183680Y-4422370D01*
X-3190440Y-4417100D01*
X-3195260Y-4407890D01*
X-3196230Y-4397350D01*
X-3194300Y-4386820D01*
X-3189470Y-4380240D01*
X-3182720Y-4374970D01*
X-3175960Y-4373660D01*
X-3169200Y-4374970D01*
X-3160520Y-4380240D01*
X-3163410Y-4346010D01*
X-3189470D01*
G01X-3264560Y-4425000D02*
Y-4346010D01*
X-3228840Y-4402620D01*
X-3277110D01*
G01X-3118250Y-4527590D02*
X-3112460Y-4523640D01*
X-3105700Y-4521010D01*
X-3097980D01*
X-3089290Y-4524960D01*
X-3082540Y-4531540D01*
X-3077710Y-4539440D01*
X-3073850Y-4552610D01*
X-3072880Y-4564450D01*
X-3074820Y-4576300D01*
X-3077710Y-4584200D01*
X-3083500Y-4592100D01*
X-3090260Y-4597370D01*
X-3097010Y-4600000D01*
X-3103770D01*
X-3110530Y-4597370D01*
X-3116320Y-4593420D01*
X-3121150Y-4588150D01*
G01X-3153760D02*
X-3159550Y-4594740D01*
X-3166310Y-4598680D01*
X-3174990Y-4600000D01*
X-3183680Y-4597370D01*
X-3190440Y-4592100D01*
X-3195260Y-4582890D01*
X-3196230Y-4572350D01*
X-3194300Y-4561820D01*
X-3189470Y-4555240D01*
X-3182720Y-4549970D01*
X-3175960Y-4548660D01*
X-3169200Y-4549970D01*
X-3160520Y-4555240D01*
X-3163410Y-4521010D01*
X-3189470D01*
G01X-3231740Y-4584200D02*
X-3237530Y-4593420D01*
X-3245250Y-4598680D01*
X-3253940Y-4600000D01*
X-3261660Y-4598680D01*
X-3269380Y-4592100D01*
X-3274210Y-4584200D01*
X-3275170Y-4576300D01*
X-3273240Y-4567090D01*
X-3266490Y-4560510D01*
X-3259730Y-4557870D01*
X-3251040D01*
G01X-3259730D02*
X-3265520Y-4553920D01*
X-3270350Y-4547340D01*
X-3272280Y-4539440D01*
X-3270350Y-4531540D01*
X-3265520Y-4524960D01*
X-3256840Y-4521010D01*
X-3248150Y-4522330D01*
X-3239460Y-4527590D01*
G01X-3189770Y-3921010D02*
Y-3977620D01*
X-3193630Y-3989470D01*
X-3201350Y-3997370D01*
X-3211000Y-4000000D01*
X-3220660Y-3997370D01*
X-3228380Y-3989470D01*
X-3232240Y-3977620D01*
Y-3921010D01*
G01X-3272580Y-3990790D02*
X-3279330Y-3997370D01*
X-3287050Y-4000000D01*
X-3294780Y-3997370D01*
X-3301530Y-3989470D01*
X-3306360Y-3977620D01*
X-3308290Y-3965770D01*
Y-3951290D01*
X-3306360Y-3939440D01*
X-3301530Y-3928910D01*
X-3295740Y-3923640D01*
X-3288980Y-3921010D01*
X-3281260Y-3923640D01*
X-3275470Y-3928910D01*
X-3271610Y-3936810D01*
X-3269680Y-3947340D01*
X-3271610Y-3956560D01*
X-3276440Y-3965770D01*
X-3282230Y-3971040D01*
X-3288980Y-3972350D01*
X-3296710Y-3969720D01*
X-3302500Y-3963140D01*
X-3308290Y-3951290D01*
G01X-2749990Y-2050000D02*
X-3074980D01*
Y-1875000D01*
X-2749990D01*
Y-2050000D01*
G01X-2537490Y-5312500D02*
X-2544250Y-5311180D01*
X-2551970Y-5307240D01*
X-2556800Y-5300650D01*
X-2558730Y-5291440D01*
X-2556800Y-5282220D01*
X-2551010Y-5274320D01*
X-2542320Y-5270370D01*
X-2532670D01*
X-2526880Y-5267740D01*
X-2522050Y-5261160D01*
X-2520120Y-5251940D01*
X-2523020Y-5242730D01*
X-2529770Y-5236140D01*
X-2537490Y-5233510D01*
X-2545220Y-5236140D01*
X-2551970Y-5242730D01*
X-2554870Y-5251940D01*
X-2552940Y-5261160D01*
X-2548110Y-5267740D01*
X-2542320Y-5270370D01*
X-2532670D01*
X-2523980Y-5274320D01*
X-2518190Y-5282220D01*
X-2516260Y-5291440D01*
X-2518190Y-5300650D01*
X-2523020Y-5307240D01*
X-2530740Y-5311180D01*
X-2537490Y-5312500D01*
G01X-2603420Y-3696400D02*
X-2583100D01*
Y-3874200D01*
X-2633900Y-3925000D01*
X-2583100Y-3975800D01*
Y-4153600D01*
X-2603420D01*
G01X-2369110Y-4091320D02*
X-2365020Y-4088120D01*
X-2360250Y-4085990D01*
X-2354800D01*
X-2348660Y-4089190D01*
X-2343890Y-4094520D01*
X-2340480Y-4100930D01*
X-2337760Y-4111590D01*
X-2337080Y-4121200D01*
X-2338440Y-4130800D01*
X-2340480Y-4137200D01*
X-2344570Y-4143600D01*
X-2349340Y-4147870D01*
X-2354110Y-4150000D01*
X-2358890D01*
X-2363660Y-4147870D01*
X-2367750Y-4144670D01*
X-2371150Y-4140400D01*
G01X-2418170Y-4150000D02*
Y-4085990D01*
X-2392960Y-4131860D01*
X-2427030D01*
G01X-2474050Y-4150000D02*
Y-4085990D01*
X-2448840Y-4131860D01*
X-2482910D01*
G01X-3037510Y-4300000D02*
X-2712490D01*
Y-4475000D01*
X-3037510D01*
Y-4300000D01*
G01Y-4475000D02*
X-2712490D01*
Y-4650000D01*
X-3037510D01*
Y-4475000D01*
G01X-2500000Y-4062480D02*
Y-3737490D01*
X-2325000D01*
Y-4062480D01*
X-2500000D01*
G01X-2330480Y-3725000D02*
Y-3660990D01*
X-2347520D01*
X-2352970Y-3664190D01*
X-2356380Y-3668460D01*
X-2357750Y-3676990D01*
X-2356380Y-3685530D01*
X-2352290Y-3690860D01*
X-2347520Y-3694060D01*
X-2330480D01*
G01X-2347520D02*
X-2357750Y-3725000D01*
G01X-2408170D02*
Y-3660990D01*
X-2382960Y-3706860D01*
X-2417030D01*
G01X-2464050Y-3725000D02*
Y-3660990D01*
X-2438840Y-3706860D01*
X-2472910D01*
G01X-2480020Y-3687500D02*
X-2497050Y-3623490D01*
X-2514090Y-3687500D01*
G01X-2507960Y-3665100D02*
X-2486150D01*
G01X-2539990Y-3634160D02*
X-2544080Y-3627760D01*
X-2548850Y-3624560D01*
X-2554300Y-3623490D01*
X-2561110Y-3625620D01*
X-2565880Y-3630960D01*
X-2567250Y-3637360D01*
X-2566570Y-3643760D01*
X-2563840Y-3649090D01*
X-2550210Y-3659760D01*
X-2544080Y-3667230D01*
X-2539990Y-3677900D01*
X-2538620Y-3687500D01*
X-2567250D01*
G01X-2525800Y-3587900D02*
X-2550400D01*
Y-3237100D01*
X-2525800D01*
G01X-2788350Y-3174150D02*
X-2743090Y-3128890D01*
X-2755130Y-3116840D01*
X-2761250Y-3115250D01*
X-2766680Y-3115860D01*
X-2773680Y-3120930D01*
X-2778750Y-3127930D01*
X-2779630Y-3134590D01*
X-2778520Y-3140230D01*
X-2766470Y-3152280D01*
G01X-2778520Y-3140230D02*
X-2807620Y-3154880D01*
G01X-2820110Y-3128820D02*
X-2826770Y-3129700D01*
X-2832410Y-3128590D01*
X-2837500Y-3125000D01*
X-2840330Y-3119160D01*
X-2840680Y-3112770D01*
X-2837810Y-3105080D01*
X-2832260Y-3098560D01*
X-2825260Y-3093490D01*
X-2819080Y-3092130D01*
X-2812690Y-3092480D01*
X-2808560Y-3095100D01*
X-2805940Y-3099230D01*
X-2804620Y-3106580D01*
X-2786450Y-3085520D01*
X-2799460Y-3072510D01*
G01X-2857350Y-3087040D02*
X-2865520Y-3089430D01*
X-2872400Y-3088590D01*
X-2877490Y-3085010D01*
X-2880590Y-3080400D01*
X-2880670Y-3072780D01*
X-2878560Y-3065840D01*
X-2874510Y-3060830D01*
X-2868270Y-3056520D01*
X-2861120Y-3056120D01*
X-2856240Y-3057980D01*
X-2851900Y-3062320D01*
G01X-2856240Y-3057980D02*
X-2856870Y-3052830D01*
X-2855510Y-3046650D01*
X-2851940Y-3041150D01*
X-2846450Y-3037590D01*
X-2840270Y-3036230D01*
X-2833670Y-3038300D01*
X-2830090Y-3043390D01*
X-2828770Y-3050750D01*
G01X-2550000Y-3187490D02*
Y-3512510D01*
X-2725000D01*
Y-3187490D01*
X-2550000D01*
G01X-2550010Y-2837500D02*
X-2224990D01*
Y-3012500D01*
X-2550010D01*
Y-2837500D01*
G01X-2750480Y-2970000D02*
Y-2905990D01*
X-2767520D01*
X-2772970Y-2909190D01*
X-2776380Y-2913460D01*
X-2777750Y-2921990D01*
X-2776380Y-2930530D01*
X-2772290Y-2935860D01*
X-2767520Y-2939060D01*
X-2750480D01*
G01X-2767520D02*
X-2777750Y-2970000D01*
G01X-2805000Y-2960400D02*
X-2809090Y-2965730D01*
X-2813860Y-2968930D01*
X-2819990Y-2970000D01*
X-2826130Y-2967870D01*
X-2830900Y-2963600D01*
X-2834310Y-2956130D01*
X-2834990Y-2947600D01*
X-2833630Y-2939060D01*
X-2830220Y-2933730D01*
X-2825450Y-2929460D01*
X-2820680Y-2928390D01*
X-2815910Y-2929460D01*
X-2809770Y-2933730D01*
X-2811820Y-2905990D01*
X-2830220D01*
G01X-2860880Y-2960400D02*
X-2864970Y-2965730D01*
X-2869740Y-2968930D01*
X-2875870Y-2970000D01*
X-2882010Y-2967870D01*
X-2886780Y-2963600D01*
X-2890190Y-2956130D01*
X-2890870Y-2947600D01*
X-2889510Y-2939060D01*
X-2886100Y-2933730D01*
X-2881330Y-2929460D01*
X-2876560Y-2928390D01*
X-2871790Y-2929460D01*
X-2865650Y-2933730D01*
X-2867700Y-2905990D01*
X-2886100D01*
G01X-2550000Y-2862490D02*
Y-3187510D01*
X-2725000D01*
Y-2862490D01*
X-2550000D01*
G01X-2978680Y-3319110D02*
X-2981880Y-3315020D01*
X-2984010Y-3310250D01*
Y-3304800D01*
X-2980810Y-3298660D01*
X-2975480Y-3293890D01*
X-2969070Y-3290480D01*
X-2958410Y-3287760D01*
X-2948800Y-3287080D01*
X-2939200Y-3288440D01*
X-2932800Y-3290480D01*
X-2926400Y-3294570D01*
X-2922130Y-3299340D01*
X-2920000Y-3304110D01*
Y-3308890D01*
X-2922130Y-3313660D01*
X-2925330Y-3317750D01*
X-2929600Y-3321150D01*
G01Y-3345000D02*
X-2924270Y-3349090D01*
X-2921070Y-3353860D01*
X-2920000Y-3359990D01*
X-2922130Y-3366130D01*
X-2926400Y-3370900D01*
X-2933870Y-3374310D01*
X-2942400Y-3374990D01*
X-2950940Y-3373630D01*
X-2956270Y-3370220D01*
X-2960540Y-3365450D01*
X-2961610Y-3360680D01*
X-2960540Y-3355910D01*
X-2956270Y-3349770D01*
X-2984010Y-3351820D01*
Y-3370220D01*
G01X-2920000Y-3414510D02*
X-2933870Y-3415870D01*
X-2945600Y-3417920D01*
X-2956270Y-3420650D01*
X-2968010Y-3424050D01*
X-2984010Y-3429510D01*
Y-3402240D01*
G01X-2725000Y-3187490D02*
Y-3512510D01*
X-2900000D01*
Y-3187490D01*
X-2725000D01*
G01X-2224990Y-3187500D02*
X-2550010D01*
Y-3012500D01*
X-2224990D01*
Y-3187500D01*
G01X-2555750Y-2315090D02*
X-2549960Y-2311140D01*
X-2543200Y-2308510D01*
X-2535480D01*
X-2526790Y-2312460D01*
X-2520040Y-2319040D01*
X-2515210Y-2326940D01*
X-2511350Y-2340110D01*
X-2510380Y-2351950D01*
X-2512320Y-2363800D01*
X-2515210Y-2371700D01*
X-2521000Y-2379600D01*
X-2527760Y-2384870D01*
X-2534510Y-2387500D01*
X-2541270D01*
X-2548030Y-2384870D01*
X-2553820Y-2380920D01*
X-2558650Y-2375650D01*
G01X-2591260D02*
X-2597050Y-2382240D01*
X-2603810Y-2386180D01*
X-2612490Y-2387500D01*
X-2621180Y-2384870D01*
X-2627940Y-2379600D01*
X-2632760Y-2370390D01*
X-2633730Y-2359850D01*
X-2631800Y-2349320D01*
X-2626970Y-2342740D01*
X-2620220Y-2337470D01*
X-2613460Y-2336160D01*
X-2606700Y-2337470D01*
X-2598020Y-2342740D01*
X-2600910Y-2308510D01*
X-2626970D01*
G01X-2674070Y-2378290D02*
X-2680820Y-2384870D01*
X-2688540Y-2387500D01*
X-2696270Y-2384870D01*
X-2703020Y-2376970D01*
X-2707850Y-2365120D01*
X-2709780Y-2353270D01*
Y-2338790D01*
X-2707850Y-2326940D01*
X-2703020Y-2316410D01*
X-2697230Y-2311140D01*
X-2690470Y-2308510D01*
X-2682750Y-2311140D01*
X-2676960Y-2316410D01*
X-2673100Y-2324310D01*
X-2671170Y-2334840D01*
X-2673100Y-2344060D01*
X-2677930Y-2353270D01*
X-2683720Y-2358540D01*
X-2690470Y-2359850D01*
X-2698200Y-2357220D01*
X-2703990Y-2350640D01*
X-2709780Y-2338790D01*
G01X-2812500Y-2427500D02*
X-2412500D01*
Y-2647500D01*
X-2812500D01*
Y-2427500D01*
G01X-2840210Y-1850000D02*
Y-1771010D01*
X-2864340D01*
X-2872060Y-1774960D01*
X-2876890Y-1780230D01*
X-2878820Y-1790760D01*
X-2876890Y-1801290D01*
X-2871100Y-1807870D01*
X-2864340Y-1811820D01*
X-2840210D01*
G01X-2864340D02*
X-2878820Y-1850000D01*
G01X-2949080D02*
Y-1771010D01*
X-2913360Y-1827620D01*
X-2961630D01*
G01X-3015470Y-1771010D02*
X-3007750Y-1773640D01*
X-3001960Y-1780230D01*
X-2998100Y-1788120D01*
X-2995210Y-1798660D01*
X-2994240Y-1810510D01*
X-2995210Y-1822350D01*
X-2998100Y-1832890D01*
X-3001960Y-1840790D01*
X-3007750Y-1847370D01*
X-3015470Y-1850000D01*
X-3023200Y-1847370D01*
X-3028990Y-1840790D01*
X-3032850Y-1832890D01*
X-3035740Y-1822350D01*
X-3036710Y-1810510D01*
X-3035740Y-1798660D01*
X-3032850Y-1788120D01*
X-3028990Y-1780230D01*
X-3023200Y-1773640D01*
X-3015470Y-1771010D01*
G01X-2557240Y-1327590D02*
X-2551450Y-1323640D01*
X-2544690Y-1321010D01*
X-2536970D01*
X-2528280Y-1324960D01*
X-2521530Y-1331540D01*
X-2516700Y-1339440D01*
X-2512840Y-1352610D01*
X-2511870Y-1364450D01*
X-2513810Y-1376300D01*
X-2516700Y-1384200D01*
X-2522490Y-1392100D01*
X-2529250Y-1397370D01*
X-2536000Y-1400000D01*
X-2542760D01*
X-2549520Y-1397370D01*
X-2555310Y-1393420D01*
X-2560140Y-1388150D01*
G01X-2613980Y-1400000D02*
Y-1321010D01*
X-2602400Y-1336810D01*
G01Y-1400000D02*
X-2625570D01*
G01X-2299990Y-1600000D02*
X-2625010D01*
Y-1425000D01*
X-2299990D01*
Y-1600000D01*
G01X-2653600Y-555600D02*
X-926400D01*
Y-352400D01*
X-621600D01*
Y-47600D01*
X-672400D01*
Y155600D01*
X-2399600D01*
Y-47600D01*
X-2704400D01*
Y-352400D01*
X-2653600D01*
Y-555600D01*
G01X-2923500Y-450000D02*
Y-371010D01*
X-2911920Y-386810D01*
G01Y-450000D02*
X-2935090D01*
G01X-3001480Y-371010D02*
X-2993760Y-373640D01*
X-2987970Y-380230D01*
X-2984110Y-388120D01*
X-2981220Y-398660D01*
X-2980250Y-410510D01*
X-2981220Y-422350D01*
X-2984110Y-432890D01*
X-2987970Y-440790D01*
X-2993760Y-447370D01*
X-3001480Y-450000D01*
X-3009210Y-447370D01*
X-3015000Y-440790D01*
X-3018860Y-432890D01*
X-3021750Y-422350D01*
X-3022720Y-410510D01*
X-3021750Y-398660D01*
X-3018860Y-388120D01*
X-3015000Y-380230D01*
X-3009210Y-373640D01*
X-3001480Y-371010D01*
G01X-2562490Y12500D02*
Y91490D01*
X-2550910Y75690D01*
G01Y12500D02*
X-2574080D01*
G01X-1891600Y-4669400D02*
X-672400D01*
Y-4872600D01*
X-621600D01*
Y-5177400D01*
X-926400D01*
Y-5380600D01*
X-2145600D01*
Y-5177400D01*
X-2196400D01*
Y-4872600D01*
X-1891600D01*
Y-4669400D01*
G01X-2037490Y-4825000D02*
Y-4746010D01*
X-2025910Y-4761810D01*
G01Y-4825000D02*
X-2049080D01*
G01X-1977710Y-4412500D02*
Y-4333510D01*
X-2001840D01*
X-2009560Y-4337460D01*
X-2014390Y-4342730D01*
X-2016320Y-4353260D01*
X-2014390Y-4363790D01*
X-2008600Y-4370370D01*
X-2001840Y-4374320D01*
X-1977710D01*
G01X-2001840D02*
X-2016320Y-4412500D01*
G01X-2086580D02*
Y-4333510D01*
X-2050860Y-4390120D01*
X-2099130D01*
G01X-2152970Y-4412500D02*
Y-4333510D01*
X-2141390Y-4349310D01*
G01Y-4412500D02*
X-2164560D01*
G01X-2004280Y-4296520D02*
Y-4103480D01*
X-2095720D01*
Y-4296520D01*
X-2004280D01*
G01X-2012500Y-3562510D02*
Y-3237490D01*
X-1837500D01*
Y-3562510D01*
X-2012500D01*
G01X-1809110Y-3971320D02*
X-1805020Y-3968120D01*
X-1800250Y-3965990D01*
X-1794800D01*
X-1788660Y-3969190D01*
X-1783890Y-3974520D01*
X-1780480Y-3980930D01*
X-1777760Y-3991590D01*
X-1777080Y-4001200D01*
X-1778440Y-4010800D01*
X-1780480Y-4017200D01*
X-1784570Y-4023600D01*
X-1789340Y-4027870D01*
X-1794110Y-4030000D01*
X-1798890D01*
X-1803660Y-4027870D01*
X-1807750Y-4024670D01*
X-1811150Y-4020400D01*
G01X-1858170Y-4030000D02*
Y-3965990D01*
X-1832960Y-4011860D01*
X-1867030D01*
G01X-1892930Y-4003330D02*
X-1897700Y-3995860D01*
X-1901790Y-3991590D01*
X-1907240Y-3989460D01*
X-1912010Y-3991590D01*
X-1915420Y-3995860D01*
X-1918140Y-4002260D01*
X-1918820Y-4009730D01*
X-1918140Y-4016130D01*
X-1915420Y-4022530D01*
X-1911330Y-4027870D01*
X-1906560Y-4030000D01*
X-1901100Y-4027870D01*
X-1896330Y-4021470D01*
X-1893610Y-4011860D01*
X-1892930Y-4001200D01*
X-1894290Y-3987330D01*
X-1896330Y-3979860D01*
X-1899740Y-3972390D01*
X-1904510Y-3967060D01*
X-1909280Y-3965990D01*
X-1914050Y-3968120D01*
X-1917460Y-3973460D01*
G01X-1925000Y-3749990D02*
Y-4075010D01*
X-2100000D01*
Y-3749990D01*
X-1925000D01*
G01X-2187500Y-3562510D02*
Y-3237490D01*
X-2012500D01*
Y-3562510D01*
X-2187500D01*
G01X-1587490Y-3762500D02*
X-1912510D01*
Y-3587500D01*
X-1587490D01*
Y-3762500D01*
G01X-2140480Y-3900000D02*
Y-3835990D01*
X-2157520D01*
X-2162970Y-3839190D01*
X-2166380Y-3843460D01*
X-2167750Y-3851990D01*
X-2166380Y-3860530D01*
X-2162290Y-3865860D01*
X-2157520Y-3869060D01*
X-2140480D01*
G01X-2157520D02*
X-2167750Y-3900000D01*
G01X-2218170D02*
Y-3835990D01*
X-2192960Y-3881860D01*
X-2227030D01*
G01X-2250880Y-3890400D02*
X-2254970Y-3895730D01*
X-2259740Y-3898930D01*
X-2265870Y-3900000D01*
X-2272010Y-3897870D01*
X-2276780Y-3893600D01*
X-2280190Y-3886130D01*
X-2280870Y-3877600D01*
X-2279510Y-3869060D01*
X-2276100Y-3863730D01*
X-2271330Y-3859460D01*
X-2266560Y-3858390D01*
X-2261790Y-3859460D01*
X-2255650Y-3863730D01*
X-2257700Y-3835990D01*
X-2276100D01*
G01X-2309020Y-3820720D02*
X-2115980D01*
Y-3729280D01*
X-2309020D01*
Y-3820720D01*
G01X-1950480Y-3630000D02*
Y-3565990D01*
X-1967520D01*
X-1972970Y-3569190D01*
X-1976380Y-3573460D01*
X-1977750Y-3581990D01*
X-1976380Y-3590530D01*
X-1972290Y-3595860D01*
X-1967520Y-3599060D01*
X-1950480D01*
G01X-1967520D02*
X-1977750Y-3630000D01*
G01X-2028170D02*
Y-3565990D01*
X-2002960Y-3611860D01*
X-2037030D01*
G01X-2062930Y-3603330D02*
X-2067700Y-3595860D01*
X-2071790Y-3591590D01*
X-2077240Y-3589460D01*
X-2082010Y-3591590D01*
X-2085420Y-3595860D01*
X-2088140Y-3602260D01*
X-2088820Y-3609730D01*
X-2088140Y-3616130D01*
X-2085420Y-3622530D01*
X-2081330Y-3627870D01*
X-2076560Y-3630000D01*
X-2071100Y-3627870D01*
X-2066330Y-3621470D01*
X-2063610Y-3611860D01*
X-2062930Y-3601200D01*
X-2064290Y-3587330D01*
X-2066330Y-3579860D01*
X-2069740Y-3572390D01*
X-2074510Y-3567060D01*
X-2079280Y-3565990D01*
X-2084050Y-3568120D01*
X-2087460Y-3573460D01*
G01X-2109020Y-3720720D02*
X-1915980D01*
Y-3629280D01*
X-2109020D01*
Y-3720720D01*
G01X-2150480Y-4110000D02*
Y-4045990D01*
X-2167520D01*
X-2172970Y-4049190D01*
X-2176380Y-4053460D01*
X-2177750Y-4061990D01*
X-2176380Y-4070530D01*
X-2172290Y-4075860D01*
X-2167520Y-4079060D01*
X-2150480D01*
G01X-2167520D02*
X-2177750Y-4110000D01*
G01X-2228170D02*
Y-4045990D01*
X-2202960Y-4091860D01*
X-2237030D01*
G01X-2260880Y-4097200D02*
X-2264970Y-4104670D01*
X-2270420Y-4108930D01*
X-2276560Y-4110000D01*
X-2282010Y-4108930D01*
X-2287460Y-4103600D01*
X-2290870Y-4097200D01*
X-2291550Y-4090800D01*
X-2290190Y-4083330D01*
X-2285420Y-4078000D01*
X-2280650Y-4075860D01*
X-2274510D01*
G01X-2280650D02*
X-2284730Y-4072660D01*
X-2288140Y-4067330D01*
X-2289510Y-4060930D01*
X-2288140Y-4054520D01*
X-2284730Y-4049190D01*
X-2278600Y-4045990D01*
X-2272470Y-4047060D01*
X-2266330Y-4051320D01*
G01X-2115980Y-3941780D02*
X-2309020D01*
Y-4033220D01*
X-2115980D01*
Y-3941780D01*
G01Y-3629280D02*
X-2309020D01*
Y-3720720D01*
X-2115980D01*
Y-3629280D01*
G01X-2224200Y-3237100D02*
X-2199600D01*
Y-3587900D01*
X-2224200D01*
G01X-2070480Y-2960000D02*
Y-2895990D01*
X-2087520D01*
X-2092970Y-2899190D01*
X-2096380Y-2903460D01*
X-2097750Y-2911990D01*
X-2096380Y-2920530D01*
X-2092290Y-2925860D01*
X-2087520Y-2929060D01*
X-2070480D01*
G01X-2087520D02*
X-2097750Y-2960000D01*
G01X-2125000Y-2950400D02*
X-2129090Y-2955730D01*
X-2133860Y-2958930D01*
X-2139990Y-2960000D01*
X-2146130Y-2957870D01*
X-2150900Y-2953600D01*
X-2154310Y-2946130D01*
X-2154990Y-2937600D01*
X-2153630Y-2929060D01*
X-2150220Y-2923730D01*
X-2145450Y-2919460D01*
X-2140680Y-2918390D01*
X-2135910Y-2919460D01*
X-2129770Y-2923730D01*
X-2131820Y-2895990D01*
X-2150220D01*
G01X-2204050Y-2960000D02*
Y-2895990D01*
X-2178840Y-2941860D01*
X-2212910D01*
G01X-2099110Y-3021320D02*
X-2095020Y-3018120D01*
X-2090250Y-3015990D01*
X-2084800D01*
X-2078660Y-3019190D01*
X-2073890Y-3024520D01*
X-2070480Y-3030930D01*
X-2067760Y-3041590D01*
X-2067080Y-3051200D01*
X-2068440Y-3060800D01*
X-2070480Y-3067200D01*
X-2074570Y-3073600D01*
X-2079340Y-3077870D01*
X-2084110Y-3080000D01*
X-2088890D01*
X-2093660Y-3077870D01*
X-2097750Y-3074670D01*
X-2101150Y-3070400D01*
G01X-2125000D02*
X-2129090Y-3075730D01*
X-2133860Y-3078930D01*
X-2139990Y-3080000D01*
X-2146130Y-3077870D01*
X-2150900Y-3073600D01*
X-2154310Y-3066130D01*
X-2154990Y-3057600D01*
X-2153630Y-3049060D01*
X-2150220Y-3043730D01*
X-2145450Y-3039460D01*
X-2140680Y-3038390D01*
X-2135910Y-3039460D01*
X-2129770Y-3043730D01*
X-2131820Y-3015990D01*
X-2150220D01*
G01X-2195870Y-3080000D02*
X-2200650Y-3078930D01*
X-2206100Y-3075730D01*
X-2209510Y-3070400D01*
X-2210870Y-3062930D01*
X-2209510Y-3055460D01*
X-2205420Y-3049060D01*
X-2199280Y-3045860D01*
X-2192470D01*
X-2188380Y-3043730D01*
X-2184970Y-3038390D01*
X-2183610Y-3030930D01*
X-2185650Y-3023460D01*
X-2190420Y-3018120D01*
X-2195870Y-3015990D01*
X-2201330Y-3018120D01*
X-2206100Y-3023460D01*
X-2208140Y-3030930D01*
X-2206780Y-3038390D01*
X-2203370Y-3043730D01*
X-2199280Y-3045860D01*
X-2192470D01*
X-2186330Y-3049060D01*
X-2182240Y-3055460D01*
X-2180880Y-3062930D01*
X-2182240Y-3070400D01*
X-2185650Y-3075730D01*
X-2191100Y-3078930D01*
X-2195870Y-3080000D01*
G01X-1938680Y-3109110D02*
X-1941880Y-3105020D01*
X-1944010Y-3100250D01*
Y-3094800D01*
X-1940810Y-3088660D01*
X-1935480Y-3083890D01*
X-1929070Y-3080480D01*
X-1918410Y-3077760D01*
X-1908800Y-3077080D01*
X-1899200Y-3078440D01*
X-1892800Y-3080480D01*
X-1886400Y-3084570D01*
X-1882130Y-3089340D01*
X-1880000Y-3094110D01*
Y-3098890D01*
X-1882130Y-3103660D01*
X-1885330Y-3107750D01*
X-1889600Y-3111150D01*
G01X-1880000Y-3158170D02*
X-1944010D01*
X-1898140Y-3132960D01*
Y-3167030D01*
G01X-1933340Y-3192930D02*
X-1939740Y-3197020D01*
X-1942940Y-3201790D01*
X-1944010Y-3207240D01*
X-1941880Y-3214050D01*
X-1936540Y-3218820D01*
X-1930140Y-3220190D01*
X-1923740Y-3219510D01*
X-1918410Y-3216780D01*
X-1907740Y-3203150D01*
X-1900270Y-3197020D01*
X-1889600Y-3192930D01*
X-1880000Y-3191560D01*
Y-3220190D01*
G01X-2059110Y-3151320D02*
X-2055020Y-3148120D01*
X-2050250Y-3145990D01*
X-2044800D01*
X-2038660Y-3149190D01*
X-2033890Y-3154520D01*
X-2030480Y-3160930D01*
X-2027760Y-3171590D01*
X-2027080Y-3181200D01*
X-2028440Y-3190800D01*
X-2030480Y-3197200D01*
X-2034570Y-3203600D01*
X-2039340Y-3207870D01*
X-2044110Y-3210000D01*
X-2048890D01*
X-2053660Y-3207870D01*
X-2057750Y-3204670D01*
X-2061150Y-3200400D01*
G01X-2108170Y-3210000D02*
Y-3145990D01*
X-2082960Y-3191860D01*
X-2117030D01*
G01X-2140880Y-3197200D02*
X-2144970Y-3204670D01*
X-2150420Y-3208930D01*
X-2156560Y-3210000D01*
X-2162010Y-3208930D01*
X-2167460Y-3203600D01*
X-2170870Y-3197200D01*
X-2171550Y-3190800D01*
X-2170190Y-3183330D01*
X-2165420Y-3178000D01*
X-2160650Y-3175860D01*
X-2154510D01*
G01X-2160650D02*
X-2164730Y-3172660D01*
X-2168140Y-3167330D01*
X-2169510Y-3160930D01*
X-2168140Y-3154520D01*
X-2164730Y-3149190D01*
X-2158600Y-3145990D01*
X-2152470Y-3147060D01*
X-2146330Y-3151320D01*
G01X-2251790Y-2050000D02*
Y-1971260D01*
X-2276130D01*
X-2283920Y-1975200D01*
X-2288790Y-1980450D01*
X-2290730Y-1990950D01*
X-2288790Y-2001440D01*
X-2282940Y-2008000D01*
X-2276130Y-2011940D01*
X-2251790D01*
G01X-2276130D02*
X-2290730Y-2050000D01*
G01X-2328580Y-2038190D02*
X-2334420Y-2044750D01*
X-2341240Y-2048690D01*
X-2350000Y-2050000D01*
X-2358760Y-2047380D01*
X-2365580Y-2042130D01*
X-2370450Y-2032940D01*
X-2371420Y-2022440D01*
X-2369470Y-2011940D01*
X-2364600Y-2005380D01*
X-2357790Y-2000130D01*
X-2350970Y-1998820D01*
X-2344160Y-2000130D01*
X-2335400Y-2005380D01*
X-2338320Y-1971260D01*
X-2364600D01*
G01X-2412190Y-2040820D02*
X-2419000Y-2047380D01*
X-2426790Y-2050000D01*
X-2434580Y-2047380D01*
X-2441400Y-2039500D01*
X-2446270Y-2027690D01*
X-2448210Y-2015880D01*
Y-2001440D01*
X-2446270Y-1989630D01*
X-2441400Y-1979130D01*
X-2435560Y-1973880D01*
X-2428740Y-1971260D01*
X-2420950Y-1973880D01*
X-2415110Y-1979130D01*
X-2411210Y-1987010D01*
X-2409270Y-1997510D01*
X-2411210Y-2006690D01*
X-2416080Y-2015880D01*
X-2421920Y-2021130D01*
X-2428740Y-2022440D01*
X-2436530Y-2019820D01*
X-2442370Y-2013260D01*
X-2448210Y-2001440D01*
G01X-2129280Y-2096520D02*
Y-1903480D01*
X-2220720D01*
Y-2096520D01*
X-2129280D01*
G01X-1801790Y-2037500D02*
Y-1958760D01*
X-1826130D01*
X-1833920Y-1962700D01*
X-1838790Y-1967950D01*
X-1840730Y-1978450D01*
X-1838790Y-1988940D01*
X-1832940Y-1995500D01*
X-1826130Y-1999440D01*
X-1801790D01*
G01X-1826130D02*
X-1840730Y-2037500D01*
G01X-1881500Y-2004690D02*
X-1888320Y-1995500D01*
X-1894160Y-1990260D01*
X-1901950Y-1987630D01*
X-1908760Y-1990260D01*
X-1913630Y-1995500D01*
X-1917530Y-2003380D01*
X-1918500Y-2012570D01*
X-1917530Y-2020440D01*
X-1913630Y-2028320D01*
X-1907790Y-2034880D01*
X-1900970Y-2037500D01*
X-1893180Y-2034880D01*
X-1886370Y-2027000D01*
X-1882470Y-2015190D01*
X-1881500Y-2002070D01*
X-1883450Y-1985010D01*
X-1886370Y-1975820D01*
X-1891240Y-1966630D01*
X-1898050Y-1960070D01*
X-1904870Y-1958760D01*
X-1911680Y-1961380D01*
X-1916550Y-1967950D01*
G01X-1978740Y-1958760D02*
X-1970950Y-1961380D01*
X-1965110Y-1967950D01*
X-1961210Y-1975820D01*
X-1958290Y-1986320D01*
X-1957320Y-1998130D01*
X-1958290Y-2009940D01*
X-1961210Y-2020440D01*
X-1965110Y-2028320D01*
X-1970950Y-2034880D01*
X-1978740Y-2037500D01*
X-1986530Y-2034880D01*
X-1992370Y-2028320D01*
X-1996270Y-2020440D01*
X-1999190Y-2009940D01*
X-2000160Y-1998130D01*
X-1999190Y-1986320D01*
X-1996270Y-1975820D01*
X-1992370Y-1967950D01*
X-1986530Y-1961380D01*
X-1978740Y-1958760D01*
G01X-2029280Y-2096520D02*
Y-1903480D01*
X-2120720D01*
Y-2096520D01*
X-2029280D01*
G01X-2250000Y-1374980D02*
Y-1049990D01*
X-2075000D01*
Y-1374980D01*
X-2250000D01*
G01X-2091700Y-1025000D02*
Y-946010D01*
X-2115830D01*
X-2123550Y-949960D01*
X-2128380Y-955230D01*
X-2130310Y-965760D01*
X-2128380Y-976290D01*
X-2122590Y-982870D01*
X-2115830Y-986820D01*
X-2091700D01*
G01X-2115830D02*
X-2130310Y-1025000D01*
G01X-2167750Y-1013150D02*
X-2173540Y-1019740D01*
X-2180300Y-1023680D01*
X-2188980Y-1025000D01*
X-2197670Y-1022370D01*
X-2204430Y-1017100D01*
X-2209250Y-1007890D01*
X-2210220Y-997350D01*
X-2208290Y-986820D01*
X-2203460Y-980240D01*
X-2196710Y-974970D01*
X-2189950Y-973660D01*
X-2183190Y-974970D01*
X-2174510Y-980240D01*
X-2177400Y-946010D01*
X-2203460D01*
G01X-1565210Y-4250000D02*
Y-4171010D01*
X-1589340D01*
X-1597060Y-4174960D01*
X-1601890Y-4180230D01*
X-1603820Y-4190760D01*
X-1601890Y-4201290D01*
X-1596100Y-4207870D01*
X-1589340Y-4211820D01*
X-1565210D01*
G01X-1589340D02*
X-1603820Y-4250000D01*
G01X-1674080D02*
Y-4171010D01*
X-1638360Y-4227620D01*
X-1686630D01*
G01X-1722140Y-4184170D02*
X-1727930Y-4176280D01*
X-1734680Y-4172330D01*
X-1742410Y-4171010D01*
X-1752060Y-4173640D01*
X-1758810Y-4180230D01*
X-1760740Y-4188120D01*
X-1759780Y-4196030D01*
X-1755920Y-4202610D01*
X-1736610Y-4215770D01*
X-1727930Y-4224990D01*
X-1722140Y-4238150D01*
X-1720210Y-4250000D01*
X-1760740D01*
G01X-1537500Y-4300010D02*
Y-3975020D01*
X-1362500D01*
Y-4300010D01*
X-1537500D01*
G01X-1243250Y-4527590D02*
X-1237460Y-4523640D01*
X-1230700Y-4521010D01*
X-1222980D01*
X-1214290Y-4524960D01*
X-1207540Y-4531540D01*
X-1202710Y-4539440D01*
X-1198850Y-4552610D01*
X-1197880Y-4564450D01*
X-1199820Y-4576300D01*
X-1202710Y-4584200D01*
X-1208500Y-4592100D01*
X-1215260Y-4597370D01*
X-1222010Y-4600000D01*
X-1228770D01*
X-1235530Y-4597370D01*
X-1241320Y-4593420D01*
X-1246150Y-4588150D01*
G01X-1311580Y-4600000D02*
Y-4521010D01*
X-1275860Y-4577620D01*
X-1324130D01*
G01X-1356740Y-4588150D02*
X-1362530Y-4594740D01*
X-1369290Y-4598680D01*
X-1377970Y-4600000D01*
X-1386660Y-4597370D01*
X-1393420Y-4592100D01*
X-1398240Y-4582890D01*
X-1399210Y-4572350D01*
X-1397280Y-4561820D01*
X-1392450Y-4555240D01*
X-1385700Y-4549970D01*
X-1378940Y-4548660D01*
X-1372180Y-4549970D01*
X-1363500Y-4555240D01*
X-1366390Y-4521010D01*
X-1392450D01*
G01X-1140000Y-4100000D02*
Y-4500000D01*
X-1360000D01*
Y-4100000D01*
X-1140000D01*
G01X-1324980Y-3912500D02*
X-999990D01*
Y-4087500D01*
X-1324980D01*
Y-3912500D01*
G01X-1387500Y-3705480D02*
X-1451510D01*
Y-3722520D01*
X-1448310Y-3727970D01*
X-1444040Y-3731380D01*
X-1435510Y-3732750D01*
X-1426970Y-3731380D01*
X-1421640Y-3727290D01*
X-1418440Y-3722520D01*
Y-3705480D01*
G01Y-3722520D02*
X-1387500Y-3732750D01*
G01Y-3783170D02*
X-1451510D01*
X-1405640Y-3757960D01*
Y-3792030D01*
G01X-1387500Y-3830870D02*
X-1388570Y-3835650D01*
X-1391770Y-3841100D01*
X-1397100Y-3844510D01*
X-1404570Y-3845870D01*
X-1412040Y-3844510D01*
X-1418440Y-3840420D01*
X-1421640Y-3834280D01*
Y-3827470D01*
X-1423770Y-3823380D01*
X-1429110Y-3819970D01*
X-1436570Y-3818610D01*
X-1444040Y-3820650D01*
X-1449380Y-3825420D01*
X-1451510Y-3830870D01*
X-1449380Y-3836330D01*
X-1444040Y-3841100D01*
X-1436570Y-3843140D01*
X-1429110Y-3841780D01*
X-1423770Y-3838370D01*
X-1421640Y-3834280D01*
Y-3827470D01*
X-1418440Y-3821330D01*
X-1412040Y-3817240D01*
X-1404570Y-3815880D01*
X-1397100Y-3817240D01*
X-1391770Y-3820650D01*
X-1388570Y-3826100D01*
X-1387500Y-3830870D01*
G01X-1337500Y-3362520D02*
Y-3687510D01*
X-1512480D01*
Y-3362520D01*
X-1337500D01*
G01X-1662500Y-3237490D02*
Y-3562480D01*
X-1837500D01*
Y-3237490D01*
X-1662500D01*
G01X-1321180Y-3734110D02*
X-1324380Y-3730020D01*
X-1326510Y-3725250D01*
Y-3719800D01*
X-1323310Y-3713660D01*
X-1317980Y-3708890D01*
X-1311570Y-3705480D01*
X-1300910Y-3702760D01*
X-1291300Y-3702080D01*
X-1281700Y-3703440D01*
X-1275300Y-3705480D01*
X-1268900Y-3709570D01*
X-1264630Y-3714340D01*
X-1262500Y-3719110D01*
Y-3723890D01*
X-1264630Y-3728660D01*
X-1267830Y-3732750D01*
X-1272100Y-3736150D01*
G01Y-3760000D02*
X-1266770Y-3764090D01*
X-1263570Y-3768860D01*
X-1262500Y-3774990D01*
X-1264630Y-3781130D01*
X-1268900Y-3785900D01*
X-1276370Y-3789310D01*
X-1284900Y-3789990D01*
X-1293440Y-3788630D01*
X-1298770Y-3785220D01*
X-1303040Y-3780450D01*
X-1304110Y-3775680D01*
X-1303040Y-3770910D01*
X-1298770Y-3764770D01*
X-1326510Y-3766820D01*
Y-3785220D01*
G01X-1315840Y-3817930D02*
X-1322240Y-3822020D01*
X-1325440Y-3826790D01*
X-1326510Y-3832240D01*
X-1324380Y-3839050D01*
X-1319040Y-3843820D01*
X-1312640Y-3845190D01*
X-1306240Y-3844510D01*
X-1300910Y-3841780D01*
X-1290240Y-3828150D01*
X-1282770Y-3822020D01*
X-1272100Y-3817930D01*
X-1262500Y-3816560D01*
Y-3845190D01*
G01X-1162500Y-3362490D02*
Y-3687510D01*
X-1337500D01*
Y-3362490D01*
X-1162500D01*
G01X-1667680Y-3790320D02*
X-1661840Y-3786380D01*
X-1655020Y-3783760D01*
X-1647230D01*
X-1638470Y-3787700D01*
X-1631660Y-3794260D01*
X-1626790Y-3802130D01*
X-1622890Y-3815260D01*
X-1621920Y-3827070D01*
X-1623870Y-3838880D01*
X-1626790Y-3846750D01*
X-1632630Y-3854630D01*
X-1639440Y-3859880D01*
X-1646260Y-3862500D01*
X-1653080D01*
X-1659890Y-3859880D01*
X-1665730Y-3855940D01*
X-1670600Y-3850690D01*
G01X-1736680Y-3862500D02*
Y-3783760D01*
X-1700660Y-3840190D01*
X-1749340D01*
G01X-1787190Y-3853320D02*
X-1794000Y-3859880D01*
X-1801790Y-3862500D01*
X-1809580Y-3859880D01*
X-1816400Y-3852000D01*
X-1821270Y-3840190D01*
X-1823210Y-3828380D01*
Y-3813940D01*
X-1821270Y-3802130D01*
X-1816400Y-3791630D01*
X-1810560Y-3786380D01*
X-1803740Y-3783760D01*
X-1795950Y-3786380D01*
X-1790110Y-3791630D01*
X-1786210Y-3799510D01*
X-1784270Y-3810010D01*
X-1786210Y-3819190D01*
X-1791080Y-3828380D01*
X-1796920Y-3833630D01*
X-1803740Y-3834940D01*
X-1811530Y-3832320D01*
X-1817370Y-3825760D01*
X-1823210Y-3813940D01*
G01X-1655480Y-3225000D02*
Y-3160990D01*
X-1672520D01*
X-1677970Y-3164190D01*
X-1681380Y-3168460D01*
X-1682750Y-3176990D01*
X-1681380Y-3185530D01*
X-1677290Y-3190860D01*
X-1672520Y-3194060D01*
X-1655480D01*
G01X-1672520D02*
X-1682750Y-3225000D01*
G01X-1710000Y-3212200D02*
X-1714090Y-3219670D01*
X-1719540Y-3223930D01*
X-1725680Y-3225000D01*
X-1731130Y-3223930D01*
X-1736580Y-3218600D01*
X-1739990Y-3212200D01*
X-1740670Y-3205800D01*
X-1739310Y-3198330D01*
X-1734540Y-3193000D01*
X-1729770Y-3190860D01*
X-1723630D01*
G01X-1729770D02*
X-1733850Y-3187660D01*
X-1737260Y-3182330D01*
X-1738630Y-3175930D01*
X-1737260Y-3169520D01*
X-1733850Y-3164190D01*
X-1727720Y-3160990D01*
X-1721590Y-3162060D01*
X-1715450Y-3166320D01*
G01X-1769290Y-3217530D02*
X-1774060Y-3222870D01*
X-1779510Y-3225000D01*
X-1784960Y-3222870D01*
X-1789730Y-3216470D01*
X-1793140Y-3206860D01*
X-1794510Y-3197260D01*
Y-3185530D01*
X-1793140Y-3175930D01*
X-1789730Y-3167390D01*
X-1785650Y-3163120D01*
X-1780870Y-3160990D01*
X-1775420Y-3163120D01*
X-1771330Y-3167390D01*
X-1768610Y-3173790D01*
X-1767240Y-3182330D01*
X-1768610Y-3189790D01*
X-1772020Y-3197260D01*
X-1776100Y-3201530D01*
X-1780870Y-3202600D01*
X-1786330Y-3200460D01*
X-1790420Y-3195130D01*
X-1794510Y-3185530D01*
G01X-987490Y-3350000D02*
X-1312510D01*
Y-3175000D01*
X-987490D01*
Y-3350000D01*
G01X-1409110Y-3278820D02*
X-1405020Y-3275620D01*
X-1400250Y-3273490D01*
X-1394800D01*
X-1388660Y-3276690D01*
X-1383890Y-3282020D01*
X-1380480Y-3288430D01*
X-1377760Y-3299090D01*
X-1377080Y-3308700D01*
X-1378440Y-3318300D01*
X-1380480Y-3324700D01*
X-1384570Y-3331100D01*
X-1389340Y-3335370D01*
X-1394110Y-3337500D01*
X-1398890D01*
X-1403660Y-3335370D01*
X-1407750Y-3332170D01*
X-1411150Y-3327900D01*
G01X-1435000D02*
X-1439090Y-3333230D01*
X-1443860Y-3336430D01*
X-1449990Y-3337500D01*
X-1456130Y-3335370D01*
X-1460900Y-3331100D01*
X-1464310Y-3323630D01*
X-1464990Y-3315100D01*
X-1463630Y-3306560D01*
X-1460220Y-3301230D01*
X-1455450Y-3296960D01*
X-1450680Y-3295890D01*
X-1445910Y-3296960D01*
X-1439770Y-3301230D01*
X-1441820Y-3273490D01*
X-1460220D01*
G01X-1505870Y-3337500D02*
Y-3273490D01*
X-1497700Y-3286290D01*
G01Y-3337500D02*
X-1514050D01*
G01X-1509020Y-3270720D02*
X-1315980D01*
Y-3179280D01*
X-1509020D01*
Y-3270720D01*
G01X-1531160Y-2869590D02*
X-1532910D01*
Y-3080410D01*
X-1531160D01*
G01X-1424370Y-2737500D02*
X-1448500Y-2658510D01*
X-1472640Y-2737500D01*
G01X-1463950Y-2709850D02*
X-1433060D01*
G01X-1505250Y-2721700D02*
X-1511040Y-2730920D01*
X-1518760Y-2736180D01*
X-1527450Y-2737500D01*
X-1535170Y-2736180D01*
X-1542890Y-2729600D01*
X-1547720Y-2721700D01*
X-1548680Y-2713800D01*
X-1546750Y-2704590D01*
X-1540000Y-2698010D01*
X-1533240Y-2695370D01*
X-1524550D01*
G01X-1533240D02*
X-1539030Y-2691420D01*
X-1543860Y-2684840D01*
X-1545790Y-2676940D01*
X-1543860Y-2669040D01*
X-1539030Y-2662460D01*
X-1530350Y-2658510D01*
X-1521660Y-2659830D01*
X-1512970Y-2665090D01*
G01X-1405310Y-1062500D02*
X-1366700D01*
Y-983510D01*
X-1405310D01*
G01X-1389870Y-1021690D02*
X-1366700D01*
G01X-1442750Y-1046700D02*
X-1448540Y-1055920D01*
X-1456260Y-1061180D01*
X-1464950Y-1062500D01*
X-1472670Y-1061180D01*
X-1480390Y-1054600D01*
X-1485220Y-1046700D01*
X-1486180Y-1038800D01*
X-1484250Y-1029590D01*
X-1477500Y-1023010D01*
X-1470740Y-1020370D01*
X-1462050D01*
G01X-1470740D02*
X-1476530Y-1016420D01*
X-1481360Y-1009840D01*
X-1483290Y-1001940D01*
X-1481360Y-994040D01*
X-1476530Y-987460D01*
X-1467850Y-983510D01*
X-1459160Y-984830D01*
X-1450470Y-990090D01*
G01X-1679200Y-687500D02*
Y-608510D01*
X-1702370D01*
X-1710090Y-612460D01*
X-1715880Y-621670D01*
X-1717810Y-632210D01*
X-1715880Y-642740D01*
X-1711050Y-650640D01*
X-1702370Y-654590D01*
X-1679200D01*
G01X-1755250Y-675650D02*
X-1761040Y-682240D01*
X-1767800Y-686180D01*
X-1776480Y-687500D01*
X-1785170Y-684870D01*
X-1791930Y-679600D01*
X-1796750Y-670390D01*
X-1797720Y-659850D01*
X-1795790Y-649320D01*
X-1790960Y-642740D01*
X-1784210Y-637470D01*
X-1777450Y-636160D01*
X-1770690Y-637470D01*
X-1762010Y-642740D01*
X-1764900Y-608510D01*
X-1790960D01*
G01X-769160Y-5254590D02*
X-775910Y-5245370D01*
X-781700Y-5240110D01*
X-789430Y-5237470D01*
X-796180Y-5240110D01*
X-801010Y-5245370D01*
X-804870Y-5253270D01*
X-805830Y-5262490D01*
X-804870Y-5270390D01*
X-801010Y-5278290D01*
X-795220Y-5284870D01*
X-788460Y-5287500D01*
X-780740Y-5284870D01*
X-773980Y-5276970D01*
X-770120Y-5265120D01*
X-769160Y-5251950D01*
X-771090Y-5234840D01*
X-773980Y-5225620D01*
X-778810Y-5216410D01*
X-785560Y-5209830D01*
X-792320Y-5208510D01*
X-799080Y-5211140D01*
X-803900Y-5217730D01*
G01X-877270Y-4533510D02*
Y-4590120D01*
X-881130Y-4601970D01*
X-888850Y-4609870D01*
X-898500Y-4612500D01*
X-908160Y-4609870D01*
X-915880Y-4601970D01*
X-919740Y-4590120D01*
Y-4533510D01*
G01X-976480Y-4612500D02*
X-983240Y-4611180D01*
X-990960Y-4607240D01*
X-995790Y-4600650D01*
X-997720Y-4591440D01*
X-995790Y-4582220D01*
X-990000Y-4574320D01*
X-981310Y-4570370D01*
X-971660D01*
X-965870Y-4567740D01*
X-961040Y-4561160D01*
X-959110Y-4551940D01*
X-962010Y-4542730D01*
X-968760Y-4536140D01*
X-976480Y-4533510D01*
X-984210Y-4536140D01*
X-990960Y-4542730D01*
X-993860Y-4551940D01*
X-991930Y-4561160D01*
X-987100Y-4567740D01*
X-981310Y-4570370D01*
X-971660D01*
X-962970Y-4574320D01*
X-957180Y-4582220D01*
X-955250Y-4591440D01*
X-957180Y-4600650D01*
X-962010Y-4607240D01*
X-969730Y-4611180D01*
X-976480Y-4612500D01*
G01X-1100800Y-4475400D02*
X-1125400D01*
Y-4124600D01*
X-1100800D01*
G01X-799200D02*
X-774600D01*
Y-4475400D01*
X-799200D01*
G01X-1027710Y-3900000D02*
Y-3821010D01*
X-1051840D01*
X-1059560Y-3824960D01*
X-1064390Y-3830230D01*
X-1066320Y-3840760D01*
X-1064390Y-3851290D01*
X-1058600Y-3857870D01*
X-1051840Y-3861820D01*
X-1027710D01*
G01X-1051840D02*
X-1066320Y-3900000D01*
G01X-1136580D02*
Y-3821010D01*
X-1100860Y-3877620D01*
X-1149130D01*
G01X-1201040Y-3900000D02*
X-1202970Y-3882890D01*
X-1205870Y-3868410D01*
X-1209730Y-3855240D01*
X-1214560Y-3840760D01*
X-1222280Y-3821010D01*
X-1183670D01*
G01X-1005480Y-3775000D02*
Y-3710990D01*
X-1022520D01*
X-1027970Y-3714190D01*
X-1031380Y-3718460D01*
X-1032750Y-3726990D01*
X-1031380Y-3735530D01*
X-1027290Y-3740860D01*
X-1022520Y-3744060D01*
X-1005480D01*
G01X-1022520D02*
X-1032750Y-3775000D01*
G01X-1083170D02*
Y-3710990D01*
X-1057960Y-3756860D01*
X-1092030D01*
G01X-1119290Y-3767530D02*
X-1124060Y-3772870D01*
X-1129510Y-3775000D01*
X-1134960Y-3772870D01*
X-1139730Y-3766470D01*
X-1143140Y-3756860D01*
X-1144510Y-3747260D01*
Y-3735530D01*
X-1143140Y-3725930D01*
X-1139730Y-3717390D01*
X-1135650Y-3713120D01*
X-1130870Y-3710990D01*
X-1125420Y-3713120D01*
X-1121330Y-3717390D01*
X-1118610Y-3723790D01*
X-1117240Y-3732330D01*
X-1118610Y-3739790D01*
X-1122020Y-3747260D01*
X-1126100Y-3751530D01*
X-1130870Y-3752600D01*
X-1136330Y-3750460D01*
X-1140420Y-3745130D01*
X-1144510Y-3735530D01*
G01X-987500Y-3362490D02*
Y-3687510D01*
X-1162500D01*
Y-3362490D01*
X-987500D01*
G01X-618250Y-3502590D02*
X-612460Y-3498640D01*
X-605700Y-3496010D01*
X-597980D01*
X-589290Y-3499960D01*
X-582540Y-3506540D01*
X-577710Y-3514440D01*
X-573850Y-3527610D01*
X-572880Y-3539450D01*
X-574820Y-3551300D01*
X-577710Y-3559200D01*
X-583500Y-3567100D01*
X-590260Y-3572370D01*
X-597010Y-3575000D01*
X-603770D01*
X-610530Y-3572370D01*
X-616320Y-3568420D01*
X-621150Y-3563150D01*
G01X-653760D02*
X-659550Y-3569740D01*
X-666310Y-3573680D01*
X-674990Y-3575000D01*
X-683680Y-3572370D01*
X-690440Y-3567100D01*
X-695260Y-3557890D01*
X-696230Y-3547350D01*
X-694300Y-3536820D01*
X-689470Y-3530240D01*
X-682720Y-3524970D01*
X-675960Y-3523660D01*
X-669200Y-3524970D01*
X-660520Y-3530240D01*
X-663410Y-3496010D01*
X-689470D01*
G01X-752970D02*
X-745250Y-3498640D01*
X-739460Y-3505230D01*
X-735600Y-3513120D01*
X-732710Y-3523660D01*
X-731740Y-3535510D01*
X-732710Y-3547350D01*
X-735600Y-3557890D01*
X-739460Y-3565790D01*
X-745250Y-3572370D01*
X-752970Y-3575000D01*
X-760700Y-3572370D01*
X-766490Y-3565790D01*
X-770350Y-3557890D01*
X-773240Y-3547350D01*
X-774210Y-3535510D01*
X-773240Y-3523660D01*
X-770350Y-3513120D01*
X-766490Y-3505230D01*
X-760700Y-3498640D01*
X-752970Y-3496010D01*
G01X-812500Y-3362490D02*
Y-3687480D01*
X-987500D01*
Y-3362490D01*
X-812500D01*
G01X-767680Y-3827820D02*
X-761840Y-3823880D01*
X-755020Y-3821260D01*
X-747230D01*
X-738470Y-3825200D01*
X-731660Y-3831760D01*
X-726790Y-3839630D01*
X-722890Y-3852760D01*
X-721920Y-3864570D01*
X-723870Y-3876380D01*
X-726790Y-3884250D01*
X-732630Y-3892130D01*
X-739440Y-3897380D01*
X-746260Y-3900000D01*
X-753080D01*
X-759890Y-3897380D01*
X-765730Y-3893440D01*
X-770600Y-3888190D01*
G01X-836680Y-3900000D02*
Y-3821260D01*
X-800660Y-3877690D01*
X-849340D01*
G01X-903740Y-3900000D02*
X-910560Y-3898690D01*
X-918340Y-3894750D01*
X-923210Y-3888190D01*
X-925160Y-3879000D01*
X-923210Y-3869820D01*
X-917370Y-3861940D01*
X-908610Y-3858000D01*
X-898870D01*
X-893030Y-3855380D01*
X-888160Y-3848820D01*
X-886210Y-3839630D01*
X-889140Y-3830450D01*
X-895950Y-3823880D01*
X-903740Y-3821260D01*
X-911530Y-3823880D01*
X-918340Y-3830450D01*
X-921270Y-3839630D01*
X-919320Y-3848820D01*
X-914450Y-3855380D01*
X-908610Y-3858000D01*
X-898870D01*
X-890110Y-3861940D01*
X-884270Y-3869820D01*
X-882320Y-3879000D01*
X-884270Y-3888190D01*
X-889140Y-3894750D01*
X-896920Y-3898690D01*
X-903740Y-3900000D01*
G01X-975010Y-3912500D02*
X-649990D01*
Y-4087500D01*
X-975010D01*
Y-3912500D01*
G01X-810480Y-3260000D02*
Y-3195990D01*
X-827520D01*
X-832970Y-3199190D01*
X-836380Y-3203460D01*
X-837750Y-3211990D01*
X-836380Y-3220530D01*
X-832290Y-3225860D01*
X-827520Y-3229060D01*
X-810480D01*
G01X-827520D02*
X-837750Y-3260000D01*
G01X-865000Y-3250400D02*
X-869090Y-3255730D01*
X-873860Y-3258930D01*
X-879990Y-3260000D01*
X-886130Y-3257870D01*
X-890900Y-3253600D01*
X-894310Y-3246130D01*
X-894990Y-3237600D01*
X-893630Y-3229060D01*
X-890220Y-3223730D01*
X-885450Y-3219460D01*
X-880680Y-3218390D01*
X-875910Y-3219460D01*
X-869770Y-3223730D01*
X-871820Y-3195990D01*
X-890220D01*
G01X-922930Y-3206660D02*
X-927020Y-3200260D01*
X-931790Y-3197060D01*
X-937240Y-3195990D01*
X-944050Y-3198120D01*
X-948820Y-3203460D01*
X-950190Y-3209860D01*
X-949510Y-3216260D01*
X-946780Y-3221590D01*
X-933150Y-3232260D01*
X-927020Y-3239730D01*
X-922930Y-3250400D01*
X-921560Y-3260000D01*
X-950190D01*
G01X-643250Y-2957590D02*
X-637460Y-2953640D01*
X-630700Y-2951010D01*
X-622980D01*
X-614290Y-2954960D01*
X-607540Y-2961540D01*
X-602710Y-2969440D01*
X-598850Y-2982610D01*
X-597880Y-2994450D01*
X-599820Y-3006300D01*
X-602710Y-3014200D01*
X-608500Y-3022100D01*
X-615260Y-3027370D01*
X-622010Y-3030000D01*
X-628770D01*
X-635530Y-3027370D01*
X-641320Y-3023420D01*
X-646150Y-3018150D01*
G01X-678760D02*
X-684550Y-3024740D01*
X-691310Y-3028680D01*
X-699990Y-3030000D01*
X-708680Y-3027370D01*
X-715440Y-3022100D01*
X-720260Y-3012890D01*
X-721230Y-3002350D01*
X-719300Y-2991820D01*
X-714470Y-2985240D01*
X-707720Y-2979970D01*
X-700960Y-2978660D01*
X-694200Y-2979970D01*
X-685520Y-2985240D01*
X-688410Y-2951010D01*
X-714470D01*
G01X-759640Y-2997090D02*
X-766390Y-2987870D01*
X-772180Y-2982610D01*
X-779910Y-2979970D01*
X-786660Y-2982610D01*
X-791490Y-2987870D01*
X-795350Y-2995770D01*
X-796310Y-3004990D01*
X-795350Y-3012890D01*
X-791490Y-3020790D01*
X-785700Y-3027370D01*
X-778940Y-3030000D01*
X-771220Y-3027370D01*
X-764460Y-3019470D01*
X-760600Y-3007620D01*
X-759640Y-2994450D01*
X-761570Y-2977340D01*
X-764460Y-2968120D01*
X-769290Y-2958910D01*
X-776040Y-2952330D01*
X-782800Y-2951010D01*
X-789560Y-2953640D01*
X-794380Y-2960230D01*
G01X-1000000Y-3125010D02*
Y-2799990D01*
X-825000D01*
Y-3125010D01*
X-1000000D01*
G01X-1175000D02*
Y-2799990D01*
X-1000000D01*
Y-3125010D01*
X-1175000D01*
G01X-1193840Y-2869590D02*
X-1192090D01*
Y-3080410D01*
X-1193840D01*
G01X-1109680Y-2605180D02*
X-1113620Y-2599340D01*
X-1116240Y-2592520D01*
Y-2584730D01*
X-1112300Y-2575970D01*
X-1105740Y-2569160D01*
X-1097870Y-2564290D01*
X-1084740Y-2560390D01*
X-1072930Y-2559420D01*
X-1061120Y-2561370D01*
X-1053250Y-2564290D01*
X-1045370Y-2570130D01*
X-1040120Y-2576940D01*
X-1037500Y-2583760D01*
Y-2590580D01*
X-1040120Y-2597390D01*
X-1044060Y-2603230D01*
X-1049310Y-2608100D01*
G01Y-2641080D02*
X-1042750Y-2646920D01*
X-1038810Y-2653740D01*
X-1037500Y-2662500D01*
X-1040120Y-2671260D01*
X-1045370Y-2678080D01*
X-1054560Y-2682950D01*
X-1065060Y-2683920D01*
X-1075560Y-2681970D01*
X-1082120Y-2677100D01*
X-1087370Y-2670290D01*
X-1088680Y-2663470D01*
X-1087370Y-2656660D01*
X-1082120Y-2647900D01*
X-1116240Y-2650820D01*
Y-2677100D01*
G01X-1049310Y-2719820D02*
X-1042750Y-2725660D01*
X-1038810Y-2732480D01*
X-1037500Y-2741240D01*
X-1040120Y-2750000D01*
X-1045370Y-2756820D01*
X-1054560Y-2761690D01*
X-1065060Y-2762660D01*
X-1075560Y-2760710D01*
X-1082120Y-2755840D01*
X-1087370Y-2749030D01*
X-1088680Y-2742210D01*
X-1087370Y-2735400D01*
X-1082120Y-2726640D01*
X-1116240Y-2729560D01*
Y-2755840D01*
G01X-762490Y-462500D02*
X-769250Y-461180D01*
X-776970Y-457240D01*
X-781800Y-450650D01*
X-783730Y-441440D01*
X-781800Y-432220D01*
X-776010Y-424320D01*
X-767320Y-420370D01*
X-757670D01*
X-751880Y-417740D01*
X-747050Y-411160D01*
X-745120Y-401940D01*
X-748020Y-392730D01*
X-754770Y-386140D01*
X-762490Y-383510D01*
X-770220Y-386140D01*
X-776970Y-392730D01*
X-779870Y-401940D01*
X-777940Y-411160D01*
X-773110Y-417740D01*
X-767320Y-420370D01*
X-757670D01*
X-748980Y-424320D01*
X-743190Y-432220D01*
X-741260Y-441440D01*
X-743190Y-450650D01*
X-748020Y-457240D01*
X-755740Y-461180D01*
X-762490Y-462500D01*
G01X-471700Y-5020000D02*
Y-4941010D01*
X-494870D01*
X-502590Y-4944960D01*
X-508380Y-4954170D01*
X-510310Y-4964710D01*
X-508380Y-4975240D01*
X-503550Y-4983140D01*
X-494870Y-4987090D01*
X-471700D01*
G01X-580570Y-5020000D02*
Y-4941010D01*
X-544850Y-4997620D01*
X-593120D01*
G01X-49990Y-4125000D02*
Y-4150000D01*
X-349990D01*
X-375010Y-4125000D01*
G01X-243250Y-4415090D02*
X-237460Y-4411140D01*
X-230700Y-4408510D01*
X-222980D01*
X-214290Y-4412460D01*
X-207540Y-4419040D01*
X-202710Y-4426940D01*
X-198850Y-4440110D01*
X-197880Y-4451950D01*
X-199820Y-4463800D01*
X-202710Y-4471700D01*
X-208500Y-4479600D01*
X-215260Y-4484870D01*
X-222010Y-4487500D01*
X-228770D01*
X-235530Y-4484870D01*
X-241320Y-4480920D01*
X-246150Y-4475650D01*
G01X-311580Y-4487500D02*
Y-4408510D01*
X-275860Y-4465120D01*
X-324130D01*
G01X-376040Y-4487500D02*
X-377970Y-4470390D01*
X-380870Y-4455910D01*
X-384730Y-4442740D01*
X-389560Y-4428260D01*
X-397280Y-4408510D01*
X-358670D01*
G01X-600000Y-4165000D02*
X-200000D01*
Y-4385000D01*
X-600000D01*
Y-4165000D01*
G01X-88280Y-3808510D02*
Y-3865120D01*
X-92140Y-3876970D01*
X-99860Y-3884870D01*
X-109510Y-3887500D01*
X-119170Y-3884870D01*
X-126890Y-3876970D01*
X-130750Y-3865120D01*
Y-3808510D01*
G01X-187490Y-3887500D02*
Y-3808510D01*
X-175910Y-3824310D01*
G01Y-3887500D02*
X-199080D01*
G01X-265470Y-3808510D02*
X-257750Y-3811140D01*
X-251960Y-3817730D01*
X-248100Y-3825620D01*
X-245210Y-3836160D01*
X-244240Y-3848010D01*
X-245210Y-3859850D01*
X-248100Y-3870390D01*
X-251960Y-3878290D01*
X-257750Y-3884870D01*
X-265470Y-3887500D01*
X-273200Y-3884870D01*
X-278990Y-3878290D01*
X-282850Y-3870390D01*
X-285740Y-3859850D01*
X-286710Y-3848010D01*
X-285740Y-3836160D01*
X-282850Y-3825620D01*
X-278990Y-3817730D01*
X-273200Y-3811140D01*
X-265470Y-3808510D01*
G01X-375010Y-3950000D02*
Y-3925000D01*
X-49990D01*
Y-3950000D01*
G01X306750Y-3952590D02*
X312540Y-3948640D01*
X319300Y-3946010D01*
X327020D01*
X335710Y-3949960D01*
X342460Y-3956540D01*
X347290Y-3964440D01*
X351150Y-3977610D01*
X352120Y-3989450D01*
X350180Y-4001300D01*
X347290Y-4009200D01*
X341500Y-4017100D01*
X334740Y-4022370D01*
X327990Y-4025000D01*
X321230D01*
X314470Y-4022370D01*
X308680Y-4018420D01*
X303850Y-4013150D01*
G01X268340Y-3992090D02*
X261590Y-3982870D01*
X255800Y-3977610D01*
X248070Y-3974970D01*
X241320Y-3977610D01*
X236490Y-3982870D01*
X232630Y-3990770D01*
X231670Y-3999990D01*
X232630Y-4007890D01*
X236490Y-4015790D01*
X242280Y-4022370D01*
X249040Y-4025000D01*
X256760Y-4022370D01*
X263520Y-4014470D01*
X267380Y-4002620D01*
X268340Y-3989450D01*
X266410Y-3972340D01*
X263520Y-3963120D01*
X258690Y-3953910D01*
X251940Y-3947330D01*
X245180Y-3946010D01*
X238420Y-3948640D01*
X233600Y-3955230D01*
G01X172030Y-3946010D02*
X179750Y-3948640D01*
X185540Y-3955230D01*
X189400Y-3963120D01*
X192290Y-3973660D01*
X193260Y-3985510D01*
X192290Y-3997350D01*
X189400Y-4007890D01*
X185540Y-4015790D01*
X179750Y-4022370D01*
X172030Y-4025000D01*
X164300Y-4022370D01*
X158510Y-4015790D01*
X154650Y-4007890D01*
X151760Y-3997350D01*
X150790Y-3985510D01*
X151760Y-3973660D01*
X154650Y-3963120D01*
X158510Y-3955230D01*
X164300Y-3948640D01*
X172030Y-3946010D01*
G01X125000Y-3799990D02*
Y-4125010D01*
X-50000D01*
Y-3799990D01*
X125000D01*
G01X331750Y-2815090D02*
X337540Y-2811140D01*
X344300Y-2808510D01*
X352020D01*
X360710Y-2812460D01*
X367460Y-2819040D01*
X372290Y-2826940D01*
X376150Y-2840110D01*
X377120Y-2851950D01*
X375180Y-2863800D01*
X372290Y-2871700D01*
X366500Y-2879600D01*
X359740Y-2884870D01*
X352990Y-2887500D01*
X346230D01*
X339470Y-2884870D01*
X333680Y-2880920D01*
X328850Y-2875650D01*
G01X275010Y-2887500D02*
Y-2808510D01*
X286590Y-2824310D01*
G01Y-2887500D02*
X263420D01*
G01X197030D02*
Y-2808510D01*
X208610Y-2824310D01*
G01Y-2887500D02*
X185440D01*
G01X437510Y-2775000D02*
X112490D01*
Y-2600000D01*
X437510D01*
Y-2775000D01*
G01X319820Y-2327820D02*
X325660Y-2323880D01*
X332480Y-2321260D01*
X340270D01*
X349030Y-2325200D01*
X355840Y-2331760D01*
X360710Y-2339630D01*
X364610Y-2352760D01*
X365580Y-2364570D01*
X363630Y-2376380D01*
X360710Y-2384250D01*
X354870Y-2392130D01*
X348060Y-2397380D01*
X341240Y-2400000D01*
X334420D01*
X327610Y-2397380D01*
X321770Y-2393440D01*
X316900Y-2388190D01*
G01X262500Y-2400000D02*
Y-2321260D01*
X274180Y-2337010D01*
G01Y-2400000D02*
X250820D01*
G01X202260Y-2334380D02*
X196420Y-2326510D01*
X189600Y-2322570D01*
X181810Y-2321260D01*
X172080Y-2323880D01*
X165260Y-2330450D01*
X163310Y-2338320D01*
X164290Y-2346200D01*
X168180Y-2352760D01*
X187650Y-2365880D01*
X196420Y-2375070D01*
X202260Y-2388190D01*
X204210Y-2400000D01*
X163310D01*
G01X437510Y-2600000D02*
X112490D01*
Y-2425000D01*
X437510D01*
Y-2600000D01*
G01X323210Y-1375000D02*
Y-1296260D01*
X298870D01*
X291080Y-1300200D01*
X286210Y-1305450D01*
X284270Y-1315950D01*
X286210Y-1326440D01*
X292060Y-1333000D01*
X298870Y-1336940D01*
X323210D01*
G01X298870D02*
X284270Y-1375000D01*
G01X243500Y-1342190D02*
X236680Y-1333000D01*
X230840Y-1327760D01*
X223050Y-1325130D01*
X216240Y-1327760D01*
X211370Y-1333000D01*
X207470Y-1340880D01*
X206500Y-1350070D01*
X207470Y-1357940D01*
X211370Y-1365820D01*
X217210Y-1372380D01*
X224030Y-1375000D01*
X231820Y-1372380D01*
X238630Y-1364500D01*
X242530Y-1352690D01*
X243500Y-1339570D01*
X241550Y-1322510D01*
X238630Y-1313320D01*
X233760Y-1304130D01*
X226950Y-1297570D01*
X220130Y-1296260D01*
X213320Y-1298880D01*
X208450Y-1305450D01*
G01X146260Y-1375000D02*
X139440Y-1373690D01*
X131660Y-1369750D01*
X126790Y-1363190D01*
X124840Y-1354000D01*
X126790Y-1344820D01*
X132630Y-1336940D01*
X141390Y-1333000D01*
X151130D01*
X156970Y-1330380D01*
X161840Y-1323820D01*
X163790Y-1314630D01*
X160860Y-1305450D01*
X154050Y-1298880D01*
X146260Y-1296260D01*
X138470Y-1298880D01*
X131660Y-1305450D01*
X128730Y-1314630D01*
X130680Y-1323820D01*
X135550Y-1330380D01*
X141390Y-1333000D01*
X151130D01*
X159890Y-1336940D01*
X165730Y-1344820D01*
X167680Y-1354000D01*
X165730Y-1363190D01*
X160860Y-1369750D01*
X153080Y-1373690D01*
X146260Y-1375000D01*
G01X445720Y-1446520D02*
Y-1253480D01*
X354280D01*
Y-1446520D01*
X445720D01*
G01X545720D02*
Y-1253480D01*
X454280D01*
Y-1446520D01*
X545720D01*
G01X558300Y-750000D02*
Y-671010D01*
X534170D01*
X526450Y-674960D01*
X521620Y-680230D01*
X519690Y-690760D01*
X521620Y-701290D01*
X527410Y-707870D01*
X534170Y-711820D01*
X558300D01*
G01X534170D02*
X519690Y-750000D01*
G01X461020D02*
X454260Y-748680D01*
X446540Y-744740D01*
X441710Y-738150D01*
X439780Y-728940D01*
X441710Y-719720D01*
X447500Y-711820D01*
X456190Y-707870D01*
X465840D01*
X471630Y-705240D01*
X476460Y-698660D01*
X478390Y-689440D01*
X475490Y-680230D01*
X468740Y-673640D01*
X461020Y-671010D01*
X453290Y-673640D01*
X446540Y-680230D01*
X443640Y-689440D01*
X445570Y-698660D01*
X450400Y-705240D01*
X456190Y-707870D01*
X465840D01*
X474530Y-711820D01*
X480320Y-719720D01*
X482250Y-728940D01*
X480320Y-738150D01*
X475490Y-744740D01*
X467770Y-748680D01*
X461020Y-750000D01*
G01X700000Y-997500D02*
X300000D01*
Y-777500D01*
X700000D01*
Y-997500D01*
G01X808300Y-1375000D02*
Y-1296010D01*
X784170D01*
X776450Y-1299960D01*
X771620Y-1305230D01*
X769690Y-1315760D01*
X771620Y-1326290D01*
X777410Y-1332870D01*
X784170Y-1336820D01*
X808300D01*
G01X784170D02*
X769690Y-1375000D01*
G01X712950D02*
X711020Y-1357890D01*
X708120Y-1343410D01*
X704260Y-1330240D01*
X699430Y-1315760D01*
X691710Y-1296010D01*
X730320D01*
G01X554280Y-1253480D02*
Y-1446520D01*
X645720D01*
Y-1253480D01*
X554280D01*
G01X550000Y-1526790D02*
X471260D01*
Y-1551130D01*
X475200Y-1558920D01*
X480450Y-1563790D01*
X490950Y-1565730D01*
X501440Y-1563790D01*
X508000Y-1557940D01*
X511940Y-1551130D01*
Y-1526790D01*
G01Y-1551130D02*
X550000Y-1565730D01*
G01Y-1623050D02*
X532940Y-1625000D01*
X518510Y-1627920D01*
X505380Y-1631820D01*
X490950Y-1636680D01*
X471260Y-1644470D01*
Y-1605530D01*
G01X550000Y-1703740D02*
X471260D01*
X487010Y-1692060D01*
G01X550000D02*
Y-1715420D01*
G01X1485220Y-4679220D02*
X1475820Y-4681960D01*
X1469800Y-4686960D01*
X1465920Y-4693770D01*
X1465090Y-4703740D01*
X1468970Y-4712340D01*
X1475730Y-4716850D01*
X1483490Y-4718650D01*
X1490990Y-4717270D01*
X1509960Y-4703630D01*
X1521590Y-4698620D01*
X1535950Y-4697680D01*
X1547740Y-4699920D01*
X1533870Y-4738020D01*
G01X1451060Y-4758340D02*
X1455000Y-4751190D01*
X1462480Y-4746630D01*
X1470930Y-4744200D01*
X1481810Y-4743180D01*
X1493650Y-4744290D01*
X1505150Y-4747290D01*
X1515020Y-4751970D01*
X1522120Y-4757150D01*
X1527600Y-4763990D01*
X1528850Y-4772050D01*
X1524920Y-4779200D01*
X1517430Y-4783760D01*
X1508980Y-4786190D01*
X1498110Y-4787220D01*
X1486270Y-4786110D01*
X1474770Y-4783100D01*
X1464900Y-4778420D01*
X1457790Y-4773250D01*
X1452310Y-4766400D01*
X1451060Y-4758340D01*
G01X1452550Y-4843550D02*
X1453090Y-4835410D01*
X1457950Y-4828120D01*
X1464580Y-4822340D01*
X1474010Y-4816820D01*
X1485200Y-4812820D01*
X1496890Y-4810690D01*
X1507820Y-4810760D01*
X1516450Y-4812440D01*
X1524300Y-4816330D01*
X1528840Y-4823110D01*
X1528300Y-4831250D01*
X1523440Y-4838540D01*
X1516810Y-4844320D01*
X1507390Y-4849840D01*
X1496190Y-4853840D01*
X1484500Y-4855970D01*
X1473570Y-4855900D01*
X1464940Y-4854220D01*
X1457090Y-4850330D01*
X1452550Y-4843550D01*
G01X1473710Y-4891390D02*
X1468270Y-4899530D01*
X1466860Y-4907230D01*
X1468270Y-4914940D01*
X1474040Y-4923110D01*
X1482540Y-4927210D01*
X1490620Y-4926320D01*
X1497720Y-4922710D01*
X1502580Y-4916830D01*
X1508350Y-4894190D01*
X1514040Y-4882870D01*
X1524430Y-4872930D01*
X1534900Y-4867060D01*
X1548770Y-4905160D01*
G01X1573010Y-4939860D02*
X1485170Y-4952300D01*
G01X1578320Y-4964290D02*
X1587700Y-4965240D01*
X1594680Y-4969460D01*
X1597630Y-4977070D01*
X1595920Y-4987320D01*
X1589950Y-4998640D01*
X1582110Y-5007730D01*
X1571020Y-5017040D01*
X1560700Y-5023180D01*
X1549530Y-5026250D01*
X1541770Y-5025200D01*
X1535410Y-5021710D01*
X1532460Y-5014110D01*
X1532780Y-5006290D01*
X1536350Y-4998250D01*
X1543180Y-4990000D01*
X1551470Y-4985560D01*
X1561640Y-4983330D01*
X1569390Y-4984380D01*
X1574740Y-4988710D01*
X1577690Y-4996320D01*
X1576370Y-5004990D01*
X1571020Y-5017040D01*
G01X1616470Y-5000370D02*
X1625220Y-4999810D01*
X1632790Y-5001790D01*
X1639860Y-5007000D01*
X1644150Y-5015010D01*
X1645200Y-5023510D01*
X1642100Y-5033440D01*
X1635330Y-5041570D01*
X1626520Y-5047650D01*
X1618450Y-5048890D01*
X1609950Y-5047840D01*
X1604240Y-5043990D01*
X1600400Y-5038280D01*
X1597980Y-5028420D01*
X1575820Y-5054670D01*
X1594250Y-5073100D01*
G01X1688440Y-5033380D02*
X1614090Y-5081770D01*
G01X1748040Y-5046430D02*
X1710010Y-5039730D01*
X1696300Y-5117520D01*
X1734320Y-5124220D01*
G01X1725740Y-5083940D02*
X1702930Y-5079920D01*
G01X1801060Y-5119300D02*
X1795270Y-5123250D01*
X1788510Y-5125880D01*
X1780790D01*
X1772100Y-5121930D01*
X1765350Y-5115350D01*
X1760520Y-5107450D01*
X1756660Y-5094280D01*
X1755690Y-5082440D01*
X1757630Y-5070590D01*
X1760520Y-5062690D01*
X1766310Y-5054790D01*
X1773070Y-5049520D01*
X1779820Y-5046890D01*
X1786580D01*
X1793340Y-5049520D01*
X1799130Y-5053470D01*
X1803960Y-5058740D01*
G01X1856040Y-5084570D02*
X1857970Y-5083260D01*
Y-5080620D01*
X1856040Y-5079310D01*
X1854100Y-5080620D01*
Y-5083260D01*
X1856040Y-5084570D01*
G01X1967170Y-5050060D02*
X1965870Y-5056950D01*
X1962950Y-5063590D01*
X1957490Y-5069050D01*
X1948550Y-5072400D01*
X1939120Y-5072520D01*
X1930130Y-5070350D01*
X1918090Y-5063770D01*
X1909030Y-5056070D01*
X1902010Y-5046330D01*
X1898470Y-5038700D01*
X1896980Y-5029010D01*
X1898040Y-5020510D01*
X1900950Y-5013880D01*
X1905730Y-5009100D01*
X1912370Y-5006180D01*
X1919260Y-5004880D01*
X1926390Y-5005190D01*
G01X1948990Y-4977040D02*
X1946740Y-4982540D01*
X1947740Y-4990300D01*
X1953070Y-4998750D01*
X1960590Y-5006370D01*
X1970320Y-5010840D01*
X1980090Y-5012960D01*
X1987720Y-5011230D01*
X1992120Y-5007250D01*
X1994370Y-5001750D01*
X1993380Y-4993980D01*
X1988040Y-4985530D01*
X1979970Y-4978700D01*
X1970790Y-4973450D01*
X1961020Y-4971330D01*
X1953390Y-4973050D01*
X1948990Y-4977040D01*
G01X1979680Y-4941310D02*
X2027400Y-4963560D01*
G01X2014280Y-4957440D02*
X2021470Y-4957600D01*
X2028280Y-4955450D01*
X2033520Y-4950440D01*
X2033990Y-4943210D01*
X2031260Y-4936610D01*
X2026520Y-4931200D01*
X1991920Y-4915070D01*
G01X2026520Y-4931200D02*
X2033710Y-4931360D01*
X2040520Y-4929210D01*
X2045760Y-4924200D01*
X2046230Y-4916970D01*
X2043500Y-4910370D01*
X2037560Y-4904400D01*
X2004150Y-4888830D01*
G01X1988850Y-4852420D02*
X2066640Y-4866140D01*
G01X2054970Y-4864080D02*
X2062290Y-4860470D01*
X2067020Y-4856410D01*
X2069660Y-4849030D01*
X2069530Y-4842150D01*
X2064230Y-4834350D01*
X2055650Y-4829900D01*
X2046740Y-4827350D01*
X2037500Y-4826700D01*
X2027920Y-4827950D01*
X2021730Y-4832740D01*
X2017800Y-4839890D01*
X2017920Y-4846770D01*
X2020640Y-4854110D01*
X2025150Y-4858820D01*
G01X2020870Y-4798990D02*
X2099860D01*
G01X2069660Y-4756820D02*
X2017800Y-4765970D01*
G01X2090400Y-4753160D02*
X2092040Y-4754840D01*
X2094630Y-4754380D01*
X2095590Y-4752250D01*
X2093960Y-4750580D01*
X2091370Y-4751030D01*
X2090400Y-4753160D01*
G01X2002960Y-4705700D02*
X2052450Y-4687690D01*
G01X2043790Y-4690840D02*
X2050060Y-4692660D01*
X2054510Y-4697210D01*
X2058060Y-4703100D01*
X2057900Y-4710350D01*
X2054930Y-4717600D01*
X2048830Y-4723930D01*
X2039590Y-4729340D01*
X2029030Y-4731130D01*
X2020290Y-4730200D01*
X2013360Y-4726560D01*
X2008580Y-4721110D01*
X2007500Y-4714320D01*
X2009230Y-4707520D01*
X2012860Y-4702090D01*
G01X1869090Y-4572670D02*
X1896110Y-4498440D01*
X1873430Y-4490190D01*
X1864830Y-4491260D01*
X1858490Y-4494560D01*
X1853070Y-4503800D01*
X1851280Y-4514350D01*
X1854480Y-4522520D01*
X1859470Y-4528540D01*
X1882150Y-4536790D01*
G01X1859470Y-4528540D02*
X1832810Y-4559460D01*
G01X1797870Y-4553870D02*
X1803800Y-4553580D01*
X1810410Y-4549400D01*
X1815820Y-4541000D01*
X1819550Y-4530960D01*
X1819470Y-4520250D01*
X1817270Y-4510510D01*
X1812480Y-4504320D01*
X1807010Y-4502010D01*
X1801080Y-4502300D01*
X1794460Y-4506480D01*
X1789060Y-4514890D01*
X1786280Y-4525090D01*
X1785400Y-4535630D01*
X1787600Y-4545380D01*
X1792390Y-4551570D01*
X1797870Y-4553870D01*
G01X1765050Y-4552740D02*
X1752690Y-4474720D01*
G01X1712660Y-4481060D02*
X1725010Y-4559080D01*
G01X1718830Y-4520070D02*
X1758870Y-4513730D01*
G01X1701870Y-4554610D02*
X1696560Y-4563250D01*
X1689520Y-4569690D01*
X1682180Y-4572080D01*
X1673620Y-4570710D01*
X1666070Y-4566240D01*
X1660470Y-4558370D01*
X1659460Y-4549010D01*
X1661610Y-4540010D01*
X1668240Y-4532310D01*
X1678450Y-4526230D01*
X1683240Y-4519130D01*
X1683150Y-4509470D01*
X1678470Y-4501310D01*
X1671840Y-4496540D01*
X1664200Y-4494870D01*
X1657770Y-4496960D01*
X1652160Y-4501550D01*
X1648690Y-4509600D01*
G01X1986160Y-4674260D02*
X2031760Y-4647940D01*
G01X2020360Y-4654520D02*
X2024130Y-4647880D01*
X2025790Y-4640230D01*
X2023070Y-4632890D01*
X2018560Y-4627700D01*
X2011100Y-4625310D01*
X2001670Y-4627410D01*
X1969750Y-4645840D01*
G01X1999770Y-4564060D02*
X1943920Y-4619920D01*
G01X1990710Y-4592240D02*
X1971600Y-4573130D01*
G01X1911920Y-4589520D02*
X1913850Y-4588210D01*
Y-4585570D01*
X1911920Y-4584260D01*
X1909980Y-4585570D01*
Y-4588210D01*
X1911920Y-4589520D01*
G01X2556110Y-4372020D02*
X2569090D01*
G01X2556110Y-4373030D02*
X2569090D01*
G01X2556110D02*
X2569090D01*
G01X2556110Y-4374050D02*
X2569090D01*
G01X2556110Y-4375060D02*
X2569090D01*
G01X2556110Y-4376080D02*
X2569090D01*
G01X2556110Y-4377100D02*
X2569090D01*
G01X2556110Y-4377860D02*
X2569090D01*
G01X2556110Y-4378870D02*
X2569090D01*
G01X2556110Y-4379890D02*
X2569090D01*
G01X2556110Y-4380910D02*
X2569090D01*
G01X2556110D02*
X2569090D01*
G01X2556110Y-4381920D02*
X2569090D01*
G01X2556110Y-4382940D02*
X2569090D01*
G01X2556110Y-4383950D02*
X2569090D01*
G01X2556110Y-4384970D02*
X2569090D01*
G01X2556110Y-4385990D02*
X2569090D01*
G01X2556110Y-4387000D02*
X2569090D01*
G01X2556110Y-4388020D02*
X2569090D01*
G01X2556110D02*
X2569090D01*
G01X2556110Y-4389030D02*
X2569090D01*
G01X2556110Y-4390050D02*
X2569090D01*
G01X2556110Y-4391070D02*
X2569090D01*
G01X2556110Y-4392080D02*
X2569090D01*
G01X2556110Y-4393100D02*
X2569090D01*
G01Y-4371000D02*
Y-4393100D01*
G01X2556110Y-4371000D02*
X2569090D01*
G01X2556110Y-4393100D02*
Y-4371000D01*
G01X2569090Y-4393100D02*
X2556110D01*
G01X2435990Y-4155100D02*
X2524130D01*
G01X2435990Y-4168050D02*
X2524130D01*
G01X2435990Y-4169070D02*
X2524130D01*
G01X2435990Y-4170090D02*
X2524130D01*
G01X2435990Y-4171100D02*
X2524130D01*
G01X2435990Y-4171860D02*
X2524130D01*
G01X2435990Y-4172880D02*
X2524130D01*
G01X2435990Y-4173900D02*
X2524130D01*
G01X2435990Y-4174910D02*
X2524130D01*
G01X2435990D02*
X2524130D01*
G01X2435990Y-4175930D02*
X2524130D01*
G01X2435990Y-4176940D02*
X2524130D01*
G01X2435990Y-4177960D02*
X2524130D01*
G01X2435990Y-4178980D02*
X2524130D01*
G01X2435990Y-4179990D02*
X2524130D01*
G01X2435990Y-4181010D02*
Y-4155100D01*
G01X2524130Y-4181010D02*
X2435990D01*
G01X2524130Y-4155100D02*
Y-4181010D01*
G01X2435990Y-4155100D02*
X2524130D01*
G01X2435990Y-4155860D02*
X2524130D01*
G01X2435990Y-4156880D02*
X2524130D01*
G01X2435990Y-4157890D02*
X2524130D01*
G01X2435990Y-4158910D02*
X2524130D01*
G01X2435990Y-4159930D02*
X2524130D01*
G01X2435990Y-4160940D02*
X2524130D01*
G01X2435990D02*
X2524130D01*
G01X2435990Y-4161960D02*
X2524130D01*
G01X2435990Y-4162970D02*
X2524130D01*
G01X2435990Y-4163990D02*
X2524130D01*
G01X2435990Y-4165010D02*
X2524130D01*
G01X2435990Y-4166020D02*
X2524130D01*
G01X2435990Y-4167040D02*
X2524130D01*
G01X2435990Y-4168050D02*
X2524130D01*
G01X2389000Y-4331880D02*
X2393070D01*
G01X2383160Y-4332900D02*
X2399160D01*
G01X2380110Y-4333920D02*
X2402210D01*
G01X2378080Y-4334930D02*
X2403990D01*
G01X2376050Y-4335950D02*
X2406020D01*
G01X2375030Y-4336960D02*
X2407040D01*
G01X2373000Y-4337980D02*
X2409070D01*
G01X2371960D02*
X2410060D01*
G01X2371220Y-4339000D02*
X2411100D01*
G01X2370210Y-4340010D02*
X2412120D01*
G01X2369190Y-4341030D02*
X2413130D01*
G01X2368150Y-4342040D02*
X2414150D01*
G01X2367160Y-4343060D02*
X2415140D01*
G01X2366140Y-4344080D02*
X2416180D01*
G01X2366140Y-4345090D02*
X2416180D01*
G01X2365130D02*
X2417200D01*
G01X2364110Y-4346110D02*
X2418210D01*
G01X2364110Y-4346870D02*
X2418210D01*
G01X2363070Y-4347890D02*
X2418950D01*
G01X2363070Y-4348900D02*
X2418950D01*
G01X2362080Y-4349920D02*
X2419990D01*
G01X2394080Y-4350930D02*
X2419990D01*
G01X2362080D02*
X2387990D01*
G01X2397130Y-4351950D02*
X2421010D01*
G01X2361060D02*
X2386210D01*
G01X2398150D02*
X2421010D01*
G01X2361060D02*
X2384180D01*
G01X2400180Y-4352970D02*
X2421010D01*
G01X2361060D02*
X2382120D01*
G01X2401170Y-4353980D02*
X2422020D01*
G01X2360050D02*
X2381130D01*
G01X2402210Y-4355000D02*
X2422020D01*
G01X2360050D02*
X2381130D01*
G01X2402210Y-4356010D02*
X2422020D01*
G01X2360050D02*
X2380110D01*
G01X2402970Y-4357030D02*
X2422020D01*
G01X2360050D02*
X2379100D01*
G01X2402970Y-4358050D02*
X2423040D01*
G01X2359030D02*
X2379100D01*
G01X2403990Y-4359060D02*
X2423040D01*
G01X2359030D02*
X2378080D01*
G01X2403990D02*
X2423040D01*
G01X2359030D02*
X2378080D01*
G01X2404980Y-4360080D02*
X2423040D01*
G01X2359030D02*
X2378080D01*
G01X2404980Y-4361090D02*
X2423040D01*
G01X2359030D02*
X2377040D01*
G01X2404980Y-4361860D02*
X2423040D01*
G01X2359030D02*
X2377040D01*
G01X2404980Y-4362870D02*
X2423040D01*
G01X2359030D02*
X2377040D01*
G01X2404980Y-4363890D02*
X2423040D01*
G01X2359030D02*
X2377040D01*
G01X2404980Y-4364900D02*
X2423040D01*
G01X2359030D02*
X2377040D01*
G01X2404980Y-4365920D02*
X2423040D01*
G01X2359030D02*
X2377040D01*
G01X2404980D02*
X2423040D01*
G01X2359030D02*
X2377040D01*
G01X2404980Y-4366940D02*
X2423040D01*
G01X2359030D02*
X2377040D01*
G01X2404980Y-4367950D02*
X2423040D01*
G01X2359030D02*
X2377040D01*
G01X2404980Y-4368970D02*
X2423040D01*
G01X2359030D02*
X2378080D01*
G01X2403990Y-4369980D02*
X2423040D01*
G01X2359030D02*
X2378080D01*
G01X2403990Y-4371000D02*
X2423040D01*
G01X2359030D02*
X2378080D01*
G01X2402970Y-4372020D02*
X2423040D01*
G01X2359030D02*
X2379100D01*
G01X2402970Y-4373030D02*
X2422020D01*
G01X2360050D02*
X2379100D01*
G01X2402210D02*
X2422020D01*
G01X2360050D02*
X2380110D01*
G01X2401170Y-4374050D02*
X2422020D01*
G01X2360050D02*
X2381130D01*
G01X2401170Y-4375060D02*
X2422020D01*
G01X2360050D02*
X2382120D01*
G01X2399160Y-4376080D02*
X2421010D01*
G01X2361060D02*
X2383160D01*
G01X2398150Y-4377100D02*
X2421010D01*
G01X2361060D02*
X2384180D01*
G01X2396090Y-4377860D02*
X2421010D01*
G01X2361060D02*
X2386210D01*
G01X2393070Y-4378870D02*
X2419990D01*
G01X2362080D02*
X2389000D01*
G01X2362080Y-4379890D02*
X2419990D01*
G01X2363070Y-4380910D02*
X2418950D01*
G01X2363070D02*
X2418950D01*
G01X2364110Y-4381920D02*
X2418210D01*
G01X2364110Y-4382940D02*
X2418210D01*
G01X2365130Y-4383950D02*
X2417200D01*
G01X2366140Y-4384970D02*
X2416180D01*
G01X2366140Y-4385990D02*
X2416180D01*
G01X2367160Y-4387000D02*
X2415140D01*
G01X2368150Y-4388020D02*
X2414150D01*
G01X2369190D02*
X2413130D01*
G01X2370210Y-4389030D02*
X2412120D01*
G01X2371220Y-4390050D02*
X2411100D01*
G01X2371960Y-4391070D02*
X2410060D01*
G01X2374020Y-4392080D02*
X2409070D01*
G01X2375030Y-4393100D02*
X2407040D01*
G01X2377040Y-4393860D02*
X2404980D01*
G01X2379100Y-4394880D02*
X2403990D01*
G01X2381130D02*
X2401170D01*
G01X2384180Y-4395890D02*
X2398150D01*
G01X2405240Y-4364620D02*
G03I-14100J-1D01*
G01X2423250D02*
G03I-32110J-1D01*
G01X2556110Y-4073060D02*
Y-4022000D01*
G01X2537060D02*
X2556110D01*
G01X2537060Y-4023020D02*
X2556110D01*
G01X2537060Y-4024040D02*
X2556110D01*
G01X2537060Y-4025050D02*
X2556110D01*
G01X2537060Y-4026070D02*
X2556110D01*
G01X2537060D02*
X2556110D01*
G01X2537060Y-4027080D02*
X2556110D01*
G01X2537060Y-4028100D02*
X2556110D01*
G01X2537060Y-4028860D02*
X2556110D01*
G01X2537060Y-4029880D02*
X2556110D01*
G01X2537060Y-4030890D02*
X2556110D01*
G01X2537060Y-4031910D02*
X2556110D01*
G01X2537060Y-4032930D02*
X2556110D01*
G01X2537060D02*
X2556110D01*
G01X2537060Y-4033940D02*
X2556110D01*
G01X2537060Y-4034960D02*
X2556110D01*
G01X2537060Y-4035970D02*
X2556110D01*
G01X2537060Y-4036990D02*
X2556110D01*
G01X2537060Y-4038010D02*
X2556110D01*
G01X2537060Y-4039020D02*
X2556110D01*
G01X2537060Y-4040040D02*
X2556110D01*
G01X2537060Y-4041050D02*
X2556110D01*
G01X2537060D02*
X2556110D01*
G01X2537060Y-4042070D02*
X2556110D01*
G01X2537060Y-4043090D02*
X2556110D01*
G01X2537060Y-4044100D02*
X2556110D01*
G01X2537060Y-4044860D02*
X2556110D01*
G01X2537060Y-4045880D02*
X2556110D01*
G01X2537060Y-4046900D02*
X2556110D01*
G01X2537060Y-4047910D02*
X2556110D01*
G01X2537060D02*
X2556110D01*
G01X2537060Y-4048930D02*
X2556110D01*
G01X2537060Y-4049940D02*
X2556110D01*
G01X2537060Y-4050960D02*
X2556110D01*
G01X2537060Y-4051980D02*
X2556110D01*
G01X2537060Y-4052990D02*
X2556110D01*
G01X2537060Y-4054010D02*
X2556110D01*
G01X2537060Y-4055020D02*
X2556110D01*
G01X2537060D02*
X2556110D01*
G01X2537060Y-4056040D02*
X2556110D01*
G01X2537060Y-4057060D02*
X2556110D01*
G01X2537060Y-4058070D02*
X2556110D01*
G01X2537060Y-4059090D02*
X2556110D01*
G01X2537060Y-4060100D02*
X2556110D01*
G01X2537060Y-4060870D02*
X2556110D01*
G01X2537060Y-4061880D02*
X2556110D01*
G01X2537060D02*
X2556110D01*
G01X2537060Y-4062900D02*
X2556110D01*
G01X2537060Y-4063910D02*
X2556110D01*
G01X2537060Y-4064930D02*
X2556110D01*
G01X2537060Y-4065950D02*
X2556110D01*
G01X2537060Y-4066960D02*
X2556110D01*
G01X2537060Y-4067980D02*
X2556110D01*
G01X2537060Y-4068990D02*
X2556110D01*
G01X2537060D02*
X2556110D01*
G01X2537060Y-4070010D02*
X2556110D01*
G01X2537060Y-4071030D02*
X2556110D01*
G01X2537060Y-4072040D02*
X2556110D01*
G01X2537060Y-4073060D02*
X2556110D01*
G01X2537060Y-4022000D02*
Y-4073060D01*
G01X2556110Y-4022000D02*
X2537060D01*
G01X2374020Y-4049940D02*
X2383160D01*
G01X2371220Y-4050960D02*
X2386210D01*
G01X2368150Y-4051980D02*
X2387990D01*
G01X2367160Y-4052990D02*
X2390020D01*
G01X2365130Y-4054010D02*
X2391010D01*
G01X2364110Y-4055020D02*
X2392050D01*
G01X2363070D02*
X2394080D01*
G01X2362080Y-4056040D02*
X2394080D01*
G01X2361060Y-4057060D02*
X2395100D01*
G01X2361060Y-4058070D02*
X2396090D01*
G01X2360050Y-4059090D02*
X2397130D01*
G01X2359030Y-4060100D02*
X2397130D01*
G01X2359030Y-4060870D02*
X2398150D01*
G01X2357990Y-4061880D02*
X2398150D01*
G01X2357990D02*
X2399160D01*
G01X2357000Y-4062900D02*
X2399160D01*
G01X2357000Y-4063910D02*
X2400180D01*
G01X2357000Y-4064930D02*
X2400180D01*
G01X2355980Y-4065950D02*
X2400180D01*
G01X2355980Y-4066960D02*
X2401170D01*
G01X2355980Y-4067980D02*
X2401170D01*
G01X2355980Y-4068990D02*
X2401170D01*
G01X2355980D02*
X2401170D01*
G01X2355980Y-4070010D02*
X2401170D01*
G01X2355980Y-4071030D02*
X2401170D01*
G01X2355220Y-4072040D02*
X2401170D01*
G01X2355220Y-4073060D02*
X2401170D01*
G01X2355980Y-4074070D02*
X2401170D01*
G01X2355980Y-4075090D02*
X2401170D01*
G01X2355980Y-4076110D02*
X2401170D01*
G01X2355980D02*
X2401170D01*
G01X2355980Y-4076870D02*
X2401170D01*
G01X2355980Y-4077880D02*
X2401170D01*
G01X2355980Y-4078900D02*
X2400180D01*
G01X2357000Y-4079920D02*
X2400180D01*
G01X2357000Y-4080930D02*
X2400180D01*
G01X2357000Y-4081950D02*
X2399160D01*
G01X2357990Y-4082960D02*
X2399160D01*
G01X2357990D02*
X2398150D01*
G01X2359030Y-4083980D02*
X2398150D01*
G01X2359030Y-4085000D02*
X2397130D01*
G01X2360050Y-4086010D02*
X2397130D01*
G01X2361060Y-4087030D02*
X2396090D01*
G01X2361060Y-4088040D02*
X2395100D01*
G01X2362080Y-4089060D02*
X2395100D01*
G01X2363070Y-4090080D02*
X2394080D01*
G01X2364110D02*
X2393070D01*
G01X2365130Y-4091090D02*
X2391010D01*
G01X2367160Y-4092110D02*
X2390020D01*
G01X2368150Y-4092870D02*
X2389000D01*
G01X2370210Y-4093890D02*
X2386970D01*
G01X2373000Y-4094900D02*
X2384180D01*
G01X2401660Y-4072520D02*
G03I-23220J-1D01*
G01X2939470Y-4399540D02*
X2946050Y-4407260D01*
X2950000Y-4415940D01*
Y-4423670D01*
X2946050Y-4431390D01*
X2939470Y-4437180D01*
X2930250Y-4440070D01*
X2921040Y-4438140D01*
X2913140Y-4433320D01*
X2907870Y-4424630D01*
X2905240Y-4413050D01*
X2899970Y-4406290D01*
X2890760Y-4403400D01*
X2881540Y-4405330D01*
X2874960Y-4410150D01*
X2871010Y-4416910D01*
Y-4423670D01*
X2873640Y-4430420D01*
X2880230Y-4436210D01*
G01X2950000Y-4517090D02*
Y-4478480D01*
X2871010D01*
Y-4517090D01*
G01X2909190Y-4501650D02*
Y-4478480D01*
G01X2877590Y-4597000D02*
X2873640Y-4591210D01*
X2871010Y-4584450D01*
Y-4576730D01*
X2874960Y-4568040D01*
X2881540Y-4561290D01*
X2889440Y-4556460D01*
X2902610Y-4552600D01*
X2914450Y-4551630D01*
X2926300Y-4553570D01*
X2934200Y-4556460D01*
X2942100Y-4562250D01*
X2947370Y-4569010D01*
X2950000Y-4575760D01*
Y-4582520D01*
X2947370Y-4589280D01*
X2943420Y-4595070D01*
X2938150Y-4599900D01*
G01X2950000Y-4653740D02*
X2948680Y-4646020D01*
X2943420Y-4639270D01*
X2935520Y-4633480D01*
X2926300Y-4629610D01*
X2915770Y-4627680D01*
X2905240D01*
X2894710Y-4629610D01*
X2885490Y-4633480D01*
X2877590Y-4639270D01*
X2872330Y-4646020D01*
X2871010Y-4653740D01*
X2872330Y-4661470D01*
X2877590Y-4668220D01*
X2885490Y-4674010D01*
X2894710Y-4677880D01*
X2905240Y-4679810D01*
X2915770D01*
X2926300Y-4677880D01*
X2935520Y-4674010D01*
X2943420Y-4668220D01*
X2948680Y-4661470D01*
X2950000Y-4653740D01*
G01Y-4709530D02*
X2871010D01*
X2950000Y-4753920D01*
X2871010D01*
G01X2950000Y-4788470D02*
X2871010D01*
Y-4807770D01*
X2874960Y-4815500D01*
X2880230Y-4821290D01*
X2888120Y-4826110D01*
X2897340Y-4829970D01*
X2910510Y-4830940D01*
X2923670Y-4829970D01*
X2932890Y-4826110D01*
X2940790Y-4821290D01*
X2946050Y-4815500D01*
X2950000Y-4807770D01*
Y-4788470D01*
G01Y-4863550D02*
X2871010Y-4887680D01*
X2950000Y-4911820D01*
G01X2922350Y-4903130D02*
Y-4872240D01*
G01X2950000Y-4946360D02*
X2871010D01*
Y-4970490D01*
X2874960Y-4978210D01*
X2880230Y-4983040D01*
X2890760Y-4984970D01*
X2901290Y-4983040D01*
X2907870Y-4977250D01*
X2911820Y-4970490D01*
Y-4946360D01*
G01Y-4970490D02*
X2950000Y-4984970D01*
G01Y-5043640D02*
X2914450D01*
X2871010Y-5024340D01*
G01Y-5062950D02*
X2914450Y-5043640D01*
G01X2939470Y-5179340D02*
X2946050Y-5187060D01*
X2950000Y-5195740D01*
Y-5203470D01*
X2946050Y-5211190D01*
X2939470Y-5216980D01*
X2930250Y-5219870D01*
X2921040Y-5217940D01*
X2913140Y-5213120D01*
X2907870Y-5204430D01*
X2905240Y-5192850D01*
X2899970Y-5186090D01*
X2890760Y-5183200D01*
X2881540Y-5185130D01*
X2874960Y-5189950D01*
X2871010Y-5196710D01*
Y-5203470D01*
X2873640Y-5210220D01*
X2880230Y-5216010D01*
G01X2871010Y-5266000D02*
Y-5289170D01*
G01Y-5277580D02*
X2950000D01*
G01Y-5266000D02*
Y-5289170D01*
G01Y-5334330D02*
X2871010D01*
Y-5353630D01*
X2874960Y-5361360D01*
X2880230Y-5367150D01*
X2888120Y-5371970D01*
X2897340Y-5375830D01*
X2910510Y-5376800D01*
X2923670Y-5375830D01*
X2932890Y-5371970D01*
X2940790Y-5367150D01*
X2946050Y-5361360D01*
X2950000Y-5353630D01*
Y-5334330D01*
G01Y-5452850D02*
Y-5414240D01*
X2871010D01*
Y-5452850D01*
G01X2909190Y-5437410D02*
Y-5414240D01*
G54D14*
G01X1972980Y-4800000D02*
G03I-198049J3D01*
G01X2206910D02*
G03I-431979J3D01*
G01X2142930D02*
G03I-367999J3D01*
M02*
