G04 ================== begin FILE IDENTIFICATION RECORD ==================*
G04 Layout Name:  C:/tmp/20_059358b/worklib/02_059358b_top/physical/08-059358b.brd*
G04 Film Name:    SMT*
G04 File Format:  Gerber RS274X*
G04 File Origin:  Cadence Allegro 17.2-S053*
G04 Origin Date:  Mon Nov 09 16:28:31 2020*
G04 *
G04 Layer:  BOARD GEOMETRY/DESIGN_OUTLINE*
G04 Layer:  PIN/SOLDERMASK_TOP*
G04 Layer:  PACKAGE GEOMETRY/SOLDERMASK_TOP*
G04 Layer:  BOARD GEOMETRY/SOLDERMASK_TOP*
G04 Layer:  BOARD GEOMETRY/ROOT_NUMBER*
G04 *
G04 Offset:    (0.0991 0.0000)*
G04 Mirror:    No*
G04 Mode:      Positive*
G04 Rotation:  0*
G04 FullContactRelief:  No*
G04 UndefLineWidth:     0.2007*
G04 ================== end FILE IDENTIFICATION RECORD ====================*
%FSLAX25Y25*MOMM*%
%IR0*IPPOS*OFA0.09910B0.00000*MIA0B0*SFA1.00000B1.00000*%
%ADD20R,.8509X.8992*%
%ADD38R,.6401X1.651*%
%ADD47R,.7112X2.2606*%
%ADD44R,1.4732X.6604*%
%ADD40R,1.1938X.5334*%
%ADD14R,.6909X.6909*%
%ADD39R,1.0897X.889*%
%ADD25R,1.0414X1.143*%
%ADD33R,1.1201X1.0693*%
%ADD28R,1.3208X1.524*%
%ADD45R,2.159X1.27*%
%ADD19C,1.651*%
%ADD46C,2.2911*%
%ADD42R,1.397X1.143*%
%ADD18R,1.3208X1.2192*%
%ADD34R,1.2192X1.3208*%
%ADD17R,1.143X1.397*%
%ADD41O,.8382X.3302*%
%ADD24C,2.159*%
%ADD15R,1.0922X1.7018*%
%ADD23O,.3302X.8382*%
%ADD11C,3.429*%
%ADD10C,2.0295*%
%ADD49R,1.3716X2.1336*%
%ADD43O,.3302X.8636*%
%ADD12C,1.7805*%
%ADD36R,1.7018X1.7018*%
%ADD16O,.9652X.4064*%
%ADD37O,.9906X.3607*%
%ADD27R,.9144X.9144*%
%ADD13R,1.7805X1.7805*%
%ADD35O,.3607X.9906*%
%ADD30O,.9398X.3048*%
%ADD29R,3.7084X2.6924*%
%ADD22R,1.4478X1.7526*%
%ADD31O,.3048X.9398*%
%ADD48O,.9398X.3556*%
%ADD26C,1.8999*%
%ADD32R,.889X.8382*%
%ADD21R,.8992X.8509*%
%ADD50C,.2007*%
G75*
%LPD*%
G75*
G54D10*
X-5350000Y-5200000D03*
X2200000Y-5300000D03*
X2700000Y-550000D03*
G54D11*
X-5727000Y-5026000D03*
X-5600000Y-200000D03*
X2600000Y-5100000D03*
Y-100000D03*
G54D20*
X-4299990Y-4112500D03*
X-4450010D03*
X-4499990Y-4612500D03*
X-4650010D03*
X-3687490Y-1725000D03*
X-3837510D03*
Y-1550000D03*
X-3687490D03*
X-3950010Y-337500D03*
X-3799990D03*
X-3037490Y-2937500D03*
X-3187510D03*
X-3037490Y-2762500D03*
X-3187510D03*
X-3262510Y-1962500D03*
X-3112490D03*
X-3262510Y-1787500D03*
X-3112490D03*
X-2862510Y-2937500D03*
X-2712490D03*
X-2537510Y-2712500D03*
X-2862510Y-2762500D03*
X-2712490D03*
X-2662510Y-2537500D03*
X-2512490D03*
X-2937510Y-1962500D03*
X-2787490D03*
X-2937510Y-1787500D03*
X-2787490D03*
X-2162510Y-2387500D03*
X-2012490D03*
X-2387490Y-2712500D03*
X-2162510Y-2212500D03*
X-2012490D03*
X-1425010Y-2975000D03*
X-1274990D03*
Y-2800000D03*
X-1425010D03*
X-1395010Y-1780000D03*
X-1244990D03*
X-1400010Y-1962500D03*
X-1249990D03*
X-1087510Y-2625000D03*
X-937490D03*
X474990Y-2362500D03*
X937510Y-3525000D03*
X787490D03*
X625010Y-2362500D03*
X1000010Y-2575000D03*
X849990D03*
X1000010Y-25000D03*
X849990D03*
X1300010Y-2925000D03*
X1149990D03*
G54D21*
X-4687500Y-4125010D03*
Y-3974990D03*
Y-3787510D03*
Y-3637490D03*
X-3675000Y-2449990D03*
Y-2600010D03*
X-4062500Y-2187510D03*
Y-2037490D03*
X-3500000Y-2449990D03*
Y-2600010D03*
X-2512500Y-2362510D03*
Y-2212490D03*
X-2337500Y-2537510D03*
Y-2387490D03*
Y-2212510D03*
Y-2062490D03*
X-1537500Y-4737490D03*
Y-4887510D03*
X-1712500Y-2387490D03*
Y-2537510D03*
Y-2200010D03*
Y-2049990D03*
X-112500Y-2362510D03*
X-287500D03*
X-462500D03*
X-112500Y-2212490D03*
X-287500D03*
X-462500D03*
X462500Y-2037490D03*
Y-2187510D03*
X575000Y-3212490D03*
Y-3362510D03*
X637500Y-2037490D03*
Y-2187510D03*
X1387500Y-2387490D03*
Y-2537510D03*
X1200000Y-2212510D03*
Y-2062490D03*
X1875000Y-1237510D03*
Y-1087490D03*
X2362500Y-937510D03*
Y-787490D03*
G54D30*
X-3282500Y-2462500D03*
Y-2412500D03*
Y-2362500D03*
Y-2312500D03*
Y-2262500D03*
Y-2212500D03*
X-2792500Y-2412500D03*
Y-2462500D03*
Y-2212500D03*
Y-2262500D03*
Y-2312500D03*
Y-2362500D03*
G54D12*
X-5775000Y-2471000D03*
Y-1963000D03*
Y-2217000D03*
X-5795000Y-954000D03*
X-5541000D03*
X-5287000D03*
X-5795000Y-700000D03*
X-5541000D03*
X-5287000D03*
X-5033000Y-954000D03*
X-4779000D03*
X-5033000Y-700000D03*
X-4779000D03*
X-4525000Y-954000D03*
X-4045000D03*
X-3791000D03*
X-3537000D03*
X-4045000Y-700000D03*
X-3791000D03*
X-3537000D03*
X-3283000Y-954000D03*
X-3029000D03*
X-3283000Y-700000D03*
X-3029000D03*
X-2775000Y-954000D03*
X600000Y-2646000D03*
X2512500Y-3550000D03*
X2800000Y-1791500D03*
G54D31*
X-3062500Y-2532500D03*
X-3112500D03*
X-3162500D03*
X-3212500D03*
Y-2142500D03*
X-3162500D03*
X-3112500D03*
X-3062500D03*
X-2862500Y-2532500D03*
X-2912500D03*
X-2962500D03*
X-3012500D03*
Y-2142500D03*
X-2962500D03*
X-2912500D03*
X-2862500D03*
G54D22*
X-4450000Y-3787500D03*
G54D13*
X-5775000Y-2725000D03*
X-4525000Y-700000D03*
X-2775000D03*
X600000Y-2900000D03*
X2800000Y-1537500D03*
G54D40*
X745000Y-3360010D03*
Y-3295010D03*
Y-3229990D03*
Y-3164990D03*
X1005000D03*
Y-3229990D03*
Y-3295010D03*
Y-3360010D03*
G54D50*
G01X-6000000Y-5500000D02*
X3000000D01*
Y300000D01*
X-6000000D01*
Y-5500000D01*
G01X-5453680Y-7458000D02*
X-5580350D01*
Y-7204000D01*
X-5453680D01*
G01X-5504350Y-7326760D02*
X-5580350D01*
G01X-5342180Y-7204000D02*
X-5263020Y-7458000D01*
X-5183850Y-7204000D01*
G01X-5088180Y-7458000D02*
X-5009020Y-7204000D01*
X-4929850Y-7458000D01*
G01X-4958350Y-7369100D02*
X-5059680D01*
G01X-4818350Y-7204000D02*
Y-7458000D01*
X-4691680D01*
G01X-4542180Y-7373340D02*
X-4459850D01*
G01X-4177350Y-7225170D02*
X-4196350Y-7212460D01*
X-4218510Y-7204000D01*
X-4243850D01*
X-4272350Y-7216710D01*
X-4294510Y-7237870D01*
X-4310350Y-7263270D01*
X-4323020Y-7305600D01*
X-4326180Y-7343700D01*
X-4319840Y-7381800D01*
X-4310350Y-7407200D01*
X-4291350Y-7432610D01*
X-4269180Y-7449540D01*
X-4247020Y-7458000D01*
X-4224850D01*
X-4202680Y-7449540D01*
X-4183680Y-7436840D01*
X-4167850Y-7419910D01*
G01X-4065840Y-7458000D02*
Y-7204000D01*
X-3920190Y-7458000D01*
Y-7204000D01*
G01X-3739020D02*
X-3764350Y-7212460D01*
X-3783350Y-7233630D01*
X-3796010Y-7259030D01*
X-3805510Y-7292900D01*
X-3808680Y-7331000D01*
X-3805510Y-7369100D01*
X-3796010Y-7402970D01*
X-3783350Y-7428370D01*
X-3764350Y-7449540D01*
X-3739020Y-7458000D01*
X-3713690Y-7449540D01*
X-3694680Y-7428370D01*
X-3682020Y-7402970D01*
X-3672520Y-7369100D01*
X-3669350Y-7331000D01*
X-3672520Y-7292900D01*
X-3682020Y-7259030D01*
X-3694680Y-7233630D01*
X-3713690Y-7212460D01*
X-3739020Y-7204000D01*
G01X-3554680Y-7419910D02*
X-3535680Y-7441070D01*
X-3513520Y-7453770D01*
X-3485020Y-7458000D01*
X-3456510Y-7449540D01*
X-3434350Y-7432610D01*
X-3418520Y-7402970D01*
X-3415350Y-7369100D01*
X-3421680Y-7335240D01*
X-3437520Y-7314070D01*
X-3459690Y-7297140D01*
X-3481850Y-7292900D01*
X-3504010Y-7297140D01*
X-3532510Y-7314070D01*
X-3523010Y-7204000D01*
X-3437520D01*
G01X-3193020Y-7458000D02*
Y-7204000D01*
X-3310180Y-7386030D01*
X-3151850D01*
G01X-2977020Y-7204000D02*
X-3002350Y-7212460D01*
X-3021350Y-7233630D01*
X-3034010Y-7259030D01*
X-3043510Y-7292900D01*
X-3046680Y-7331000D01*
X-3043510Y-7369100D01*
X-3034010Y-7402970D01*
X-3021350Y-7428370D01*
X-3002350Y-7449540D01*
X-2977020Y-7458000D01*
X-2951690Y-7449540D01*
X-2932680Y-7428370D01*
X-2920020Y-7402970D01*
X-2910520Y-7369100D01*
X-2907350Y-7331000D01*
X-2910520Y-7292900D01*
X-2920020Y-7259030D01*
X-2932680Y-7233630D01*
X-2951690Y-7212460D01*
X-2977020Y-7204000D01*
G01X-2764180Y-7373340D02*
X-2681850D01*
G01X-2548180Y-7458000D02*
X-2469020Y-7204000D01*
X-2389850Y-7458000D01*
G01X-2418350Y-7369100D02*
X-2519680D01*
G01X-2278350Y-7458000D02*
Y-7204000D01*
X-2199180D01*
X-2173850Y-7216710D01*
X-2158020Y-7233630D01*
X-2151680Y-7267500D01*
X-2158020Y-7301370D01*
X-2177020Y-7322530D01*
X-2199180Y-7335240D01*
X-2278350D01*
G01X-2199180D02*
X-2151680Y-7458000D01*
G01X-2030680D02*
Y-7204000D01*
X-1967350D01*
X-1942020Y-7216710D01*
X-1923020Y-7233630D01*
X-1907180Y-7259030D01*
X-1894520Y-7288670D01*
X-1891350Y-7331000D01*
X-1894520Y-7373340D01*
X-1907180Y-7402970D01*
X-1923020Y-7428370D01*
X-1942020Y-7445300D01*
X-1967350Y-7458000D01*
X-2030680D01*
G01X-1767180Y-7204000D02*
X-1646850D01*
X-1767180Y-7458000D01*
X-1646850D01*
G01X-1262350D02*
Y-7204000D01*
X-1183180D01*
X-1157850Y-7216710D01*
X-1142020Y-7233630D01*
X-1135680Y-7267500D01*
X-1142020Y-7301370D01*
X-1161020Y-7322530D01*
X-1183180Y-7335240D01*
X-1262350D01*
G01X-1183180D02*
X-1135680Y-7458000D01*
G01X-881680D02*
X-1008350D01*
Y-7204000D01*
X-881680D01*
G01X-932350Y-7326760D02*
X-1008350D01*
G01X-770180Y-7204000D02*
X-691020Y-7458000D01*
X-611850Y-7204000D01*
G01X-478180Y-7373340D02*
X-395850D01*
G01X-157690Y-7322530D02*
X-145020Y-7309830D01*
X-135520Y-7288670D01*
X-129180Y-7259030D01*
X-135520Y-7233630D01*
X-148180Y-7216710D01*
X-170350Y-7204000D01*
X-255840D01*
Y-7458000D01*
X-151350D01*
X-129180Y-7441070D01*
X-116520Y-7415670D01*
X-110190Y-7386030D01*
X-116520Y-7356410D01*
X-135520Y-7331000D01*
X-157690Y-7322530D01*
X-255840D01*
G01X-5075510Y-6408140D02*
X-5050180Y-6429300D01*
X-5021680Y-6442000D01*
X-4996350D01*
X-4971020Y-6429300D01*
X-4952020Y-6408140D01*
X-4942520Y-6378500D01*
X-4948850Y-6348870D01*
X-4964680Y-6323470D01*
X-4993180Y-6306530D01*
X-5031180Y-6298070D01*
X-5053350Y-6281140D01*
X-5062850Y-6251500D01*
X-5056510Y-6221870D01*
X-5040680Y-6200710D01*
X-5018520Y-6188000D01*
X-4996350D01*
X-4974180Y-6196460D01*
X-4955180Y-6217630D01*
G01X-4755020Y-6442000D02*
X-4780350Y-6437770D01*
X-4802510Y-6420840D01*
X-4821510Y-6395440D01*
X-4834180Y-6365800D01*
X-4840510Y-6331930D01*
Y-6298070D01*
X-4834180Y-6264200D01*
X-4821510Y-6234560D01*
X-4802510Y-6209170D01*
X-4780350Y-6192230D01*
X-4755020Y-6188000D01*
X-4729690Y-6192230D01*
X-4707520Y-6209170D01*
X-4688520Y-6234560D01*
X-4675850Y-6264200D01*
X-4669520Y-6298070D01*
Y-6331930D01*
X-4675850Y-6365800D01*
X-4688520Y-6395440D01*
X-4707520Y-6420840D01*
X-4729690Y-6437770D01*
X-4755020Y-6442000D01*
G01X-4564350Y-6188000D02*
Y-6442000D01*
X-4437680D01*
G01X-4316680D02*
Y-6188000D01*
X-4253350D01*
X-4228020Y-6200710D01*
X-4209020Y-6217630D01*
X-4193180Y-6243030D01*
X-4180520Y-6272670D01*
X-4177350Y-6315000D01*
X-4180520Y-6357340D01*
X-4193180Y-6386970D01*
X-4209020Y-6412370D01*
X-4228020Y-6429300D01*
X-4253350Y-6442000D01*
X-4316680D01*
G01X-3929680D02*
X-4056350D01*
Y-6188000D01*
X-3929680D01*
G01X-3980350Y-6310760D02*
X-4056350D01*
G01X-3802350Y-6442000D02*
Y-6188000D01*
X-3723180D01*
X-3697850Y-6200710D01*
X-3682020Y-6217630D01*
X-3675680Y-6251500D01*
X-3682020Y-6285370D01*
X-3701020Y-6306530D01*
X-3723180Y-6319240D01*
X-3802350D01*
G01X-3723180D02*
X-3675680Y-6442000D01*
G01X-3567350D02*
Y-6188000D01*
X-3485020Y-6399670D01*
X-3402680Y-6188000D01*
Y-6442000D01*
G01X-3310180D02*
X-3231020Y-6188000D01*
X-3151850Y-6442000D01*
G01X-3180350Y-6353100D02*
X-3281680D01*
G01X-3043510Y-6408140D02*
X-3018180Y-6429300D01*
X-2989680Y-6442000D01*
X-2964350D01*
X-2939020Y-6429300D01*
X-2920020Y-6408140D01*
X-2910520Y-6378500D01*
X-2916850Y-6348870D01*
X-2932680Y-6323470D01*
X-2961180Y-6306530D01*
X-2999180Y-6298070D01*
X-3021350Y-6281140D01*
X-3030850Y-6251500D01*
X-3024510Y-6221870D01*
X-3008680Y-6200710D01*
X-2986520Y-6188000D01*
X-2964350D01*
X-2942180Y-6196460D01*
X-2923180Y-6217630D01*
G01X-2792680Y-6442000D02*
Y-6188000D01*
G01X-2672350D02*
X-2792680Y-6344640D01*
G01X-2653350Y-6442000D02*
X-2738850Y-6272670D01*
G01X-2278350Y-6442000D02*
Y-6188000D01*
X-2202350D01*
X-2177020Y-6200710D01*
X-2158020Y-6230330D01*
X-2151680Y-6264200D01*
X-2158020Y-6298070D01*
X-2173850Y-6323470D01*
X-2202350Y-6336170D01*
X-2278350D01*
G01X-2024350Y-6442000D02*
Y-6188000D01*
X-1945180D01*
X-1919850Y-6200710D01*
X-1904020Y-6217630D01*
X-1897680Y-6251500D01*
X-1904020Y-6285370D01*
X-1923020Y-6306530D01*
X-1945180Y-6319240D01*
X-2024350D01*
G01X-1945180D02*
X-1897680Y-6442000D01*
G01X-1745010Y-6188000D02*
X-1669020D01*
G01X-1707020D02*
Y-6442000D01*
G01X-1745010D02*
X-1669020D01*
G01X-1535350D02*
Y-6188000D01*
X-1453020Y-6399670D01*
X-1370680Y-6188000D01*
Y-6442000D01*
G01X-1278180D02*
X-1199020Y-6188000D01*
X-1119850Y-6442000D01*
G01X-1148350Y-6353100D02*
X-1249680D01*
G01X-1008350Y-6442000D02*
Y-6188000D01*
X-929180D01*
X-903850Y-6200710D01*
X-888020Y-6217630D01*
X-881680Y-6251500D01*
X-888020Y-6285370D01*
X-907020Y-6306530D01*
X-929180Y-6319240D01*
X-1008350D01*
G01X-929180D02*
X-881680Y-6442000D01*
G01X-691020D02*
Y-6327700D01*
X-754350Y-6188000D01*
G01X-627680D02*
X-691020Y-6327700D01*
G01X-4247020Y-6696000D02*
X-4272350Y-6704460D01*
X-4291350Y-6725630D01*
X-4304010Y-6751030D01*
X-4313510Y-6784900D01*
X-4316680Y-6823000D01*
X-4313510Y-6861100D01*
X-4304010Y-6894970D01*
X-4291350Y-6920370D01*
X-4272350Y-6941540D01*
X-4247020Y-6950000D01*
X-4221690Y-6941540D01*
X-4202680Y-6920370D01*
X-4190020Y-6894970D01*
X-4180520Y-6861100D01*
X-4177350Y-6823000D01*
X-4180520Y-6784900D01*
X-4190020Y-6751030D01*
X-4202680Y-6725630D01*
X-4221690Y-6704460D01*
X-4247020Y-6696000D01*
G01X-3993020Y-6950000D02*
X-3970850Y-6945770D01*
X-3945520Y-6933070D01*
X-3929680Y-6911910D01*
X-3923350Y-6882270D01*
X-3929680Y-6852640D01*
X-3948680Y-6827240D01*
X-3977180Y-6814530D01*
X-4008850D01*
X-4027850Y-6806070D01*
X-4043680Y-6784900D01*
X-4050010Y-6755270D01*
X-4040510Y-6725630D01*
X-4018350Y-6704460D01*
X-3993020Y-6696000D01*
X-3967690Y-6704460D01*
X-3945520Y-6725630D01*
X-3936020Y-6755270D01*
X-3942350Y-6784900D01*
X-3958180Y-6806070D01*
X-3977180Y-6814530D01*
X-4008850D01*
X-4037350Y-6827240D01*
X-4056350Y-6852640D01*
X-4062680Y-6882270D01*
X-4056350Y-6911910D01*
X-4040510Y-6933070D01*
X-4015180Y-6945770D01*
X-3993020Y-6950000D01*
G01X-3780180Y-6865340D02*
X-3697850D01*
G01X-2002180D02*
X-1919850D01*
G01X-1707020Y-6696000D02*
X-1732350Y-6704460D01*
X-1751350Y-6725630D01*
X-1764010Y-6751030D01*
X-1773510Y-6784900D01*
X-1776680Y-6823000D01*
X-1773510Y-6861100D01*
X-1764010Y-6894970D01*
X-1751350Y-6920370D01*
X-1732350Y-6941540D01*
X-1707020Y-6950000D01*
X-1681690Y-6941540D01*
X-1662680Y-6920370D01*
X-1650020Y-6894970D01*
X-1640520Y-6861100D01*
X-1637350Y-6823000D01*
X-1640520Y-6784900D01*
X-1650020Y-6751030D01*
X-1662680Y-6725630D01*
X-1681690Y-6704460D01*
X-1707020Y-6696000D01*
G01X-1415020Y-6950000D02*
Y-6696000D01*
X-1532180Y-6878030D01*
X-1373850D01*
G01X-3485020Y-6696000D02*
X-3510350Y-6704460D01*
X-3529350Y-6725630D01*
X-3542010Y-6751030D01*
X-3551510Y-6784900D01*
X-3554680Y-6823000D01*
X-3551510Y-6861100D01*
X-3542010Y-6894970D01*
X-3529350Y-6920370D01*
X-3510350Y-6941540D01*
X-3485020Y-6950000D01*
X-3459690Y-6941540D01*
X-3440680Y-6920370D01*
X-3428020Y-6894970D01*
X-3418520Y-6861100D01*
X-3415350Y-6823000D01*
X-3418520Y-6784900D01*
X-3428020Y-6751030D01*
X-3440680Y-6725630D01*
X-3459690Y-6704460D01*
X-3485020Y-6696000D01*
G01X-3300680Y-6911910D02*
X-3281680Y-6933070D01*
X-3259520Y-6945770D01*
X-3231020Y-6950000D01*
X-3202510Y-6941540D01*
X-3180350Y-6924610D01*
X-3164520Y-6894970D01*
X-3161350Y-6861100D01*
X-3167680Y-6827240D01*
X-3183520Y-6806070D01*
X-3205690Y-6789140D01*
X-3227850Y-6784900D01*
X-3250010Y-6789140D01*
X-3278510Y-6806070D01*
X-3269010Y-6696000D01*
X-3183520D01*
G01X-3030850Y-6920370D02*
X-3008680Y-6941540D01*
X-2983350Y-6950000D01*
X-2958020Y-6941540D01*
X-2935850Y-6916140D01*
X-2920020Y-6878030D01*
X-2913680Y-6839930D01*
Y-6793370D01*
X-2920020Y-6755270D01*
X-2935850Y-6721400D01*
X-2954850Y-6704460D01*
X-2977020Y-6696000D01*
X-3002350Y-6704460D01*
X-3021350Y-6721400D01*
X-3034010Y-6746800D01*
X-3040350Y-6780670D01*
X-3034010Y-6810300D01*
X-3018180Y-6839930D01*
X-2999180Y-6856870D01*
X-2977020Y-6861100D01*
X-2951690Y-6852640D01*
X-2932680Y-6831470D01*
X-2913680Y-6793370D01*
G01X-2792680Y-6899200D02*
X-2773680Y-6928840D01*
X-2748350Y-6945770D01*
X-2719850Y-6950000D01*
X-2694510Y-6945770D01*
X-2669180Y-6924610D01*
X-2653350Y-6899200D01*
X-2650190Y-6873800D01*
X-2656520Y-6844170D01*
X-2678680Y-6823000D01*
X-2700850Y-6814530D01*
X-2729350D01*
G01X-2700850D02*
X-2681850Y-6801830D01*
X-2666020Y-6780670D01*
X-2659680Y-6755270D01*
X-2666020Y-6729870D01*
X-2681850Y-6708710D01*
X-2710350Y-6696000D01*
X-2738850Y-6700230D01*
X-2767350Y-6717170D01*
G01X-2538680Y-6911910D02*
X-2519680Y-6933070D01*
X-2497520Y-6945770D01*
X-2469020Y-6950000D01*
X-2440510Y-6941540D01*
X-2418350Y-6924610D01*
X-2402520Y-6894970D01*
X-2399350Y-6861100D01*
X-2405680Y-6827240D01*
X-2421520Y-6806070D01*
X-2443690Y-6789140D01*
X-2465850Y-6784900D01*
X-2488010Y-6789140D01*
X-2516510Y-6806070D01*
X-2507010Y-6696000D01*
X-2421520D01*
G01X-2215020Y-6950000D02*
X-2192850Y-6945770D01*
X-2167520Y-6933070D01*
X-2151680Y-6911910D01*
X-2145350Y-6882270D01*
X-2151680Y-6852640D01*
X-2170680Y-6827240D01*
X-2199180Y-6814530D01*
X-2230850D01*
X-2249850Y-6806070D01*
X-2265680Y-6784900D01*
X-2272010Y-6755270D01*
X-2262510Y-6725630D01*
X-2240350Y-6704460D01*
X-2215020Y-6696000D01*
X-2189690Y-6704460D01*
X-2167520Y-6725630D01*
X-2158020Y-6755270D01*
X-2164350Y-6784900D01*
X-2180180Y-6806070D01*
X-2199180Y-6814530D01*
X-2230850D01*
X-2259350Y-6827240D01*
X-2278350Y-6852640D01*
X-2284680Y-6882270D01*
X-2278350Y-6911910D01*
X-2262510Y-6933070D01*
X-2237180Y-6945770D01*
X-2215020Y-6950000D01*
G54D32*
X-2545610Y-1201950D03*
Y-1523050D03*
X-2379390D03*
Y-1201950D03*
G54D23*
X-4500000Y-3648170D03*
X-4450000D03*
X-4400000D03*
Y-3926830D03*
X-4450000D03*
X-4500000D03*
G54D41*
X835670Y-2387500D03*
X1014330D03*
X835670Y-2337500D03*
Y-2287500D03*
Y-2237500D03*
Y-2187500D03*
X1014330D03*
Y-2237500D03*
Y-2287500D03*
Y-2337500D03*
G54D14*
X-5212500Y-4838300D03*
Y-4736700D03*
Y-4536700D03*
Y-4638300D03*
X-4162500Y-4175800D03*
X-4450000Y-4363300D03*
Y-4261700D03*
X-4250000Y-3861700D03*
Y-3963300D03*
X-4162500Y-4074200D03*
X-1888300Y-1287500D03*
Y-1137500D03*
X-1786700Y-1287500D03*
X-1663300D03*
X-1561700D03*
X-1663300Y-1137500D03*
X-1561700D03*
X-1786700D03*
X-813300Y-2337500D03*
X-711700D03*
X-813300Y-2437500D03*
X-711700D03*
X-912500Y-2438300D03*
Y-2336700D03*
X-813300Y-2237500D03*
X-711700D03*
X-813300Y-2137500D03*
X-711700D03*
X-912500Y-2136700D03*
Y-2238300D03*
X-425800Y-2512500D03*
X-324200D03*
X-425800Y-2075000D03*
X-324200D03*
X236700Y-2362500D03*
X338300D03*
X36700D03*
X138300D03*
X36700Y-2250000D03*
X138300D03*
X1010000Y-2929200D03*
Y-3030800D03*
X910000Y-2929200D03*
Y-3030800D03*
X810000Y-2929200D03*
Y-3030800D03*
X938300Y-2037500D03*
X836700D03*
X938300Y-1937500D03*
X836700D03*
X911700Y-1325000D03*
X1013300D03*
X911700Y-1212500D03*
X1013300D03*
Y-1437500D03*
X911700D03*
X975800Y125000D03*
X874200D03*
X1912500Y-774200D03*
Y-875800D03*
X1812500D03*
Y-774200D03*
X2611700Y-912500D03*
X2713300D03*
G54D15*
X-4912500Y-4612500D03*
G54D24*
X-4392490Y-3004990D03*
Y-2495010D03*
X-3882510Y-3004990D03*
Y-2495010D03*
X-654990Y-3292490D03*
Y-2782510D03*
X-145010Y-3292490D03*
Y-2782510D03*
X-57510Y-1817490D03*
X-567490D03*
X-57510Y-1307510D03*
X-567490D03*
X2412500Y-2387500D03*
G54D42*
X1487500Y-1500000D03*
Y-1300000D03*
G54D33*
X-2137500Y-3019990D03*
Y-3180010D03*
G54D16*
X-5020680Y-4547500D03*
Y-4612500D03*
Y-4677500D03*
X-4804320D03*
Y-4612500D03*
Y-4547500D03*
G54D43*
X1287500Y-1313600D03*
X1237500D03*
X1187500D03*
Y-1136400D03*
X1237500D03*
X1287500D03*
G54D34*
X-2195180Y-1787500D03*
X-2025000D03*
X-1854820D03*
X-182680Y-4087500D03*
Y-4400000D03*
Y-3787500D03*
X157680Y-4087500D03*
X-12500D03*
X157680Y-4400000D03*
X-12500D03*
X157680Y-3787500D03*
X-12500D03*
G54D25*
X-4364280Y-3450000D03*
X-4535720D03*
G54D26*
X-4137500Y-2750000D03*
X-400000Y-3037500D03*
X-312500Y-1562500D03*
G54D35*
X-1300000Y-2437500D03*
Y-2137500D03*
X-1250000Y-2437500D03*
X-1150000D03*
X-1200000D03*
X-1150000Y-2137500D03*
X-1250000D03*
X-1200000D03*
G54D17*
X-5212500Y-4375000D03*
X-5012500D03*
X-4812500D03*
X-4612500D03*
X-4000000Y-4450000D03*
X-3800000D03*
X1300000Y-937500D03*
X1100000D03*
G54D44*
X1237500Y-1225000D03*
G54D27*
X-3603740Y-4450000D03*
X-3446260D03*
G54D36*
X-1225000Y-2287500D03*
G54D18*
X-5075000Y-2907680D03*
Y-2737500D03*
Y-2567320D03*
G54D45*
X1537500Y-939900D03*
Y-635100D03*
G54D37*
X-1375000Y-2362500D03*
Y-2312500D03*
Y-2262500D03*
Y-2212500D03*
X-1075000D03*
Y-2262500D03*
Y-2362500D03*
Y-2312500D03*
G54D46*
X2158500Y-2641500D03*
Y-2133500D03*
X2666500Y-2641500D03*
Y-2133500D03*
G54D19*
X-4812500Y-2362500D03*
X-4800000Y-2050000D03*
X-3850000Y-4125000D03*
Y-3800000D03*
Y-3475000D03*
X-3525000Y-4125000D03*
Y-3800000D03*
Y-3475000D03*
X-2137500Y-2787500D03*
X-1750000Y-3075000D03*
X-1275000Y-700000D03*
X-925000D03*
X-187500Y-4675000D03*
X-225000Y-700000D03*
X-575000D03*
X625000Y-4125000D03*
X962500Y-4450000D03*
X625000D03*
Y-3800000D03*
X962500D03*
G54D28*
X-3680000Y-2027490D03*
X-3870000Y-2247510D03*
X-3680000D03*
X-3870000Y-2027490D03*
G54D29*
X-3037500Y-2337500D03*
G54D47*
X2112500Y-962500D03*
G54D38*
X282500Y-2867000D03*
X187500D03*
X92500D03*
Y-2633000D03*
X282500D03*
G54D48*
X2017500Y-1037500D03*
Y-987500D03*
Y-937500D03*
Y-887500D03*
X2207500D03*
Y-937500D03*
Y-987500D03*
Y-1037500D03*
G54D39*
X57490Y-887500D03*
X217510D03*
X1617510Y-125000D03*
X1457490D03*
X1617510Y125000D03*
X1457490D03*
G54D49*
X2360270Y-1175000D03*
X2614730D03*
M02*
